<svg width="217" height="89" viewBox="0 0 217 89" fill="none" xmlns="http://www.w3.org/2000/svg"><path d="M20.228 73.588a6.766 6.766 0 01-.105 3.478c-.245.598.28.2.28.2 3.256-3.468-.84-7.544-1.027-7.567 0 1.23-.245 2.448-.7 3.584-.946 2.108.385 4.486.805 4.03.875-.961.758-3.725.758-3.725m-3.664-8.809a9.22 9.22 0 01-1.272 3.186c-1.237 1.78-.338 4.229.117 3.877.968-.726 1.272-3.315 1.272-3.315a6.254 6.254 0 01-.7 3.186c-.327.516.221.235.221.235 3.606-2.612.525-7.122.362-7.18M12.97 66.77c3.583-2.483.665-6.969.502-7.028a9.347 9.347 0 01-1.307 3.105c-1.249 1.71-.409 4.052.046 3.724.97-.69 1.307-3.15 1.307-3.15a6.301 6.301 0 01-.746 3.115c-.339.492.21.234.21.234m-2.708-6.664c3.898-1.629 1.984-6.478 1.844-6.583a8.86 8.86 0 01-1.844 2.682c-1.517 1.37-1.213 3.807-.723 3.584 1.05-.456 1.89-2.752 1.89-2.752a5.98 5.98 0 01-1.318 2.8c-.42.397.151.269.151.269zm-1.82-6.103c-.444.375.14.281.14.281 3.98-1.406 2.334-6.36 2.194-6.466a8.696 8.696 0 01-1.984 2.577c-1.587 1.289-1.424 3.725-.91 3.538 1.073-.399 2.03-2.648 2.03-2.648a5.889 5.889 0 01-1.47 2.73m-1.576-5.693c-.455.328.117.27.117.27 3.944-1.066 2.707-5.974 2.58-6.091a8.34 8.34 0 01-2.102 2.33C5.84 45.956 5.84 48.334 6.34 48.193c1.062-.304 2.148-2.413 2.148-2.413a5.81 5.81 0 01-1.61 2.53m-.934-7.075c-.49.246.07.282.07.282 3.98-.375 3.56-5.342 3.454-5.47a8.3 8.3 0 01-2.404 1.92c-1.75.82-2.136 3.116-1.622 3.058 1.085-.117 2.462-1.98 2.462-1.98a5.502 5.502 0 01-1.96 2.179m.233-5.787c-.49.235.07.282.07.282 3.933-.34 3.56-5.236 3.454-5.365a8.096 8.096 0 01-2.392 1.874c-1.739.796-2.136 3.057-1.622 3.01 1.074-.105 2.45-1.932 2.45-1.932a5.353 5.353 0 01-1.948 2.131m-.572-5.95c1.062.023 2.602-1.581 2.602-1.581a5.326 5.326 0 01-2.135 1.839c-.502.175.023.28.023.28 3.875.141 4.061-4.673 3.98-4.813a7.63 7.63 0 01-2.545 1.534c-1.785.562-2.427 2.73-1.925 2.73m1.809-6.642c-.525.082-.024.281-.024.281 3.782.843 4.808-3.865 4.75-4.018a7.556 7.556 0 01-2.766 1.043c-1.855.234-2.859 2.237-2.369 2.342 1.039.223 2.836-1.089 2.836-1.089a5.244 5.244 0 01-2.427 1.43m2.147-6.092c.887.188 2.427-.925 2.427-.925a4.52 4.52 0 01-2.077 1.218c-.443.07-.023.246-.023.246 3.232.726 4.108-3.303 4.061-3.432a6.417 6.417 0 01-2.369.902c-1.587.2-2.44 1.92-2.03 2.003m2.532-4.603c-.479.058-.024.257-.024.257 3.431.914 4.517-3.35 4.47-3.49a7.096 7.096 0 01-2.556.855c-1.704.152-2.684 1.944-2.24 2.05.945.234 2.625-.89 2.625-.89a4.814 4.814 0 01-2.264 1.218m6.524-8.586c-.105-.094-4.12-.422-4.4 2.975 0 0 .035.48.234.058a4.547 4.547 0 011.75-1.675s-1.494 1.184-1.587 2.109c-.046.433 1.809.094 2.474-1.406a6.771 6.771 0 011.529-2.05m-4.551 70.749a9.123 9.123 0 01-3.56.21c0 .2 3.361 4.92 7.154 2.097 0 0 .467-.468-.152-.304a6.273 6.273 0 01-3.372-.375s2.649.504 3.7-.246c.49-.363-1.611-2.038-3.77-1.382zm-.385-3.315s.443-.433-.14-.293a5.956 5.956 0 01-3.163-.41s2.474.597 3.466-.094c.467-.316-1.47-2.014-3.513-1.429a8.961 8.961 0 01-3.349.141c0 .187 3.08 4.685 6.699 2.097m-3.361-5.716s.501-.352-.094-.305a5.753 5.753 0 01-2.987-.925s2.229.96 3.302.457c.502-.235-1.027-2.168-3.104-1.945a8.366 8.366 0 01-3.267-.433c-.024.175 2.228 5.036 6.15 3.15zm-2.568-6.619s.525-.269-.046-.304a5.78 5.78 0 01-2.755-1.3s2.066 1.23 3.163.89c.513-.152-.759-2.226-2.777-2.296a8.09 8.09 0 01-3.081-.867c-.047.164 1.493 5.166 5.496 3.877zm-1.89-6.126s.536-.222-.024-.304a5.76 5.76 0 01-2.649-1.523s1.96 1.394 3.081 1.16c.525-.117-.572-2.284-2.59-2.519A8.432 8.432 0 01.68 48.252c-.07.164 1.073 5.259 5.181 4.322m-1.039-6.396s.537-.187 0-.292a5.497 5.497 0 01-2.497-1.593s1.856 1.429 2.953 1.241c.513-.093-.467-2.237-2.405-2.553a7.981 7.981 0 01-2.87-1.207c-.07.152.84 5.142 4.854 4.393m-.536-6.583s.548-.129.023-.293a5.429 5.429 0 01-2.287-1.816s1.657 1.593 2.754 1.523c.513-.035-.234-2.237-2.1-2.74A8.143 8.143 0 01.026 34.78c-.082.141.315 5.107 4.295 4.791m-.035-6.114s.548.035.105-.27a5.465 5.465 0 01-1.658-2.377s1.132 1.99 2.183 2.248c.49.118.385-2.178-1.237-3.197a8.364 8.364 0 01-2.136-2.167c-.117.105-1.109 4.931 2.743 5.786m.665-6.641s.525.093.128-.258a5.382 5.382 0 01-1.342-2.53s.875 2.073 1.867 2.448c.467.176.63-2.073-.828-3.268a8.063 8.063 0 01-1.82-2.378c-.13.094-1.658 4.662 2.006 5.974m1.494-5.962s.514.187.164-.223a5.507 5.507 0 01-.91-2.717s.524 2.202 1.446 2.73c.432.257.957-1.933-.291-3.363a8.157 8.157 0 01-1.412-2.647c-.14.07-2.381 4.31 1.003 6.22zm2.44-5.857s.443.153.14-.199a4.828 4.828 0 01-.853-2.296s.502 1.863 1.307 2.296c.374.211.77-1.687-.326-2.87a6.81 6.81 0 01-1.272-2.225c-.117.07-1.938 3.748 1.015 5.294m2.719-5.306s.432.246.187-.175a5.057 5.057 0 01-.409-2.59s.129 2.062.876 2.695c.35.293 1.166-1.593.256-3.08a7.655 7.655 0 01-.863-2.613c-.14.035-2.813 3.49-.047 5.763zm15.568 73.595a26 26 0 01-7.714-5.986C21.406 82.056 28 85.5 28 85.5l-.805-2.202zM137.32 9.31h-.86c.04-.27.06-.51.06-1.05V2.05c0-.53-.02-.77-.06-1.02h.86c-.04.26-.05.47-.05 1.04v1.87c1.54.55 2.7 1.1 4.45 2.11l-.43.74c-.94-.66-2.32-1.4-3.73-1.98-.15-.06-.22-.1-.31-.17l-.02.01c.03.2.04.34.04.59v3.01c0 .56.01.78.05 1.06zM127.75.85l.82.21c-.09.13-.09.13-.22.41-.26.54-.35.71-.46.89.13-.03.13-.03 3.02-.08.35 0 .38-.01.52-.07l.43.42c-.09.12-.09.13-.2.49-.42 1.41-1.15 2.77-2 3.76-.92 1.05-2.02 1.84-3.48 2.5-.16-.29-.24-.39-.5-.59 1.51-.62 2.57-1.38 3.53-2.53.77-.93 1.37-2.1 1.72-3.35l-3.37.06a9.64 9.64 0 01-2.39 2.6c-.17-.25-.27-.34-.56-.52 1.06-.69 1.82-1.52 2.51-2.74.38-.66.58-1.11.63-1.46zm-11.97.47h.85c-.03.21-.05.47-.05.89l-.03 6.03c1.15-.19 2.06-.5 2.86-1 1-.62 1.67-1.34 2.25-2.4.25.35.31.43.55.63-1.37 2.04-2.84 2.97-5.51 3.49-.39.08-.44.09-.58.15l-.4-.5c.05-.17.07-.28.07-.65l.02-5.73v-.37c0-.2-.01-.32-.03-.54zm-4.79 6.96h-4.78c-.81.01-.81.01-1.07.04v-.79c.33.06.47.07 1.09.07h4.76V2.77h-4.55c-.6 0-.81.01-1.15.05v-.8c.35.06.5.07 1.15.07h4.8c.13 0 .27-.01.52-.02-.02.25-.02.42-.02.78v5.12c0 .37.02.73.05.91h-.8v-.6zm-8.77-6.66l.4.48c-.1.13-.12.16-.24.4-.69 1.34-1.62 2.25-2.92 2.85-.15-.25-.23-.34-.49-.57.7-.27 1.11-.51 1.58-.95.46-.43.83-.92 1.12-1.49h-5.68c-.55 0-.81.01-1.18.05v-.77c.34.05.62.07 1.19.07h5.37c.67 0 .67 0 .85-.07zm-4.36 1.74h.81c-.03.18-.03.18-.04.7-.03 1.67-.31 2.66-.99 3.52-.61.77-1.35 1.27-2.56 1.73-.15-.32-.22-.42-.46-.67.81-.24 1.31-.49 1.83-.92 1.06-.85 1.45-1.87 1.45-3.82 0-.28-.01-.35-.04-.54zM85.85 1.28h.83c-.03.24-.04.37-.04.83V4.8c0 .48.01.59.04.83h-.83c.03-.23.04-.44.04-.84V2.12c0-.43-.01-.6-.04-.84zm4.42 0h.84c-.04.23-.05.39-.05.87v1.18c0 1.59-.07 2.47-.25 3.05-.29.94-.92 1.67-1.9 2.22-.49.28-.97.47-1.82.72-.11-.29-.17-.39-.42-.69.9-.2 1.38-.37 1.9-.68.93-.54 1.41-1.18 1.6-2.11.11-.57.14-1.03.14-2.55V2.16c0-.52-.01-.66-.04-.88zM77.75.85l.82.21c-.09.13-.09.13-.22.41-.26.54-.35.71-.46.89.13-.03.13-.03 3.02-.08.35 0 .38-.01.52-.07l.43.42c-.09.12-.09.13-.2.49-.42 1.41-1.15 2.77-2 3.76-.92 1.05-2.02 1.84-3.48 2.5-.16-.29-.24-.39-.5-.59 1.51-.62 2.57-1.38 3.53-2.53.77-.93 1.37-2.1 1.72-3.35l-3.37.06a9.64 9.64 0 01-2.39 2.6c-.17-.25-.27-.34-.56-.52 1.06-.69 1.82-1.52 2.51-2.74.38-.66.58-1.11.63-1.46zm95.463 26.98V16.562h-4.716c-.846 0-1.53.036-2.286.108v-2.034c.684.072 1.386.108 2.268.108h10.422c.846 0 1.548-.036 2.286-.108v2.034a23.182 23.182 0 00-2.286-.108h-3.618v4.392h3.078c.864 0 1.44-.036 2.016-.108v1.998a15.994 15.994 0 00-2.016-.108h-3.078v5.094h4.122c.9 0 1.656-.036 2.376-.126v2.088c-.702-.09-1.404-.126-2.358-.126h-11.502c-.9 0-1.602.036-2.376.126v-2.088c.666.108 1.152.126 2.34.126h.378v-5.814c0-.936-.036-1.674-.126-2.34h2.286c-.09.63-.126 1.386-.126 2.322v5.832h2.916zm-24.282-9.954h-.342c-.324.936-.558 1.422-1.116 2.304a7.139 7.139 0 00-1.332-1.422c.756-1.134 1.188-2.286 1.494-3.906.036-.18.072-.54.126-1.044l1.89.342c-.09.234-.108.306-.27.972-.072.27-.126.468-.27 1.026h1.386c.702 0 1.008-.018 1.368-.072v1.836c-.36-.018-.558-.036-1.152-.036-.036 1.962-.036 1.962-.09 2.952h.36c.45 0 .828-.018 1.098-.054-.162-.252-.252-.342-.54-.63 1.368-.63 1.98-1.062 2.79-1.908h-.558c-.792 0-1.134.018-1.584.072V16.67c.522.036.81.054 1.548.054h1.71c.18-.324.27-.486.414-.81-.864.054-1.494.072-3.096.09-.324-.828-.36-.918-.666-1.476.648.018 1.134.036 1.386.036 2.988 0 6.156-.378 7.254-.864l1.098 1.53c-.18.036-.198.036-.45.072-.972.18-2.412.378-3.564.486-.18.378-.252.504-.468.936h3.204c.864 0 1.53-.036 1.98-.09v1.692c-.558-.072-1.134-.09-1.926-.09h-1.008c.738.756 1.836 1.332 3.438 1.818-.396.576-.486.792-.81 1.692-.9-.378-1.404-.648-2.088-1.098v.63c0 .558 0 .792.036 1.116-.342-.018-.666-.036-1.242-.036h-3.69c-.558 0-.9.018-1.242.036.036-.36.054-.594.054-1.116v-.648c-.54.432-.756.594-1.458 1.026a3.346 3.346 0 00-.414-.738v1.728c-.306-.054-.72-.072-1.242-.072h-.486c-.036.306-.054.432-.126.9.468.846 1.242 1.836 1.962 2.484v-1.53c0-.594-.036-1.08-.09-1.53.414.054.972.09 1.782.09h6.48c.846 0 1.386-.018 1.818-.09a18.83 18.83 0 00-.072 1.836v3.78c0 1.062-.144 1.404-.666 1.62-.36.18-.918.234-2.088.234-.18 0-.45 0-.81-.018-.036-.63-.108-.936-.288-1.548h-1.854v.702h-1.566c.036-.252.054-.774.054-1.188v-2.052c0-.54-.018-.828-.036-1.152.234.054.414.054 1.026.054h2.52c.576 0 .756 0 .99-.054-.036.306-.036.414-.036 1.098v2.394h.468c.396 0 .468-.072.468-.486V24.5h-6.3v4.014c0 1.188 0 1.512.072 1.998h-1.98c.072-.54.108-1.188.108-2.268v-1.98c-.324.432-.522.792-.846 1.566-.702-.738-1.062-1.242-1.62-2.196-.522 1.656-1.188 2.772-2.484 4.176-.27-.648-.63-1.152-1.278-1.782 1.566-1.422 2.196-2.718 2.592-5.454h-.792c-.522 0-.954.036-1.404.09v-1.926c.45.072.882.09 1.53.09h.846c.054-.828.072-1.53.09-2.952zm8.604.36h-1.116c-.27.378-.396.522-.666.828h2.502a11.324 11.324 0 01-.72-.828zm-1.044 8.172v1.044h1.512v-1.044h-1.512zm-.72-6.12v.81h2.646v-.81h-2.646zm-12.474 7.434l-1.728 1.872c-1.494-1.836-3.564-3.852-5.526-5.346-2.034 2.268-4.104 3.852-6.858 5.202-.504-.936-.72-1.224-1.458-1.998 1.386-.54 2.25-1.026 3.6-1.98 2.718-1.908 4.878-4.518 6.048-7.326l.198-.468c-.288.018-.288.018-5.958.108-.864.018-1.35.054-1.962.144l-.072-2.304c.504.09.846.108 1.584.108h.432l6.336-.09c1.008-.018 1.152-.036 1.602-.198l1.188 1.224c-.234.27-.378.522-.576.972-.828 1.926-1.71 3.492-2.808 4.968 1.134.756 2.106 1.512 3.33 2.61.45.396.45.396 2.628 2.502zm-32.803-4.374v-2.502c.792.108 1.134.126 2.916.126h9.594c1.782 0 2.124-.018 2.916-.126v2.502c-.72-.09-.918-.09-2.934-.09h-9.558c-2.016 0-2.214 0-2.934.09zm-13.624-6.57v3.636c2.717-.504 6.695-2.106 7.865-3.204l1.44 2.034c-.198.072-.234.09-.378.162l-.468.234c-2.664 1.368-5.454 2.304-8.46 2.862v2.376c-.018.108-.018.216-.018.288 0 1.008.072 1.404.324 1.656.306.306 1.332.468 3.078.468 1.206 0 2.862-.108 4.176-.288.864-.108 1.26-.198 2.052-.432l.108 2.394c-.378 0-.468.018-2.376.198-1.062.108-3.33.216-4.428.216-2.268 0-3.51-.234-4.212-.774-.504-.378-.774-.954-.882-1.836-.036-.306-.054-.612-.054-1.656l-.018-8.352c0-.918 0-1.206-.072-1.656h2.412c-.072.432-.09.756-.09 1.674zm10.367-3.186c1.152 0 2.088.936 2.088 2.07a2.09 2.09 0 01-2.088 2.088 2.086 2.086 0 01-2.07-2.088c0-1.134.936-2.07 2.07-2.07zm0 .9c-.648 0-1.17.522-1.17 1.17 0 .648.522 1.188 1.17 1.188.666 0 1.188-.54 1.188-1.188 0-.648-.522-1.17-1.188-1.17zm-17.946 13.23l-1.728 1.872c-1.494-1.836-3.564-3.852-5.526-5.346-2.034 2.268-4.104 3.852-6.858 5.202-.504-.936-.72-1.224-1.458-1.998 1.386-.54 2.25-1.026 3.6-1.98 2.718-1.908 4.878-4.518 6.048-7.326l.198-.468c-.288.018-.288.018-5.958.108-.864.018-1.35.054-1.962.144l-.072-2.304c.504.09.846.108 1.584.108h.432l6.336-.09c1.008-.018 1.152-.036 1.602-.198l1.188 1.224c-.234.27-.378.522-.576.972-.828 1.926-1.71 3.492-2.808 4.968 1.134.756 2.106 1.512 3.33 2.61.45.396.45.396 2.628 2.502zM68.52 16.976l1.043 1.062c-.162.342-.18.45-.27.99-.306 2.07-.576 3.078-1.134 4.356-.882 2.07-2.322 3.672-4.446 4.968-1.08.666-2.016 1.08-3.582 1.62-.414-.918-.63-1.242-1.44-2.142 1.71-.414 2.7-.792 3.834-1.494 2.61-1.62 3.978-3.906 4.32-7.218h-8.784v2.322c0 .558.018 1.044.054 1.44h-2.412c.054-.45.09-1.008.09-1.512v-2.61c0-.756-.018-1.224-.072-1.71.63.072.954.09 1.944.09h3.528V15.59c0-.576-.018-.9-.09-1.314h2.502c-.054.306-.09.792-.09 1.296v1.548h3.24c1.332 0 1.332 0 1.764-.144zm-30.6 4.662l1.763-1.278a33.009 33.009 0 012.232 1.998c.99 1.008.99 1.008 1.116 1.116.936-.792 1.692-1.512 2.358-2.268.774-.864 1.764-2.214 2.196-2.934.054-.09.054-.09.108-.162.018-.054.018-.054.036-.09-.18.018-.45.036-.828.036h-8.586c-1.458.018-1.638.018-2.304.09V15.86c.702.108 1.116.126 2.34.126l10.008-.018c.774 0 1.044-.018 1.494-.144l1.26 1.422c-.27.288-.378.414-.792 1.062-1.71 2.754-3.6 4.968-5.814 6.822.756.864 1.44 1.728 2.376 3.006l-1.89 1.512c-1.008-1.62-1.962-2.862-3.474-4.536-1.386-1.53-2.286-2.412-3.6-3.474zM82.3 45.72v3.9h1.22c.5-.62.66-.82 1.2-1.42.76.62 1 .82 1.7 1.52.1.08.12.14.12.18 0 .1-.08.14-.24.14h-4v4.94H84c.46-.6.58-.76 1.02-1.22-.1 0-.18.02-.24.02-.22 0-.3-.12-.52-.72-.38-1.1-.66-1.62-1.3-2.36l.12-.12c2.18.64 2.96 1.14 2.96 1.84 0 .46-.2.8-.68 1.16.78.64.94.78 1.66 1.48.08.08.12.16.12.22 0 .08-.1.12-.22.12h-9.66c-.48 0-.84.02-1.22.1l-.12-.66c.48.1.9.14 1.34.14h2.86v-4.94h-2.18c-.38 0-.72.02-1.18.1l-.1-.66c.54.12.82.14 1.3.14h2.16v-3.9H77.6c-.4 0-.82.04-1.26.1l-.12-.68c.54.12.94.16 1.4.16h5.94c.54-.66.72-.86 1.3-1.5.88.68 1.14.88 1.94 1.6.08.08.12.14.12.18 0 .08-.1.14-.22.14h-4.4zm-6.96 12.42v.76c-.02.24-.08.36-.28.44-.18.06-.76.12-1.28.12-.66 0-.8-.1-.8-.54.16-4.02.18-6.22.18-13.38 0-1.8-.02-2.84-.12-4.4 1.16.5 1.5.68 2.6 1.28h11.78c.48-.54.64-.7 1.16-1.22.76.5.98.68 1.72 1.22.18.14.26.24.26.38 0 .2-.16.36-.76.7v5.72c0 4.1.06 7.68.16 9.54 0 .28-.06.42-.28.52-.18.08-.8.16-1.34.16s-.68-.08-.72-.42v-.88H75.34zm0-15.3v14.88h12.28V42.84H75.34zM58.4 49.42v3.98h2.16c.64-.78.84-1.02 1.5-1.74.94.74 1.24 1 2.2 1.8.08.1.12.16.12.22 0 .08-.1.14-.26.14H58.4v4.56h3.92c.72-.8.94-1.06 1.64-1.84 1.04.8 1.36 1.08 2.4 1.96.08.08.12.14.12.18 0 .08-.08.12-.2.12H50.32c-.54 0-.86.02-1.36.12l-.18-.72c.56.12 1.08.18 1.58.18h5.78v-4.56h-3.5c-.58 0-.82.02-1.28.1l-.16-.7c.5.1 1.06.18 1.46.18h3.48v-3.98h-3.2c-.44 0-.66.02-1.08.1l-.16-.64c.46.08.8.12 1.28.12h6.32c.58-.68.76-.88 1.34-1.52.92.66 1.22.88 2.14 1.6.1.1.14.16.14.2 0 .08-.1.14-.28.14H58.4zm-10.38 1.32l-.12-.22c2.12-1.52 4.06-3.38 5.36-5.1.76-1 1.54-2.24 2-3.18.22-.44.3-.62.44-1.16 3.14.64 3.38.72 3.38.94 0 .16-.2.26-.9.42 1.22 1.66 2.28 2.58 3.98 3.5 1.62.88 3.12 1.36 5.08 1.66l-.02.22c-.46.2-.6.3-.86.66-.32.42-.48.78-.68 1.42-.04.14-.1.2-.2.2-.18 0-.84-.32-1.62-.8-1.64-1-3-2.18-4.08-3.56-.64-.82-1.1-1.6-1.88-3.08-1.4 2.12-2.6 3.5-4.28 4.86-1.64 1.32-3.4 2.32-5.6 3.22z" fill="#fff"/><rect x="43.5" y="66" width="52" height="18" rx="9" fill="#fff"/><path d="M83.372 76.76h-.852c-.3.912-.456 1.272-.828 1.848.6.264.732.408.732.768 0 .384-.228.792-.456.792-.096 0-.18-.072-.324-.264a4.035 4.035 0 00-.552-.564 5.24 5.24 0 01-1.164.864c-.72.396-1.332.6-2.604.84l-.048-.12c1.032-.42 1.668-.804 2.34-1.404.276-.24.468-.456.708-.756a5.931 5.931 0 00-1.032-.552c-.084.168-.084.168-.228.516-.12.168-.216.204-.54.204-.456 0-.708-.084-.708-.24v-.06c.084-.144.12-.204.228-.372.324-.528.384-.648.768-1.5h-.636c-.324 0-.504.012-.84.048l-.084-.408c.288.072.612.108.924.108h.756c.252-.492.384-.84.456-1.152.312.06.552.096.708.12.576.072.792.156.792.288 0 .12-.132.18-.48.24a9.523 9.523 0 01-.252.504h1.524c.288-.348.372-.444.672-.792.468.384.624.504 1.092.888.024.036.036.06.036.072 0 .048-.048.084-.108.084zm-2.088 0h-1.26c-.276.564-.564 1.128-.648 1.26.384.06.984.192 1.26.276.288-.468.468-.888.648-1.536zm.048 4.284l-.072-.12c1.776-1.032 2.544-1.764 3.408-3.18-.492-.972-.72-1.8-.912-3.168-.264.396-.576.792-.996 1.248l-.12-.084a15.197 15.197 0 001.2-3.564c.18-.816.288-1.572.324-2.112.36.06.66.12.84.156.804.132 1.092.228 1.092.372 0 .12-.156.18-.552.24-.192.6-.288.84-.864 2.088h1.728c.36-.408.468-.54.828-.96.624.516.624.516 1.272 1.044.024.036.036.06.036.084 0 .036-.048.084-.072.084h-1.08c-.276 2.076-.732 3.432-1.548 4.704.792.744 1.428 1.092 2.808 1.56l-.024.096c-.204.036-.312.096-.492.3-.204.216-.36.492-.432.768-.048.144-.084.192-.156.192s-.18-.06-.42-.216c-.648-.42-1.368-1.14-1.896-1.884-.456.528-.804.84-1.296 1.176-.732.492-1.356.768-2.604 1.176zm4.704-7.872H84.56a12.42 12.42 0 01-.636 1.152c.288 1.164.576 1.836 1.14 2.652.432-.792.816-2.328.972-3.804zm-5.04-.348v.42c.912.276 1.08.324 1.38.48.312.156.492.396.492.672 0 .384-.264.78-.54.78-.144 0-.24-.12-.372-.456-.18-.456-.48-.852-.96-1.26 0 .432.012 1.212.012 1.572-.012.12-.048.156-.168.192a9.638 9.638 0 01-.756.048c-.18 0-.24-.048-.24-.204.012-.156.012-.156.012-.552l.024-.684c-.336.42-.72.756-1.308 1.188-.408.288-.732.468-1.392.78l-.06-.096c.732-.636 1.104-1.056 1.608-1.824.264-.396.444-.696.612-1.056h-1.164c-.264 0-.456.012-.828.06l-.072-.396c.324.06.54.084.9.084h1.704v-1.308c0-.18-.048-.948-.084-1.2 1.44.108 1.644.156 1.644.336 0 .096-.12.168-.456.264l.012 1.908h1.056c.216-.3.288-.384.528-.672.408.324.528.432.888.768.036.036.048.048.048.072 0 .048-.036.084-.072.084h-2.448zm-3.252-2.436l.072-.072c1.032.42 1.596.9 1.596 1.344 0 .348-.372.768-.684.768-.144 0-.228-.108-.276-.36-.156-.684-.324-1.08-.708-1.68zm3.648 2.064l-.084-.06c.336-.696.564-1.38.696-2.124.312.12.54.204.696.252.516.18.756.312.756.42 0 .108-.12.144-.468.18-.42.36-.456.384-.576.492-.264.228-.6.504-1.02.84zm-15.708 1.212l.324.048c.528.072.6.096.6.216 0 .096-.084.156-.408.264v3.912c.012 1.08.012 1.116.012 2.496 0 .12-.036.168-.096.204-.108.06-.432.108-.816.108-.252 0-.348-.072-.348-.24v-.06c.036-1.536.06-2.952.06-3.852v-2.088c-.408.564-.708.9-1.296 1.464l-.108-.096c.636-1.116.984-1.908 1.404-3.204.444-1.332.624-2.148.66-2.928 1.62.288 1.812.336 1.812.492 0 .096-.144.18-.468.252-.408 1.164-.876 2.256-1.332 3.012zm1.356-2.412l-.06-.36c.288.048.408.06.588.06h2.076c.384-.444.384-.444.744-.852.48.384.612.504 1.056.912.036.048.06.084.06.096 0 .024-.012.036-.012.06 1.284.12 1.404.144 1.404.3 0 .096-.084.156-.396.276v2.868c0 .072.012 2.064.024 3.36-.012.144-.06.192-.168.24-.108.036-.48.084-.732.084-.276 0-.36-.06-.36-.276.036-1.968.048-2.808.048-4.38 0-1.344-.012-1.788-.048-2.436h-2.136c-.12.84-.24 1.416-.432 2.004h.96c.24-.252.312-.336.564-.6.384.276.504.36.852.636.12.084.156.144.156.204 0 .096-.072.168-.372.312-.264 1.608-.468 2.4-.876 3.3a7.38 7.38 0 01-2.028 2.724c-.36.312-.684.552-1.428 1.032l-.072-.096c1.08-1.116 1.596-1.836 2.172-3.072.588-1.284.852-2.292 1.08-4.188h-1.092a7.475 7.475 0 01-.468 1.092c.228.156.456.36.684.612.228.276.324.492.324.756 0 .504-.396 1.032-.768 1.032-.132 0-.228-.132-.228-.324 0-.036 0-.084.012-.132.072-.516.096-.78.096-1.008a1.53 1.53 0 00-.204-.768c-.468.876-.936 1.488-1.668 2.208l-.084-.084c.912-1.644 1.38-3.36 1.548-5.64h-.3c-.192 0-.3.012-.516.048zm3.78 8.352l.012-.144c1.428.072 1.476.072 2.256.084.132-.012.168-.06.168-.228v-8.028c0-.588 0-.708-.036-1.164.36.036.648.072.84.096.768.084.948.144.948.288 0 .108-.144.192-.504.3v5.364c0 .648.012 1.764.024 3.384-.012.624-.18.912-.636 1.104-.324.144-.78.24-1.08.24-.12 0-.144-.024-.168-.216-.036-.264-.156-.492-.36-.624-.204-.144-.372-.192-1.464-.456zM50.972 80.96l-.096-.108c1.02-1.74 1.392-2.94 1.56-5.076-.288.396-.444.6-.984 1.224 0 .48-.048.648-.18.648-.072 0-.132-.048-.192-.18-.108-.204-.348-.828-.588-1.536.672-.156 1.2-.36 1.98-.78.036-.816.036-.984.036-1.584 0-.984-.024-1.848-.108-3 .696.336.9.444 1.536.816h2.4v-.636c0-.276-.024-.468-.084-.876 1.632.156 1.692.168 1.848.24.048.036.096.096.096.132 0 .12-.072.168-.528.324v.816h2.088c.348-.42.348-.42.852-.996.588.432.768.576 1.344 1.044.06.048.084.096.084.12 0 .048-.06.084-.144.084H53.78c0 1.26-.012 2.112-.06 2.928-.084 1.86-.324 2.976-.876 4.068-.444.912-.912 1.488-1.872 2.328zm-.324-8.832l.132-.096c1.02.648 1.572 1.272 1.572 1.764 0 .468-.42.96-.804.96-.192 0-.264-.12-.288-.492a7.255 7.255 0 00-.192-1.068c-.132-.516-.204-.696-.42-1.068zm3.36 1.38l-.06-.408c.324.06.588.084.996.084h4.56c.3-.348.564-.672.816-.96.564.42.732.552 1.284.996.048.06.072.096.072.132 0 .048-.06.084-.132.084h-3.108v2.832h.84c.36-.444.48-.576.84-.972.552.432.708.564 1.224.996.06.072.084.108.084.144 0 .048-.06.084-.168.084h-2.82v3.672h1.212c.408-.456.54-.588.924-1.02.6.456.768.6 1.296 1.092.048.048.072.084.072.108 0 .048-.048.072-.132.072h-8.184a5.23 5.23 0 00-1.02.084l-.072-.456c.396.096.636.12 1.092.12h.9V76.52c0-.636-.012-.84-.072-1.368 1.404.12 1.5.132 1.656.192.096.036.132.084.132.144 0 .108-.096.168-.42.276v4.428h1.308v-6.756h-2.136c-.48 0-.672.012-.984.072z" fill="#C36800"/><path d="M164.449 66.456c-2.356 0-4.408-.95-6.156-2.85l-.038-.076c0-.101.051-.177.152-.228.127-.076.216-.076.266 0a6.278 6.278 0 002.356 1.596 7.9 7.9 0 002.812.532c1.723 0 3.002-.532 3.838-1.596.836-1.09 1.254-2.495 1.254-4.218 0-3.952-2.305-5.928-6.916-5.928-.025 0-.063-.025-.114-.076a.727.727 0 01-.038-.228c0-.076.013-.14.038-.19.051-.076.089-.114.114-.114 2.23 0 3.813-.443 4.75-1.33.938-.887 1.406-2.115 1.406-3.686 0-1.52-.38-2.685-1.14-3.496-.76-.836-1.824-1.254-3.192-1.254a6.196 6.196 0 00-3.04.798 4.732 4.732 0 00-2.09 2.242c0 .025-.025.038-.076.038a.614.614 0 01-.266-.076c-.076-.05-.101-.101-.076-.152.583-1.368 1.444-2.432 2.584-3.192 1.14-.76 2.47-1.14 3.99-1.14 1.799 0 3.205.507 4.218 1.52 1.014.988 1.52 2.23 1.52 3.724 0 1.495-.506 2.85-1.52 4.066-1.013 1.216-2.356 2.001-4.028 2.356l.114-.304c1.343-.101 2.496.114 3.458.646a5.046 5.046 0 012.204 2.28c.507.963.76 2.04.76 3.23 0 1.393-.304 2.635-.912 3.724a6.545 6.545 0 01-2.546 2.508c-1.089.583-2.318.874-3.686.874zm-11.296-.038c-.506 0-.912-.152-1.216-.456-.304-.304-.456-.697-.456-1.178s.152-.861.456-1.14c.304-.304.71-.456 1.216-.456.532 0 .938.14 1.216.418.279.279.418.671.418 1.178 0 .507-.139.912-.418 1.216-.278.279-.684.418-1.216.418zm-13.167.076c-1.47 0-2.774-.355-3.914-1.064a7.402 7.402 0 01-2.584-2.926c-.608-1.241-.912-2.584-.912-4.028 0-1.647.392-3.04 1.178-4.18.81-1.165 1.836-2.027 3.078-2.584 1.266-.583 2.546-.874 3.838-.874 1.494 0 2.799.367 3.914 1.102a7.133 7.133 0 012.546 2.926 8.24 8.24 0 01.912 3.8c0 1.57-.368 2.951-1.102 4.142a7.715 7.715 0 01-2.964 2.736c-1.216.633-2.546.95-3.99.95zm1.102-.722c1.393 0 2.47-.494 3.23-1.482.76-.988 1.14-2.508 1.14-4.56 0-1.57-.266-2.977-.798-4.218-.507-1.241-1.216-2.204-2.128-2.888a4.94 4.94 0 00-3.116-1.064c-1.368 0-2.432.494-3.192 1.482-.735.988-1.102 2.407-1.102 4.256 0 1.545.253 2.964.76 4.256.506 1.292 1.216 2.318 2.128 3.078.912.76 1.938 1.14 3.078 1.14zm-32.93-22.648l.874.076v18.658c0 1.317.228 2.267.684 2.85.482.557 1.242.836 2.28.836.076 0 .114.076.114.228 0 .152-.038.228-.114.228-.633 0-1.114-.013-1.444-.038l-1.9-.038-1.938.038a23.68 23.68 0 01-1.558.038c-.05 0-.076-.076-.076-.228 0-.152.026-.228.076-.228 1.09 0 1.862-.279 2.318-.836.456-.583.684-1.533.684-2.85V43.124zm19.152 23.332c0 .05-.063.089-.19.114-.126.025-.215.013-.266-.038l-17.48-21.166c-.81-.988-1.558-1.672-2.242-2.052-.658-.405-1.317-.608-1.976-.608-.076 0-.114-.076-.114-.228 0-.152.038-.228.114-.228l1.406.038c.304.025.722.038 1.254.038.558 0 1.014-.013 1.368-.038a12.5 12.5 0 01.836-.038c.178 0 .317.05.418.152.127.076.266.253.418.532.304.456.621.887.95 1.292l15.2 18.658.304 3.572zm0 0l-.874-1.178V46.43c0-1.317-.228-2.267-.684-2.85-.43-.583-1.165-.874-2.204-.874-.05 0-.076-.076-.076-.228 0-.152.026-.228.076-.228l1.482.038c.76.05 1.381.076 1.862.076.456 0 1.09-.025 1.9-.076l1.558-.038c.076 0 .114.076.114.228 0 .152-.038.228-.114.228-1.064 0-1.836.291-2.318.874-.481.583-.722 1.533-.722 2.85v20.026zm36.543 18.804l-.18-.18c1.584-2.112 2.076-3.456 2.076-5.64 0-2.196-.492-3.54-2.076-5.652l.18-.18a7.444 7.444 0 012.784 5.808 7.553 7.553 0 01-2.784 5.844zm-6.696-1.38h2.184c.312-.408.408-.54.744-.948.516.444.66.588 1.152 1.056.024.036.048.06.048.084 0 .048-.072.084-.144.084h-7.428c-.3 0-.492.012-.864.072l-.084-.468c.348.084.708.12 1.08.12h3c.456-1.272.66-1.884.972-2.952.408-1.464.552-2.124.696-3.216 1.164.288 1.404.372 1.404.492 0 .096-.168.18-.504.24-.6 1.644-1.08 2.868-1.464 3.696l-.792 1.74zm-6.912-3.732l-.168-.108c.792-1.308 1.248-2.244 1.74-3.528.432-1.104.66-1.872.756-2.568 1.104.228 1.404.336 1.404.468 0 .108-.156.18-.552.24-.552 1.38-.888 2.088-1.44 3.036.108.012.18.024.24.024.564.072.696.108.696.204 0 .072-.108.144-.372.24v3.012l.012 3.468c-.012.168-.084.204-.408.216-.108.012-.192.024-.24.024h-.024c-.108 0-.156-.048-.192-.168.024-1.764.024-1.764.024-3.468v-3.108c-.552.876-.852 1.284-1.476 2.016zm6.96-3.24h1.98c.312-.408.408-.528.732-.9.468.42.612.552 1.032 1.008.024.036.048.072.048.096 0 .048-.06.072-.144.072h-6.66c-.3 0-.504.024-.924.084l-.108-.468c.468.084.66.108 1.032.108h2.124v-1.476c0-.372-.012-.648-.048-1.248 1.152.132 1.2.144 1.332.204.096.036.144.084.144.132 0 .096-.168.18-.54.3v2.088zm-3.012.936l.18-.084c.372.552.54.876.924 1.74.576 1.296.792 1.908.792 2.328 0 .492-.432 1.2-.744 1.2-.12 0-.18-.096-.192-.324a24.608 24.608 0 00-.288-2.376c-.192-1.128-.336-1.68-.672-2.484zm-10.894 5.76v-.348c.516-.036.636-.048.792-.12.264-.12.324-.372.324-1.236v-5.052c-.024-1.044-.024-1.044-.12-1.128-.096-.084-.24-.108-.54-.108h-.456v-.348c.912-.06 1.692-.168 2.28-.312-.06.948-.096 1.968-.096 3.384V81.9c0 .804.048 1.044.216 1.188.144.12.192.132.876.168v.348h-3.276zM130.146 77.1h.204c.012.228.012.264.012.444 0 1.044-.132 2.04-.336 2.532-.132.288-.42.6-.576.6-.156 0-.408-.492-.408-.804 0-.108.036-.168.132-.252.288-.24.612-.768.744-1.212.084-.3.12-.54.228-1.308zm2.34 0l.18-.048c.708 1.152 1.188 2.148 1.188 2.436 0 .324-.396.816-.648.816-.048 0-.096-.036-.132-.084-.024-.06-.024-.06-.048-.384-.048-.888-.252-1.944-.54-2.736zm2.808-1.692l.012 4.404c0 2.208 0 2.208.024 3.672 0 .156-.096.204-.432.204-.048 0-.108.012-.156.012h-.06c-.144 0-.216-.06-.216-.156v-.048c.024-.9.036-2.724.036-7.584 0-.78-.012-1.032-.048-1.44 1.104.084 1.404.144 1.404.288 0 .108-.18.204-.564.312v.336zm2.412-1.32c1.032.096 1.368.168 1.368.3 0 .096-.132.18-.516.324 0 1.332.048 8.328.06 9.672-.012.18-.156.228-.636.228-.192 0-.24-.036-.252-.168.012-.324.012-.684.024-1.068.012-.372.012-.372.012-4.776 0-3.996 0-3.996-.06-4.512zm-8.688 10.572l-.12-.168c1.08-1.032 1.596-1.812 1.932-2.94.324-1.068.444-2.64.444-5.82 0-1.032 0-1.116-.036-1.62 1.2.108 1.476.156 1.476.312 0 .096-.084.144-.576.3-.012.348-.012.348-.072 3.78-.024 1.236-.24 2.448-.564 3.252-.48 1.2-1.2 2.028-2.484 2.904zm6.684-7.536l.168-.072c.852 1.176 1.26 1.956 1.26 2.424 0 .372-.312.804-.588.804-.108 0-.156-.072-.18-.336a12.35 12.35 0 00-.228-1.524c-.12-.6-.204-.852-.432-1.296zm-15.266.024l2.34-.024c.192-.24.264-.312.456-.576.384.288.504.372.852.636.06.072.084.108.084.144 0 .072-.168.18-.468.312l-.048 5.652v.048c0 .204.012.204.84.204.936 0 1.08-.012 1.152-.108.036-.048.072-.18.132-.42.048-.24.132-.72.24-1.392.048-.276.132-.696.228-1.236h.18l-.048 2.808c-.012.204.012.228.228.312.216.096.3.18.3.3 0 .204-.18.348-.492.408-.216.036-1.08.06-2.064.06-.996 0-1.296-.06-1.452-.264-.096-.132-.12-.264-.12-.588v-.168l.084-5.856-2.448.024c-.036.444-.06.636-.084.816-.264 2.016-1.08 3.708-2.412 4.968-.636.612-1.188.984-2.292 1.548l-.084-.156c.852-.588 1.284-.984 1.896-1.692 1.356-1.596 1.92-3.06 2.136-5.472l-2.256.024c-.216 0-.732.048-.984.084l-.06-.444c.336.048.78.096 1.044.084l2.268-.024c.036-.6.06-1.224.06-1.944 0-.456-.012-.696-.06-1.164.564.072 1.164.168 1.32.216.108.036.156.072.156.132 0 .096-.108.144-.48.264a69.72 69.72 0 01-.144 2.484zm-7.277-3.54l.18.18c-.564.756-.876 1.224-1.2 1.824-.6 1.104-.876 2.34-.876 3.828s.288 2.712.876 3.816c.324.6.636 1.068 1.2 1.824l-.18.18c-.648-.516-1.056-.96-1.488-1.62a7.463 7.463 0 01-1.296-4.188 7.551 7.551 0 012.784-5.844zm83.613-.02a6.776 6.776 0 00.105 3.478c.245.598-.28.2-.28.2-3.256-3.468.84-7.544 1.027-7.567 0 1.23.245 2.448.7 3.584.946 2.108-.385 4.486-.805 4.03-.875-.961-.758-3.725-.758-3.725m3.664-8.809a9.214 9.214 0 001.272 3.186c1.237 1.78.338 4.229-.117 3.877-.968-.726-1.272-3.315-1.272-3.315a6.264 6.264 0 00.7 3.186c.327.516-.221.235-.221.235-3.606-2.612-.525-7.122-.362-7.18m3.606 2.002c-3.583-2.483-.665-6.969-.502-7.028a9.357 9.357 0 001.307 3.105c1.249 1.71.409 4.052-.046 3.724-.969-.69-1.308-3.15-1.308-3.15a6.31 6.31 0 00.747 3.115c.339.492-.21.234-.21.234m2.708-6.664c-3.898-1.629-1.984-6.478-1.844-6.583a8.856 8.856 0 001.844 2.682c1.517 1.37 1.213 3.807.723 3.584-1.05-.456-1.89-2.752-1.89-2.752a5.979 5.979 0 001.318 2.8c.421.397-.151.269-.151.269zm1.82-6.103c.444.375-.14.281-.14.281-3.979-1.406-2.334-6.36-2.194-6.466a8.693 8.693 0 001.984 2.577c1.587 1.289 1.424 3.725.91 3.538-1.073-.399-2.03-2.648-2.03-2.648a5.89 5.89 0 001.47 2.73m1.576-5.693c.455.328-.117.27-.117.27-3.944-1.066-2.707-5.974-2.579-6.091a8.322 8.322 0 002.101 2.33c1.633 1.125 1.633 3.503 1.132 3.362-1.062-.304-2.148-2.413-2.148-2.413a5.814 5.814 0 001.611 2.53m.933-7.075c.49.246-.07.282-.07.282-3.979-.375-3.559-5.342-3.454-5.47a8.304 8.304 0 002.404 1.92c1.75.82 2.136 3.116 1.622 3.058-1.085-.117-2.462-1.98-2.462-1.98.443.89 1.12 1.64 1.96 2.179m-.233-5.787c.49.235-.07.282-.07.282-3.933-.34-3.559-5.236-3.454-5.365a8.087 8.087 0 002.392 1.874c1.739.796 2.136 3.057 1.622 3.01-1.074-.105-2.451-1.932-2.451-1.932a5.361 5.361 0 001.949 2.131m.572-5.95c-1.062.023-2.602-1.581-2.602-1.581a5.323 5.323 0 002.135 1.839c.502.175-.023.28-.023.28-3.875.141-4.061-4.673-3.98-4.813a7.635 7.635 0 002.545 1.534c1.785.562 2.427 2.73 1.925 2.73m-1.809-6.642c.525.082.024.281.024.281-3.782.843-4.808-3.865-4.75-4.018a7.55 7.55 0 002.766 1.043c1.855.234 2.859 2.237 2.369 2.342-1.039.223-2.836-1.089-2.836-1.089a5.241 5.241 0 002.427 1.43m-2.147-6.092c-.887.188-2.427-.925-2.427-.925a4.513 4.513 0 002.077 1.218c.443.07.023.246.023.246-3.232.726-4.108-3.303-4.061-3.432a6.421 6.421 0 002.369.902c1.587.2 2.439 1.92 2.031 2.003m-2.533-4.603c.479.058.024.257.024.257-3.431.914-4.517-3.35-4.47-3.49a7.097 7.097 0 002.556.855c1.703.152 2.684 1.944 2.24 2.05-.945.234-2.625-.89-2.625-.89a4.83 4.83 0 002.264 1.218m-6.524-8.586c.105-.094 4.12-.422 4.4 2.975 0 0-.035.48-.234.058a4.548 4.548 0 00-1.75-1.675s1.493 1.184 1.587 2.109c.047.433-1.809.094-2.474-1.406a6.783 6.783 0 00-1.529-2.05m4.551 70.749a9.125 9.125 0 003.56.21c0 .2-3.361 4.92-7.154 2.097 0 0-.467-.468.152-.304a6.27 6.27 0 003.372-.375s-2.649.504-3.699-.246c-.49-.363 1.61-2.038 3.769-1.382zm.385-3.315s-.443-.433.14-.293a5.957 5.957 0 003.163-.41s-2.474.597-3.466-.094c-.467-.316 1.47-2.014 3.513-1.429a8.96 8.96 0 003.349.141c0 .187-3.081 4.685-6.699 2.097m3.361-5.716s-.501-.352.094-.305a5.751 5.751 0 002.987-.925s-2.229.96-3.302.457c-.502-.235 1.027-2.168 3.104-1.945a8.361 8.361 0 003.267-.433c.024.175-2.228 5.036-6.15 3.15zm2.568-6.619s-.525-.269.046-.304a5.78 5.78 0 002.755-1.3s-2.066 1.23-3.163.89c-.513-.152.759-2.226 2.777-2.296a8.089 8.089 0 003.081-.867c.047.164-1.493 5.166-5.496 3.877zm1.89-6.126s-.536-.222.024-.304a5.762 5.762 0 002.649-1.523s-1.961 1.394-3.081 1.16c-.525-.117.572-2.284 2.591-2.519a8.421 8.421 0 003.01-1.112c.07.164-1.073 5.259-5.181 4.322m1.039-6.396s-.537-.187 0-.292a5.495 5.495 0 002.497-1.593s-1.856 1.429-2.953 1.241c-.513-.093.467-2.237 2.405-2.553a7.98 7.98 0 002.87-1.207c.07.152-.84 5.142-4.854 4.393m.536-6.583s-.548-.129-.023-.293a5.426 5.426 0 002.287-1.816s-1.657 1.593-2.754 1.523c-.513-.035.234-2.237 2.101-2.74a8.15 8.15 0 002.684-1.477c.082.141-.315 5.107-4.295 4.791m.035-6.114s-.548.035-.105-.27a5.465 5.465 0 001.658-2.377s-1.132 1.99-2.183 2.248c-.49.118-.385-2.178 1.237-3.197a8.356 8.356 0 002.136-2.167c.117.105 1.109 4.931-2.743 5.786m-.665-6.641s-.525.093-.128-.258a5.383 5.383 0 001.342-2.53s-.875 2.073-1.867 2.448c-.467.176-.63-2.073.828-3.268a8.06 8.06 0 001.821-2.378c.128.094 1.657 4.662-2.007 5.974m-1.494-5.962s-.514.187-.164-.223a5.513 5.513 0 00.911-2.717s-.525 2.202-1.447 2.73c-.432.257-.957-1.933.291-3.363a8.134 8.134 0 001.412-2.647c.14.07 2.381 4.31-1.003 6.22zm-2.439-5.857s-.444.153-.14-.199c.478-.68.77-1.476.852-2.296 0 0-.502 1.863-1.307 2.296-.374.211-.771-1.687.326-2.87a6.794 6.794 0 001.272-2.225c.117.07 1.938 3.748-1.015 5.294m-2.719-5.306s-.432.246-.187-.175a5.06 5.06 0 00.409-2.59s-.129 2.062-.876 2.695c-.35.293-1.167-1.593-.256-3.08a7.656 7.656 0 00.863-2.613c.14.035 2.813 3.49.047 5.763zm-15.568 73.595a26.008 26.008 0 007.714-5.986C195.594 82.056 189 85.5 189 85.5l.805-2.202z" fill="#fff"/></svg>