<svg width="288" height="219" viewBox="0 0 288 219" fill="none" xmlns="http://www.w3.org/2000/svg"><path d="M208.622 10.218V2.706h-3.144c-.564 0-1.02.024-1.524.072V1.422c.456.048.924.072 1.512.072h6.948c.564 0 1.032-.024 1.524-.072v1.356c-.48-.048-.996-.072-1.524-.072h-2.412v2.928h2.052c.576 0 .96-.024 1.344-.072v1.332a10.662 10.662 0 00-1.344-.072h-2.052v3.396h2.748c.6 0 1.104-.024 1.584-.084v1.392c-.468-.06-.936-.084-1.572-.084h-7.668c-.6 0-1.068.024-1.584.084v-1.392c.444.072.768.084 1.56.084h.252V6.342c0-.624-.024-1.116-.084-1.56h1.524c-.06.42-.084.924-.084 1.548v3.888h1.944zm-16.668-6.636h-.228c-.216.624-.372.948-.744 1.536a4.76 4.76 0 00-.888-.948c.504-.756.792-1.524.996-2.604.024-.12.048-.36.084-.696l1.26.228c-.06.156-.072.204-.18.648-.048.18-.084.312-.18.684h.924c.468 0 .672-.012.912-.048v1.224c-.24-.012-.372-.024-.768-.024-.024 1.308-.024 1.308-.06 1.968h.24c.3 0 .552-.012.732-.036-.108-.168-.168-.228-.36-.42.912-.42 1.32-.708 1.86-1.272h-.372c-.528 0-.756.012-1.056.048V2.778c.348.024.54.036 1.032.036h1.14c.12-.216.18-.324.276-.54-.576.036-.996.048-2.064.06-.216-.552-.24-.612-.444-.984.432.012.756.024.924.024 1.992 0 4.104-.252 4.836-.576l.732 1.02c-.12.024-.132.024-.3.048-.648.12-1.608.252-2.376.324-.12.252-.168.336-.312.624h2.136c.576 0 1.02-.024 1.32-.06v1.128a9.903 9.903 0 00-1.284-.06h-.672c.492.504 1.224.888 2.292 1.212-.264.384-.324.528-.54 1.128a7.53 7.53 0 01-1.392-.732v.42c0 .372 0 .528.024.744-.228-.012-.444-.024-.828-.024h-2.46c-.372 0-.6.012-.828.024.024-.24.036-.396.036-.744v-.432c-.36.288-.504.396-.972.684a2.23 2.23 0 00-.276-.492v1.152a5.103 5.103 0 00-.828-.048h-.324c-.024.204-.036.288-.084.6a6.988 6.988 0 001.308 1.656V7.95c0-.396-.024-.72-.06-1.02.276.036.648.06 1.188.06h4.32c.564 0 .924-.012 1.212-.06-.036.336-.048.792-.048 1.224v2.52c0 .708-.096.936-.444 1.08-.24.12-.612.156-1.392.156-.12 0-.3 0-.54-.012-.024-.42-.072-.624-.192-1.032h-1.236v.468h-1.044c.024-.168.036-.516.036-.792V9.174c0-.36-.012-.552-.024-.768.156.036.276.036.684.036h1.68c.384 0 .504 0 .66-.036-.024.204-.024.276-.024.732v1.596h.312c.264 0 .312-.048.312-.324V7.998h-4.2v2.676c0 .792 0 1.008.048 1.332h-1.32c.048-.36.072-.792.072-1.512v-1.32c-.216.288-.348.528-.564 1.044-.468-.492-.708-.828-1.08-1.464-.348 1.104-.792 1.848-1.656 2.784-.18-.432-.42-.768-.852-1.188 1.044-.948 1.464-1.812 1.728-3.636h-.528c-.348 0-.636.024-.936.06V5.49c.3.048.588.06 1.02.06h.564c.036-.552.048-1.02.06-1.968zm5.736.24h-.744c-.18.252-.264.348-.444.552h1.668a7.55 7.55 0 01-.48-.552zm-.696 5.448v.696h1.008V9.27h-1.008zm-.48-4.08v.54h1.764v-.54h-1.764zm-8.796 4.956l-1.152 1.248a23.068 23.068 0 00-3.684-3.564c-1.356 1.512-2.736 2.568-4.572 3.468-.336-.624-.48-.816-.972-1.332.924-.36 1.5-.684 2.4-1.32 1.812-1.272 3.252-3.012 4.032-4.884l.132-.312c-.192.012-.192.012-3.972.072-.576.012-.9.036-1.308.096l-.048-1.536c.336.06.564.072 1.056.072h.288l4.224-.06c.672-.012.768-.024 1.068-.132l.792.816c-.156.18-.252.348-.384.648-.552 1.284-1.14 2.328-1.872 3.312a18.6 18.6 0 012.22 1.74c.3.264.3.264 1.752 1.668zM165.369 7.23V5.562c.528.072.756.084 1.944.084h6.396c1.188 0 1.416-.012 1.944-.084V7.23c-.48-.06-.612-.06-1.956-.06h-6.372c-1.344 0-1.476 0-1.956.06zm-9.563-4.38v2.424c1.812-.336 4.464-1.404 5.244-2.136l.96 1.356c-.132.048-.156.06-.252.108l-.312.156a20.323 20.323 0 01-5.64 1.908V8.25c-.012.072-.012.144-.012.192 0 .672.048.936.216 1.104.204.204.888.312 2.052.312.804 0 1.908-.072 2.784-.192a7.09 7.09 0 001.368-.288l.072 1.596c-.252 0-.312.012-1.584.132-.708.072-2.22.144-2.952.144-1.512 0-2.34-.156-2.808-.516-.336-.252-.516-.636-.588-1.224-.024-.204-.036-.408-.036-1.104l-.012-5.568c0-.612 0-.804-.048-1.104h1.608c-.048.288-.06.504-.06 1.116zm6.912-2.124a1.39 1.39 0 011.392 1.38c0 .768-.624 1.392-1.392 1.392a1.39 1.39 0 01-1.38-1.392c0-.756.624-1.38 1.38-1.38zm0 .6a.778.778 0 00-.78.78c0 .432.348.792.78.792.444 0 .792-.36.792-.792a.781.781 0 00-.792-.78zm-12.443 8.82l-1.152 1.248a23.068 23.068 0 00-3.684-3.564c-1.356 1.512-2.736 2.568-4.572 3.468-.336-.624-.48-.816-.972-1.332.924-.36 1.5-.684 2.4-1.32 1.812-1.272 3.252-3.012 4.032-4.884l.132-.312c-.192.012-.192.012-3.972.072-.576.012-.9.036-1.308.096l-.048-1.536c.336.06.564.072 1.056.072h.288l4.224-.06c.672-.012.768-.024 1.068-.132l.792.816c-.156.18-.252.348-.384.648-.552 1.284-1.14 2.328-1.872 3.312a18.6 18.6 0 012.22 1.74c.3.264.3.264 1.752 1.668zm-14.329-7.164l.696.708c-.108.228-.12.3-.18.66-.204 1.38-.384 2.052-.756 2.904-.588 1.38-1.548 2.448-2.964 3.312-.72.444-1.344.72-2.388 1.08-.276-.612-.42-.828-.96-1.428 1.14-.276 1.8-.528 2.556-.996 1.74-1.08 2.652-2.604 2.88-4.812h-5.856v1.548c0 .372.012.696.036.96h-1.608c.036-.3.06-.672.06-1.008V4.17c0-.504-.012-.816-.048-1.14.42.048.636.06 1.296.06h2.352V2.058c0-.384-.012-.6-.06-.876h1.668c-.036.204-.06.528-.06.864v1.032h2.16c.888 0 .888 0 1.176-.096zm-20.88 3.108l1.176-.852c.636.528.996.852 1.488 1.332.66.672.66.672.744.744a14.737 14.737 0 001.572-1.512c.516-.576 1.176-1.476 1.464-1.956.036-.06.036-.06.072-.108.012-.036.012-.036.024-.06-.12.012-.3.024-.552.024h-5.724c-.972.012-1.092.012-1.536.06V2.238c.468.072.744.084 1.56.084l6.672-.012c.516 0 .696-.012.996-.096l.84.948c-.18.192-.252.276-.528.708-1.14 1.836-2.4 3.312-3.876 4.548.504.576.96 1.152 1.584 2.004l-1.26 1.008c-.672-1.08-1.308-1.908-2.316-3.024-.924-1.02-1.524-1.608-2.4-2.316zm-8.652-2.784c-.228 1.884-.648 3.54-1.248 4.896-.684 1.548-1.452 2.256-2.436 2.256-1.368 0-2.352-1.392-2.352-3.324 0-1.32.468-2.556 1.32-3.492 1.008-1.104 2.424-1.68 4.128-1.68 2.88 0 4.752 1.752 4.752 4.452 0 2.076-1.08 3.732-2.916 4.476-.576.24-1.044.36-1.884.504-.204-.636-.348-.9-.732-1.404 1.104-.144 1.824-.336 2.388-.66 1.044-.576 1.668-1.716 1.668-3 0-1.152-.516-2.088-1.476-2.664-.372-.216-.684-.312-1.212-.36zm-1.464.012a3.055 3.055 0 00-1.548.588c-1.008.72-1.632 1.956-1.632 3.24 0 .984.42 1.764.948 1.764.396 0 .804-.504 1.236-1.536.456-1.08.852-2.7.996-4.056zM91.474 1.074h1.548c-.048.204-.084.804-.084 1.236 0 1.932.313 3.204 1.177 4.728.504.9 1.044 1.536 1.895 2.28.709.624 1.068.876 1.86 1.296-.456.468-.648.756-.936 1.332-1.463-1.02-2.195-1.704-3.047-2.832-.733-.972-1.189-1.896-1.597-3.276-.228.96-.444 1.512-.936 2.424-.48.876-.995 1.524-1.847 2.304-.625.576-1.02.864-1.86 1.38-.276-.552-.505-.852-.937-1.236 1.224-.648 1.86-1.14 2.617-2.004 1.547-1.776 2.195-3.744 2.195-6.624a7.85 7.85 0 00-.048-1.008zm-8.604 4.02h-3.108c.3 1.08.936 2.244 1.728 3.144.888 1.008 1.884 1.692 3.312 2.28-.408.48-.576.732-.876 1.38-1.284-.66-2.112-1.272-2.964-2.196-.78-.828-1.368-1.788-1.812-2.904-.36 1.236-.996 2.268-1.956 3.216-.816.804-1.68 1.368-2.868 1.884-.204-.456-.456-.828-.84-1.26.864-.348 1.344-.6 1.944-1.02 1.608-1.14 2.412-2.484 2.7-4.524h-2.832c-.756 0-1.104.024-1.5.084V3.654c.372.06.804.084 1.512.084h2.94c.024-.6.036-.792.036-1.416 0-.504-.036-.864-.084-1.2h1.584c-.06.42-.072.6-.084 1.404 0 .492-.012.768-.024 1.212h3.18c.684 0 1.104-.024 1.512-.084v1.524c-.48-.06-.84-.084-1.5-.084zM252 51.085c-1.605-.089-3.227-.071-4.818-.293-2.613-.36-4.156-2.075-4.89-4.51a11.87 11.87 0 01-.504-3.27c-.053-6.428-.039-12.857-.044-19.285 0-.209.08-.418.146-.733h5.628v4.54H252v4.887c-1.437.085-2.873.17-4.39.258 0 3.447-.075 6.753.027 10.05.062 2.052.981 2.82 3.046 2.967.437.031.875.036 1.317.053v5.336z" fill="#fff"/><path d="M168.975 39.165c-.035 7.744-6.211 13.853-13.983 13.835-7.921-.018-14.026-6.29-13.956-14.35.067-7.637 6.379-13.79 14.12-13.763 7.727.03 13.859 6.366 13.819 14.278zm-5.053 1.329h-17.475c-.261 4.34 2.883 7.926 7.175 8.325 5.681.53 9.496-2.496 10.3-8.325z" fill="#E66176"/><path d="M82.594 43.19l3.793 2.834c-.663 1.937-2.228 2.91-3.81 3.767-6.521 3.523-17.6.636-17.644-10.578-.026-6.046 3.01-10.533 8.307-11.8 6.171-1.479 12.444 1.573 13.492 8.784.199 1.377.318 2.763.504 4.429H71.312c-.08 2.395.756 3.91 2.755 4.696 3.209 1.266 6.051.546 8.531-2.133h-.004zm-1.764-6.505c-.3-3.056-2.122-4.727-4.924-4.673-2.604.048-4.355 1.786-4.629 4.673h9.558-.005zm133.727 6.505c1.383 1.04 2.603 1.959 3.93 2.959-2.719 3.87-6.379 5.238-10.769 4.975-5.066-.297-9.076-3.474-10.393-8.179-1.508-5.398.212-11.173 4.204-13.963 5.424-3.794 15.879-2.519 17.232 7.624.163 1.235.137 2.492.212 4.082h-15.977c.062 2.35 1.123 3.861 3.015 4.63 3.21 1.302 6.043.489 8.546-2.128zm-1.91-6.522c-.097-2.941-1.914-4.683-4.752-4.66-2.706.022-4.527 1.848-4.642 4.66h9.398-.004zm-105.12 13.959h-4.978c-.176-.315-.358-.63-.565-1-.257.107-.549.178-.787.33-2.94 1.883-6.017 1.728-9.058.435-2.984-1.266-4.523-4.327-4.187-7.824.283-2.932 2.493-5.353 5.548-6.162 2.732-.724 5.38-.488 7.98.587.415-3.021-.69-4.603-3.532-4.536-2.083.049-4.147.648-6.627 1.075-.513-.902-1.264-2.213-2.091-3.665 4.451-2.68 9.075-3.563 13.947-1.813 2.843 1.022 4.24 3.448 4.315 6.389.132 5.313.035 10.635.035 16.18v.004zm-13.686-7.406c.813 2.928 3.73 4.217 6.308 2.786 2.109-1.168 2.206-4.03.177-5.278-2.511-1.542-5.548-.373-6.485 2.488v.004zm146.153-13.488c-.553 1.595-1.079 3.106-1.676 4.816-2.33-1.448-4.655-2.674-7.272-1.662-1.171.454-2.369 1.267-3.147 2.248-1.888 2.373-1.645 6.394.274 8.664 2.206 2.617 5.565 2.75 10.132.235a1705.42 1705.42 0 011.534 4.625c-4.248 3.98-11.967 3.203-15.831-.737-4.19-4.27-4.571-11.782-.68-16.443 4.137-4.958 11.776-5.74 16.661-1.746h.005zm-184.658-.007l-1.649 4.842c-2.33-1.497-4.73-2.745-7.427-1.648-1.162.471-2.33 1.333-3.094 2.328-1.852 2.408-1.53 6.375.455 8.632 2.233 2.541 5.35 2.64 10.053.213.522 1.52 1.034 3.017 1.538 4.479-3.793 3.994-11.551 3.358-15.512-.338-4.399-4.11-4.991-11.68-1.154-16.562 4.12-5.238 12.038-5.9 16.786-1.946h.004zm84.046 4.178c-4.257-1.973-7.374-1.635-9.407.915-1.888 2.368-1.941 6.344-.115 8.699 2.078 2.675 5.256 3.066 9.513 1.097.739 1.378 1.486 2.76 2.224 4.137-3.408 3.62-11.344 3.398-15.512-.68-4.377-4.279-4.766-11.889-.823-16.59 4.545-5.415 12.52-5.34 16.357-1.91-.725 1.395-1.459 2.817-2.241 4.328l.004.004zm45.202-6.182h5.509c.115.768.234 1.541.389 2.554 1.671-1.794 3.333-3.3 5.994-3.14v5.94c-.159.066-.345.208-.544.226-3.527.31-5.318 2.714-5.366 6.362-.04 3.1-.009 6.206-.014 9.312v1.621h-5.972V27.722h.004zm-68.579 22.876h-5.791v-22.8h5.65l.199 2.705c1.68-1.937 3.377-3.638 6.189-3.296v5.744c-.137.116-.239.271-.354.285-4.093.43-5.61 3.039-5.632 6.846-.017 3.398-.026 6.797-.044 10.2 0 .058-.079.12-.221.32l.004-.004zm-58.922-31.6h5.764v31.596h-5.764V18.998zm113.669 8.747h5.641c.044.889.079 1.688.128 2.732 1.644-1.883 3.324-3.483 6.061-3.336v5.935c-.133.058-.319.2-.513.218-2.891.249-5.128 2.004-5.292 5.971-.123 3.026-.044 6.06-.053 9.09v2.257h-5.972V27.745zm-44.796 79.202a5.996 5.996 0 002.017-1.078c.057.105-.235 3.737-3.232 3.51 0 0-.405-.105-.016-.219a4.057 4.057 0 001.717-1.329s-1.255 1.167-2.074 1.119c-.388-.025.179-1.63 1.58-2.003h.008zm-3.629-6.915a5.83 5.83 0 01-1.912-1.12c-.065.098.081 3.625 2.989 3.519 0 0 .397-.081.025-.202a3.96 3.96 0 01-1.612-1.354s1.166 1.175 1.96 1.159c.373-.008-.105-1.589-1.45-2.002zm1.401 6.202c.381.04.081-1.622-1.223-2.206a6.042 6.042 0 01-1.798-1.37c-.073.089-.365 3.681 2.6 3.924 0 0 .413-.032.049-.202a4.005 4.005 0 01-1.466-1.565s1.028 1.329 1.838 1.411v.008zm.292 7.491c.826.146 2.212-.908 2.212-.908a4.143 4.143 0 01-1.88 1.159c-.405.081 0 .219 0 .219 3.014.543 3.694-3.105 3.646-3.219-.657.43-1.386.73-2.155.892-1.458.227-2.204 1.8-1.807 1.865l-.016-.008zm-3.078-18.517a5.968 5.968 0 01-2.082-.762c-.049.105.721 3.55 3.564 2.934 0 0 .381-.145-.016-.21a3.938 3.938 0 01-1.823-1.046s1.353.957 2.131.794c.364-.073-.389-1.54-1.782-1.71h.008zm1.126 24.694c.38.138.51-1.653-.681-2.594a6.318 6.318 0 01-1.49-1.881c-.106.081-1.337 3.705 1.652 4.743 0 0 .43.073.106-.203a4.285 4.285 0 01-1.102-2.002s.721 1.646 1.531 1.937h-.016zm1.166-4.199c.381.105.373-1.638-.85-2.457a6.107 6.107 0 01-1.58-1.71c-.097.073-1.029 3.68 1.936 4.451 0 0 .421.04.081-.203a4.295 4.295 0 01-1.215-1.848s.818 1.54 1.62 1.759l.008.008zm-4.415 13.442c.34.235.972-1.476.033-2.732a6.536 6.536 0 01-.981-2.27c-.121.048-2.316 3.324.373 5.14 0 0 .413.186.154-.171a4.4 4.4 0 01-.559-2.278s.251 1.8.98 2.303v.008zm2.001-4.954c.373.162.6-1.613-.543-2.627a6.452 6.452 0 01-1.393-1.962c-.105.073-1.539 3.624 1.385 4.816 0 0 .43.097.114-.194a4.258 4.258 0 01-.989-2.052s.624 1.679 1.418 2.019h.008zm3.087-13.734c.389.041.105-1.637-1.215-2.237a5.99 5.99 0 01-1.807-1.403c-.081.09-.405 3.73 2.592 4.005 0 0 .422-.024.049-.21a4.036 4.036 0 01-1.466-1.598s1.037 1.362 1.855 1.443h-.008zm-5.136-22.992c.559-.462.656-1.97.656-1.97a3.558 3.558 0 01-.308 1.897c-.186.308.138.13.138.13 2.074-1.662.064-4.191-.033-4.216a5.518 5.518 0 01-.648 1.914c-.68 1.086-.073 2.464.195 2.253v-.008zm.137 2.06s.341-.146-.016-.187a3.598 3.598 0 01-1.701-.892s1.264.82 1.977.649c.332-.081-.405-1.395-1.685-1.5a5.598 5.598 0 01-1.928-.624c-.033.097.785 3.218 3.361 2.554h-.008zm5.396 15.071c.785-.178 1.644-1.638 1.644-1.638a4.122 4.122 0 01-1.247 1.743c-.341.219.072.195.072.195 2.901-.624 2.155-4.151 2.066-4.232a5.987 5.987 0 01-1.604 1.589c-1.223.746-1.296 2.432-.923 2.343h-.008zm-7.316-19.028c-.064-.68-1.19-1.548-1.19-1.548a3.39 3.39 0 011.32 1.232c.146.308.17-.04.17-.04-.21-2.49-3.232-2.238-3.313-2.173a4.87 4.87 0 011.15 1.508c.494 1.102 1.888 1.346 1.855 1.03l.008-.009zm.511 5.019c-.041.097.615 3.04 3.054 2.513 0 0 .324-.13-.016-.178a3.44 3.44 0 01-1.564-.892s1.159.81 1.823.68c.316-.064-.332-1.32-1.523-1.467a4.823 4.823 0 01-1.782-.656h.008zm6.278 9.218c.745-.268 1.401-1.792 1.401-1.792a3.865 3.865 0 01-1.012 1.84c-.3.252.097.187.097.187 2.746-.957 1.596-4.297 1.507-4.37a5.954 5.954 0 01-1.369 1.743c-1.094.876-.972 2.521-.624 2.392zm-1.167-4.265c.689-.389 1.086-2.002 1.086-2.002a3.987 3.987 0 01-.689 1.986c-.259.3.13.162.13.162 2.552-1.394.859-4.5.762-4.548a5.879 5.879 0 01-1.062 1.938c-.939 1.045-.542 2.643-.218 2.464h-.009zm-1.757-4.28c.599-.317.98-1.679.98-1.679a3.45 3.45 0 01-.64 1.687c-.227.25.105.146.105.146 2.22-1.136.851-3.835.77-3.884a5.09 5.09 0 01-.956 1.63c-.826.867-.535 2.245-.251 2.1h-.008zm1.514 34.942c-1.563-.162-2.713 1.248-2.333 1.419.81.364 2.487-.333 2.487-.333a4.486 4.486 0 01-2.252.681c-.445-.032-.064.219-.064.219 2.94 1.386 4.641-2.173 4.617-2.302a6.674 6.674 0 01-2.455.316zm-14.849 15.185l-.607 1.613s4.958-2.513 6.408-5.991a19.607 19.607 0 01-5.809 4.378h.008zm9.867-6.575c-1.628-.479-3.208.754-2.835 1.013.786.551 2.787.178 2.787.178a4.817 4.817 0 01-2.536.276c-.462-.122-.113.219-.113.219 2.859 2.059 5.387-1.403 5.387-1.54a7.152 7.152 0 01-2.682-.154l-.008.008zm-1.596-1.727s.414.203.162-.17a4.503 4.503 0 01-.526-2.335s.227 1.897.956 2.432c.348.251 1.021-1.541.089-2.838a6.765 6.765 0 01-.956-2.335c-.121.041-2.438 3.333.267 5.246h.008zm4.399-2.343c-1.539-.422-2.997.819-2.641 1.054.754.502 2.609.073 2.609.073a4.423 4.423 0 01-2.374.3c-.437-.114-.105.211-.105.211 2.722 1.888 5.039-1.403 5.039-1.541a6.809 6.809 0 01-2.528-.097zm3.054-12.372c.843.179 2.325-.843 2.325-.843a4.328 4.328 0 01-1.992 1.119c-.43.065-.025.227-.025.227 3.087.697 3.945-3.04 3.897-3.154a6.312 6.312 0 01-2.26.811c-1.515.17-2.342 1.767-1.945 1.848v-.008zm-1.385 4.459c.826.243 2.382-.657 2.382-.657a4.4 4.4 0 01-2.074.957c-.429.024-.032.227-.032.227 3.013.941 4.172-2.716 4.139-2.837a6.466 6.466 0 01-2.317.632c-1.523.049-2.479 1.565-2.09 1.686l-.008-.008zm-8.457 8.61c-.138.024-3.216 3-.77 5.537 0 0 .389.292.211-.146a4.725 4.725 0 01-.081-2.537s-.089 2.027.567 2.724c.308.332 1.312-1.403.599-2.951a7.136 7.136 0 01-.526-2.627zM37.972 96.594c-.106.333-.292.406-.98.406-.551 0-.6-.033-.6-.398l.032-6.51c.017-.786.017-1.062.073-1.662-.526.04-1.037.073-1.79.073h-2.422c.032-.616.04-.965.056-1.735.017-.616.033-.916.09-1.346h-1.84c.041.406.073.86.073 1.33 0 .657-.016.989-.04 1.751h-2c-.876 0-1.386-.032-1.84-.09v1.752c.47-.057.98-.09 1.84-.09h1.879c-.203 1.809-.51 2.887-1.11 4.03-.73 1.403-1.766 2.408-3.37 3.267.51.422.858.835 1.199 1.42a9.67 9.67 0 002.082-1.639c1.223-1.224 1.952-2.586 2.454-4.556.203-.786.292-1.386.405-2.521h2.6l-.04 7.167c0 1.005.405 1.273 2.017 1.273 1.458 0 2.058-.146 2.374-.552.348-.454.51-1.346.656-3.518-.624-.13-1.077-.308-1.515-.6-.016 1.256-.113 2.23-.275 2.74l-.008.008zm5.565-7.5l-1.385-.291c-.114 1.784-.324 2.7-.875 4.03l1.417.526c.51-1.564.64-2.245.843-4.264zm3.208 4.07l1.353-.64c-.405-1.678-.6-2.278-1.15-3.68l-1.224.494c.494 1.273.745 2.19 1.02 3.827zm-1.094-2.513v-3.559c0-.859.016-1.313.09-1.662h-1.71c.057.438.105 1.038.105 1.695v3.283c0 .803-.073 1.71-.202 2.554-.113.835-.276 1.37-.64 2.165-.454 1.005-.915 1.662-1.734 2.44.47.324.891.762 1.183 1.257.689-.673 1.272-1.46 1.79-2.44.802-1.565 1.126-3.154 1.126-5.724l-.008-.008zm6.886 6.089c0 .932-.032 1.476-.089 1.97h1.71c-.057-.51-.09-.989-.09-1.97v-9.51a15 15 0 01.09-1.824h-1.71c.057.495.09.949.09 1.808v9.526zm-1.353-3.68l1.28-.77c-.583-1.663-.834-2.263-1.458-3.536l-1.166.584c.599 1.273.907 2.132 1.344 3.721zm-3.03 4.758h1.718c-.057-.494-.09-.965-.09-1.864v-8.44c0-.892.017-1.184.09-1.662h-1.718c.073.454.09.819.09 1.678v8.407c0 .876-.033 1.387-.09 1.881zm10.734-7.499a15.646 15.646 0 00-1.077-2.66l-1.183.747c.494.932.762 1.605 1.037 2.659l1.223-.746zm2.01 6.526c-.64 0-.965-.016-1.33-.073v1.622c.47-.057 1.022-.09 1.791-.09h7.129c.745 0 1.312.033 1.766.09v-1.638c-.478.057-.988.09-1.718.09h-2.292v-2.668h2c.617 0 .916.016 1.33.073v-1.573c-.381.04-.697.057-1.345.057h-1.985v-2.06h2.163c.64 0 1.037.017 1.515.074v-1.573c-.454.057-.916.09-1.547.09h-5.882c-.624 0-1.02-.017-1.49-.074v1.549c.437-.04.842-.057 1.498-.057h2.13v6.178h-1.514v-3.39c0-.6.016-1.004.073-1.459h-1.734c.04.479.073.908.073 1.46v3.389h-.64l.008-.017zm-3.5-2.772c.51-.26.875-.47 1.328-.746-.308 1.986-.785 3.024-1.936 4.191.454.381.818.762 1.183 1.257.47-.495.672-.77 1.004-1.33.47-.73.713-1.33 1.005-2.464.292-1.095.478-2.992.478-4.719v-2.23h8.004c.818 0 1.272.017 1.709.058v-1.638c-.478.057-.964.09-1.766.09H65.15v-.204c0-.51.016-.73.073-1.021h-1.79c.04.276.073.551.073 1.005v.22h-2.949c-.818 0-1.256-.017-1.75-.074.073.478.09.762.106 1.767 0 .552.016 1.063.016 1.549 0 .786-.016 1.313-.04 1.938-.949.527-1.807.891-2.334.98l.567 1.533c.146-.09.203-.114.276-.162zm23.914 1.135h1.58c-.041-.333-.057-.657-.057-1.257v-6.323c0-.584.016-.892.056-1.24h-1.563c.04.42.057.712.057 1.24v6.331c0 .543-.033.876-.073 1.24v.009zm-4.188-7.735c-.527 0-.697.017-1.037.057v-1.532c.397.057.729.073 1.369.073h2.114c.689 0 1.053-.016 1.434-.073v1.532a8.636 8.636 0 00-1.142-.057h-1.329c-.105.82-.146.99-.26 1.517h.933c.526 0 .818-.017 1.077-.057l.51.656c-.032.187-.032.26-.073.584-.453 3.924-1.717 6.397-4.43 8.61-.382-.527-.625-.803-1.11-1.224 1.385-.99 2.276-2.003 3.005-3.389-.397-.478-.567-.657-1.426-1.46-.292.47-.494.763-.915 1.282-.276-.584-.51-.99-.86-1.427 1.2-1.387 1.856-2.968 2.148-5.092h-.008zm.324 3.957c.858.786.931.86 1.353 1.33.291-.836.396-1.33.526-2.392h-1.442c-.162.421-.26.673-.437 1.062zm6.391-4.378v9.737c0 .332-.089.38-.834.38-.365 0-1.094-.056-1.693-.113.235.552.324.876.397 1.5.615.032.915.032 1.296.032 1.855 0 2.276-.275 2.276-1.5V87.045c0-.697.016-1.11.073-1.5H83.75c.057.478.09.835.09 1.5v.008zM73.47 91.316c-.032.657-.032 1.038-.032 1.735v3.9c0 .762-.033 1.216-.09 1.751h1.62a15.639 15.639 0 01-.072-1.751v-8.01c.437-.981.672-1.622.875-2.384.04-.162.162-.567.235-.746l-1.507-.55c-.365 2.131-1.385 4.393-2.641 5.812.251.422.47.981.64 1.71.405-.51.55-.729.964-1.475l.008.008zm17.06-3.9c-.291-.778-.47-1.126-1.02-1.929l-1.24.47c.454.673.69 1.127.98 1.938l1.28-.478zm3.678 9.21l-.842 1.354a8.492 8.492 0 00-1.353-.891c-.915.835-1.782 1.256-3.483 1.735a6.266 6.266 0 00-.762-1.346c1.313-.276 2.09-.568 2.892-1.078-.729-.325-1.126-.479-2.163-.86.47-.64.6-.835.948-1.443h-.421c-.527 0-.818.016-1.15.073v-1.475c.324.056.615.073 1.15.073h1.094c.145-.333.202-.511.38-1.038l1.515.292c-.13.364-.186.47-.308.745h2.31c.51 0 .801-.016 1.076-.072v1.475c-.307-.057-.55-.073-1.182-.073-.292.916-.422 1.224-.875 1.865.583.275.688.332 1.183.656l-.008.008zm-1.822-2.529H91c-.203.349-.252.422-.51.819.615.219.801.292 1.239.478.307-.405.51-.786.656-1.297zm-4.812-2.967c.47.47.624.673.948 1.208 1.126-.77 1.587-1.224 2.373-2.295a5.4 5.4 0 00-.04.625v.551c0 .162-.017.324-.04.478h1.563a2.377 2.377 0 01-.057-.543v-.527c0-.113-.016-.292-.04-.6.364.552.566.77 1.296 1.387.397-.69.453-.77.842-1.2-.713-.398-1.02-.617-1.28-.933h.98c.454 0 .713.017.932.04v-1.345c-.178.032-.494.04-.932.04h-1.782v-1.75c0-.438.016-.69.057-.965h-1.588c.057.291.073.543.073.989v1.718h-1.734c-.55 0-.89-.016-1.223-.072v1.402c.324-.057.689-.073 1.215-.073h.786c-.478.697-1.166 1.224-2.333 1.824l-.016.04zm13.99 6.113a6.774 6.774 0 00-.842 1.548 9.835 9.835 0 01-2.844-2.513 11.308 11.308 0 01-3.313 2.61c-.292-.762-.421-.989-.786-1.459.624-.308.818-.405 1.15-.624a9.121 9.121 0 002.074-1.824c-.688-1.24-.964-2.043-1.223-3.43-.26.406-.364.552-.672.965a5.194 5.194 0 00-1.053-1.054c.907-1.135 1.514-2.44 1.968-4.208.186-.689.332-1.564.349-1.986l1.603.325a9.534 9.534 0 00-.202.802c-.09.381-.219.876-.38 1.443h2.535c.696 0 1.021-.016 1.369-.073v1.533c-.292-.041-.454-.041-1.021-.057-.113 2.424-.567 4.135-1.49 5.724.785 1.005 1.636 1.71 2.77 2.278h.008zm-2.77-8.002h-1.88a9.345 9.345 0 00-.186.454c.235 1.565.543 2.602 1.166 3.843.567-1.224.835-2.465.908-4.29l-.008-.007zm-3.84-3.26l-1.313-.542a7.212 7.212 0 01-1.037 1.953l1.24.552c.454-.673.55-.844 1.11-1.97v.008zm-26.507 44.372a25.838 25.838 0 001.297-3.065c.178-.486.21-.567.324-.859l-1.15-.373c-.082.567-.325 1.443-.616 2.205a15.239 15.239 0 01-3.111 4.978c.26.276.534.665.648.94a13.177 13.177 0 001.653-2.367 28.387 28.387 0 00-.065 2.011v5.107c0 .892-.033 1.378-.114 1.946h1.248a13.41 13.41 0 01-.114-1.897v-8.626zm7.648 8.723a49.527 49.527 0 001.83-5.48 65 65 0 01.568-1.946l-1.232-.373c-.194 1.8-1.263 5.545-2.22 7.799h-3.807c-.81 0-1.296-.032-1.75-.097v1.167c.519-.081 1.053-.113 1.783-.113h7.355c.68 0 1.248.032 1.75.113v-1.167c-.454.065-.956.097-1.75.097h-2.527zm-3.532-.924l1.069-.324c-.567-2.724-.972-4.2-1.782-6.373l-1.02.357c.81 2.027 1.263 3.681 1.733 6.34zm-.94-8.74c-.81 0-1.28-.032-1.717-.097v1.119c.372-.049.874-.081 1.717-.081h6.562c.68 0 1.199.032 1.685.081v-1.119c-.454.065-.94.097-1.685.097H75.17v-1.8c0-.535.033-.875.114-1.232H74.02c.08.405.113.795.113 1.249v1.783h-2.511zm-21.775-7.085l5.022-1.492v19.717h2.755v-23.025l-7.777 1.946v2.854zm-6.821-14.204H83.53v-.811H43.027v.811zM10.874 85.26a3.447 3.447 0 011.32-1.232s-1.126.867-1.19 1.548c-.033.317 1.36.073 1.855-1.03a4.977 4.977 0 011.15-1.507c-.081-.065-3.103-.308-3.313 2.172 0 0 .024.35.17.041l.008.008zm-6.449 33.613s.406-.17-.016-.235a4.369 4.369 0 01-1.993-1.119s1.483 1.021 2.317.843c.397-.081-.429-1.67-1.944-1.848a6.269 6.269 0 01-2.26-.811c-.049.113.81 3.851 3.897 3.162v.008zm-.785-4.686s.397-.138 0-.219a4.207 4.207 0 01-1.88-1.159s1.394 1.054 2.212.908c.389-.065-.357-1.638-1.807-1.865a6.218 6.218 0 01-2.163-.884c-.048.114.632 3.762 3.646 3.211l-.008.008zm4.131 14.001s.373-.251-.065-.219a4.38 4.38 0 01-2.252-.681s1.677.705 2.487.333c.381-.171-.77-1.589-2.333-1.419a6.63 6.63 0 01-2.454-.316c-.025.129 1.677 3.688 4.617 2.302zm-1.928-4.84s.397-.203-.032-.227a4.319 4.319 0 01-2.074-.957s1.555.9 2.382.657c.388-.113-.567-1.63-2.09-1.686a6.287 6.287 0 01-2.325-.633c-.04.122 1.118 3.778 4.14 2.838v.008zM3.721 100.04s.397.073.097-.179a4.045 4.045 0 01-1.013-1.84s.656 1.516 1.402 1.792c.356.13.478-1.516-.624-2.392a5.728 5.728 0 01-1.37-1.743c-.096.073-1.247 3.405 1.508 4.37v-.008zm-.503 4.856s.414.024.073-.195a4.01 4.01 0 01-1.247-1.743s.85 1.46 1.644 1.638c.373.089.292-1.597-.923-2.343a5.994 5.994 0 01-1.604-1.589c-.09.081-.835 3.608 2.066 4.232h-.009zm.025 4.475s.405-.097.016-.219a4.067 4.067 0 01-1.717-1.329s1.247 1.167 2.065 1.118c.39-.024-.178-1.629-1.58-2.002a6 6 0 01-2.017-1.078c-.056.105.235 3.737 3.233 3.51zm7.056 23.009s.332-.325-.106-.211a4.571 4.571 0 01-2.373-.3s1.855.438 2.608-.073c.357-.235-1.101-1.476-2.64-1.054a6.635 6.635 0 01-2.528.097c0 .138 2.317 3.429 5.039 1.541zm4.35 4.629c1.442 3.478 6.408 5.991 6.408 5.991l-.6-1.613a19.607 19.607 0 01-5.808-4.378zm.559-2.724a4.735 4.735 0 01-.081 2.537c-.186.438.202.146.202.146 2.447-2.537-.623-5.513-.77-5.537a7.132 7.132 0 01-.526 2.627c-.713 1.548.292 3.275.6 2.951.656-.697.567-2.724.567-2.724h.008zm-2.763-6.454a6.812 6.812 0 01-.956 2.343c-.931 1.297-.259 3.089.09 2.838.729-.535.956-2.432.956-2.432a4.5 4.5 0 01-.527 2.335c-.251.373.162.17.162.17 2.714-1.913.397-5.205.267-5.254h.008zm-3.62-38.728c.704.17 1.976-.649 1.976-.649a3.598 3.598 0 01-1.701.892c-.357.033-.025.179-.025.179 2.577.664 3.395-2.457 3.362-2.554-.6.324-1.247.543-1.928.624-1.272.105-2.017 1.427-1.677 1.508h-.008zm1.765 45.709a7.117 7.117 0 01-2.681.146c0 .137 2.527 3.599 5.379 1.54 0 0 .348-.349-.114-.219a4.834 4.834 0 01-2.535-.276s1.993.373 2.779-.178c.372-.259-1.207-1.492-2.836-1.013h.008zM5.552 97.38c2.843.617 3.613-2.829 3.564-2.934-.64.38-1.345.64-2.082.762-1.393.17-2.147 1.637-1.782 1.71.777.162 2.13-.794 2.13-.794A4.007 4.007 0 015.56 97.17c-.397.056-.017.21-.017.21h.009zm-.705-1.694s.38.13.13-.162a3.955 3.955 0 01-.69-1.986s.398 1.605 1.086 2.002c.324.187.721-1.419-.218-2.465a5.81 5.81 0 01-1.062-1.937c-.105.057-1.79 3.154.762 4.556l-.008-.008zm-.39 14.926c-.364.186.05.21.05.21 2.997-.275 2.673-3.907 2.592-4.005a6.097 6.097 0 01-1.807 1.403c-1.32.6-1.604 2.278-1.215 2.237.818-.089 1.855-1.443 1.855-1.443a4.1 4.1 0 01-1.466 1.598h-.008zm.787 5.383c2.965-.779 2.033-4.378 1.936-4.451a6.11 6.11 0 01-1.58 1.71c-1.223.827-1.223 2.562-.85 2.457.802-.227 1.62-1.759 1.62-1.759a4.173 4.173 0 01-1.215 1.848c-.34.243.08.203.08.203l.009-.008zm4.496 13.304c2.697-1.816.494-5.1.372-5.14a6.515 6.515 0 01-.98 2.27c-.94 1.256-.308 2.967.033 2.732.729-.503.98-2.303.98-2.303a4.405 4.405 0 01-.56 2.279c-.25.364.155.17.155.17v-.008zm-2.034-4.865c2.925-1.183 1.5-4.742 1.386-4.815a6.21 6.21 0 01-1.394 1.962c-1.142 1.005-.915 2.78-.542 2.626.793-.332 1.417-2.018 1.417-2.018a4.335 4.335 0 01-.988 2.051c-.316.292.113.194.113.194h.008zm-1.369-4.459c-.332.276.106.203.106.203 2.989-1.038 1.75-4.662 1.652-4.743a6.45 6.45 0 01-1.49 1.881c-1.2.941-1.07 2.732-.68 2.595.81-.292 1.53-1.938 1.53-1.938a4.224 4.224 0 01-1.101 1.994l-.017.008zm.34-28.561s.333.113.106-.138a3.415 3.415 0 01-.64-1.678s.38 1.362.98 1.678c.284.154.583-1.233-.251-2.1a5.104 5.104 0 01-.964-1.63c-.09.049-1.45 2.74.77 3.876v-.008zm.503 1.305c.664.138 1.823-.673 1.823-.673-.43.43-.973.738-1.564.892-.332.048-.016.178-.016.178 2.438.527 3.094-2.416 3.054-2.513a4.978 4.978 0 01-1.782.657c-1.191.145-1.84 1.402-1.523 1.467l.008-.008zm-2.552 13.677c-.365.178.049.202.049.202 2.965-.243 2.673-3.834 2.6-3.923a6.076 6.076 0 01-1.798 1.37c-1.305.583-1.604 2.237-1.224 2.205.81-.081 1.84-1.411 1.84-1.411a4.057 4.057 0 01-1.467 1.565v-.008zm4.1-18.866s.323.187.137-.13a3.718 3.718 0 01-.308-1.897s.097 1.508.656 1.97c.268.22.875-1.159.195-2.253a5.52 5.52 0 01-.648-1.914c-.106.033-2.115 2.554-.033 4.216v.008zm-4.521 14.504c.794.016 1.96-1.159 1.96-1.159a4.03 4.03 0 01-1.612 1.354c-.38.129.024.202.024.202 2.909.106 3.054-3.421 2.99-3.518a5.693 5.693 0 01-1.912 1.119c-1.345.413-1.823 1.994-1.45 2.002zm275.2 20.16c.137.762.477 1.467.987 2.051.315.292-.113.194-.113.194-2.929-1.183-1.497-4.741-1.384-4.814a6.182 6.182 0 001.392 1.961c1.14 1.005.914 2.78.542 2.626-.793-.332-1.416-2.018-1.416-2.018h-.008zm4.32-15.95c.38.04.08-1.621-1.222-2.205a6.047 6.047 0 01-1.796-1.37c-.073.089-.364 3.68 2.597 3.923 0 0 .412-.032.048-.203a4.005 4.005 0 01-1.464-1.564s1.028 1.329 1.837 1.41v.009zm.178 4.23c.388.041.105-1.637-1.214-2.237a5.982 5.982 0 01-1.804-1.402c-.081.089-.404 3.729 2.589 4.004 0 0 .42-.024.048-.211a4.033 4.033 0 01-1.464-1.596s1.036 1.361 1.853 1.442h-.008zm-2.953-15.253a5.955 5.955 0 01-2.079-.762c-.048.105.72 3.55 3.559 2.934 0 0 .38-.146-.016-.21a3.932 3.932 0 01-1.82-1.047s1.351.957 2.127.795c.364-.073-.388-1.54-1.779-1.71h.008zm1.124 24.688c.381.137.51-1.654-.679-2.594a6.34 6.34 0 01-1.489-1.88c-.105.081-1.334 3.704 1.651 4.741 0 0 .428.073.105-.202a4.3 4.3 0 01-1.1-2.002s.72 1.645 1.529 1.937h-.017zm1.95-6.184c.825.145 2.208-.908 2.208-.908a4.129 4.129 0 01-1.877 1.159c-.404.081 0 .219 0 .219 3.01.543 3.689-3.105 3.641-3.218a6.3 6.3 0 01-2.152.891c-1.456.227-2.2 1.8-1.804 1.865l-.016-.008zm-.785 1.977c.38.106.372-1.637-.849-2.456a6.114 6.114 0 01-1.578-1.71c-.097.073-1.027 3.68 1.934 4.45 0 0 .42.04.081-.203a4.287 4.287 0 01-1.214-1.848s.817 1.54 1.618 1.759l.008.008zm-.906-15.675a5.808 5.808 0 01-1.909-1.118c-.065.097.081 3.622 2.985 3.517 0 0 .396-.081.024-.203a3.942 3.942 0 01-1.609-1.353s1.164 1.175 1.957 1.159c.372-.008-.105-1.589-1.448-2.002zm.291-4.49c.688-.39 1.084-2.002 1.084-2.002a3.982 3.982 0 01-.687 1.986c-.259.3.129.162.129.162 2.548-1.394.858-4.499.761-4.547a5.89 5.89 0 01-1.06 1.937c-.938 1.045-.542 2.642-.218 2.464h-.009zm-1.755-4.28c.599-.316.979-1.678.979-1.678a3.448 3.448 0 01-.639 1.686c-.227.252.105.146.105.146 2.216-1.134.849-3.833.768-3.882-.21.6-.542 1.15-.954 1.63-.825.866-.534 2.244-.251 2.098h-.008zm3.438 13.333c.785-.178 1.642-1.637 1.642-1.637a4.125 4.125 0 01-1.246 1.742c-.339.219.073.195.073.195 2.896-.624 2.152-4.15 2.063-4.231a5.994 5.994 0 01-1.602 1.589c-1.221.745-1.294 2.431-.922 2.342h-.008zm-.526-4.79c.744-.267 1.4-1.791 1.4-1.791a3.863 3.863 0 01-1.012 1.84c-.299.251.098.186.098.186 2.742-.956 1.593-4.296 1.504-4.369a5.963 5.963 0 01-1.367 1.743c-1.092.875-.971 2.52-.623 2.391zm.599 9.134c.817.049 2.071-1.118 2.071-1.118a4.13 4.13 0 01-1.715 1.329c-.389.114.016.219.016.219 2.993.235 3.292-3.396 3.227-3.501a5.982 5.982 0 01-2.014 1.078c-1.399.364-1.965 1.977-1.577 2.002l-.008-.009zm-6.868-18.35c-.04.098.615 3.04 3.05 2.513 0 0 .323-.13-.016-.178a3.434 3.434 0 01-1.562-.892s1.157.81 1.82.681c.316-.065-.331-1.321-1.52-1.467a4.822 4.822 0 01-1.78-.656h.008zm1.408-1.061s.339-.146-.017-.187a3.588 3.588 0 01-1.698-.891s1.262.818 1.973.648c.332-.08-.404-1.394-1.682-1.5a5.587 5.587 0 01-1.925-.623c-.033.097.784 3.217 3.357 2.553h-.008zm-1.918-3.956c-.064-.68-1.189-1.547-1.189-1.547.542.283.995.705 1.319 1.231.145.308.17-.04.17-.04-.211-2.488-3.228-2.237-3.309-2.172.478.421.866.932 1.149 1.507.493 1.103 1.885 1.346 1.852 1.03l.008-.008zm1.78 1.897c.558-.462.655-1.97.655-1.97a3.556 3.556 0 01-.307 1.897c-.186.308.137.13.137.13 2.071-1.662.065-4.19-.032-4.215a5.515 5.515 0 01-.647 1.913c-.68 1.086-.073 2.464.194 2.253v-.008zm.049 41.668c.339.235.97-1.475.032-2.731a6.515 6.515 0 01-.979-2.27c-.121.049-2.313 3.323.372 5.139 0 0 .413.186.154-.17a4.41 4.41 0 01-.558-2.278s.251 1.8.979 2.302v.008zm-3.01 3.931s.413.203.162-.17a4.507 4.507 0 01-.526-2.334s.227 1.896.955 2.431c.348.252 1.019-1.54.089-2.837a6.778 6.778 0 01-.955-2.334c-.121.041-2.434 3.331.267 5.244h.008zm1.594 1.727c-1.626-.479-3.203.753-2.831 1.013.784.551 2.782.178 2.782.178-.8.316-1.674.413-2.531.276-.462-.122-.114.218-.114.218 2.856 2.059 5.38-1.402 5.38-1.54a7.09 7.09 0 01-2.678-.154l-.008.009zm-3.98-3.372c-.137.024-3.211 2.999-.768 5.536 0 0 .388.291.21-.146a4.745 4.745 0 01-.081-2.537s-.089 2.026.566 2.723c.308.332 1.311-1.402.599-2.95a7.13 7.13 0 01-.526-2.626zm-5.873 9.945l-.606 1.613s4.95-2.513 6.398-5.99a19.578 19.578 0 01-5.8 4.377h.008zm15.701-23.01c.842.178 2.322-.843 2.322-.843a4.31 4.31 0 01-1.99 1.118c-.429.065-.024.227-.024.227 3.082.697 3.939-3.039 3.891-3.153a6.29 6.29 0 01-2.257.811c-1.513.17-2.338 1.767-1.942 1.848v-.008zm-3.049 12.368c-1.537-.422-2.993.818-2.637 1.053.752.503 2.604.073 2.604.073a4.39 4.39 0 01-2.37.3c-.436-.113-.105.211-.105.211 2.718 1.889 5.032-1.402 5.032-1.54a6.787 6.787 0 01-2.524-.097zm1.666-7.911c.825.243 2.378-.656 2.378-.656-.59.494-1.31.826-2.07.956-.429.024-.033.227-.033.227 3.009.94 4.166-2.715 4.134-2.837a6.432 6.432 0 01-2.314.633c-1.52.048-2.475 1.564-2.087 1.685l-.008-.008zm.51 3.38c-1.561-.162-2.71 1.248-2.33 1.418.809.365 2.484-.332 2.484-.332a4.479 4.479 0 01-2.249.681c-.445-.032-.065.219-.065.219 2.936 1.386 4.635-2.172 4.611-2.302a6.634 6.634 0 01-2.451.316zM178.948 97.304c0 .745.016 1.134.089 1.564h-1.78c.057-.421.089-.819.089-1.589v-1.79h-4.894c-.639 0-1.108.031-1.586.088v-1.661c.47.056.931.089 1.586.089h.744V91.03c0-.324-.016-.543-.04-.843.307.033.623.04 1.019.04h3.171v-1.896h-3.042c-.76 1.184-1.472 2.027-2.402 2.878-.421-.624-.583-.819-1.076-1.297 1.488-1.273 2.241-2.229 2.839-3.664.203-.47.308-.77.348-1.061l1.731.348c-.089.178-.113.219-.218.438-.016.04-.162.348-.421.916h6.819c.688 0 1.052-.017 1.489-.073v1.588c-.453-.056-.833-.073-1.489-.073h-2.968v1.897h2.346c.671 0 1.059-.016 1.496-.073v1.548c-.437-.04-.833-.057-1.456-.057h-2.386v2.367h3.381c.671 0 1.132-.032 1.585-.09v1.662a12.63 12.63 0 00-1.585-.089h-3.381v1.824l-.008-.016zm-1.602-5.674h-2.621v2.367h2.621V91.63zm15.903-2.245v-2.229c0-.494-.016-.908-.04-1.353.396.04.744.056 1.488.056h2.799c.728 0 1.092-.016 1.497-.056-.041.526-.057.891-.057 1.62v9.556c0 .876-.178 1.257-.696 1.476-.307.13-.744.178-1.65.178-.202 0-.259 0-1.003-.04-.089-.657-.162-.916-.38-1.5-.421-.016-.696-.016-.817-.016h-3.09v.818h-1.545c.056-.348.097-.932.097-1.459v-3.558c0-.51-.016-.916-.041-1.313.421.04.761.057 1.351.057h3.252c.615 0 .93-.016 1.351-.057-.032.381-.04.746-.04 1.313v2.967c0 .55.016.891.04 1.272.324.033.841.073 1.108.073.405 0 .542-.105.542-.397V90.69h-2.872c-.509 0-.978.016-1.342.04.032-.421.04-.697.04-1.329l.008-.016zm1.019 5.503H191.3v.949h2.968v-.949zm0-2.058H191.3v.875h2.968v-.875zm.421-5.066h2.726v-.73h-2.726v.73zm0 1.783h2.726v-.745h-2.726v.745zm-7.968 7.416v-9.54c0-.761-.016-1.166-.056-1.637.404.04.784.057 1.496.057h2.581c.76 0 1.092-.016 1.488-.057-.032.47-.04.787-.04 1.354v2.229c0 .672.016 1.005.04 1.329-.38-.032-.833-.04-1.343-.04h-2.637v6.305c0 .876.032 1.402.089 1.791h-1.707c.057-.437.089-.907.089-1.807v.016zm1.529-9.19h2.508v-.73h-2.508v.73zm0 1.782h2.508v-.745h-2.508v.745zm19.236 7.384v-9.572c0-.495-.016-.843-.056-1.548.396.032.671.04 1.294.04h4.368c.623 0 .946-.016 1.254-.056a18.31 18.31 0 00-.041 1.49v9.622c0 .77.033 1.402.073 1.856h-1.658v-.835h-3.656v.859h-1.651c.041-.543.073-1.15.073-1.864v.008zm1.578-7.497h3.656v-2.075h-3.656v2.075zm0 3.444h3.656v-2.058h-3.656v2.058zm0 3.607h3.656v-2.22h-3.656v2.22zm-6.949-.908c.259-.348.526-.786.857-1.49.381-.747.55-1.2.874-2.222a25.29 25.29 0 00-.105 2.189v3.007c0 .745-.032 1.329-.089 1.79h1.715a14.807 14.807 0 01-.089-1.79v-3.753c0-.802-.016-1.15-.057-2.002.437 1.062.744 1.589 1.383 2.448.235-.657.275-.762.583-1.24.04-.057.105-.162.178-.276-.979-.948-1.497-1.718-1.95-2.812h.712c.332 0 .583.016.914.04v-1.548c-.259.057-.55.073-.93.073h-.833v-1.2c0-.672.032-1.126.089-1.499h-1.715c.057.405.089.746.089 1.516v1.183h-.906c-.494 0-.817-.016-1.076-.073v1.564c.307-.04.599-.056 1.06-.056h.712c-.478 1.79-1.279 3.412-2.225 4.555.348.478.55.891.801 1.588l.008.008zm28.094-9.061l-1.416-.551c-.437 1.021-.728 1.507-1.44 2.318.526.219.761.365 1.238.746.704-.843 1.035-1.37 1.618-2.513zm-5.639-.032l-1.439-.349c-.178 1.005-.364 1.491-.89 2.318l1.367.551c.477-.859.687-1.386.962-2.529v.008zm-2.087 12.465c-.218-.527-.436-.964-.695-1.33.016.528.032.69.056 1.006h-1.456v-.6h-1.44v.762h-1.496c.04-.454.073-.965.073-1.427V95.14c0-.438-.016-.746-.057-1.135.291.04.526.057.979.057h2.508c.477 0 .622 0 .873-.04-.032.258-.04.51-.04 1.053v2.447c1.148-.397 1.852-.834 2.475-1.564.76-.875 1.076-2.018 1.076-3.72 0-.405-.016-.624-.041-.908h1.635a5.07 5.07 0 00-.057.819c0 1.442.323 2.496 1.003 3.323.688.835 1.585 1.459 2.766 1.913-.396.543-.542.818-.833 1.548-1.731-.86-2.896-2.027-3.624-3.623-.614 1.75-1.674 2.82-3.688 3.647h-.017zm-2.07-3.72H218.9v1.548h1.513v-1.548zm.161-8.146c.526 0 .785.017 1.181.04V85.73c-.347.056-.598.073-1.181.073h-1.86c-.583 0-.841-.017-1.181-.073v1.402c.348-.033.655-.04 1.181-.04h1.86zm1.311 3.996c.38.421.566.73.841 1.313 1.181-.543 1.804-.964 2.419-1.645a5.4 5.4 0 001.003-1.694c.437.859.55 1.037 1.019 1.564.688.762 1.383 1.256 2.475 1.783.251-.616.397-.859.801-1.442-.914-.325-1.343-.527-1.852-.908-.655-.495-1.092-1.022-1.367-1.646-.219-.47-.364-1.329-.364-2.099 0-.275.016-.543.056-.835h-1.618c.033.325.041.479.041.819 0 1.224-.186 2.075-.639 2.804-.599.965-1.416 1.532-2.823 2.002l.008-.016zm8.283 1.807l-1.399-.567c-.397.98-.696 1.516-1.327 2.278.615.291.688.34 1.222.762.671-.843.946-1.314 1.496-2.464l.008-.009zm-9.335-1.62c.421 0 .639.016.906.04v-1.353c-.251.032-.437.04-.906.04h-2.386c-.453 0-.639-.016-.914-.04v1.353c.275-.032.469-.04.914-.04h2.386zm2.217 1.199c-.203 1.037-.469 1.662-.979 2.391l1.351.616c.469-.778.655-1.24 1.035-2.57l-1.415-.437h.008zm-2.006-3.242c.598 0 .8.016 1.108.057v-1.5a8.4 8.4 0 01-1.165.057h-2.856c-.541 0-.817-.016-1.164-.073v1.516c.347-.04.655-.057 1.164-.057h2.913zm-3.511 4.117a6.88 6.88 0 01.914-.04h2.378c.437 0 .672.016.914.04v-1.353c-.251.032-.437.04-.906.04h-2.386a8.47 8.47 0 01-.914-.04v1.353zm24.769 4.815h-5.29v.624h-1.707c.056-.478.089-1.005.089-1.645V94.88c0-.235 0-.55.016-.818-.89.437-1.197.567-2.314 1.02-.25-.599-.436-.915-.857-1.458a24.136 24.136 0 006.002-2.683h-3.907c-.728 0-1.238.033-1.747.09v-1.606c.396.057.946.09 1.779.09h3.325v-1.273h-2.184c-.768 0-1.238.016-1.658.057v-1.532c.38.057.946.09 1.715.09h2.127v-.252c0-.567-.032-.892-.089-1.28h1.78c-.073.38-.089.688-.089 1.28v.251h1.051c.745 0 1.206-.032 1.634-.089v1.256c.769-.802 1.384-1.62 1.691-2.22l1.44.948c-.105.105-.324.348-.655.745-.583.69-1.206 1.314-1.982 2.019h1.496c.761 0 1.197-.033 1.659-.09v1.605a15.577 15.577 0 00-1.804-.089h-3.131c-.55.397-.914.64-1.569 1.062.323-.016.801-.016 1.181-.016h2.144c.695 0 1.108-.016 1.528-.04-.04.42-.056.77-.056 1.588v3.607c0 .761.032 1.256.089 1.645h-1.691v-.624h-.016zm-3.017-8.656h1.019c.542-.422.93-.762 1.399-1.224-.396-.033-.639-.04-1.221-.04h-1.197v1.272-.008zm3.001 6.16h-5.274v1.126h5.274v-1.127zm0-2.351h-5.274v1.078h5.274v-1.078zm19.309 3.955a6.774 6.774 0 00-.842 1.548 9.821 9.821 0 01-2.839-2.512 11.291 11.291 0 01-3.308 2.61c-.292-.762-.421-.99-.785-1.46.623-.307.817-.405 1.149-.623a9.108 9.108 0 002.07-1.824c-.687-1.24-.962-2.043-1.221-3.428-.259.405-.364.55-.671.964a5.213 5.213 0 00-1.052-1.054c.906-1.134 1.513-2.44 1.966-4.206.186-.69.331-1.564.347-1.986l1.602.324a9.193 9.193 0 00-.202.803c-.089.38-.219.875-.38 1.442h2.532c.695 0 1.019-.016 1.367-.073v1.532c-.292-.04-.453-.04-1.02-.056-.113 2.423-.566 4.133-1.488 5.722.785 1.005 1.634 1.71 2.766 2.277h.009zm-2.767-8h-1.877c-.075.174-.137.325-.186.454.235 1.565.542 2.602 1.165 3.842.566-1.224.833-2.464.906-4.287l-.008-.008zm-3.834-3.258l-1.311-.543a7.197 7.197 0 01-1.035 1.954l1.238.55c.453-.672.55-.842 1.108-1.969v.008zm-.744 10.626l-.842 1.354a8.458 8.458 0 00-1.351-.892c-.914.835-1.779 1.256-3.478 1.734a6.277 6.277 0 00-.76-1.345c1.31-.275 2.087-.567 2.888-1.078-.728-.324-1.125-.478-2.16-.859.469-.64.598-.835.946-1.443h-.42c-.526 0-.817.016-1.149.073v-1.475c.323.057.615.073 1.149.073h1.092c.145-.332.202-.51.38-1.037l1.512.291c-.129.365-.186.47-.307.746h2.297c.51 0 .801-.016 1.076-.073v1.475c-.307-.057-.55-.073-1.181-.073-.291.916-.42 1.224-.873 1.864.582.276.687.333 1.181.657v.008zm-1.82-2.529h-1.384c-.202.349-.25.422-.509.819.614.219.801.292 1.237.478a3.7 3.7 0 00.656-1.297zm-4.805-2.966c.469.47.622.672.946 1.207 1.124-.77 1.586-1.223 2.37-2.293-.032.26-.04.494-.04.624v.551c0 .162-.016.324-.041.478h1.561a2.404 2.404 0 01-.056-.543v-.527c0-.113-.016-.291-.041-.6.364.552.567.77 1.295 1.386.396-.688.453-.77.841-1.2-.712-.396-1.019-.615-1.278-.931h.979c.453 0 .711.016.93.04v-1.345c-.178.032-.494.04-.93.04h-1.78v-1.75c0-.438.016-.69.057-.965h-1.586c.057.292.073.543.073.99v1.717h-1.731c-.55 0-.89-.016-1.222-.073v1.403c.324-.057.688-.073 1.214-.073h.784c-.477.697-1.164 1.224-2.329 1.823l-.016.04zm2.96-3.72c-.291-.779-.469-1.127-1.019-1.93l-1.238.47c.453.673.688 1.127.979 1.938l1.278-.478zm-2.483 48.557c-.938-1.329-1.812-3.242-2.087-4.539-.194-.908-.356-2.561-.356-3.517 0-.519.032-1.168.081-1.443h-1.294c.048.421.064.746.064 1.426 0 3.988-1.1 7.1-3.349 9.516-.938 1.005-1.666 1.54-3.3 2.447.404.308.599.519.874.957 1.407-.892 2.07-1.427 2.976-2.367 1.036-1.037 1.748-2.075 2.314-3.323.55-1.199.825-2.075 1.116-3.615.486 2.172 1.1 3.68 2.103 5.155 1.149 1.67 2.314 2.804 4.288 4.15.275-.47.453-.665.841-1.021-.938-.552-1.359-.827-1.877-1.265a14.31 14.31 0 01-2.394-2.561zm-52.499-5.771c.348.9.518 1.864.518 2.902 0 1.556-.34 2.918-1.019 4.085a7.222 7.222 0 01-2.751 2.723c-1.156.648-2.467.973-3.931.973s-2.75-.325-3.915-.973a7.208 7.208 0 01-2.767-2.723c-.679-1.167-1.019-2.529-1.019-4.085 0-.932.13-1.791.388-2.594a7.753 7.753 0 011.036-2.107l7.636-10.537h3.462l-6.35 8.397c.186-.105.372-.202.574-.259a6.872 6.872 0 011.958-.26c.93 0 1.796.187 2.605.552a6.45 6.45 0 012.135 1.556 7.376 7.376 0 011.44 2.35zm-2.103 2.902c0-1.038-.218-1.962-.663-2.772a4.867 4.867 0 00-1.812-1.897c-.769-.454-1.634-.681-2.605-.681-.971 0-1.836.227-2.605.681a4.867 4.867 0 00-1.812 1.897c-.445.81-.663 1.734-.663 2.772 0 1.037.218 1.953.663 2.739a4.947 4.947 0 001.812 1.865c.769.453 1.634.68 2.605.68.971 0 1.836-.227 2.605-.68a4.947 4.947 0 001.812-1.865c.445-.786.663-1.702.663-2.739zm20.676-9.921c.712 1.751 1.068 3.761 1.068 6.03 0 2.27-.356 4.28-1.068 6.031-.712 1.75-1.699 3.128-2.961 4.133-1.262 1.005-2.726 1.508-4.384 1.508-1.658 0-3.122-.503-4.384-1.508-1.262-1.005-2.249-2.383-2.961-4.133-.712-1.751-1.068-3.761-1.068-6.031 0-2.269.356-4.279 1.068-6.03.712-1.75 1.699-3.128 2.961-4.133 1.262-1.005 2.726-1.508 4.384-1.508 1.658 0 3.122.503 4.384 1.508 1.262 1.005 2.249 2.383 2.961 4.133zm-1.683 6.03c0-1.321-.129-2.536-.388-3.647-.259-1.11-.639-2.075-1.132-2.885-.494-.811-1.092-1.435-1.78-1.881-.688-.445-1.48-.664-2.362-.664-.882 0-1.642.219-2.346.664-.704.446-1.302 1.07-1.796 1.881-.493.81-.873 1.775-1.132 2.885-.259 1.111-.388 2.326-.388 3.647 0 1.322.129 2.537.388 3.648.259 1.11.639 2.075 1.132 2.885.494.811 1.092 1.435 1.796 1.88.704.446 1.48.665 2.346.665.865 0 1.674-.219 2.362-.665.688-.445 1.286-1.069 1.78-1.88.493-.81.873-1.775 1.132-2.885.259-1.111.388-2.326.388-3.648zm20.482-6.03c.712 1.751 1.068 3.761 1.068 6.03 0 2.27-.356 4.28-1.068 6.031-.712 1.75-1.699 3.128-2.961 4.133-1.261 1.005-2.726 1.508-4.384 1.508-1.658 0-3.122-.503-4.384-1.508-1.262-1.005-2.249-2.383-2.961-4.133-.712-1.751-1.068-3.761-1.068-6.031 0-2.269.356-4.279 1.068-6.03.712-1.75 1.699-3.128 2.961-4.133 1.262-1.005 2.726-1.508 4.384-1.508 1.658 0 3.123.503 4.384 1.508 1.262 1.005 2.249 2.383 2.961 4.133zm-1.682 6.03c0-1.321-.13-2.536-.389-3.647-.259-1.11-.639-2.075-1.132-2.885-.494-.811-1.092-1.435-1.78-1.881-.687-.445-1.48-.664-2.362-.664-.882 0-1.642.219-2.346.664-.703.446-1.302 1.07-1.796 1.881-.493.81-.873 1.775-1.132 2.885-.259 1.111-.388 2.326-.388 3.647 0 1.322.129 2.537.388 3.648.259 1.11.639 2.075 1.132 2.885.494.811 1.093 1.435 1.796 1.88a4.278 4.278 0 002.346.665c.866 0 1.675-.219 2.362-.665.688-.445 1.286-1.069 1.78-1.88.493-.81.873-1.775 1.132-2.885.259-1.111.389-2.326.389-3.648zm-36.256-21.073h40.446v-.81h-40.446v.81zm-36.409 28.862c1.439 3.477 6.398 5.99 6.398 5.99l-.598-1.613a19.548 19.548 0 01-5.8-4.377zm.558-2.723a4.742 4.742 0 01-.081 2.537c-.186.438.202.146.202.146 2.443-2.537-.623-5.512-.768-5.536a7.13 7.13 0 01-.526 2.626c-.712 1.548.291 3.275.598 2.95.656-.697.567-2.723.567-2.723h.008zm-10.985-32.242c.792.016 1.957-1.159 1.957-1.159a4.01 4.01 0 01-1.61 1.354c-.38.129.025.202.025.202 2.904.106 3.049-3.42 2.985-3.517a5.686 5.686 0 01-1.909 1.118c-1.343.414-1.82 1.994-1.448 2.002zm.25 8.583c-.364.187.049.211.049.211 2.993-.275 2.669-3.907 2.588-4.004a6.066 6.066 0 01-1.803 1.402c-1.319.6-1.602 2.278-1.214 2.237.817-.089 1.853-1.442 1.853-1.442a4.1 4.1 0 01-1.464 1.596h-.009zm1.092-13.235c2.84.616 3.608-2.829 3.56-2.934-.639.38-1.343.64-2.079.762-1.392.17-2.144 1.637-1.78 1.71.777.162 2.128-.794 2.128-.794a4.004 4.004 0 01-1.82 1.045c-.397.057-.017.21-.017.21h.008zm-1.836 2.658s.397.073.097-.178a4.052 4.052 0 01-1.011-1.84s.655 1.516 1.4 1.791c.355.13.477-1.515-.623-2.39a5.703 5.703 0 01-1.367-1.743c-.097.073-1.246 3.404 1.504 4.368v-.008zm3.98 24.38c2.92-1.183 1.497-4.741 1.383-4.814a6.19 6.19 0 01-1.391 1.961c-1.141 1.005-.914 2.78-.542 2.626.793-.332 1.416-2.018 1.416-2.018a4.347 4.347 0 01-.987 2.051c-.316.292.113.194.113.194h.008zm-1.367-4.457c-.332.275.105.202.105.202 2.985-1.037 1.747-4.66 1.65-4.741a6.45 6.45 0 01-1.488 1.88c-1.197.94-1.068 2.731-.68 2.594.809-.292 1.529-1.937 1.529-1.937a4.227 4.227 0 01-1.1 1.993l-.016.009zm-1.092-3.972c2.961-.778 2.03-4.377 1.933-4.45a6.1 6.1 0 01-1.577 1.711c-1.222.826-1.222 2.561-.849 2.455.8-.227 1.617-1.758 1.617-1.758a4.175 4.175 0 01-1.213 1.848c-.34.243.081.202.081.202l.008-.008zm-.396-20.303s.38.13.129-.162a3.967 3.967 0 01-.688-1.986s.397 1.605 1.084 2.002c.324.186.72-1.418-.218-2.464a5.824 5.824 0 01-1.06-1.937c-.105.057-1.787 3.153.761 4.555l-.008-.008zm1.836-4.28s.331.114.105-.137a3.42 3.42 0 01-.639-1.678s.38 1.362.979 1.678c.283.154.582-1.232-.251-2.1a5.109 5.109 0 01-.963-1.629c-.089.049-1.448 2.74.769 3.874v-.008zm.501 1.305c.664.138 1.82-.672 1.82-.672a3.42 3.42 0 01-1.561.891c-.331.049-.016.178-.016.178 2.435.527 3.09-2.415 3.05-2.512a4.97 4.97 0 01-1.78.656c-1.189.146-1.836 1.403-1.521 1.467l.008-.008zm1.545-5.187s.324.186.138-.13a3.717 3.717 0 01-.307-1.896s.097 1.507.655 1.97c.267.218.873-1.16.194-2.254a5.515 5.515 0 01-.647-1.913c-.105.033-2.112 2.553-.033 4.215v.008zm-4.093 18.852c-.364.179.049.203.049.203 2.96-.243 2.669-3.834 2.596-3.923a6.03 6.03 0 01-1.795 1.37c-1.303.584-1.602 2.237-1.222 2.205.809-.082 1.836-1.411 1.836-1.411a4.048 4.048 0 01-1.464 1.565v-.009zm-1.415-1.483s.412.025.072-.194a4.012 4.012 0 01-1.245-1.743s.849 1.459 1.642 1.637c.372.089.291-1.596-.922-2.342a5.994 5.994 0 01-1.602-1.589c-.089.081-.833 3.607 2.063 4.231h-.008zm4.546 23.286s.372-.251-.065-.219a4.371 4.371 0 01-2.249-.681s1.675.706 2.484.333c.38-.171-.769-1.589-2.33-1.419a6.57 6.57 0 01-2.451-.316c-.024.13 1.674 3.688 4.611 2.302zm-1.925-4.839s.396-.202-.033-.227a4.303 4.303 0 01-2.071-.956s1.554.9 2.379.657c.388-.114-.567-1.63-2.087-1.686a6.272 6.272 0 01-2.322-.633c-.04.122 1.116 3.777 4.134 2.837v.008zm4.449 9.029s.331-.324-.106-.21a4.56 4.56 0 01-2.37-.3s1.853.437 2.605-.073c.356-.235-1.1-1.475-2.637-1.054a6.597 6.597 0 01-2.524.097c0 .138 2.314 3.429 5.032 1.54zm-.559-3.08c2.694-1.815.494-5.098.373-5.138-.178.81-.51 1.58-.979 2.269-.939 1.257-.308 2.967.032 2.732.728-.503.979-2.302.979-2.302.024.794-.17 1.58-.558 2.277-.251.365.153.171.153.171v-.009zm.85 5.512a7.1 7.1 0 01-2.678.146c0 .138 2.524 3.598 5.372 1.54 0 0 .347-.349-.114-.219a4.831 4.831 0 01-2.532-.276s1.99.373 2.775-.178c.372-.259-1.205-1.491-2.831-1.013h.008zm-6.156-15.935s.404-.17-.016-.235a4.346 4.346 0 01-1.99-1.118s1.48 1.021 2.313.843c.397-.081-.428-1.67-1.941-1.848a6.237 6.237 0 01-2.257-.811c-.048.114.809 3.85 3.891 3.161v.008zm6.447-33.603a3.447 3.447 0 011.319-1.232s-1.125.867-1.19 1.548c-.032.316 1.359.073 1.853-1.03a4.962 4.962 0 011.149-1.507c-.081-.065-3.099-.308-3.309 2.172 0 0 .024.349.17.04l.008.009zm-7.224 28.919s.397-.138 0-.219a4.195 4.195 0 01-1.876-1.159s1.391 1.053 2.208.908c.388-.065-.356-1.638-1.804-1.865a6.23 6.23 0 01-2.16-.883c-.048.113.631 3.761 3.64 3.21l-.008.008zm5.177-25.077c.704.17 1.974-.649 1.974-.649a3.588 3.588 0 01-1.698.892c-.356.032-.025.178-.025.178 2.573.665 3.39-2.456 3.357-2.553a5.367 5.367 0 01-1.925.624c-1.27.105-2.014 1.427-1.674 1.508h-.009zm-5.573 20.262s.404-.097.016-.219a4.057 4.057 0 01-1.715-1.329s1.246 1.167 2.063 1.119c.388-.025-.178-1.629-1.577-2.002a5.996 5.996 0 01-2.015-1.078c-.056.105.235 3.736 3.228 3.509zm9.197 18.447a6.809 6.809 0 01-.954 2.343c-.93 1.296-.259 3.088.089 2.836.728-.534.954-2.431.954-2.431a4.497 4.497 0 01-.525 2.334c-.251.373.161.17.161.17 2.71-1.912.397-5.203.267-5.252h.008zm44.113 66.137a4.23 4.23 0 001.101 1.995c.332.284-.105.211-.105.211-2.989-1.038-1.75-4.662-1.653-4.743a6.36 6.36 0 001.499 1.881c1.199.94 1.069 2.732.681 2.594-.811-.292-1.532-1.938-1.532-1.938h.009zm3.475-4.24c.826.146 2.212-.916 2.212-.916a4.135 4.135 0 01-1.88 1.159c-.405.082-.008.219-.008.219 3.014.544 3.694-3.105 3.646-3.218a6.337 6.337 0 01-2.155.892c-1.459.227-2.196 1.799-1.807 1.864h-.008zm-.786 1.978c.381.106.373-1.637-.85-2.456a6.11 6.11 0 01-1.58-1.711c-.089.073-1.021 3.681 1.936 4.451 0 0 .421.041.081-.202a4.298 4.298 0 01-1.215-1.849s.818 1.54 1.62 1.759l.008.008zm-5.735-25.116c-.041.097.615 3.04 3.054 2.513 0 0 .324-.13-.017-.178a3.475 3.475 0 01-1.563-.892s1.158.811 1.823.681c.316-.065-.332-1.322-1.523-1.468a4.981 4.981 0 01-1.783-.656h.009zm5.119 4.953c.689-.389 1.086-2.002 1.086-2.002a3.988 3.988 0 01-.689 1.986c-.259.3.13.162.13.162 2.552-1.394.859-4.499.753-4.548a5.868 5.868 0 01-1.061 1.938c-.94 1.046-.543 2.643-.219 2.464zm1.167 4.265c.745-.268 1.402-1.792 1.402-1.792a3.87 3.87 0 01-1.013 1.841c-.3.251.097.186.097.186 2.746-.957 1.596-4.297 1.507-4.37a5.945 5.945 0 01-1.369 1.743c-1.094.876-.972 2.522-.624 2.392zm.527 4.791c.785-.178 1.644-1.637 1.644-1.637a4.122 4.122 0 01-1.247 1.743c-.341.219.072.194.072.194 2.901-.624 2.155-4.151 2.066-4.232a5.958 5.958 0 01-1.604 1.589c-1.223.746-1.296 2.424-.923 2.343h-.008zm.073 4.346c.818.049 2.073-1.119 2.073-1.119a4.131 4.131 0 01-1.717 1.33c-.389.113.016.219.016.219 2.998.235 3.297-3.397 3.233-3.503-.6.487-1.28.851-2.018 1.078-1.401.365-1.968 1.979-1.579 2.003l-.008-.008zm-3.516-17.682c.599-.316.98-1.679.98-1.679a3.451 3.451 0 01-.64 1.687c-.227.251.105.146.105.146 2.22-1.135.851-3.835.762-3.884a5.089 5.089 0 01-.956 1.63c-.827.867-.535 2.246-.251 2.1zm.089 3.948a5.976 5.976 0 01-2.082-.762c-.049.105.721 3.551 3.564 2.935 0 0 .381-.146-.016-.211a3.932 3.932 0 01-1.823-1.046s1.353.957 2.131.795c.364-.073-.389-1.541-1.782-1.711h.008zm-2.131 33.946c.34.235.972-1.476.033-2.733a6.52 6.52 0 01-.981-2.27c-.121.049-2.317 3.324.373 5.14 0 0 .413.187.154-.17a4.4 4.4 0 01-.559-2.278s.251 1.8.98 2.302v.009zm2.001-4.954c.373.162.6-1.613-.543-2.627a6.294 6.294 0 01-1.385-1.962c-.105.073-1.539 3.624 1.385 4.816 0 0 .43.097.114-.195a4.255 4.255 0 01-.989-2.051s.624 1.678 1.418 2.019zm2.908-17.966c.381.041.081-1.621-1.223-2.205a6.076 6.076 0 01-1.798-1.37c-.073.089-.365 3.68 2.6 3.924 0 0 .413-.033.049-.203a4.008 4.008 0 01-1.467-1.565s1.029 1.33 1.839 1.411v.008zm-1.401-6.202a5.807 5.807 0 01-1.912-1.119c-.065.105.081 3.624 2.989 3.519 0 0 .397-.081.025-.203a3.96 3.96 0 01-1.612-1.354s1.166 1.176 1.96 1.159c.373-.008-.105-1.589-1.45-2.002zm1.58 10.434c.389.041.105-1.638-1.216-2.238a5.994 5.994 0 01-1.806-1.402c-.081.089-.405 3.729 2.592 4.005 0 0 .413-.024.049-.211a4.027 4.027 0 01-1.466-1.597s1.037 1.362 1.855 1.443h-.008zm-3.703 20.277c-1.539-.422-2.997.818-2.641 1.054.754.51 2.609.073 2.609.073a4.423 4.423 0 01-2.374.3c-.437-.114-.105.21-.105.21 2.722 1.889 5.039-1.402 5.039-1.54a6.809 6.809 0 01-2.528-.097zm1.669-7.913c.827.243 2.382-.657 2.382-.657a4.39 4.39 0 01-2.074.957c-.429.024-.032.227-.032.227 3.013.94 4.172-2.716 4.139-2.838a6.444 6.444 0 01-2.325.633c-1.523.048-2.479 1.564-2.09 1.686v-.008zm.511 3.381c-1.564-.163-2.714 1.248-2.333 1.418.81.365 2.487-.332 2.487-.332a4.493 4.493 0 01-2.253.681c-.445-.032-.064.219-.064.219 2.94 1.386 4.633-2.173 4.617-2.303a6.65 6.65 0 01-2.454.317zm-4.983 8.602c-1.628-.479-3.208.754-2.835 1.013.786.551 2.779.178 2.779.178a4.817 4.817 0 01-2.536.276c-.462-.122-.113.219-.113.219 2.859 2.059 5.379-1.403 5.379-1.541a7.111 7.111 0 01-2.682-.154l.008.009zm-1.595-1.727s.413.202.162-.171a4.49 4.49 0 01-.527-2.335s.227 1.898.956 2.433c.348.251 1.021-1.541.089-2.838a6.765 6.765 0 01-.956-2.335c-.13.041-2.438 3.332.267 5.246h.009zm-8.272 8.302l-.607 1.613s4.958-2.513 6.408-5.991a19.675 19.675 0 01-5.801 4.378zm11.374-51.855s.34-.146-.016-.187a3.597 3.597 0 01-1.701-.891s1.264.818 1.976.648c.333-.081-.405-1.394-1.685-1.5a5.52 5.52 0 01-1.92-.624c-.032.105.786 3.219 3.362 2.554h-.016zm4.351 28.838c.842.178 2.325-.843 2.325-.843a4.32 4.32 0 01-1.993 1.118c-.422.065-.016.227-.016.227 3.086.698 3.945-3.04 3.896-3.153a6.303 6.303 0 01-2.26.81c-1.515.171-2.341 1.768-1.944 1.849l-.008-.008zm-6.271-32.795c-.065-.681-1.191-1.548-1.191-1.548.543.284.997.705 1.321 1.232.146.308.17-.04.17-.04-.211-2.489-3.232-2.238-3.313-2.173.478.422.866.932 1.15 1.508.494 1.102 1.888 1.346 1.855 1.03l.008-.009zm1.783 1.898c.559-.463.656-1.971.656-1.971a3.561 3.561 0 01-.308 1.898c-.186.308.138.129.138.129 2.073-1.662.064-4.191-.033-4.216a5.522 5.522 0 01-.648 1.914c-.68 1.086-.073 2.464.195 2.254v-.008zm-5.355 43.966c-.138.024-3.216 3-.77 5.537 0 0 .389.292.203-.146a4.725 4.725 0 01-.081-2.537s-.09 2.027.567 2.724c.307.332 1.312-1.403.599-2.951a7.136 7.136 0 01-.526-2.627h.008zm-79.618-39.775v1.654h2.365c.762 0 1.223-.032 1.604-.073v1.638a15.21 15.21 0 00-1.604-.073h-2.365v1.97h3.791c.769 0 1.401-.033 1.855-.089v1.71c-.478-.073-1.094-.105-1.839-.105h-9.098c-.745 0-1.344.032-1.822.105v-1.71c.421.056 1.053.089 1.863.089h3.613v-1.97h-2.147c-.729 0-1.223.032-1.62.073v-1.638c.454.057.891.073 1.62.073h2.147v-1.654h-1.896c-.696 0-1.199.032-1.587.073v-1.038c-.705.406-.964.552-1.588.835a13.566 13.566 0 00-.964-1.548c1.385-.543 2.568-1.184 3.532-1.93a13.437 13.437 0 001.604-1.532c.308-.332.47-.543.786-1.054h1.855c.818 1.111 1.515 1.808 2.592 2.586 1.207.86 2.171 1.354 3.573 1.857-.527.762-.697 1.078-.932 1.678a22.295 22.295 0 01-1.733-.916v1.062a14.958 14.958 0 00-1.548-.073h-2.057zm2.13-1.475c.308 0 .405 0 .689-.017-1.604-1.062-2.528-1.913-3.589-3.316-.843 1.257-1.896 2.246-3.516 3.316.292.017.421.017.64.017h5.776zm15.165 4.029c.713 0 .989-.016 1.426-.089v1.516c-.405-.057-.802-.073-1.369-.073h-5.282c-.672 0-.988.016-1.385.073v-1.516c.421.073.729.089 1.385.089h1.75v-1.857h-1.256c-.615 0-.891.017-1.255.073v-1.443c.348.057.615.073 1.255.073h1.256v-1.516h-1.588c-.64 0-.915.016-1.328.073v-1.476c.397.057.672.073 1.328.073h4.958c.656 0 .988-.016 1.353-.073v1.476c-.405-.057-.697-.073-1.353-.073h-1.855v1.516h1.499c.64 0 .915-.016 1.255-.073v1.443c-.307-.04-.55-.073-.931-.073.348.422.672.908.915 1.419l-.786.438h.008zm-.38 0c-.292-.616-.551-1.022-.916-1.459l.77-.398h-1.426v1.857h1.572zm-8.442 2.659v-9.348c0-.624-.032-1.167-.089-1.767.478.057.932.073 1.718.073h9.203c.712 0 1.182-.016 1.717-.073a15.344 15.344 0 00-.089 1.751v9.372c0 .965.016 1.427.089 1.881h-1.661v-.835h-9.316v.835h-1.661c.057-.438.089-.916.089-1.897v.008zm1.572-.349h9.316v-9.274h-9.316v9.274zm15.425-6.218a15.676 15.676 0 00-1.078-2.659l-1.183.746c.494.932.762 1.605 1.037 2.659l1.224-.746zm-1.491 3.754c.51-.26.875-.47 1.329-.746-.308 1.986-.786 3.024-1.937 4.191.454.382.819.763 1.183 1.257a6.26 6.26 0 001.005-1.329c.47-.73.713-1.33 1.004-2.465.292-1.095.478-2.992.478-4.719v-2.229h8.004c.818 0 1.272.016 1.709.057v-1.638c-.478.057-.964.089-1.766.089h-3.256v-.203c0-.51.016-.729.073-1.021h-1.791c.041.276.073.551.073 1.005v.219h-2.949c-.818 0-1.255-.016-1.749-.073.072.478.089.762.105 1.768 0 .551.016 1.062.016 1.548 0 .786-.016 1.313-.04 1.938-.948.527-1.807.892-2.334.981l.567 1.532c.146-.089.203-.114.276-.162zm3.5 2.773c-.64 0-.964-.017-1.329-.073v1.621c.47-.057 1.021-.089 1.79-.089h7.129c.746 0 1.313.032 1.766.089v-1.638c-.478.057-.988.09-1.717.09h-2.293v-2.668h2.001c.616 0 .916.016 1.329.073v-1.573c-.381.041-.697.057-1.345.057h-1.985v-2.059h2.155c.64 0 1.037.016 1.515.073v-1.573a11.84 11.84 0 01-1.547.089h-5.882c-.623 0-1.02-.016-1.49-.073v1.549c.437-.041.842-.057 1.499-.057h2.13v6.178h-1.515v-3.389c0-.6.016-1.005.073-1.459h-1.734c.041.478.073.908.073 1.459v3.389h-.64l.017-.016zm20.415-1.638h1.571a9.896 9.896 0 01-.057-1.257v-6.324c0-.583.017-.891.057-1.24h-1.563c.04.422.056.714.056 1.24v6.332c0 .544-.032.876-.073 1.241l.009.008zm-4.189-7.735c-.526 0-.696.017-1.037.057v-1.532c.397.057.729.073 1.369.073h2.115c.688 0 1.053-.016 1.426-.073v1.532a8.607 8.607 0 00-1.135-.057h-1.328c-.105.819-.146.99-.259 1.517h.931c.527 0 .818-.017 1.078-.057l.51.656c-.032.187-.032.26-.073.584-.454 3.924-1.717 6.397-4.431 8.61-.381-.527-.624-.802-1.11-1.224 1.385-.989 2.276-2.002 3.005-3.389-.396-.478-.567-.657-1.425-1.459-.292.47-.494.762-.916 1.281-.275-.584-.51-.989-.858-1.427 1.199-1.386 1.855-2.967 2.146-5.092h-.008zm.324 3.957c.859.786.932.859 1.353 1.329.292-.835.397-1.329.527-2.391h-1.442a15.76 15.76 0 01-.438 1.062zm-3.977-.114c-.033.657-.033 1.038-.033 1.735v3.9c0 .762-.032 1.216-.089 1.751h1.62a15.61 15.61 0 01-.073-1.751v-8.01c.438-.981.673-1.622.875-2.384.041-.162.162-.567.235-.746l-1.507-.551c-.364 2.132-1.385 4.394-2.641 5.813.252.422.47.981.64 1.711.406-.511.551-.73.965-1.476l.008.008zm10.369-4.264v9.737c0 .332-.089.381-.834.381-.365 0-1.094-.057-1.693-.114.234.552.324.876.396 1.5.616.033.916.033 1.297.033 1.855 0 2.276-.276 2.276-1.5v-10.045c0-.697.016-1.111.073-1.5h-1.604c.057.478.089.835.089 1.5v.008zm3.727 4.086c.469.47.623.673.947 1.208 1.127-.77 1.588-1.224 2.374-2.294-.032.259-.04.494-.04.624v.551c0 .162-.017.324-.041.478h1.564a2.343 2.343 0 01-.057-.543v-.527c0-.113-.016-.292-.041-.6.365.552.567.771 1.297 1.387.397-.689.453-.77.842-1.2-.713-.397-1.021-.616-1.28-.933h.98c.454 0 .713.017.932.041v-1.346c-.178.033-.494.041-.932.041h-1.782v-1.751c0-.438.016-.69.057-.965h-1.588c.057.292.073.543.073.989v1.727h-1.734c-.551 0-.891-.016-1.223-.073v1.402c.324-.056.689-.073 1.207-.073h.786c-.478.698-1.167 1.225-2.333 1.825l-.008.032zm2.965-3.721c-.292-.779-.47-1.127-1.021-1.93l-1.24.47a7.64 7.64 0 01.981 1.938l1.28-.478zm11.025 9.842c-.332.454-.583.908-.842 1.549a9.856 9.856 0 01-2.844-2.514 11.308 11.308 0 01-3.313 2.611c-.292-.762-.421-.989-.786-1.459.624-.309.818-.406 1.15-.625a9.106 9.106 0 002.074-1.824c-.688-1.24-.964-2.043-1.223-3.429-.259.405-.364.551-.672.964a5.232 5.232 0 00-1.053-1.054c.907-1.135 1.514-2.44 1.968-4.207.186-.689.332-1.565.348-1.987l1.605.325a8.99 8.99 0 00-.203.802c-.089.381-.219.876-.381 1.443h2.536c.697 0 1.021-.016 1.369-.072v1.532c-.292-.041-.454-.041-1.021-.057-.113 2.424-.567 4.135-1.49 5.724.785 1.005 1.636 1.711 2.77 2.278h.008zm-2.77-8.002h-1.88c-.075.173-.137.324-.186.454.235 1.565.543 2.603 1.166 3.843.568-1.224.835-2.465.908-4.289l-.008-.008zm-4.577 7.37l-.843 1.354a8.418 8.418 0 00-1.353-.892c-.915.835-1.782 1.256-3.483 1.735a6.286 6.286 0 00-.762-1.346c1.313-.276 2.09-.568 2.892-1.078-.729-.325-1.126-.479-2.155-.86.47-.64.6-.835.948-1.443h-.421c-.527 0-.818.016-1.15.073v-1.475c.324.056.615.073 1.15.073h1.094c.145-.333.202-.511.38-1.038l1.515.292c-.129.365-.186.47-.308.746h2.309c.511 0 .802-.017 1.078-.073v1.475c-.308-.057-.551-.073-1.183-.073-.292.916-.421 1.224-.875 1.865.583.276.689.332 1.183.657l-.016.008zm-1.823-2.53h-1.385c-.203.349-.252.422-.511.819.616.219.802.292 1.24.478.307-.405.51-.786.656-1.297zm2.568-8.099l-1.313-.543a7.245 7.245 0 01-1.036 1.954l1.239.551c.454-.673.551-.843 1.11-1.97v.008zm-23.234 52.179l1.069-.324c-.567-2.724-.972-4.2-1.782-6.373l-1.021.357c.81 2.027 1.264 3.681 1.734 6.34zm-.94-8.74c-.81 0-1.28-.032-1.717-.097v1.119c.372-.049.875-.081 1.717-.081h6.562c.68 0 1.199.032 1.685.081v-1.119c-.454.065-.94.097-1.685.097h-3.014v-1.8c0-.535.033-.875.114-1.232h-1.264c.081.405.113.795.113 1.249v1.783h-2.511zm-3.176.941a25.846 25.846 0 001.297-3.065c.178-.486.21-.567.324-.859l-1.151-.373c-.081.567-.324 1.443-.615 2.205a15.26 15.26 0 01-3.111 4.978c.259.276.534.665.648.94a13.138 13.138 0 001.652-2.367 28.74 28.74 0 00-.064 2.011v5.107c0 .892-.033 1.379-.114 1.946h1.248a13.41 13.41 0 01-.114-1.897v-8.626zm7.648 8.723c.68-1.702 1.361-3.697 1.831-5.48a65 65 0 01.567-1.946l-1.232-.373c-.194 1.8-1.263 5.545-2.219 7.799h-3.808c-.81 0-1.296-.032-1.75-.097v1.167c.519-.081 1.053-.113 1.783-.113h7.355c.681 0 1.248.032 1.75.113v-1.167c-.453.065-.956.097-1.75.097h-2.527zm-17.45-9.372a7.605 7.605 0 00-2.123-.989c.106-.041.219-.081.325-.13 1.101-.519 1.968-1.224 2.592-2.108a4.95 4.95 0 00.94-2.918 6.04 6.04 0 00-.762-2.984 5.892 5.892 0 00-2.171-2.205c-.94-.559-2.058-.843-3.354-.843-1.296 0-2.325.251-3.289.762a5.83 5.83 0 00-2.268 2.092c-.551.883-.827 1.921-.827 3.113h2.625c0-.997.365-1.824 1.102-2.481.737-.657 1.628-.989 2.69-.989.753 0 1.385.154 1.895.454.511.3.891.73 1.151 1.281.259.551.388 1.184.388 1.897a3.86 3.86 0 01-.307 1.524 3.574 3.574 0 01-.892 1.249c-.388.356-.866.64-1.425.843-.559.203-1.207.308-1.945.308v2.432c.738 0 1.418.089 2.042.26.624.17 1.175.437 1.652.794.478.357.851.803 1.118 1.33.268.527.406 1.143.406 1.832 0 .819-.171 1.532-.519 2.14a3.534 3.534 0 01-1.474 1.411c-.64.332-1.386.503-2.252.503-.867 0-1.629-.162-2.301-.487a3.905 3.905 0 01-1.572-1.329c-.381-.56-.567-1.2-.567-1.914h-2.787c0 .884.17 1.711.519 2.481a6.16 6.16 0 001.458 2.011c.624.575 1.385 1.021 2.268 1.346.883.324 1.88.486 2.982.486 1.361 0 2.568-.259 3.629-.778a6.158 6.158 0 002.511-2.205c.616-.949.924-2.068.924-3.341 0-1.127-.211-2.083-.632-2.886a5.364 5.364 0 00-1.75-1.962zm-15.182-21.582h40.506v-.81h-40.506v.81zm-38.553 2.481c-.364.187.049.211.049.211 2.997-.276 2.673-3.908 2.592-4.005a6.094 6.094 0 01-1.807 1.402c-1.32.6-1.604 2.279-1.215 2.238.819-.089 1.847-1.443 1.847-1.443a4.089 4.089 0 01-1.466 1.597zm-.032 8.253s.405-.17-.017-.235a4.358 4.358 0 01-1.993-1.118s1.483 1.021 2.326.843c.396-.081-.43-1.67-1.945-1.849a6.231 6.231 0 01-2.26-.811c-.049.114.81 3.851 3.897 3.162l-.008.008zm1.417 4.476s.397-.203-.032-.227a4.319 4.319 0 01-2.074-.957s1.555.9 2.382.657c.389-.114-.567-1.63-2.09-1.687a6.266 6.266 0 01-2.325-.632c-.04.122 1.118 3.778 4.14 2.838v.008zm-2.203-9.162s.397-.137-.008-.219a4.2 4.2 0 01-1.88-1.159s1.394 1.054 2.212.916c.389-.065-.357-1.637-1.807-1.864a6.116 6.116 0 01-2.155-.884c-.048.113.632 3.762 3.646 3.21h-.008zm-.397-4.815s.405-.106.016-.219a4.069 4.069 0 01-1.717-1.33s1.247 1.168 2.065 1.119c.39-.024-.178-1.63-1.58-2.003a5.982 5.982 0 01-2.017-1.078c-.056.105.235 3.738 3.233 3.511zm-.024-4.476s.413.025.072-.194a4.01 4.01 0 01-1.247-1.743s.859 1.459 1.644 1.637c.373.09.292-1.597-.923-2.343a5.966 5.966 0 01-1.604-1.589c-.09.081-.835 3.608 2.066 4.232h-.008zm4.552 23.293s.373-.252-.064-.219a4.38 4.38 0 01-2.252-.681s1.676.705 2.487.332c.38-.17-.77-1.589-2.334-1.418a6.61 6.61 0 01-2.454-.317c-.016.13 1.677 3.689 4.617 2.303zm6.886 8.813c1.442 3.478 6.408 5.991 6.408 5.991l-.599-1.613a19.587 19.587 0 01-5.8-4.378h-.009zm.56-2.725a4.737 4.737 0 01-.082 2.538c-.186.438.203.146.203.146 2.446-2.538-.624-5.513-.77-5.537a7.13 7.13 0 01-.526 2.626c-.713 1.549.291 3.276.6 2.952.655-.698.566-2.725.566-2.725h.008zM83.72 176.039s.397.073.097-.178a4.049 4.049 0 01-1.013-1.841s.657 1.516 1.402 1.792c.356.13.478-1.516-.624-2.392a5.873 5.873 0 01-1.377-1.743c-.09.073-1.248 3.405 1.507 4.37l.008-.008zm6.878 34.773a7.117 7.117 0 01-2.682.145c0 .138 2.528 3.6 5.38 1.541 0 0 .348-.349-.114-.219a4.834 4.834 0 01-2.536-.276s1.993.373 2.779-.178c.373-.259-1.207-1.492-2.835-1.013h.008zm.275-49.553a3.447 3.447 0 011.32-1.232s-1.125.867-1.19 1.548c-.033.317 1.36.073 1.855-1.029a4.964 4.964 0 011.15-1.508c-.08-.065-3.103-.308-3.313 2.173 0 0 .024.348.17.04l.008.008zm1.58 42.572a6.812 6.812 0 01-.956 2.343c-.932 1.297-.26 3.089.089 2.838.73-.535.956-2.433.956-2.433a4.498 4.498 0 01-.527 2.335c-.25.373.162.171.162.171 2.714-1.914.397-5.205.268-5.254h.008zm-2.155 4.548s.332-.324-.105-.21a4.571 4.571 0 01-2.374-.3s1.863.437 2.609-.073c.356-.236-1.102-1.476-2.641-1.054a6.636 6.636 0 01-2.528.097c0 .138 2.317 3.429 5.039 1.54zm-3.962-12.412c-.332.276.106.203.106.203 2.99-1.038 1.75-4.662 1.652-4.743a6.358 6.358 0 01-1.498 1.881c-1.2.94-1.07 2.732-.68 2.594.81-.292 1.53-1.938 1.53-1.938a4.227 4.227 0 01-1.101 1.995l-.008.008zm-1.093-3.973c2.965-.778 2.033-4.378 1.936-4.451a6.114 6.114 0 01-1.58 1.711c-1.231.827-1.231 2.562-.85 2.457.802-.227 1.62-1.76 1.62-1.76a4.177 4.177 0 01-1.215 1.849c-.34.243.08.202.08.202l.009-.008zm2.463 8.432c2.924-1.184 1.498-4.743 1.385-4.816a6.293 6.293 0 01-1.385 1.962c-1.143 1.006-.916 2.781-.543 2.627.794-.332 1.418-2.019 1.418-2.019a4.331 4.331 0 01-.989 2.051c-.316.292.114.195.114.195zm1.118-35.324c.704.17 1.976-.648 1.976-.648a3.598 3.598 0 01-1.701.891c-.356.033-.016.179-.016.179 2.576.665 3.394-2.457 3.362-2.554a5.41 5.41 0 01-1.92.624c-1.272.106-2.017 1.427-1.677 1.508h-.025zm-3.978 6.583s.38.13.13-.162a3.956 3.956 0 01-.69-1.986s.398 1.605 1.086 2.002c.325.187.721-1.418-.218-2.464a5.818 5.818 0 01-1.061-1.938c-.106.057-1.79 3.154.753 4.556v-.008zm4.893 33.605c2.698-1.816.494-5.099.373-5.14a6.66 6.66 0 01-.98 2.27c-.932 1.257-.308 2.968.032 2.733.729-.511.98-2.303.98-2.303a4.398 4.398 0 01-.559 2.278c-.251.365.154.171.154.171v-.009zm-4.188-31.918c2.843.616 3.613-2.83 3.564-2.935-.64.381-1.345.64-2.082.762-1.393.17-2.147 1.638-1.782 1.711.778.162 2.13-.795 2.13-.795a3.93 3.93 0 01-1.822 1.046c-.39.057-.016.211-.016.211h.008zm1.126-5.975s.332.113.105-.138a3.448 3.448 0 01-.64-1.687s.38 1.362.98 1.679c.284.154.584-1.233-.25-2.1a5.11 5.11 0 01-.965-1.63c-.089.049-1.45 2.74.762 3.876h.008zm.502 1.305c.664.138 1.823-.673 1.823-.673-.43.43-.972.738-1.564.892-.332.048-.016.178-.016.178 2.439.527 3.095-2.416 3.054-2.513a4.977 4.977 0 01-1.782.656c-1.191.146-1.839 1.403-1.523 1.468l.008-.008zm1.547-5.189s.324.187.138-.13a3.715 3.715 0 01-.308-1.897s.097 1.508.656 1.97c.268.219.875-1.159.195-2.254a5.513 5.513 0 01-.648-1.913c-.106.033-2.115 2.554-.033 4.216v.008zm-4.52 14.504c.794.016 1.96-1.159 1.96-1.159a4.023 4.023 0 01-1.612 1.354c-.372.129.024.202.024.202 2.909.106 3.055-3.421 2.99-3.518a5.707 5.707 0 01-1.912 1.119c-1.345.413-1.823 1.994-1.45 2.002zm.421 4.354c-.364.178.049.203.049.203 2.965-.244 2.673-3.835 2.6-3.924a6.076 6.076 0 01-1.798 1.37c-1.305.583-1.604 2.237-1.224 2.205.81-.081 1.84-1.411 1.84-1.411a4.057 4.057 0 01-1.467 1.565v-.008z" fill="#fff"/></svg>