<svg xmlns="http://www.w3.org/2000/svg" width="295" height="92" viewBox="0 0 295 92"><defs><clipPath id="a"><path transform="translate(-.032)" fill="#fff" d="M0 0h21v63H0z"/></clipPath><clipPath id="b"><path fill="#fff" d="M0 0h21v63H0z"/></clipPath><clipPath id="c"><path transform="translate(-.074)" fill="#fff" d="M0 0h21v61H0z"/></clipPath><clipPath id="d"><path fill="#fff" d="M0 0h21v61H0z"/></clipPath></defs><g transform="translate(124.032 24)" clip-path="url(#a)"><path d="M5.7 53.737a5.371 5.371 0 00.079 2.664c.182.462-.2.155-.2.155-2.387-2.66.613-5.78.751-5.8a7.977 7.977 0 00.513 2.745c.692 1.618-.286 3.436-.588 3.089-.64-.734-.553-2.855-.553-2.855m2.693-6.758a7.355 7.355 0 00.931 2.447c.906 1.362.251 3.239-.087 2.975-.713-.559-.932-2.545-.932-2.545a5.015 5.015 0 00.512 2.447c.244.394-.16.181-.16.181-2.645-2.006-.387-5.458-.265-5.505m2.649 1.538c-2.631-1.907-.486-5.34-.366-5.39a7.162 7.162 0 00.96 2.379c.913 1.313.3 3.11-.034 2.859-.709-.531-.956-2.416-.956-2.416a4.9 4.9 0 00.549 2.386c.248.382-.153.182-.153.182m1.986-5.109c-2.858-1.245-1.46-4.971-1.354-5.046a6.7 6.7 0 001.356 2.056c1.114 1.054.893 2.916.529 2.749-.774-.352-1.386-2.113-1.386-2.113a4.641 4.641 0 00.967 2.15c.306.306-.112.2-.112.2m1.335-4.675c.322.291-.1.212-.1.212-2.917-1.079-1.709-4.88-1.609-4.96a6.639 6.639 0 001.458 1.972c1.166.986 1.041 2.859.667 2.716-.791-.306-1.491-2.032-1.491-2.032a4.612 4.612 0 001.075 2.092m1.154-4.369c.331.253-.083.209-.083.209-2.892-.815-1.983-4.583-1.892-4.667a6.368 6.368 0 001.545 1.801c1.195.863 1.2 2.684.83 2.575-.786-.235-1.58-1.847-1.58-1.847a4.457 4.457 0 001.182 1.939m.68-5.427c.358.191-.049.22-.049.22-2.923-.288-2.609-4.1-2.534-4.194a5.972 5.972 0 001.765 1.469c1.286.628 1.565 2.39 1.19 2.347-.8-.092-1.806-1.515-1.806-1.515a4.186 4.186 0 001.434 1.668m-.17-4.435c.356.184-.047.216-.047.216-2.889-.258-2.609-4.018-2.535-4.116a5.991 5.991 0 001.752 1.436c1.275.609 1.565 2.345 1.193 2.306-.787-.084-1.8-1.479-1.8-1.479a4.134 4.134 0 001.437 1.637m.413-4.564c-.775.018-1.912-1.213-1.912-1.213A3.985 3.985 0 0016.1 20.14c.368.134-.021.216-.021.216-2.84.111-2.98-3.584-2.919-3.689a5.606 5.606 0 001.864 1.175c1.309.432 1.782 2.088 1.416 2.1m-1.326-5.089c.383.063.014.219.014.219-2.778.649-3.526-2.962-3.482-3.077a5.51 5.51 0 002.028.8c1.36.178 2.1 1.716 1.738 1.794-.758.167-2.08-.831-2.08-.831a3.8 3.8 0 001.782 1.093m-1.579-4.673c-.651.141-1.78-.712-1.78-.712a3.272 3.272 0 001.523.937c.327.053.013.185.013.185-2.376.556-3.017-2.535-2.98-2.634a4.649 4.649 0 001.736.687c1.164.155 1.793 1.471 1.488 1.536m-1.862-3.532c.351.043.019.195.019.195-2.514.7-3.313-2.572-3.278-2.678a5.049 5.049 0 001.878.656c1.247.114 1.97 1.49 1.645 1.575-.69.178-1.926-.681-1.926-.681a3.487 3.487 0 001.661.933M6.876.041C6.953-.026 9.9-.285 10.11 2.32c0 0-.026.365-.17.045a3.4 3.4 0 00-1.288-1.288s1.1.908 1.164 1.618c.03.335-1.332.076-1.816-1.076A5.155 5.155 0 006.876.041m3.34 54.243a6.458 6.458 0 002.614.16c0 .149-2.463 3.773-5.253 1.61 0 0-.34-.361.113-.234a4.387 4.387 0 002.471-.29s-1.947.389-2.715-.187c-.362-.274 1.179-1.565 2.77-1.06m.286-2.545s-.326-.336.1-.223a4.141 4.141 0 002.319-.318s-1.814.457-2.547-.074c-.347-.247 1.075-1.549 2.578-1.1a6.1 6.1 0 002.463.1c0 .141-2.258 3.593-4.918 1.61m2.463-4.384s-.365-.266.066-.233a4.115 4.115 0 002.195-.712s-1.636.735-2.425.351c-.371-.181.754-1.662 2.276-1.49a5.978 5.978 0 002.4-.329c.019.135-1.639 3.865-4.51 2.412m1.88-5.077s-.386-.206.035-.235a4.106 4.106 0 002.022-1s-1.518.941-2.325.685c-.38-.121.555-1.71 2.04-1.763a5.9 5.9 0 002.265-.66c.036.128-1.093 3.958-4.037 2.972m1.388-4.7s-.4-.171.019-.238a4.172 4.172 0 001.951-1.159s-1.443 1.07-2.265.884c-.388-.088.422-1.751 1.9-1.933a5.987 5.987 0 002.208-.852c.047.123-.791 4.036-3.8 3.311m.76-4.9s-.391-.148.008-.228a4.033 4.033 0 001.836-1.219s-1.357 1.1-2.16.955c-.38-.068.344-1.714 1.766-1.954a5.8 5.8 0 002.108-.922c.049.12-.617 3.946-3.558 3.368m.391-5.049s-.4-.1-.014-.226a4.034 4.034 0 001.677-1.39s-1.221 1.221-2.018 1.167c-.377-.025.174-1.712 1.541-2.1a5.816 5.816 0 001.97-1.131c.058.111-.23 3.919-3.156 3.677m.027-4.687s-.4.024-.074-.208a4.247 4.247 0 001.221-1.824s-.834 1.526-1.6 1.716c-.364.092-.287-1.671.9-2.453a6.145 6.145 0 001.566-1.666c.086.085.817 3.777-2.014 4.434m-.49-5.089s-.39.072-.095-.194a4.262 4.262 0 00.986-1.932s-.64 1.592-1.367 1.876c-.345.135-.465-1.591.606-2.5a6.2 6.2 0 001.339-1.823c.091.074 1.214 3.572-1.469 4.577m-1.1-4.565s-.374.143-.123-.174a4.348 4.348 0 00.673-2.081s-.387 1.684-1.06 2.095c-.318.194-.705-1.486.212-2.579a6.289 6.289 0 001.028-2.037c.1.057 1.751 3.306-.739 4.773M14.03 8.801s-.322.114-.1-.15a3.73 3.73 0 00.625-1.763s-.37 1.432-.956 1.763c-.277.157-.567-1.29.243-2.2a5.406 5.406 0 00.936-1.71c.086.05 1.418 2.875-.747 4.061M12.037 4.74s-.314.191-.135-.135a4.044 4.044 0 00.3-1.986s-.1 1.578-.644 2.064c-.258.227-.853-1.219-.19-2.358A5.981 5.981 0 0012 .321c.1.031 2.061 2.675.034 4.419M.59 61.179a19.343 19.343 0 005.665-4.588C4.84 60.232 0 62.866 0 62.866z" fill="#fff"/></g><g fill="#fff"><text transform="translate(73 48)" font-size="13" font-family="HiraKakuPro-W6, Hiragino Kaku Gothic Pro" letter-spacing=".06em"><tspan x="-38.356" y="0">SureSmile</tspan></text><g transform="translate(-66.782 49.886)"><text transform="translate(158.782 31.114)" font-size="29" font-family="Jost-Light, Jost" font-weight="300" letter-spacing="-.02em"><tspan x="-27.738" y="0">No.1</tspan></text><rect width="37" height="14" rx="7" transform="translate(93.782 18.114)"/></g><path opacity=".4" d="M53.845 54.323h36.979v.74H53.845z"/><text transform="translate(75 33)" font-size="8" font-family="HiraKakuPro-W6, Hiragino Kaku Gothic Pro" letter-spacing=".06em"><tspan x="-32.528" y="0">世界シェア第3位</tspan></text></g><g transform="translate(0 24)" clip-path="url(#b)"><path d="M15.514 53.763a5.137 5.137 0 01-.081 2.655c-.189.461.21.154.21.154 2.484-2.652-.638-5.763-.781-5.787a7.65 7.65 0 01-.535 2.744c-.72 1.614.3 3.426.612 3.08.666-.732.576-2.847.576-2.847m-2.8-6.738a7.132 7.132 0 01-.969 2.44c-.943 1.358-.261 3.23.091 2.966.742-.557.971-2.537.971-2.537a4.823 4.823 0 01-.534 2.44c-.254.393.166.181.166.181 2.753-2 .4-5.442.276-5.489m-2.763 1.534c2.739-1.9.506-5.324.381-5.374a6.957 6.957 0 01-1 2.372c-.95 1.31-.314 3.1.035 2.851.738-.529.995-2.409.995-2.409a4.72 4.72 0 01-.572 2.379c-.258.381.16.182.16.182m-2.066-5.095c2.975-1.241 1.519-4.956 1.41-5.031a6.641 6.641 0 01-1.411 2.051c-1.16 1.051-.93 2.908-.55 2.741.806-.351 1.442-2.107 1.442-2.107a4.536 4.536 0 01-1.007 2.144c-.319.306.116.2.116.2m-1.39-4.662c-.335.29.105.211.105.211 3.036-1.076 1.779-4.866 1.675-4.945a6.624 6.624 0 01-1.518 1.966c-1.214.983-1.084 2.851-.695 2.708.823-.306 1.552-2.026 1.552-2.026a4.532 4.532 0 01-1.119 2.086m-1.2-4.356c-.345.253.087.208.087.208 3.01-.812 2.064-4.57 1.969-4.653a6.412 6.412 0 01-1.608 1.785c-1.244.861-1.249 2.676-.864 2.568.818-.235 1.645-1.841 1.645-1.841a4.415 4.415 0 01-1.23 1.933m-.708-5.412c-.373.19.051.219.051.219 3.043-.287 2.716-4.084 2.637-4.181a6.14 6.14 0 01-1.837 1.465c-1.338.626-1.629 2.383-1.238 2.34.829-.092 1.88-1.511 1.88-1.511a4.228 4.228 0 01-1.494 1.668m.176-4.422c-.37.183.049.215.049.215 3.008-.257 2.716-4.006 2.639-4.1a6.167 6.167 0 01-1.826 1.43c-1.327.607-1.629 2.339-1.242 2.3.818-.084 1.871-1.471 1.871-1.471a4.18 4.18 0 01-1.488 1.633m-.43-4.551c.807.018 1.99-1.21 1.99-1.21a4.091 4.091 0 01-1.64 1.408c-.383.133.022.215.022.215 2.956.111 3.1-3.573 3.039-3.679a5.856 5.856 0 01-1.94 1.172c-1.363.43-1.855 2.082-1.473 2.09m1.38-5.078c-.4.062-.015.218-.015.218 2.891.647 3.67-2.954 3.624-3.068a5.868 5.868 0 01-2.111.8c-1.415.178-2.183 1.711-1.809 1.789.789.167 2.165-.829 2.165-.829a3.989 3.989 0 01-1.854 1.09m1.64-4.655c.677.14 1.853-.71 1.853-.71a3.431 3.431 0 01-1.586.935c-.341.053-.014.185-.014.185 2.474.554 3.14-2.527 3.1-2.626a4.95 4.95 0 01-1.807.685c-1.205.154-1.86 1.466-1.546 1.531m1.941-3.52c-.365.043-.02.194-.02.194 2.617.694 3.448-2.565 3.412-2.67a5.4 5.4 0 01-1.955.654c-1.3.114-2.051 1.486-1.713 1.571.718.178 2-.679 2-.679a3.673 3.673 0 01-1.729.93M14.291.225c-.08-.067-3.149-.325-3.366 2.272 0 0 .027.364.177.044a3.473 3.473 0 011.341-1.283s-1.142.905-1.211 1.614c-.032.333 1.386.075 1.887-1.073A5.169 5.169 0 0114.291.225m-3.477 54.084a7.011 7.011 0 01-2.721.16c0 .149 2.564 3.762 5.468 1.605 0 0 .354-.36-.118-.233a4.751 4.751 0 01-2.572-.289s2.026.387 2.826-.186c.377-.274-1.227-1.561-2.883-1.057m-.3-2.537s.339-.335-.108-.222a4.481 4.481 0 01-2.414-.317s1.888.455 2.651-.074c.361-.246-1.119-1.544-2.683-1.1a6.624 6.624 0 01-2.564.1c0 .14 2.351 3.583 5.119 1.605m-2.562-4.363s.38-.265-.069-.232a4.412 4.412 0 01-2.284-.71s1.7.733 2.524.35c.387-.181-.785-1.657-2.37-1.486a6.468 6.468 0 01-2.5-.328c-.02.135 1.706 3.854 4.694 2.405m-1.953-5.061s.4-.206-.036-.235a4.348 4.348 0 01-2.1-1s1.58.939 2.42.683c.4-.121-.577-1.705-2.124-1.758a6.331 6.331 0 01-2.357-.658c-.038.128 1.138 3.947 4.2 2.963m-1.445-4.678s.414-.171-.02-.237a4.38 4.38 0 01-2.021-1.168s1.5 1.067 2.357.882c.4-.087-.439-1.746-1.976-1.927a6.38 6.38 0 01-2.3-.85c-.049.122.823 4.024 3.958 3.3m-.791-4.888s.407-.147-.008-.228a4.214 4.214 0 01-1.911-1.215s1.413 1.1 2.248.953c.4-.068-.358-1.709-1.838-1.948a6.153 6.153 0 01-2.198-.919c-.051.119.642 3.934 3.7 3.358m-.4-5.035s.415-.1.015-.225a4.161 4.161 0 01-1.745-1.386s1.27 1.218 2.1 1.162c.392-.025-.181-1.707-1.6-2.091a6.1 6.1 0 01-2.055-1.126c-.061.111.239 3.908 3.285 3.666m-.028-4.673s.42.024.077-.207a4.227 4.227 0 01-1.271-1.819s.868 1.522 1.668 1.711c.378.092.3-1.666-.941-2.445a6.221 6.221 0 01-1.63-1.661c-.089.085-.85 3.766 2.1 4.422m.51-5.074s.406.072.1-.193a4.186 4.186 0 01-1.026-1.926s.666 1.587 1.423 1.871c.36.135.484-1.586-.631-2.5a6.181 6.181 0 01-1.394-1.818c-.1.076-1.269 3.563 1.524 4.563m1.146-4.55s.389.143.128-.174a4.21 4.21 0 01-.7-2.076s.4 1.679 1.1 2.089c.331.193.734-1.482-.22-2.572a6.16 6.16 0 01-1.08-2.027c-.107.057-1.822 3.3.769 4.759m1.867-4.47s.335.114.105-.15a3.619 3.619 0 01-.65-1.758s.385 1.428.995 1.758c.288.157.591-1.286-.253-2.194a5.311 5.311 0 01-.974-1.705c-.089.05-1.476 2.866.777 4.049M8.919 4.91s.327.19.141-.135a3.879 3.879 0 01-.307-1.98s.1 1.573.67 2.058c.269.226.888-1.215.2-2.351a5.775 5.775 0 01-.662-2c-.108.033-2.152 2.67-.042 4.408m11.915 56.275a19.935 19.935 0 01-5.9-4.574c1.472 3.63 6.51 6.256 6.51 6.256z" fill="#fff"/></g><text transform="translate(45 78)" fill="#1c1a1d" font-size="8" font-family="HiraKakuPro-W3, Hiragino Kaku Gothic Pro" letter-spacing=".1em"><tspan x="-12.8" y="0">症例数</tspan></text><text transform="translate(45 65)" fill="#fff" font-size="7" font-family="HiraKakuPro-W3, Hiragino Kaku Gothic Pro" letter-spacing=".1em"><tspan x="-7.35" y="0">全国</tspan></text><g transform="translate(274.074 24)" clip-path="url(#c)"><path d="M5.7 52.543a5.138 5.138 0 00.078 2.6c.182.452-.2.151-.2.151-2.387-2.6.613-5.651.751-5.675a7.642 7.642 0 00.514 2.691c.692 1.582-.286 3.359-.588 3.02-.64-.718-.553-2.792-.553-2.792m2.693-6.607a7.087 7.087 0 00.931 2.393c.906 1.332.251 3.168-.087 2.909-.713-.546-.932-2.488-.932-2.488a4.812 4.812 0 00.513 2.393c.244.385-.16.177-.16.177-2.645-1.961-.387-5.337-.265-5.383m2.649 1.5c-2.631-1.864-.486-5.221-.366-5.27a6.907 6.907 0 00.96 2.326c.913 1.284.3 3.041-.034 2.8-.709-.519-.956-2.363-.956-2.363a4.707 4.707 0 00.549 2.333c.248.373-.153.178-.153.178m1.986-5c-2.858-1.217-1.46-4.86-1.354-4.934a6.529 6.529 0 001.356 2.01c1.114 1.031.893 2.852.529 2.688-.774-.345-1.386-2.066-1.386-2.066a4.49 4.49 0 00.967 2.1c.306.3-.112.2-.112.2m1.335-4.572c.322.285-.1.207-.1.207-2.917-1.055-1.709-4.772-1.609-4.849a6.492 6.492 0 001.458 1.928c1.166.964 1.041 2.8.667 2.655-.791-.3-1.491-1.987-1.491-1.987a4.474 4.474 0 001.075 2.045m1.154-4.26c.331.248-.083.2-.083.2-2.892-.8-1.983-4.482-1.892-4.563a6.256 6.256 0 001.544 1.751c1.195.844 1.2 2.624.83 2.518-.786-.23-1.58-1.806-1.58-1.806a4.342 4.342 0 001.182 1.9m.68-5.307c.358.187-.049.215-.049.215-2.923-.282-2.609-4.005-2.534-4.1a5.932 5.932 0 001.765 1.437c1.286.614 1.565 2.337 1.19 2.295-.8-.09-1.806-1.482-1.806-1.482a4.119 4.119 0 001.434 1.634m-.169-4.336c.356.18-.047.211-.047.211-2.889-.252-2.609-3.929-2.535-4.024a5.954 5.954 0 001.754 1.4c1.275.6 1.565 2.293 1.193 2.255-.787-.082-1.8-1.446-1.8-1.446a4.07 4.07 0 001.43 1.6m.413-4.463c-.775.018-1.912-1.186-1.912-1.186a3.955 3.955 0 001.573 1.388c.368.131-.021.211-.021.211-2.84.109-2.98-3.5-2.919-3.607a5.615 5.615 0 001.864 1.149c1.309.422 1.782 2.041 1.416 2.049m-1.326-4.976c.383.061.014.214.014.214-2.778.635-3.526-2.9-3.482-3.008a5.575 5.575 0 002.028.784c1.36.174 2.1 1.678 1.738 1.754-.758.163-2.08-.813-2.08-.813a3.817 3.817 0 001.782 1.069M13.538 9.95c-.651.138-1.78-.7-1.78-.7a3.284 3.284 0 001.523.916c.327.052.013.181.013.181-2.376.543-3.017-2.478-2.98-2.575a4.7 4.7 0 001.736.671c1.164.151 1.793 1.438 1.488 1.5m-1.865-3.442c.351.042.019.191.019.191-2.513.677-3.312-2.519-3.277-2.622a5.118 5.118 0 001.878.641c1.247.112 1.97 1.457 1.645 1.54-.69.174-1.926-.666-1.926-.666a3.508 3.508 0 001.661.912M6.876.04C6.953-.025 9.9-.278 10.11 2.268c0 0-.026.357-.17.044a3.367 3.367 0 00-1.288-1.259s1.1.888 1.164 1.582c.031.327-1.331.074-1.813-1.053A5.053 5.053 0 006.876.04m3.34 53.037a6.6 6.6 0 002.614.157c0 .146-2.463 3.689-5.253 1.574 0 0-.34-.353.113-.229a4.479 4.479 0 002.471-.283s-1.947.38-2.715-.183c-.362-.268 1.179-1.531 2.77-1.036m.286-2.488s-.326-.328.1-.218a4.226 4.226 0 002.319-.31s-1.814.447-2.547-.072c-.347-.241 1.075-1.514 2.578-1.076a6.238 6.238 0 002.463.1c0 .138-2.258 3.513-4.918 1.574m2.469-4.286s-.365-.26.066-.227a4.178 4.178 0 002.195-.7s-1.636.719-2.425.343c-.371-.177.754-1.625 2.276-1.457a6.1 6.1 0 002.4-.321c.019.132-1.639 3.779-4.51 2.359m1.88-4.964s-.386-.2.035-.23a4.142 4.142 0 002.022-.976s-1.518.921-2.325.67c-.38-.118.555-1.672 2.04-1.724a5.994 5.994 0 002.265-.645c.036.125-1.093 3.87-4.037 2.906m1.388-4.592s-.4-.168.019-.233a4.19 4.19 0 001.945-1.141s-1.443 1.046-2.265.865c-.388-.086.422-1.712 1.9-1.89a6.06 6.06 0 002.208-.833c.047.12-.791 3.946-3.8 3.237m.76-4.793s-.391-.144.008-.223a4.04 4.04 0 001.836-1.192s-1.357 1.077-2.16.934c-.38-.067.344-1.676 1.766-1.911a5.855 5.855 0 002.108-.9c.049.117-.617 3.858-3.558 3.293m.391-4.936s-.4-.1-.014-.221a4.014 4.014 0 001.677-1.359s-1.221 1.194-2.018 1.141c-.377-.025.174-1.674 1.541-2.051a5.84 5.84 0 001.97-1.106c.058.109-.23 3.832-3.156 3.6m.027-4.582s-.4.023-.074-.2a4.147 4.147 0 001.221-1.784s-.834 1.493-1.6 1.678c-.364.09-.287-1.634.9-2.4a6.055 6.055 0 001.558-1.635c.086.083.817 3.693-2.014 4.336m-.49-4.976s-.39.071-.095-.189a4.134 4.134 0 00.986-1.889s-.64 1.557-1.367 1.834c-.345.132-.465-1.555.606-2.448a6.059 6.059 0 001.339-1.783c.091.072 1.214 3.493-1.469 4.475m-1.1-4.464s-.374.14-.123-.17a4.186 4.186 0 00.673-2.035s-.387 1.646-1.06 2.048c-.318.189-.705-1.453.212-2.522a6.091 6.091 0 001.036-1.99c.1.056 1.751 3.233-.739 4.667M14.03 8.61s-.322.112-.1-.147a3.6 3.6 0 00.625-1.724s-.37 1.4-.956 1.724c-.277.154-.567-1.261.243-2.152a5.244 5.244 0 00.936-1.672c.086.049 1.418 2.811-.747 3.971m-1.994-3.975s-.314.187-.135-.132a3.875 3.875 0 00.3-1.942s-.1 1.543-.644 2.018c-.258.222-.853-1.192-.19-2.306A5.75 5.75 0 0012 .314c.1.03 2.061 2.616.034 4.321M.59 59.82a19.236 19.236 0 005.665-4.486C4.84 58.894 0 61.469 0 61.469z" fill="#fff"/></g><g fill="#fff"><text transform="translate(263 78.001)" font-size="9" font-family="HiraKakuPro-W3, Hiragino Kaku Gothic Pro" letter-spacing=".1em"><tspan x="-4.5" y="0">件</tspan></text><text transform="translate(226 78.001)" font-size="29" font-family="Jost-Light, Jost" font-weight="300" letter-spacing="-.02em"><tspan x="-34.64" y="0">1,000</tspan></text><text transform="translate(188 78.001)" font-size="9" font-family="HiraKakuPro-W3, Hiragino Kaku Gothic Pro" letter-spacing=".1em"><tspan x="-4.5" y="0">約</tspan></text><path d="M206.51 48.407h36.979v.74H206.51z" opacity=".4"/></g><g transform="translate(157 24)" clip-path="url(#d)"><path d="M15.514 52.569a4.915 4.915 0 01-.081 2.6c-.189.451.21.151.21.151 2.484-2.593-.638-5.635-.781-5.658a7.33 7.33 0 01-.535 2.683c-.72 1.578.3 3.35.612 3.012.666-.716.576-2.783.576-2.783m-2.8-6.588a6.876 6.876 0 01-.969 2.386c-.943 1.328-.261 3.158.091 2.9.742-.544.971-2.481.971-2.481a4.628 4.628 0 01-.534 2.386c-.254.384.166.176.166.176 2.753-1.955.4-5.321.276-5.367m-2.763 1.495c2.739-1.859.506-5.206.381-5.255a6.714 6.714 0 01-1 2.319c-.95 1.28-.314 3.032.035 2.788.738-.517.995-2.356.995-2.356a4.533 4.533 0 01-.572 2.326c-.258.372.16.178.16.178m-2.067-4.98c2.975-1.214 1.519-4.846 1.41-4.919a6.48 6.48 0 01-1.411 2c-1.16 1.028-.93 2.843-.55 2.68.806-.344 1.442-2.06 1.442-2.06a4.392 4.392 0 01-1.007 2.1c-.319.3.116.2.116.2m-1.388-4.561c-.335.284.105.206.105.206 3.036-1.052 1.779-4.758 1.675-4.835a6.485 6.485 0 01-1.518 1.923c-1.214.961-1.084 2.788-.695 2.648.823-.3 1.552-1.981 1.552-1.981a4.4 4.4 0 01-1.119 2.039m-1.202-4.26c-.345.247.087.2.087.2 3.01-.794 2.064-4.469 1.969-4.55a6.309 6.309 0 01-1.607 1.75c-1.244.842-1.249 2.616-.864 2.511.818-.229 1.645-1.8 1.645-1.8a4.305 4.305 0 01-1.23 1.89m-.708-5.291c-.373.186.051.215.051.215 3.043-.281 2.716-3.993 2.637-4.088a6.107 6.107 0 01-1.837 1.432c-1.338.612-1.629 2.33-1.238 2.288.829-.09 1.88-1.477 1.88-1.477a4.166 4.166 0 01-1.494 1.631m.176-4.323c-.37.179.049.21.049.21 3.008-.251 2.716-3.917 2.639-4.012a6.138 6.138 0 01-1.826 1.4c-1.327.593-1.629 2.287-1.242 2.249.818-.085 1.871-1.446 1.871-1.446a4.121 4.121 0 01-1.488 1.6m-.43-4.45c.807.018 1.99-1.183 1.99-1.183a4.065 4.065 0 01-1.637 1.38c-.383.13.022.21.022.21 2.956.109 3.1-3.494 3.039-3.6a5.873 5.873 0 01-1.94 1.146c-1.363.421-1.855 2.035-1.473 2.043m1.38-4.961c-.4.061-.015.213-.015.213 2.891.633 3.67-2.888 3.624-3a5.942 5.942 0 01-2.111.782c-1.415.174-2.183 1.673-1.809 1.749.789.163 2.165-.811 2.165-.811a4.008 4.008 0 01-1.857 1.068m1.64-4.555c.677.137 1.853-.694 1.853-.694a3.448 3.448 0 01-1.586.914c-.341.052-.014.181-.014.181 2.474.542 3.14-2.471 3.1-2.568a5.013 5.013 0 01-1.807.669c-1.205.151-1.86 1.434-1.546 1.498m1.944-3.442c-.365.042-.02.19-.02.19 2.617.679 3.448-2.508 3.412-2.611a5.474 5.474 0 01-1.955.64c-1.3.111-2.051 1.453-1.713 1.536.718.174 2-.664 2-.664a3.7 3.7 0 01-1.729.91M14.291.22c-.08-.065-3.149-.318-3.366 2.221 0 0 .027.356.177.043a3.442 3.442 0 011.341-1.254s-1.142.885-1.211 1.578c-.032.326 1.386.073 1.887-1.05A5.074 5.074 0 0114.291.22m-3.477 52.883a7.166 7.166 0 01-2.721.156c0 .145 2.564 3.678 5.468 1.57 0 0 .354-.352-.118-.228a4.851 4.851 0 01-2.572-.282s2.026.379 2.826-.182c.377-.267-1.227-1.526-2.883-1.033m-.3-2.481s.339-.327-.108-.217a4.574 4.574 0 01-2.414-.31s1.888.445 2.651-.072c.361-.24-1.119-1.51-2.683-1.073a6.772 6.772 0 01-2.564.1c0 .137 2.351 3.5 5.119 1.57m-2.562-4.274s.38-.259-.069-.227a4.482 4.482 0 01-2.284-.694s1.7.717 2.524.342c.387-.177-.785-1.62-2.37-1.453a6.6 6.6 0 01-2.5-.32c-.02.132 1.706 3.768 4.694 2.352m-1.953-4.949s.4-.2-.036-.229a4.391 4.391 0 01-2.1-.974s1.58.918 2.42.668c.4-.118-.577-1.667-2.124-1.719a6.435 6.435 0 01-2.362-.643c-.038.125 1.138 3.859 4.2 2.9m-1.44-4.581s.414-.167-.02-.232a4.4 4.4 0 01-2.021-1.142s1.5 1.043 2.357.862c.4-.086-.439-1.707-1.976-1.885a6.463 6.463 0 01-2.3-.831c-.049.119.823 3.935 3.958 3.228m-.791-4.779s.407-.144-.008-.223a4.226 4.226 0 01-1.911-1.188s1.413 1.074 2.248.931c.4-.067-.358-1.671-1.838-1.9a6.22 6.22 0 01-2.198-.904c-.051.117.642 3.847 3.7 3.283m-.4-4.922s.415-.1.015-.22a4.146 4.146 0 01-1.745-1.355s1.27 1.191 2.1 1.138c.392-.024-.181-1.669-1.6-2.045a6.136 6.136 0 01-2.051-1.1c-.061.109.239 3.821 3.285 3.585m-.028-4.569s.42.023.077-.2a4.133 4.133 0 01-1.271-1.779s.868 1.488 1.668 1.673c.378.09.3-1.629-.941-2.391a6.139 6.139 0 01-1.63-1.624c-.089.083-.85 3.682 2.1 4.323m.51-4.961s.406.071.1-.189a4.065 4.065 0 01-1.026-1.883s.666 1.552 1.423 1.829c.36.132.484-1.551-.631-2.441a6.051 6.051 0 01-1.394-1.777c-.095.072-1.264 3.483 1.529 4.462m1.146-4.451s.389.14.128-.17a4.055 4.055 0 01-.7-2.029s.4 1.642 1.1 2.042c.331.189.734-1.449-.22-2.515a5.971 5.971 0 01-1.086-1.99c-.107.056-1.822 3.223.769 4.653m1.864-4.369s.335.111.105-.147a3.49 3.49 0 01-.65-1.719s.385 1.4.995 1.719c.288.153.591-1.257-.253-2.145a5.157 5.157 0 01-.975-1.667c-.089.049-1.476 2.8.777 3.959m2.076-3.964s.327.186.141-.132a3.717 3.717 0 01-.307-1.936s.1 1.538.67 2.012c.269.221.888-1.188.2-2.3a5.555 5.555 0 01-.67-1.952c-.1.03-2.144 2.608-.034 4.308m11.915 55.024a19.853 19.853 0 01-5.9-4.473c1.472 3.549 6.51 6.117 6.51 6.117z" fill="#fff"/></g><text transform="translate(226 39)" fill="#fff" font-size="10" font-family="HiraKakuPro-W6, Hiragino Kaku Gothic Pro" letter-spacing=".06em"><tspan x="-57.1" y="0">マウスピース矯正症例数</tspan></text><text transform="translate(145 11)" fill="#fff" font-size="10" font-family="HiraKakuPro-W6, Hiragino Kaku Gothic Pro" letter-spacing=".06em"><tspan x="-26.2" y="0">その他実績</tspan></text><path fill="#fff" d="M0 7h109.1v1H0zm181 0h109.1v1H181z"/></svg>