<svg width="310" height="215" viewBox="0 0 310 215" fill="none" xmlns="http://www.w3.org/2000/svg">
<path d="M32.79 4.4502V183.537H310" stroke="#403B35" stroke-miterlimit="10"/>
<path d="M297.48 189.807V188.567H303.13V189.407L302.54 189.807H297.48ZM298.68 196.997L301.75 189.407H303.12L300.12 196.997H298.67H298.68Z" fill="#403B35"/>
<path d="M303.82 196.177L306.93 192.877C307.19 192.607 307.4 192.357 307.56 192.137C307.72 191.917 307.84 191.717 307.91 191.527C307.98 191.337 308.02 191.137 308.02 190.937C308.02 190.557 307.9 190.267 307.65 190.047C307.4 189.827 307.09 189.727 306.72 189.727C306.32 189.727 305.97 189.827 305.66 190.027C305.35 190.227 305.08 190.537 304.84 190.967L303.88 190.167C304.21 189.597 304.62 189.167 305.1 188.867C305.58 188.567 306.14 188.427 306.77 188.427C307.29 188.427 307.75 188.527 308.14 188.737C308.53 188.947 308.84 189.237 309.06 189.607C309.28 189.977 309.39 190.407 309.39 190.907C309.39 191.257 309.35 191.577 309.26 191.857C309.18 192.137 309.03 192.407 308.83 192.687C308.63 192.967 308.35 193.287 308 193.657L305.61 196.127L303.83 196.167L303.82 196.177ZM303.82 196.997V196.177L305.01 195.757H309.54V196.997H303.82Z" fill="#403B35"/>
<path d="M252.58 197.117C252.02 197.117 251.51 196.987 251.06 196.727C250.61 196.467 250.26 196.117 249.99 195.677C249.73 195.237 249.6 194.747 249.6 194.207C249.6 193.437 249.87 192.657 250.41 191.867L252.71 188.567H254.31L251.85 192.027L251.34 192.327C251.42 192.147 251.52 191.987 251.65 191.847C251.78 191.707 251.94 191.607 252.14 191.537C252.34 191.467 252.6 191.427 252.91 191.427C253.4 191.427 253.84 191.537 254.24 191.767C254.64 191.997 254.96 192.317 255.2 192.717C255.44 193.127 255.56 193.597 255.56 194.147C255.56 194.697 255.43 195.187 255.16 195.637C254.89 196.087 254.54 196.447 254.08 196.707C253.63 196.977 253.12 197.107 252.57 197.107L252.58 197.117ZM252.58 195.817C252.88 195.817 253.16 195.747 253.4 195.597C253.64 195.447 253.83 195.257 253.97 194.997C254.11 194.747 254.18 194.457 254.18 194.147C254.18 193.837 254.11 193.557 253.97 193.307C253.83 193.057 253.64 192.867 253.4 192.727C253.16 192.587 252.89 192.517 252.58 192.517C252.27 192.517 252 192.587 251.76 192.737C251.52 192.887 251.33 193.077 251.19 193.317C251.05 193.567 250.99 193.837 250.99 194.157C250.99 194.477 251.06 194.757 251.19 195.007C251.33 195.257 251.52 195.457 251.76 195.607C252 195.747 252.27 195.827 252.58 195.827V195.817Z" fill="#403B35"/>
<path d="M259.95 197.118C259.32 197.118 258.73 196.938 258.21 196.578C257.68 196.218 257.26 195.718 256.95 195.068C256.64 194.418 256.48 193.648 256.48 192.768C256.48 191.888 256.63 191.118 256.94 190.468C257.25 189.818 257.66 189.318 258.19 188.968C258.71 188.618 259.29 188.438 259.92 188.438C260.55 188.438 261.15 188.618 261.67 188.968C262.19 189.318 262.61 189.818 262.92 190.468C263.23 191.118 263.38 191.888 263.38 192.778C263.38 193.668 263.23 194.428 262.92 195.078C262.61 195.728 262.2 196.228 261.68 196.588C261.16 196.938 260.59 197.118 259.95 197.118ZM259.93 195.818C260.35 195.818 260.71 195.708 261.01 195.478C261.32 195.248 261.55 194.918 261.73 194.468C261.9 194.018 261.99 193.448 261.99 192.768C261.99 192.088 261.9 191.528 261.73 191.078C261.56 190.628 261.32 190.288 261.01 190.068C260.7 189.848 260.34 189.738 259.93 189.738C259.52 189.738 259.16 189.848 258.85 190.068C258.54 190.288 258.3 190.618 258.13 191.068C257.96 191.518 257.88 192.078 257.88 192.758C257.88 193.438 257.96 194.008 258.13 194.458C258.3 194.908 258.54 195.248 258.85 195.468C259.16 195.688 259.52 195.808 259.93 195.808V195.818Z" fill="#403B35"/>
<path d="M202.49 193.987L205.49 188.567H207.06L203.99 193.987H202.5H202.49ZM202.49 194.827V193.987L203.08 193.587H209.03V194.827H202.49ZM206.49 196.997V191.477H207.85V196.997H206.49Z" fill="#403B35"/>
<path d="M212.78 197.118C212.2 197.118 211.7 197.018 211.27 196.808C210.84 196.598 210.51 196.308 210.28 195.938C210.04 195.568 209.92 195.138 209.92 194.668C209.92 194.288 209.99 193.948 210.14 193.628C210.29 193.308 210.51 193.038 210.79 192.818C211.07 192.598 211.41 192.428 211.81 192.338L211.77 192.728C211.45 192.638 211.18 192.498 210.96 192.298C210.74 192.098 210.57 191.858 210.46 191.588C210.35 191.318 210.29 191.028 210.29 190.738C210.29 190.288 210.4 189.888 210.61 189.548C210.82 189.208 211.12 188.938 211.5 188.748C211.88 188.558 212.3 188.458 212.78 188.458C213.26 188.458 213.69 188.558 214.06 188.748C214.43 188.938 214.73 189.208 214.94 189.548C215.15 189.888 215.26 190.288 215.26 190.738C215.26 191.038 215.2 191.318 215.09 191.588C214.98 191.858 214.81 192.098 214.6 192.298C214.38 192.498 214.11 192.648 213.78 192.728L213.74 192.338C214.14 192.438 214.48 192.598 214.76 192.818C215.04 193.038 215.26 193.318 215.4 193.628C215.55 193.948 215.62 194.288 215.62 194.668C215.62 195.138 215.5 195.568 215.27 195.938C215.04 196.308 214.71 196.598 214.28 196.808C213.85 197.018 213.35 197.118 212.77 197.118H212.78ZM212.78 195.868C213.08 195.868 213.34 195.808 213.57 195.688C213.8 195.568 213.98 195.398 214.11 195.198C214.24 194.988 214.31 194.748 214.31 194.488C214.31 194.228 214.24 193.978 214.11 193.768C213.98 193.568 213.8 193.398 213.57 193.278C213.34 193.158 213.08 193.098 212.78 193.098C212.48 193.098 212.22 193.158 211.99 193.278C211.76 193.398 211.58 193.558 211.45 193.768C211.32 193.968 211.25 194.208 211.25 194.488C211.25 194.768 211.32 194.988 211.45 195.198C211.58 195.408 211.76 195.568 211.99 195.688C212.22 195.808 212.48 195.868 212.78 195.868ZM212.78 192.008C213.13 192.008 213.42 191.898 213.65 191.668C213.88 191.438 213.99 191.158 213.99 190.798C213.99 190.438 213.88 190.158 213.65 189.938C213.42 189.718 213.14 189.608 212.78 189.608C212.42 189.608 212.15 189.718 211.92 189.938C211.69 190.158 211.58 190.448 211.58 190.798C211.58 191.148 211.69 191.438 211.92 191.668C212.15 191.888 212.44 192.008 212.78 192.008Z" fill="#403B35"/>
<path d="M158.69 197.117C158.13 197.117 157.62 197.017 157.17 196.807C156.72 196.607 156.33 196.307 156.02 195.907L156.96 194.967C157.13 195.227 157.37 195.427 157.67 195.577C157.97 195.727 158.31 195.807 158.67 195.807C159.03 195.807 159.31 195.747 159.56 195.617C159.81 195.487 160 195.307 160.14 195.077C160.28 194.847 160.35 194.577 160.35 194.267C160.35 193.947 160.28 193.677 160.14 193.447C160 193.227 159.8 193.047 159.54 192.927C159.28 192.807 158.96 192.737 158.59 192.737C158.45 192.737 158.3 192.747 158.14 192.767C157.99 192.787 157.85 192.817 157.73 192.857L158.34 192.057C158.51 191.997 158.69 191.937 158.88 191.897C159.07 191.857 159.25 191.827 159.43 191.827C159.86 191.827 160.26 191.927 160.61 192.137C160.96 192.347 161.24 192.637 161.44 193.007C161.64 193.377 161.75 193.817 161.75 194.327C161.75 194.877 161.62 195.357 161.36 195.777C161.1 196.197 160.75 196.517 160.29 196.757C159.83 196.987 159.3 197.107 158.69 197.107V197.117ZM156.44 189.807V188.567H161.66V189.387L160.47 189.807H156.45H156.44ZM157.74 192.867V192.047L159.99 189.417L161.65 189.377L159.3 192.077L157.73 192.857L157.74 192.867Z" fill="#403B35"/>
<path d="M165.66 197.117C165.1 197.117 164.59 196.987 164.14 196.727C163.69 196.467 163.34 196.117 163.07 195.677C162.81 195.237 162.68 194.747 162.68 194.207C162.68 193.437 162.95 192.657 163.49 191.867L165.79 188.567H167.39L164.93 192.027L164.42 192.327C164.5 192.147 164.6 191.987 164.73 191.847C164.86 191.707 165.02 191.607 165.22 191.537C165.42 191.467 165.68 191.427 165.99 191.427C166.48 191.427 166.92 191.537 167.32 191.767C167.72 191.997 168.04 192.317 168.28 192.717C168.52 193.127 168.64 193.597 168.64 194.147C168.64 194.697 168.51 195.187 168.24 195.637C167.97 196.087 167.62 196.447 167.16 196.707C166.71 196.977 166.2 197.107 165.65 197.107L165.66 197.117ZM165.66 195.817C165.96 195.817 166.24 195.747 166.48 195.597C166.72 195.447 166.91 195.257 167.05 194.997C167.19 194.747 167.26 194.457 167.26 194.147C167.26 193.837 167.19 193.557 167.05 193.307C166.91 193.057 166.72 192.867 166.48 192.727C166.24 192.587 165.97 192.517 165.66 192.517C165.35 192.517 165.08 192.587 164.84 192.737C164.6 192.887 164.41 193.077 164.27 193.317C164.13 193.567 164.07 193.837 164.07 194.157C164.07 194.477 164.14 194.757 164.27 195.007C164.41 195.257 164.6 195.457 164.84 195.607C165.08 195.747 165.35 195.827 165.66 195.827V195.817Z" fill="#403B35"/>
<path d="M109.44 196.177L112.55 192.877C112.81 192.607 113.02 192.357 113.18 192.137C113.34 191.917 113.46 191.717 113.53 191.527C113.6 191.337 113.64 191.137 113.64 190.937C113.64 190.557 113.52 190.267 113.27 190.047C113.02 189.827 112.71 189.727 112.34 189.727C111.94 189.727 111.59 189.827 111.28 190.027C110.97 190.227 110.7 190.537 110.46 190.967L109.5 190.167C109.83 189.597 110.24 189.167 110.72 188.867C111.2 188.567 111.76 188.427 112.39 188.427C112.91 188.427 113.37 188.527 113.76 188.737C114.15 188.947 114.46 189.237 114.68 189.607C114.9 189.977 115.01 190.407 115.01 190.907C115.01 191.257 114.97 191.577 114.88 191.857C114.8 192.137 114.65 192.407 114.45 192.687C114.25 192.967 113.97 193.287 113.62 193.657L111.23 196.127L109.45 196.167L109.44 196.177ZM109.44 196.997V196.177L110.63 195.757H115.16V196.997H109.44Z" fill="#403B35"/>
<path d="M115.73 193.987L118.73 188.567H120.3L117.23 193.987H115.74H115.73ZM115.73 194.827V193.987L116.32 193.587H122.27V194.827H115.73ZM119.73 196.997V191.477H121.09V196.997H119.73Z" fill="#403B35"/>
<path d="M65.54 189.807V188.567H68.47V189.807H65.54ZM67.23 196.997V188.567H68.59V196.997H67.23Z" fill="#403B35"/>
<path d="M69.8401 196.177L72.9501 192.877C73.2101 192.607 73.4201 192.357 73.5801 192.137C73.7401 191.917 73.8601 191.717 73.9301 191.527C74.0001 191.337 74.0401 191.137 74.0401 190.937C74.0401 190.557 73.9201 190.267 73.6701 190.047C73.4201 189.827 73.1101 189.727 72.7401 189.727C72.3401 189.727 71.9901 189.827 71.6801 190.027C71.3701 190.227 71.1001 190.537 70.8601 190.967L69.9001 190.167C70.2301 189.597 70.6401 189.167 71.1201 188.867C71.6001 188.567 72.1601 188.427 72.7901 188.427C73.3101 188.427 73.7701 188.527 74.1601 188.737C74.5501 188.947 74.8601 189.237 75.0801 189.607C75.3001 189.977 75.4101 190.407 75.4101 190.907C75.4101 191.257 75.3701 191.577 75.2801 191.857C75.2001 192.137 75.0501 192.407 74.8501 192.687C74.6501 192.967 74.3701 193.287 74.0201 193.657L71.6301 196.127L69.8501 196.167L69.8401 196.177ZM69.8401 196.997V196.177L71.0301 195.757H75.5601V196.997H69.8401Z" fill="#403B35"/>
<path d="M28.32 197.118C27.69 197.118 27.1 196.938 26.58 196.578C26.05 196.218 25.63 195.718 25.32 195.068C25.01 194.418 24.85 193.648 24.85 192.768C24.85 191.888 25 191.118 25.31 190.468C25.62 189.818 26.03 189.318 26.56 188.968C27.08 188.618 27.66 188.438 28.29 188.438C28.92 188.438 29.52 188.618 30.04 188.968C30.56 189.318 30.98 189.818 31.29 190.468C31.6 191.118 31.75 191.888 31.75 192.778C31.75 193.668 31.6 194.428 31.29 195.078C30.98 195.728 30.57 196.228 30.05 196.588C29.53 196.938 28.96 197.118 28.32 197.118ZM28.3 195.818C28.72 195.818 29.08 195.708 29.38 195.478C29.69 195.248 29.92 194.918 30.1 194.468C30.27 194.018 30.36 193.448 30.36 192.768C30.36 192.088 30.27 191.528 30.1 191.078C29.93 190.628 29.69 190.288 29.38 190.068C29.07 189.848 28.71 189.738 28.3 189.738C27.89 189.738 27.53 189.848 27.22 190.068C26.91 190.288 26.67 190.618 26.5 191.068C26.33 191.518 26.25 192.078 26.25 192.758C26.25 193.438 26.33 194.008 26.5 194.458C26.67 194.908 26.91 195.248 27.22 195.468C27.53 195.688 27.89 195.808 28.3 195.808V195.818Z" fill="#403B35"/>
<path d="M20.49 169.236L23.6 165.936C23.86 165.666 24.07 165.416 24.23 165.196C24.39 164.976 24.51 164.776 24.58 164.586C24.65 164.396 24.69 164.196 24.69 163.996C24.69 163.616 24.57 163.326 24.32 163.106C24.07 162.886 23.76 162.786 23.39 162.786C22.99 162.786 22.64 162.886 22.33 163.086C22.02 163.286 21.75 163.596 21.51 164.026L20.55 163.226C20.88 162.656 21.29 162.226 21.77 161.926C22.25 161.626 22.81 161.486 23.44 161.486C23.96 161.486 24.42 161.586 24.81 161.796C25.2 162.006 25.51 162.296 25.73 162.666C25.95 163.036 26.06 163.466 26.06 163.966C26.06 164.316 26.02 164.636 25.93 164.916C25.85 165.196 25.7 165.466 25.5 165.746C25.3 166.026 25.02 166.346 24.67 166.716L22.28 169.186L20.5 169.226L20.49 169.236ZM20.49 170.056V169.236L21.68 168.816H26.21V170.056H20.49Z" fill="#403B35"/>
<path d="M20.14 140.106L23.14 134.686H24.71L21.64 140.106H20.15H20.14ZM20.14 140.946V140.106L20.73 139.706H26.68V140.946H20.14ZM24.14 143.116V137.596H25.5V143.116H24.14Z" fill="#403B35"/>
<path d="M23.4099 116.304C22.8499 116.304 22.3399 116.174 21.8899 115.914C21.4399 115.654 21.0899 115.304 20.8199 114.864C20.5599 114.424 20.4299 113.934 20.4299 113.394C20.4299 112.624 20.6999 111.844 21.2399 111.054L23.5399 107.754H25.1399L22.6799 111.214L22.1699 111.514C22.2499 111.334 22.3499 111.174 22.4799 111.034C22.6099 110.894 22.7699 110.794 22.9699 110.724C23.1699 110.654 23.4299 110.614 23.7399 110.614C24.2299 110.614 24.6699 110.724 25.0699 110.954C25.4699 111.184 25.7899 111.504 26.0299 111.904C26.2699 112.314 26.3899 112.784 26.3899 113.334C26.3899 113.884 26.2599 114.374 25.9899 114.824C25.7199 115.274 25.3699 115.634 24.9099 115.894C24.4599 116.164 23.9499 116.294 23.3999 116.294L23.4099 116.304ZM23.4099 115.004C23.7099 115.004 23.9899 114.934 24.2299 114.784C24.4699 114.634 24.6599 114.444 24.7999 114.184C24.9399 113.934 25.0099 113.644 25.0099 113.334C25.0099 113.024 24.9399 112.744 24.7999 112.494C24.6599 112.244 24.4699 112.054 24.2299 111.914C23.9899 111.774 23.7199 111.704 23.4099 111.704C23.0999 111.704 22.8299 111.774 22.5899 111.924C22.3499 112.074 22.1599 112.264 22.0199 112.504C21.8799 112.754 21.8199 113.024 21.8199 113.344C21.8199 113.664 21.8899 113.944 22.0199 114.194C22.1599 114.444 22.3499 114.644 22.5899 114.794C22.8299 114.934 23.0999 115.014 23.4099 115.014V115.004Z" fill="#403B35"/>
<path d="M23.41 89.3636C22.83 89.3636 22.33 89.2636 21.9 89.0536C21.47 88.8436 21.14 88.5536 20.91 88.1836C20.67 87.8136 20.55 87.3836 20.55 86.9136C20.55 86.5336 20.6201 86.1936 20.7701 85.8736C20.9201 85.5536 21.14 85.2836 21.42 85.0636C21.7 84.8436 22.0401 84.6736 22.4401 84.5836L22.4 84.9736C22.08 84.8836 21.81 84.7436 21.59 84.5436C21.37 84.3436 21.2 84.1036 21.09 83.8336C20.98 83.5636 20.92 83.2736 20.92 82.9836C20.92 82.5336 21.03 82.1336 21.24 81.7936C21.45 81.4536 21.75 81.1836 22.13 80.9936C22.51 80.8036 22.93 80.7036 23.41 80.7036C23.89 80.7036 24.3201 80.8036 24.6901 80.9936C25.0601 81.1836 25.36 81.4536 25.57 81.7936C25.78 82.1336 25.89 82.5336 25.89 82.9836C25.89 83.2836 25.83 83.5636 25.72 83.8336C25.61 84.1036 25.44 84.3436 25.23 84.5436C25.01 84.7436 24.74 84.8936 24.41 84.9736L24.3701 84.5836C24.7701 84.6836 25.11 84.8436 25.39 85.0636C25.67 85.2836 25.8901 85.5636 26.0301 85.8736C26.1801 86.1936 26.25 86.5336 26.25 86.9136C26.25 87.3836 26.13 87.8136 25.9 88.1836C25.67 88.5536 25.34 88.8436 24.91 89.0536C24.48 89.2636 23.98 89.3636 23.4 89.3636H23.41ZM23.41 88.1136C23.71 88.1136 23.9701 88.0536 24.2001 87.9336C24.4301 87.8136 24.61 87.6436 24.74 87.4436C24.87 87.2336 24.9401 86.9936 24.9401 86.7336C24.9401 86.4736 24.87 86.2236 24.74 86.0136C24.61 85.8136 24.4301 85.6436 24.2001 85.5236C23.9701 85.4036 23.71 85.3436 23.41 85.3436C23.11 85.3436 22.8501 85.4036 22.6201 85.5236C22.3901 85.6436 22.21 85.8036 22.08 86.0136C21.95 86.2136 21.88 86.4536 21.88 86.7336C21.88 87.0136 21.95 87.2336 22.08 87.4436C22.21 87.6536 22.3901 87.8136 22.6201 87.9336C22.8501 88.0536 23.11 88.1136 23.41 88.1136ZM23.41 84.2536C23.76 84.2536 24.0501 84.1436 24.2801 83.9136C24.5101 83.6836 24.6201 83.4036 24.6201 83.0436C24.6201 82.6836 24.5101 82.4036 24.2801 82.1836C24.0501 81.9636 23.77 81.8536 23.41 81.8536C23.05 81.8536 22.78 81.9636 22.55 82.1836C22.32 82.4036 22.21 82.6936 22.21 83.0436C22.21 83.3936 22.32 83.6836 22.55 83.9136C22.78 84.1336 23.07 84.2536 23.41 84.2536Z" fill="#403B35"/>
<path d="M17.5901 55.1121V53.8721H20.5201V55.1121H17.5901ZM19.2801 62.3021V53.8721H20.6401V62.3021H19.2801Z" fill="#403B35"/>
<path d="M25.6101 62.432C24.9801 62.432 24.3901 62.252 23.8701 61.892C23.3401 61.532 22.9201 61.032 22.6101 60.382C22.3001 59.732 22.1401 58.962 22.1401 58.082C22.1401 57.202 22.2901 56.432 22.6001 55.782C22.9101 55.132 23.3201 54.632 23.8501 54.282C24.3701 53.932 24.9501 53.752 25.5801 53.752C26.2101 53.752 26.8101 53.932 27.3301 54.282C27.8501 54.632 28.2701 55.132 28.5801 55.782C28.8901 56.432 29.0401 57.202 29.0401 58.092C29.0401 58.982 28.8901 59.742 28.5801 60.392C28.2701 61.042 27.8601 61.542 27.3401 61.902C26.8201 62.252 26.2501 62.432 25.6101 62.432ZM25.5901 61.132C26.0101 61.132 26.3701 61.022 26.6701 60.792C26.9801 60.562 27.2101 60.232 27.3901 59.782C27.5601 59.332 27.6501 58.762 27.6501 58.082C27.6501 57.402 27.5601 56.842 27.3901 56.392C27.2201 55.942 26.9801 55.602 26.6701 55.382C26.3601 55.162 26.0001 55.052 25.5901 55.052C25.1801 55.052 24.8201 55.162 24.5101 55.382C24.2001 55.602 23.9601 55.932 23.7901 56.382C23.6201 56.832 23.5401 57.392 23.5401 58.072C23.5401 58.752 23.6201 59.322 23.7901 59.772C23.9601 60.222 24.2001 60.562 24.5101 60.782C24.8201 61.002 25.1801 61.122 25.5901 61.122V61.132Z" fill="#403B35"/>
<path d="M18.3301 28.1809V26.9409H21.2601V28.1809H18.3301ZM20.0201 35.3709V26.9409H21.3801V35.3709H20.0201Z" fill="#403B35"/>
<path d="M22.6201 34.5508L25.7301 31.2508C25.9901 30.9808 26.2001 30.7308 26.3601 30.5108C26.5201 30.2908 26.6401 30.0908 26.7101 29.9008C26.7801 29.7108 26.8201 29.5108 26.8201 29.3108C26.8201 28.9308 26.7001 28.6408 26.4501 28.4208C26.2001 28.2008 25.8901 28.1008 25.5201 28.1008C25.1201 28.1008 24.7701 28.2008 24.4601 28.4008C24.1501 28.6008 23.8801 28.9108 23.6401 29.3408L22.6801 28.5408C23.0101 27.9708 23.4201 27.5408 23.9001 27.2408C24.3801 26.9408 24.9401 26.8008 25.5701 26.8008C26.0901 26.8008 26.5501 26.9008 26.9401 27.1108C27.3301 27.3208 27.6401 27.6108 27.8601 27.9808C28.0801 28.3508 28.1901 28.7808 28.1901 29.2808C28.1901 29.6308 28.1501 29.9508 28.0601 30.2308C27.9801 30.5108 27.8301 30.7808 27.6301 31.0608C27.4301 31.3408 27.1501 31.6608 26.8001 32.0308L24.4101 34.5008L22.6301 34.5408L22.6201 34.5508ZM22.6201 35.3708V34.5508L23.8101 34.1308H28.3401V35.3708H22.6201Z" fill="#403B35"/>
<path d="M18.01 1.24V0H20.94V1.24H18.01ZM19.7 8.43V0H21.06V8.43H19.7Z" fill="#403B35"/>
<path d="M22.24 5.42L25.24 0H26.81L23.74 5.42H22.25H22.24ZM22.24 6.26V5.42L22.83 5.02H28.78V6.26H22.24ZM26.24 8.43V2.92H27.6V8.44H26.24V8.43Z" fill="#403B35"/>
<path d="M32.93 4.4502C32.93 4.4502 26.6103 110.814 97.4566 144.096C168.303 177.377 309.985 174.457 309.985 174.457" stroke="#00AEE0" stroke-miterlimit="10"/>
<path d="M32.88 81.9736C32.88 81.9736 29.6202 100.814 65.9281 107.765C109.876 116.185 309.984 121.385 309.984 121.385" stroke="#EF5274" stroke-miterlimit="10"/>
<path d="M302.888 11.1219H302.86C302.454 11.4999 302.258 11.6679 301.824 12.0179V14.2579C302.804 14.1039 303.714 13.9219 304.456 13.7399L304.484 15.0139C302.846 15.4199 301.586 15.6719 299.402 16.0219C298.968 16.0919 298.87 16.1199 298.604 16.1899L298.324 14.6919C298.758 14.6919 299.388 14.6219 300.396 14.4679V12.9839C299.374 13.5999 298.352 14.0759 297.092 14.5239C296.896 14.0199 296.714 13.6839 296.378 13.2499C298.198 12.7039 299.71 11.9899 300.872 11.1219H299.696C299.066 11.1219 298.772 11.1359 298.408 11.1779C298.45 10.6879 298.464 10.3659 298.464 9.87591V9.28791H298.128C297.316 9.28791 297.022 9.30192 296.588 9.35791V7.97191C296.966 8.02791 297.428 8.05591 298.128 8.05591H298.464V7.55192C298.45 6.96392 298.436 6.51591 298.408 6.19391C298.786 6.23591 299.206 6.24992 299.794 6.24992H306.094C306.71 6.24992 307.13 6.23591 307.522 6.19391C307.48 6.51591 307.466 7.03392 307.466 7.55192V8.05591H307.928C308.642 8.05591 309.09 8.02791 309.468 7.97191V9.35791C309.048 9.30192 308.684 9.28791 307.928 9.28791H307.466V9.87591C307.466 10.4919 307.466 10.6039 307.508 11.1639C307.116 11.1359 306.752 11.1219 306.192 11.1219H304.386C304.68 11.7659 305.058 12.2559 305.744 12.8019C306.766 12.1159 307.438 11.5419 308.012 10.8839L309.216 11.6959C308.264 12.5499 307.606 13.0819 306.864 13.5579C307.676 14.0479 308.488 14.3839 309.552 14.6639C309.188 15.1399 308.978 15.5039 308.726 16.1339C306.794 15.4199 305.632 14.7199 304.568 13.6279C303.714 12.7599 303.322 12.1719 302.888 11.1219ZM306.01 8.09791V7.43991H299.906V8.09791H306.01ZM306.01 9.25991H299.906V9.94591H306.01V9.25991ZM302.09 4.30391V4.06591C302.09 3.77191 302.076 3.61791 302.02 3.21191H303.784C303.728 3.42191 303.7 3.74391 303.7 4.05191V4.30391H307.718C308.39 4.30391 308.88 4.27591 309.328 4.21991V5.66191C308.852 5.60592 308.53 5.59191 307.774 5.59191H298.352C297.624 5.59191 297.246 5.60592 296.742 5.66191V4.21991C297.218 4.27591 297.722 4.30391 298.394 4.30391H302.09Z" fill="#C36800"/>
<path d="M289.63 10.0718V12.7178C289.63 13.0398 289.63 13.2638 289.644 13.4598C289.91 13.1518 290.162 12.8018 290.554 12.1718C290.148 10.6458 289.91 8.68578 289.826 6.22178H285.934C285.934 10.0858 285.85 11.7658 285.57 13.3338C285.374 14.4958 285.08 15.2658 284.52 16.1758C284.086 15.7278 283.778 15.4898 283.274 15.1818C283.82 14.3558 284.044 13.7678 284.254 12.6478C284.492 11.3738 284.604 9.42778 284.604 6.66978C284.604 6.10978 284.59 5.59178 284.562 5.22778L283.484 6.29178C282.798 5.49378 282.238 4.98978 281.37 4.40178L282.448 3.40778C283.386 4.05178 283.862 4.45778 284.562 5.22778C284.534 5.04578 284.534 4.98978 284.506 4.79378C284.814 4.83578 285.36 4.86378 286.074 4.86378H289.812C289.798 3.86978 289.784 3.54778 289.728 3.22578H291.268C291.198 3.61778 291.17 3.99578 291.17 4.65378C291.17 4.68178 291.17 4.76578 291.184 4.86378H292.332C292.402 4.86378 292.43 4.86378 292.696 4.86378C292.346 4.54178 291.898 4.20578 291.394 3.89778L292.29 3.07178C292.878 3.42178 293.102 3.58978 293.746 4.12178L292.99 4.84978C293.354 4.84978 293.508 4.83578 293.816 4.77978V6.27778C293.354 6.23578 293.116 6.22178 292.332 6.22178H291.198C291.24 7.74778 291.338 9.13378 291.506 10.3238C291.926 9.28778 292.248 7.95778 292.262 7.18778L293.69 7.69178C293.606 7.95778 293.55 8.12578 293.452 8.48978C293.06 9.95978 292.626 11.0938 291.968 12.2978C292.178 12.9698 292.654 13.9498 292.906 14.2158C292.934 14.2438 292.948 14.2578 292.948 14.2578C292.962 14.2718 292.962 14.2718 292.976 14.2718C293.088 14.2718 293.2 13.3618 293.214 12.3398C293.578 12.6338 293.928 12.8578 294.334 13.0538C294.278 13.9498 294.194 14.4538 294.026 14.9578C293.816 15.5878 293.452 15.9518 293.018 15.9518C292.36 15.9518 291.716 15.2098 291.086 13.7538C290.386 14.7198 289.518 15.5738 288.496 16.2458C288.146 15.8118 287.894 15.5878 287.39 15.2238C288.174 14.7758 288.944 14.1878 289.504 13.6278C289.252 13.5998 289.042 13.5998 288.776 13.5998H287.488V14.3558H286.298C286.354 14.0898 286.368 13.7818 286.368 13.1378V10.3238C286.368 9.97378 286.354 9.55378 286.326 9.37178C286.508 9.38578 286.83 9.39978 287.292 9.39978H288.86C289.154 9.39978 289.448 9.38578 289.672 9.37178C289.644 9.48378 289.63 9.77778 289.63 10.0718ZM287.488 10.5618V12.3258H288.524V10.5618H287.488ZM280.978 7.98578L281.986 6.93578C282.91 7.49578 283.47 7.91578 284.184 8.60178L283.204 9.73578C282.42 8.96578 281.916 8.57378 280.978 7.98578ZM282.63 10.6318L283.764 11.5698C283.26 13.4878 282.994 14.2998 282.406 15.6298C282.35 15.7558 282.336 15.8118 282.28 15.9518L280.992 14.8178C281.132 14.6498 281.188 14.5798 281.328 14.3278C281.496 14.0338 281.762 13.3898 282.014 12.7318C282.28 12.0178 282.406 11.5838 282.63 10.6318ZM286.186 8.51778V7.18778C286.41 7.21578 286.578 7.22978 286.956 7.22978H288.86C289.266 7.22978 289.462 7.21578 289.658 7.18778V8.51778C289.49 8.48978 289.224 8.47578 288.874 8.47578H286.956C286.62 8.47578 286.382 8.48978 286.186 8.51778Z" fill="#C36800"/>
<path d="M273.292 6.02601C273.026 8.22401 272.536 10.156 271.836 11.738C271.038 13.544 270.142 14.37 268.994 14.37C267.398 14.37 266.25 12.746 266.25 10.492C266.25 8.95201 266.796 7.51001 267.79 6.41801C268.966 5.13001 270.618 4.45801 272.606 4.45801C275.966 4.45801 278.15 6.50201 278.15 9.65201C278.15 12.074 276.89 14.006 274.748 14.874C274.076 15.154 273.53 15.294 272.55 15.462C272.312 14.72 272.144 14.412 271.696 13.824C272.984 13.656 273.824 13.432 274.482 13.054C275.7 12.382 276.428 11.052 276.428 9.55401C276.428 8.21001 275.826 7.11801 274.706 6.44601C274.272 6.19401 273.908 6.08201 273.292 6.02601ZM271.584 6.04001C270.856 6.12401 270.352 6.32001 269.778 6.72601C268.602 7.56601 267.874 9.00801 267.874 10.506C267.874 11.654 268.364 12.564 268.98 12.564C269.442 12.564 269.918 11.976 270.422 10.772C270.954 9.51201 271.416 7.62201 271.584 6.04001Z" fill="#C36800"/>
<path d="M256.94 6.01159H260.482C261.322 6.01159 261.812 5.99759 262.288 5.94159C262.232 6.48759 262.232 6.48759 262.204 8.05559C262.162 9.97359 262.022 12.3396 261.882 13.2636C261.7 14.5516 261.504 15.0416 261.07 15.3496C260.706 15.6156 260.188 15.7276 259.404 15.7276C258.76 15.7276 258.144 15.6856 257.262 15.5736C257.178 14.8596 257.08 14.4536 256.87 13.8796C257.766 14.0616 258.578 14.1596 259.278 14.1596C259.936 14.1596 260.146 13.9076 260.3 12.9696C260.482 11.9196 260.608 9.74959 260.622 7.50959H256.828C256.59 9.58159 256.212 10.9956 255.554 12.1716C254.742 13.6416 253.468 14.8176 251.522 15.9096C251.214 15.3216 250.85 14.8736 250.36 14.4536C252.278 13.6136 253.552 12.4936 254.308 10.9676C254.742 10.1136 255.008 9.03559 255.19 7.50959H252.754C252.04 7.50959 251.494 7.53759 251.018 7.59359V5.91359C251.522 5.98359 251.998 6.01159 252.796 6.01159H255.288C255.316 5.45159 255.316 5.31159 255.316 4.58359C255.316 3.91159 255.288 3.50559 255.232 3.22559H257.094C257.024 3.58959 257.024 3.58959 256.94 6.01159Z" fill="#C36800"/>
<path d="M241.05 14.0896V5.32564H237.382C236.724 5.32564 236.192 5.35364 235.604 5.40964V3.82764C236.136 3.88364 236.682 3.91164 237.368 3.91164H245.474C246.132 3.91164 246.678 3.88364 247.252 3.82764V5.40964C246.692 5.35364 246.09 5.32564 245.474 5.32564H242.66V8.74164H245.054C245.726 8.74164 246.174 8.71364 246.622 8.65764V10.2116C246.188 10.1556 245.67 10.1276 245.054 10.1276H242.66V14.0896H245.866C246.566 14.0896 247.154 14.0616 247.714 13.9916V15.6156C247.168 15.5456 246.622 15.5176 245.88 15.5176H236.934C236.234 15.5176 235.688 15.5456 235.086 15.6156V13.9916C235.604 14.0756 235.982 14.0896 236.906 14.0896H237.2V9.56764C237.2 8.83964 237.172 8.26564 237.102 7.74764H238.88C238.81 8.23764 238.782 8.82564 238.782 9.55364V14.0896H241.05Z" fill="#C36800"/>
<path d="M221.604 6.34761H221.338C221.086 7.07561 220.904 7.45361 220.47 8.13961C220.19 7.73361 219.812 7.34161 219.434 7.03361C220.022 6.15161 220.358 5.25561 220.596 3.99561C220.624 3.85561 220.652 3.57561 220.694 3.18361L222.164 3.44961C222.094 3.63161 222.08 3.68761 221.954 4.20561C221.898 4.41561 221.856 4.56961 221.744 5.00361H222.822C223.368 5.00361 223.606 4.98961 223.886 4.94761V6.37561C223.606 6.36161 223.452 6.34761 222.99 6.34761C222.962 7.87361 222.962 7.87361 222.92 8.64361H223.2C223.55 8.64361 223.844 8.62961 224.054 8.60161C223.928 8.40561 223.858 8.33561 223.634 8.11161C224.698 7.62161 225.174 7.28561 225.804 6.62761H225.37C224.754 6.62761 224.488 6.64161 224.138 6.68361V5.40961C224.544 5.43761 224.768 5.45161 225.342 5.45161H226.672C226.812 5.19961 226.882 5.07361 226.994 4.82161C226.322 4.86361 225.832 4.87761 224.586 4.89161C224.334 4.24761 224.306 4.17761 224.068 3.74361C224.572 3.75761 224.95 3.77161 225.146 3.77161C227.47 3.77161 229.934 3.47761 230.788 3.09961L231.642 4.28961C231.502 4.31761 231.488 4.31761 231.292 4.34561C230.536 4.48561 229.416 4.63961 228.52 4.72361C228.38 5.01761 228.324 5.11561 228.156 5.45161H230.648C231.32 5.45161 231.838 5.42361 232.188 5.38161V6.69761C231.754 6.64161 231.306 6.62761 230.69 6.62761H229.906C230.48 7.21561 231.334 7.66361 232.58 8.04161C232.272 8.48961 232.202 8.65761 231.95 9.35761C231.25 9.06361 230.858 8.85361 230.326 8.50361V8.99361C230.326 9.42761 230.326 9.60961 230.354 9.86161C230.088 9.84761 229.836 9.83361 229.388 9.83361H226.518C226.084 9.83361 225.818 9.84761 225.552 9.86161C225.58 9.58161 225.594 9.39961 225.594 8.99361V8.48961C225.174 8.82561 225.006 8.95161 224.46 9.28761C224.348 9.03561 224.306 8.95161 224.138 8.71361V10.0576C223.9 10.0156 223.578 10.0016 223.172 10.0016H222.794C222.766 10.2396 222.752 10.3376 222.696 10.7016C223.06 11.3596 223.662 12.1296 224.222 12.6336V11.4436C224.222 10.9816 224.194 10.6036 224.152 10.2536C224.474 10.2956 224.908 10.3236 225.538 10.3236H230.578C231.236 10.3236 231.656 10.3096 231.992 10.2536C231.95 10.6456 231.936 11.1776 231.936 11.6816V14.6216C231.936 15.4476 231.824 15.7136 231.418 15.8816C231.138 16.0216 230.704 16.0636 229.794 16.0636C229.654 16.0636 229.444 16.0636 229.164 16.0496C229.136 15.5596 229.08 15.3216 228.94 14.8456H227.498V15.3916H226.28C226.308 15.1956 226.322 14.7896 226.322 14.4676V12.8716C226.322 12.4516 226.308 12.2276 226.294 11.9756C226.476 12.0176 226.616 12.0176 227.092 12.0176H229.052C229.5 12.0176 229.64 12.0176 229.822 11.9756C229.794 12.2136 229.794 12.2976 229.794 12.8296V14.0616C229.794 14.4116 229.794 14.5236 229.794 14.6916H230.088C230.102 14.6916 230.144 14.6916 230.158 14.6916C230.466 14.6916 230.522 14.6356 230.522 14.3136V11.4996H225.622V14.6216C225.622 15.5456 225.622 15.7976 225.678 16.1756H224.138C224.194 15.7556 224.222 15.2516 224.222 14.4116V12.8716C223.97 13.2076 223.816 13.4876 223.564 14.0896C223.018 13.5156 222.738 13.1236 222.304 12.3816C221.898 13.6696 221.38 14.5376 220.372 15.6296C220.162 15.1256 219.882 14.7336 219.378 14.2436C220.596 13.1376 221.086 12.1296 221.394 10.0016H220.778C220.372 10.0016 220.036 10.0296 219.686 10.0716V8.57361C220.036 8.62961 220.372 8.64361 220.876 8.64361H221.534C221.576 7.99961 221.59 7.45361 221.604 6.34761ZM228.296 6.62761H227.428C227.218 6.92161 227.12 7.03361 226.91 7.27161H228.856C228.632 7.03361 228.52 6.90761 228.296 6.62761ZM227.484 12.9836V13.7956H228.66V12.9836H227.484ZM226.924 8.22361V8.85361H228.982V8.22361H226.924Z" fill="#C36800"/>
<path d="M207.772 3.7857L209.592 3.4917C209.648 4.4297 210.068 6.4457 210.516 7.8737C211.426 7.5377 211.426 7.5377 214.142 6.6417C214.394 6.5577 214.464 6.5297 214.674 6.4317L215.276 8.1957C214.058 8.4337 212.224 8.9657 210.656 9.5397C208.612 10.2957 207.59 11.1917 207.59 12.1997C207.59 13.2217 208.542 13.6557 210.796 13.6557C212.546 13.6557 214.268 13.4457 215.318 13.0817L215.472 14.9997C215.164 14.9997 215.094 15.0137 214.338 15.0977C212.826 15.2517 212.042 15.3077 211.062 15.3077C209.116 15.3077 207.898 15.0697 207.002 14.5377C206.232 14.0757 205.784 13.2077 205.784 12.1997C205.784 11.2617 206.232 10.3657 207.03 9.6937C207.576 9.2317 208.024 8.9517 208.934 8.4897C208.584 7.3557 208.346 6.4177 207.996 4.6957C207.856 4.0237 207.842 3.9957 207.772 3.7857Z" fill="#C36800"/>
<path d="M200.324 7.76156H200.394C200.87 7.76156 201.052 7.74756 201.276 7.70555C201.234 8.08356 201.22 8.37756 201.22 8.89556V12.8716C201.22 13.3756 201.094 13.6556 200.758 13.8236C200.464 13.9636 200.156 14.0056 199.316 14.0056C199.218 14.0056 199.218 14.0056 198.406 14.0056C198.336 13.5016 198.238 13.1376 198.07 12.7036C198.63 12.7736 199.022 12.8016 199.274 12.8016C199.68 12.8016 199.792 12.7456 199.792 12.5776V8.99356H194.206V12.6756C194.206 13.3056 194.22 13.5576 194.262 13.9076H192.722C192.764 13.5576 192.778 13.2776 192.778 12.6756V8.82556C192.778 8.30756 192.764 8.13956 192.722 7.70555C192.96 7.74756 193.156 7.76156 193.66 7.76156V4.87755C193.66 4.31756 193.646 3.99556 193.604 3.60356C194.024 3.64555 194.36 3.65955 194.948 3.65955H199.036C199.792 3.65955 200.016 3.64555 200.38 3.60356C200.338 3.91155 200.324 4.21955 200.324 4.87755V7.76156ZM196.124 7.76156V6.65556C196.124 6.08156 196.124 5.94156 196.082 5.57755C196.362 5.60556 196.768 5.61956 197.202 5.61956H198.91V4.93355H195.074V7.76156H196.124ZM197.468 7.76156H198.91V6.71156H197.468V7.76156ZM198.98 10.2676V11.6956C198.98 12.1436 198.98 12.2696 199.022 12.4936C198.63 12.4656 198.462 12.4516 198.168 12.4516H196.208V12.9136H194.92C194.948 12.6336 194.962 12.4656 194.962 12.1156V10.2956C194.962 10.0016 194.948 9.81956 194.92 9.46956C195.088 9.49756 195.284 9.51156 195.774 9.51156H198.168C198.7 9.51156 198.812 9.51156 199.022 9.46956C198.98 9.79156 198.98 9.91756 198.98 10.2676ZM196.208 10.5896V11.3736H197.72V10.5896H196.208ZM188.816 4.42955L189.95 3.39355C191.056 4.38756 191.434 4.80755 192.33 5.95555L191.168 7.08956C190.286 5.85755 189.922 5.45155 188.816 4.42955ZM188.746 10.0996V8.58755C189.096 8.64356 189.32 8.65756 189.866 8.65756H190.846C191.364 8.65756 191.574 8.64356 191.91 8.60156C191.854 9.03556 191.854 9.23156 191.854 10.1136V13.1376C192.078 13.5296 192.232 13.6976 192.484 13.8796C192.778 14.0896 193.1 14.2436 193.408 14.2996C194.038 14.4396 194.766 14.4956 195.648 14.4956C198.518 14.4956 200.226 14.4256 201.864 14.2156C201.598 14.8596 201.556 15.0556 201.444 15.8116C200.114 15.8676 198.126 15.8956 196.18 15.8956C194.066 15.8956 193.212 15.7836 192.442 15.4196C191.924 15.1676 191.532 14.8456 191.14 14.3276C190.636 14.8176 189.838 15.4896 189.152 16.0076L188.466 14.4116C189.026 14.1736 189.572 13.7816 190.398 13.0396V10.0296H189.698C189.306 10.0296 189.11 10.0436 188.746 10.0996Z" fill="#C36800"/>
<path d="M173.57 10.5759L173.402 9.11994C173.64 9.14794 173.766 9.16194 174.102 9.16194C174.13 9.16194 174.424 9.16194 174.592 9.14794C174.816 8.86794 174.97 8.65794 175.264 8.25194C174.69 7.43994 174.018 6.68394 173.36 6.08194L174.088 4.89194C174.368 5.17194 174.438 5.24194 174.634 5.43794C175.138 4.56994 175.586 3.60394 175.698 3.08594L177.112 3.65994C176.986 3.86994 176.986 3.86994 176.594 4.62594C176.286 5.24194 175.922 5.87194 175.544 6.43194C175.796 6.75394 175.852 6.80994 176.048 7.06194C176.916 5.68994 177.126 5.29794 177.392 4.63994L178.624 5.36794C178.484 5.56394 178.484 5.56394 177.784 6.65594C177.35 7.35594 176.552 8.47594 176.062 9.10594C176.734 9.07794 177.126 9.03594 177.574 8.99394C177.434 8.58794 177.364 8.40594 177.126 7.85994L178.05 7.39794C178.638 8.67194 178.862 9.24594 179.184 10.3239L178.12 10.8559C178.05 10.5199 178.008 10.3659 177.952 10.1699C177.49 10.2259 177.35 10.2539 177.014 10.2819V14.7059C177.014 15.3919 177.028 15.7419 177.098 16.1759H175.558C175.628 15.7279 175.642 15.3779 175.642 14.6919V10.3939C174.984 10.4499 174.984 10.4499 174.466 10.4779C173.836 10.5199 173.808 10.5199 173.57 10.5759ZM182.992 11.0379H184.266C184.854 11.0379 185.246 11.0099 185.61 10.9539V12.4379C185.19 12.3959 184.784 12.3819 184.252 12.3819H182.992V14.3139H184.714C185.456 14.3139 185.862 14.2999 186.226 14.2439V15.7559C185.778 15.6999 185.344 15.6719 184.686 15.6719H180.094C179.464 15.6719 179.016 15.6999 178.554 15.7559V14.2439C178.932 14.2999 179.282 14.3139 179.898 14.3139H181.536V12.3819H180.598C180.066 12.3819 179.646 12.3959 179.198 12.4379V10.9679C179.576 11.0239 179.912 11.0379 180.598 11.0379H181.536V10.7579C181.536 10.0579 181.522 9.69394 181.466 9.41394H183.062C183.006 9.76394 182.992 10.1139 182.992 10.7579V11.0379ZM184.896 3.71594L185.778 4.55594C185.288 5.29794 184.798 6.01194 184.658 6.19394C184.308 6.66994 183.916 7.10394 183.454 7.55194C184.378 8.04194 185.19 8.33594 186.45 8.58794C186.114 9.13394 185.988 9.42794 185.792 10.1139C184.308 9.65194 183.286 9.18994 182.278 8.51794C181.424 9.11994 180.794 9.45594 179.674 9.91794C179.422 9.41394 179.212 9.09194 178.764 8.60194C179.716 8.30794 180.388 8.01394 181.116 7.57994C180.346 6.82394 179.842 6.10994 179.366 5.14394C179.016 5.15794 178.848 5.17194 178.61 5.21394V3.70194C178.932 3.74394 179.422 3.77194 180.15 3.77194H183.804C184.336 3.77194 184.616 3.75794 184.896 3.71594ZM183.664 5.14394H180.878C181.27 5.82994 181.592 6.20794 182.236 6.75394C182.894 6.17994 183.216 5.81594 183.664 5.14394ZM173.976 11.0519L175.194 11.2759C175.11 13.2219 175.026 14.0059 174.704 15.5039L173.416 14.9859C173.794 13.7959 173.92 12.8579 173.976 11.0519ZM177.42 11.2479L178.47 10.9679C178.666 11.7239 178.75 12.2419 178.904 13.9359L177.714 14.2719C177.7 13.0819 177.63 12.4099 177.42 11.2479Z" fill="#C36800"/>
<path d="M167.186 10.4357V13.2777C167.186 13.8097 167.2 14.1317 167.228 14.4957C167.536 14.5237 168.04 14.5657 168.292 14.5657C168.684 14.5657 168.81 14.4677 168.81 14.1877V8.33567H166.052C165.562 8.33567 165.114 8.34967 164.764 8.37767C164.792 7.97167 164.806 7.70567 164.806 7.10367V4.96167C164.806 4.48567 164.792 4.09367 164.764 3.65967C165.142 3.70167 165.478 3.71567 166.192 3.71567H168.88C169.58 3.71567 169.93 3.70167 170.322 3.65967C170.28 4.16367 170.266 4.51367 170.266 5.21367V14.3837C170.266 15.2237 170.098 15.5877 169.594 15.7977C169.3 15.9237 168.88 15.9657 168.012 15.9657C167.816 15.9657 167.76 15.9657 167.046 15.9237C166.962 15.2937 166.892 15.0417 166.682 14.4817C166.276 14.4677 166.01 14.4677 165.898 14.4677H162.93V15.2517H161.446C161.502 14.9157 161.544 14.3557 161.544 13.8517V10.4357C161.544 9.94567 161.53 9.55367 161.502 9.17567C161.908 9.21767 162.23 9.23167 162.804 9.23167H165.926C166.514 9.23167 166.822 9.21767 167.228 9.17567C167.2 9.53967 167.186 9.88967 167.186 10.4357ZM166.192 4.84967V5.54967H168.81V4.84967H166.192ZM166.192 6.54367V7.25767H168.81V6.54367H166.192ZM162.93 10.4077V11.2477H165.786V10.4077H162.93ZM162.93 12.3817V13.2917H165.786V12.3817H162.93ZM160.004 8.33567V14.3837C160.004 15.2237 160.032 15.7277 160.088 16.1057H158.45C158.506 15.6857 158.534 15.2377 158.534 14.3697V5.22767C158.534 4.49967 158.52 4.10767 158.478 3.65967C158.87 3.70167 159.234 3.71567 159.92 3.71567H162.398C163.126 3.71567 163.448 3.70167 163.826 3.65967C163.798 4.10767 163.784 4.41567 163.784 4.96167V7.10367C163.784 7.74767 163.798 8.06967 163.826 8.37767C163.462 8.34967 163.028 8.33567 162.538 8.33567H160.004ZM160.004 4.84967V5.54967H162.412V4.84967H160.004ZM160.004 6.54367V7.25767H162.412V6.54367H160.004Z" fill="#C36800"/>
<path d="M150.526 6.09589H149.336C148.174 6.12389 148.174 6.12389 147.838 6.16589V4.68189C148.23 4.73789 148.678 4.76589 149.294 4.76589H150.526V4.38789C150.526 3.99589 150.498 3.68789 150.442 3.33789H152.052C152.01 3.65989 151.982 3.95389 151.982 4.38789V4.76589H153.508C154.11 4.76589 154.572 4.73789 154.964 4.68189V6.16589C154.572 6.10989 154.152 6.09589 153.522 6.09589H151.982V7.42589H153.914C154.586 7.42589 155.09 7.39789 155.44 7.34189V8.82589C155.062 8.76989 154.684 8.75589 154.068 8.75589H153.83V9.94589H154.012C154.684 9.94589 155.062 9.93189 155.398 9.87589V11.4019C154.992 11.3319 154.642 11.3179 154.012 11.3179H153.83V14.4819C153.83 15.2939 153.69 15.6299 153.27 15.8259C152.92 15.9799 152.43 16.0499 151.73 16.0499C151.604 16.0499 151.604 16.0499 150.638 16.0359C150.61 15.4339 150.512 15.0139 150.302 14.5659C150.652 14.6219 151.38 14.6779 151.87 14.6779C152.304 14.6779 152.388 14.6079 152.388 14.2999V11.3179H149.042C148.524 11.3179 147.992 11.3459 147.544 11.4019V9.87589C147.908 9.93189 148.342 9.94589 149.07 9.94589H152.388V8.75589H149.07C148.482 8.75589 147.964 8.78389 147.53 8.82589V7.34189C147.88 7.39789 148.412 7.42589 149.084 7.42589H150.526V6.09589ZM143.12 13.5859V5.39589C143.12 4.76589 143.106 4.40189 143.064 3.98189C143.372 4.00989 143.638 4.02389 144.296 4.02389H145.99C146.62 4.02389 146.872 4.00989 147.208 3.98189C147.166 4.30389 147.166 4.55589 147.166 5.36789V13.3759C147.166 14.1179 147.18 14.4259 147.208 14.7759H145.78V14.0759H144.506V15.2519H143.036C143.092 14.8179 143.12 14.3279 143.12 13.5859ZM144.52 5.35389V8.27989H145.78V5.35389H144.52ZM144.52 9.56789V12.7179H145.78V9.56789H144.52ZM151.114 13.6279L149.882 14.5659C149.322 13.6279 148.79 12.9559 148.09 12.2699L149.28 11.4859C149.966 12.1019 150.526 12.7459 151.114 13.6279Z" fill="#C36800"/>
<path d="M303.82 31.3098H302.96C303 31.0398 303.02 30.7998 303.02 30.2598V24.0498C303.02 23.5198 303 23.2798 302.96 23.0298H303.82C303.78 23.2898 303.77 23.4998 303.77 24.0698V25.9398C305.31 26.4898 306.47 27.0398 308.22 28.0498L307.79 28.7898C306.85 28.1298 305.47 27.3898 304.06 26.8098C303.91 26.7498 303.84 26.7098 303.75 26.6398L303.73 26.6498C303.76 26.8498 303.77 26.9898 303.77 27.2398V30.2498C303.77 30.8098 303.78 31.0298 303.82 31.3098Z" fill="#6C675B"/>
<path d="M296.83 23.0601L297.52 23.5501C297.34 23.6801 297.33 23.7001 297.08 23.9701C296.45 24.6301 295.6 25.3601 294.74 25.9801V30.2401C294.74 30.8101 294.75 31.0301 294.79 31.3001H293.92C293.97 31.0401 293.98 30.8101 293.98 30.2601V26.4601C292.68 27.2601 291.95 27.5901 290.12 28.2101C289.98 27.8901 289.93 27.7901 289.73 27.5401C291.61 27.0501 293.34 26.1901 294.92 24.9501C295.85 24.2301 296.55 23.5301 296.83 23.0601Z" fill="#6C675B"/>
<path d="M281.773 25.1199H284.823V24.1499C284.823 23.4399 284.823 23.3599 284.793 23.1399H285.573C285.543 23.3999 285.543 23.3999 285.533 24.0699C285.533 24.2899 285.533 24.2899 285.533 25.1199H286.393C286.983 25.1199 287.203 25.1099 287.563 25.0599V25.8199C287.223 25.7799 286.933 25.7699 286.403 25.7699H285.523C285.503 27.7999 285.403 28.4399 285.033 29.1599C284.683 29.8199 284.123 30.3899 283.403 30.8099C283.053 30.9999 282.793 31.1199 282.243 31.3199C282.113 31.0399 282.033 30.9299 281.793 30.6899C282.663 30.4399 283.173 30.1799 283.703 29.7099C284.403 29.0799 284.683 28.4199 284.773 27.2099C284.793 26.8899 284.803 26.5799 284.813 25.7699H281.773V27.4399C281.773 27.8699 281.783 27.9999 281.813 28.2499H281.003C281.033 28.0299 281.043 27.8399 281.043 27.4099V25.7699H280.203C279.673 25.7699 279.383 25.7799 279.043 25.8199V25.0599C279.403 25.1099 279.623 25.1199 280.213 25.1199H281.043V23.9699C281.043 23.5399 281.033 23.3599 281.003 23.1299H281.813C281.773 23.3999 281.773 23.4799 281.773 23.9399V25.1199Z" fill="#6C675B"/>
<path d="M273.863 24.6298H275.743C276.173 24.6298 276.463 24.6098 276.713 24.5698V25.2898C276.423 25.2498 276.103 25.2298 275.683 25.2298H273.893C273.953 26.3598 273.983 26.6098 274.103 27.3298C274.253 28.1398 274.383 28.6398 274.603 29.2098C274.863 29.8998 275.133 30.3598 275.433 30.6298C275.563 30.7498 275.693 30.8198 275.753 30.8198C275.973 30.8198 276.153 30.2798 276.313 29.1798C276.533 29.3798 276.643 29.4598 276.903 29.5698C276.723 30.4198 276.603 30.8198 276.413 31.1298C276.243 31.4098 276.023 31.5498 275.773 31.5498C275.403 31.5498 274.963 31.2098 274.573 30.6398C274.083 29.9198 273.663 28.6798 273.443 27.3498C273.343 26.7198 273.283 26.1698 273.233 25.2298H269.053C268.643 25.2298 268.363 25.2498 268.023 25.2898V24.5698C268.303 24.6098 268.613 24.6298 269.053 24.6298H273.213C273.203 24.3198 273.203 24.3198 273.193 23.6198C273.183 23.1998 273.183 23.1998 273.133 22.8398H273.903C273.863 23.0498 273.843 23.3698 273.843 23.7698C273.843 23.9798 273.843 24.1798 273.863 24.6298ZM270.273 27.3298H269.323C268.943 27.3298 268.673 27.3398 268.423 27.3798V26.7098C268.663 26.7498 268.903 26.7598 269.333 26.7598H271.923C272.353 26.7598 272.573 26.7498 272.823 26.7098V27.3798C272.573 27.3398 272.313 27.3298 271.933 27.3298H270.913V30.0298C271.653 29.8798 272.083 29.7698 273.163 29.4798V30.0898C271.683 30.4798 270.343 30.7698 268.683 31.0698C268.543 31.0998 268.353 31.1398 268.233 31.1698L268.083 30.4598C268.553 30.4598 268.803 30.4198 270.273 30.1498V27.3298ZM276.053 24.0098L275.583 24.3898C275.143 23.8998 274.873 23.6598 274.323 23.2698L274.783 22.9298C275.363 23.3498 275.623 23.5698 276.053 24.0098Z" fill="#6C675B"/>
<path d="M265.183 31.2597L264.583 31.6497C264.333 31.1397 264.223 30.9497 264.003 30.5597C262.273 30.8297 260.453 31.0097 258.503 31.1197C257.733 31.1697 257.673 31.1697 257.363 31.2297L257.203 30.4497C257.453 30.4597 257.693 30.4697 257.873 30.4697C258.083 30.4697 258.193 30.4697 258.523 30.4597C259.113 29.4697 259.533 28.5997 260.063 27.2997C260.393 26.4797 260.563 25.9797 260.643 25.5797L261.413 25.8097C261.403 25.8297 261.393 25.8497 261.383 25.8597C261.343 25.9497 261.303 26.0497 261.223 26.2697C260.633 27.7397 259.893 29.3197 259.263 30.4297C261.183 30.3297 262.143 30.2397 263.683 30.0197C263.173 29.2297 262.873 28.8197 262.173 27.9697L262.723 27.6297C263.713 28.8597 264.513 30.0397 265.183 31.2597ZM259.793 23.0097L260.563 23.2797C260.473 23.4097 260.443 23.4697 260.283 23.7897C259.853 24.6497 259.223 25.5597 258.603 26.2197C258.133 26.7197 257.733 27.0697 257.113 27.5397C256.963 27.2997 256.843 27.1497 256.633 26.9797C257.813 26.1697 258.623 25.3297 259.253 24.2797C259.563 23.7597 259.743 23.3397 259.793 23.0097ZM262.013 23.2797L262.683 22.9897C262.853 23.5397 263.263 24.2697 263.813 24.9697C264.393 25.7097 265.023 26.2797 266.013 26.9497C265.793 27.1597 265.683 27.3097 265.543 27.5597C263.873 26.2897 263.133 25.4097 262.163 23.5597C262.083 23.3997 262.063 23.3497 262.013 23.2797Z" fill="#6C675B"/>
<path d="M249.123 31.3098H248.263C248.303 31.0398 248.323 30.7998 248.323 30.2598V24.0498C248.323 23.5198 248.303 23.2798 248.263 23.0298H249.123C249.083 23.2898 249.073 23.4998 249.073 24.0698V25.9398C250.613 26.4898 251.773 27.0398 253.523 28.0498L253.093 28.7898C252.153 28.1298 250.773 27.3898 249.363 26.8098C249.213 26.7498 249.143 26.7098 249.053 26.6398L249.033 26.6498C249.063 26.8498 249.073 26.9898 249.073 27.2398V30.2498C249.073 30.8098 249.083 31.0298 249.123 31.3098Z" fill="#6C675B"/>
<path d="M238.553 22.8496L239.373 23.0596C239.283 23.1896 239.283 23.1896 239.153 23.4696C238.893 24.0096 238.803 24.1796 238.693 24.3596C238.823 24.3296 238.823 24.3296 241.713 24.2796C242.063 24.2796 242.093 24.2696 242.233 24.2096L242.663 24.6296C242.573 24.7496 242.573 24.7596 242.463 25.1196C242.043 26.5296 241.313 27.8896 240.463 28.8796C239.543 29.9296 238.443 30.7196 236.983 31.3796C236.823 31.0896 236.743 30.9896 236.483 30.7896C237.993 30.1696 239.053 29.4096 240.013 28.2596C240.783 27.3296 241.383 26.1596 241.733 24.9096L238.363 24.9696C237.753 25.9496 236.953 26.8296 235.973 27.5696C235.803 27.3196 235.703 27.2296 235.413 27.0496C236.473 26.3596 237.233 25.5296 237.923 24.3096C238.303 23.6496 238.503 23.1996 238.553 22.8496Z" fill="#6C675B"/>
<path d="M225.583 23.3198H226.433C226.403 23.5298 226.383 23.7898 226.383 24.2098L226.353 30.2398C227.503 30.0498 228.413 29.7398 229.213 29.2398C230.213 28.6198 230.883 27.8998 231.463 26.8398C231.713 27.1898 231.773 27.2698 232.013 27.4698C230.643 29.5098 229.173 30.4398 226.503 30.9598C226.113 31.0398 226.063 31.0498 225.923 31.1098L225.523 30.6098C225.573 30.4398 225.593 30.3298 225.593 29.9598L225.613 24.2298V23.8598C225.613 23.6598 225.603 23.5398 225.583 23.3198Z" fill="#6C675B"/>
<path d="M219.793 30.28H215.013C214.203 30.29 214.203 30.29 213.943 30.32V29.53C214.273 29.59 214.413 29.6 215.033 29.6H219.793V24.77H215.243C214.643 24.77 214.433 24.78 214.093 24.82V24.02C214.443 24.08 214.593 24.09 215.243 24.09H220.043C220.173 24.09 220.313 24.08 220.563 24.07C220.543 24.32 220.543 24.49 220.543 24.85V29.97C220.543 30.34 220.563 30.7 220.593 30.88H219.793V30.28Z" fill="#6C675B"/>
<path d="M210.023 23.6196L210.423 24.0996C210.323 24.2296 210.303 24.2596 210.183 24.4996C209.493 25.8396 208.563 26.7496 207.263 27.3496C207.113 27.0996 207.033 27.0096 206.773 26.7796C207.473 26.5096 207.883 26.2696 208.353 25.8296C208.813 25.3996 209.183 24.9096 209.473 24.3396H203.793C203.243 24.3396 202.983 24.3496 202.613 24.3896V23.6196C202.953 23.6696 203.233 23.6896 203.803 23.6896H209.173C209.843 23.6896 209.843 23.6896 210.023 23.6196ZM205.663 25.3596H206.473C206.443 25.5396 206.443 25.5396 206.433 26.0596C206.403 27.7296 206.123 28.7196 205.443 29.5796C204.833 30.3496 204.093 30.8496 202.883 31.3096C202.733 30.9896 202.663 30.8896 202.423 30.6396C203.233 30.3996 203.733 30.1496 204.253 29.7196C205.313 28.8696 205.703 27.8496 205.703 25.8996C205.703 25.6196 205.693 25.5496 205.663 25.3596Z" fill="#6C675B"/>
<path d="M192.653 23.2798H193.483C193.453 23.5198 193.443 23.6498 193.443 24.1098V26.7998C193.443 27.2798 193.453 27.3898 193.483 27.6298H192.653C192.683 27.3998 192.693 27.1898 192.693 26.7898V24.1198C192.693 23.6898 192.683 23.5198 192.653 23.2798ZM197.073 23.2798H197.913C197.873 23.5098 197.863 23.6698 197.863 24.1498V25.3298C197.863 26.9198 197.793 27.7998 197.613 28.3798C197.323 29.3198 196.693 30.0498 195.713 30.5998C195.223 30.8798 194.743 31.0698 193.893 31.3198C193.783 31.0298 193.723 30.9298 193.473 30.6298C194.373 30.4298 194.853 30.2598 195.373 29.9498C196.303 29.4098 196.783 28.7698 196.973 27.8398C197.083 27.2698 197.113 26.8098 197.113 25.2898V24.1598C197.113 23.6398 197.103 23.4998 197.073 23.2798Z" fill="#6C675B"/>
<path d="M183.553 22.8496L184.373 23.0596C184.283 23.1896 184.283 23.1896 184.153 23.4696C183.893 24.0096 183.803 24.1796 183.693 24.3596C183.823 24.3296 183.823 24.3296 186.713 24.2796C187.063 24.2796 187.093 24.2696 187.233 24.2096L187.663 24.6296C187.573 24.7496 187.573 24.7596 187.463 25.1196C187.043 26.5296 186.313 27.8896 185.463 28.8796C184.543 29.9296 183.443 30.7196 181.983 31.3796C181.823 31.0896 181.743 30.9896 181.483 30.7896C182.993 30.1696 184.053 29.4096 185.013 28.2596C185.783 27.3296 186.383 26.1596 186.733 24.9096L183.363 24.9696C182.753 25.9496 181.953 26.8296 180.973 27.5696C180.803 27.3196 180.703 27.2296 180.413 27.0496C181.473 26.3596 182.233 25.5296 182.923 24.3096C183.303 23.6496 183.503 23.1996 183.553 22.8496Z" fill="#6C675B"/>
<path d="M173.793 24.5V25.49H172.803V24.5H173.793ZM173.793 29.9H172.803V28.91H173.793V29.9Z" fill="#6C675B"/>
<path d="M162.673 28.4196V30.3096C162.673 30.8396 162.683 31.1596 162.723 31.3996H162.003C162.043 31.1396 162.053 30.8396 162.053 30.3096V28.4196H159.313C159.163 29.9296 158.903 30.7496 158.233 31.6996C158.013 31.4896 157.913 31.4196 157.653 31.2696C158.083 30.7096 158.303 30.2596 158.463 29.5796C158.683 28.6596 158.773 27.1996 158.773 24.7296C158.773 23.7196 158.773 23.5296 158.733 23.0996C159.033 23.1296 159.333 23.1396 159.833 23.1396H165.213C165.713 23.1396 165.983 23.1296 166.273 23.0996C166.243 23.3696 166.233 23.6296 166.233 24.0796V30.7896C166.233 31.4196 166.003 31.5696 165.033 31.5696C164.713 31.5696 164.213 31.5496 163.793 31.5196C163.773 31.2896 163.733 31.1196 163.643 30.8696C164.223 30.9396 164.713 30.9796 165.073 30.9796C165.513 30.9796 165.603 30.9296 165.603 30.6796V28.4196H162.673ZM162.673 25.4896H165.603V23.7396H162.673V25.4896ZM162.053 25.4896V23.7396H159.423V24.9296L159.413 25.4896H162.053ZM162.673 26.0596V27.8396H165.603V26.0596H162.673ZM162.053 26.0596H159.403C159.393 26.3396 159.393 26.5796 159.393 26.7196C159.383 27.3396 159.383 27.3796 159.353 27.8396H162.053V26.0596Z" fill="#6C675B"/>
<path d="M148.123 27.5099H150.703C151.063 27.5099 151.303 27.4999 151.583 27.4599C151.553 27.5999 151.543 27.7299 151.523 27.9799C151.443 29.1599 151.223 30.3499 150.983 30.8899C150.793 31.3199 150.443 31.4799 149.723 31.4799C149.233 31.4799 148.673 31.4399 148.053 31.3599C148.023 31.0299 147.993 30.9099 147.913 30.6399C148.623 30.7899 149.193 30.8599 149.703 30.8599C150.093 30.8599 150.283 30.7699 150.383 30.5599C150.583 30.1399 150.713 29.4199 150.853 28.0799H148.093C147.813 28.0799 147.583 28.0899 147.343 28.1099C147.643 27.0099 147.803 26.1099 147.833 25.3399C148.083 25.3699 148.333 25.3799 148.693 25.3799H150.813V23.7599H148.353C148.003 23.7599 147.703 23.7799 147.393 23.8199V23.1099C147.653 23.1499 147.983 23.1699 148.363 23.1699H150.613C150.913 23.1699 151.213 23.1599 151.493 23.1299C151.473 23.3799 151.463 23.5999 151.463 23.8999V25.2399C151.463 25.5799 151.473 25.7899 151.493 25.9799C151.213 25.9599 150.913 25.9499 150.633 25.9499H148.433C148.333 26.5899 148.243 27.0099 148.123 27.5099ZM153.893 22.8799H154.703C154.643 23.2399 154.633 23.4599 154.633 23.8499V30.4899C154.633 30.9599 154.653 31.2499 154.703 31.6499H153.893C153.943 31.2399 153.963 30.9399 153.963 30.4799V23.8499C153.963 23.4599 153.943 23.2499 153.893 22.8799Z" fill="#6C675B"/>
<path d="M236.8 103.004C236.68 103.184 236.63 103.294 236.5 103.724C235.95 105.554 235.09 107.184 234.03 108.374C232.92 109.634 231.6 110.574 229.74 111.434C229.4 110.834 229.25 110.624 228.72 110.174C229.92 109.684 230.6 109.324 231.36 108.754C233.08 107.474 234.21 105.824 234.88 103.674L231.26 103.734C230.53 104.904 229.59 105.934 228.44 106.814C228.08 106.324 227.9 106.164 227.27 105.774C228.64 104.834 229.51 103.874 230.39 102.284C230.76 101.594 230.96 101.124 231 100.694L232.65 101.014C232.603 101.087 232.537 101.211 232.45 101.384C232.423 101.424 232.37 101.537 232.29 101.724C232.263 101.771 232.21 101.874 232.13 102.034C232.05 102.194 231.987 102.324 231.94 102.424C232.1 102.414 232.29 102.404 232.52 102.404L235.16 102.364C235.63 102.364 235.76 102.344 236.04 102.244L236.81 103.004H236.8Z" fill="#EF5274"/>
<path d="M242.15 101.224C242.1 101.564 242.1 101.674 242.1 102.304V105.624C242.1 106.224 242.1 106.384 242.15 106.684H240.5C240.54 106.404 240.56 106.034 240.56 105.604V102.294C240.56 101.684 240.55 101.524 240.51 101.214H242.15V101.224ZM247.62 101.234C247.57 101.534 247.56 101.664 247.56 102.354V103.984C247.55 105.864 247.46 106.874 247.25 107.634C246.9 108.834 246.13 109.744 244.88 110.444C244.24 110.804 243.64 111.044 242.53 111.374C242.31 110.784 242.19 110.574 241.69 109.944C242.87 109.714 243.57 109.464 244.29 108.984C245.42 108.234 245.82 107.504 245.95 105.914C246 105.394 246.01 104.864 246.01 103.904V102.394C246.01 101.784 246 101.524 245.95 101.254H247.62V101.234Z" fill="#EF5274"/>
<path d="M256.29 103.934C256.25 104.164 256.25 104.174 256.24 104.914C256.19 106.974 255.87 108.124 255.05 109.174C254.33 110.104 253.45 110.714 251.94 111.344C251.63 110.694 251.47 110.474 250.99 109.974C251.97 109.684 252.51 109.424 253.1 108.954C254.33 107.984 254.71 106.944 254.71 104.664C254.71 104.304 254.7 104.194 254.65 103.944H256.29V103.934ZM261.18 102.414C261.01 102.614 261.01 102.634 260.7 103.254C260.28 104.144 259.58 105.044 258.85 105.674C258.37 106.094 257.97 106.364 257.4 106.674C257.04 106.164 256.86 105.984 256.32 105.574C257.13 105.214 257.58 104.934 258.08 104.464C258.57 104.004 258.95 103.514 259.22 102.934H252.9C252.06 102.934 251.76 102.944 251.26 103.004V101.494C251.72 101.564 252.09 101.594 252.92 101.594H259.21C259.93 101.594 260.04 101.584 260.38 101.484L261.19 102.394L261.18 102.414Z" fill="#EF5274"/>
<path d="M265.56 110.124C264.73 110.124 264.44 110.134 264.08 110.174V108.624C264.53 108.694 264.74 108.704 265.59 108.704H271.07V103.454H265.8C264.95 103.454 264.69 103.464 264.26 103.514V101.944C264.71 102.014 264.93 102.024 265.81 102.024H271.6C272.02 102.024 272.37 102.017 272.65 102.004C272.61 102.334 272.61 102.454 272.61 103.004V109.614C272.61 110.214 272.62 110.554 272.67 110.854H271.06V110.124H265.57H265.56Z" fill="#EF5274"/>
<path d="M278.53 101.254C278.48 101.574 278.47 101.884 278.46 102.474L278.4 109.354C279.65 109.114 280.78 108.654 281.69 108.034C282.8 107.274 283.54 106.444 284.15 105.274C284.62 105.904 284.78 106.074 285.29 106.504C284.46 107.784 283.69 108.584 282.6 109.314C281.4 110.124 280.17 110.594 278.22 110.964C277.89 111.024 277.75 111.074 277.5 111.164L276.73 110.234C276.81 109.914 276.84 109.694 276.84 108.994L276.89 102.494C276.89 101.934 276.87 101.521 276.83 101.254H278.54H278.53Z" fill="#EF5274"/>
<path d="M297.43 103.004C297.31 103.184 297.26 103.294 297.13 103.724C296.58 105.554 295.72 107.184 294.66 108.374C293.55 109.634 292.23 110.574 290.37 111.434C290.03 110.834 289.88 110.624 289.35 110.174C290.55 109.684 291.23 109.324 291.99 108.754C293.71 107.474 294.84 105.824 295.51 103.674L291.89 103.734C291.16 104.904 290.22 105.934 289.07 106.814C288.71 106.324 288.53 106.164 287.9 105.774C289.27 104.834 290.14 103.874 291.02 102.284C291.39 101.594 291.59 101.124 291.63 100.694L293.28 101.014C293.233 101.087 293.167 101.211 293.08 101.384C293.053 101.424 293 101.537 292.92 101.724C292.893 101.771 292.84 101.874 292.76 102.034C292.68 102.194 292.617 102.324 292.57 102.424C292.73 102.414 292.92 102.404 293.15 102.404L295.79 102.364C296.26 102.364 296.39 102.344 296.67 102.244L297.44 103.004H297.43Z" fill="#EF5274"/>
<path d="M301.5 111.254C301.56 110.864 301.57 110.544 301.57 109.904V102.184C301.57 101.594 301.55 101.284 301.5 100.954H303.15C303.1 101.314 303.1 101.474 303.1 102.214V104.454C304.75 105.034 306.64 105.914 308.57 106.994L307.73 108.414C306.73 107.724 305.48 107.044 303.47 106.114C303.19 105.984 303.16 105.964 303.06 105.914C303.1 106.254 303.11 106.394 303.11 106.734V109.914C303.11 110.544 303.12 110.854 303.16 111.254H301.51H301.5Z" fill="#EF5274"/>
<path d="M8.73999 127.5C8.73999 128.16 8.61999 128.73 8.37999 129.19C8.13999 129.65 7.78999 130.07 7.32999 130.44L6.39999 129.5C6.73999 129.27 6.99999 128.99 7.17999 128.67C7.36999 128.35 7.45999 127.94 7.45999 127.45C7.45999 126.99 7.35999 126.62 7.16999 126.34C6.97999 126.06 6.70999 125.93 6.37999 125.93C6.09999 125.93 5.86999 126 5.69999 126.15C5.51999 126.29 5.37999 126.49 5.25999 126.72C5.13999 126.96 5.03999 127.22 4.94999 127.5C4.85998 127.78 4.74999 128.07 4.63999 128.35C4.51999 128.63 4.37998 128.89 4.19999 129.13C4.01998 129.37 3.79999 129.56 3.51999 129.7C3.23999 129.84 2.88999 129.92 2.44999 129.92C1.95999 129.92 1.52999 129.8 1.18999 129.55C0.839985 129.31 0.579985 128.98 0.389985 128.56C0.209985 128.14 0.109985 127.68 0.109985 127.17C0.109985 126.62 0.219985 126.12 0.429985 125.69C0.649985 125.25 0.919985 124.9 1.25999 124.63L2.18999 125.57C1.91999 125.81 1.71999 126.06 1.58999 126.32C1.45999 126.58 1.38999 126.88 1.38999 127.22C1.38999 127.64 1.46999 127.96 1.63999 128.2C1.80999 128.44 2.03999 128.55 2.34999 128.55C2.60999 128.55 2.80999 128.48 2.96999 128.33C3.12999 128.19 3.25999 128 3.36999 127.76C3.47999 127.52 3.57999 127.26 3.67999 126.98C3.77999 126.7 3.87999 126.41 3.99999 126.13C4.11999 125.85 4.26999 125.59 4.45999 125.35C4.64999 125.11 4.88999 124.92 5.17999 124.78C5.47999 124.64 5.84999 124.56 6.28999 124.56C7.03999 124.56 7.63999 124.83 8.06998 125.36C8.50998 125.89 8.72999 126.61 8.72999 127.52L8.73999 127.5Z" fill="black"/>
<path d="M8.61998 122.75H0.47998V121.43H8.61998V122.75ZM4.06998 124.13H2.86998V120.05H4.06998V124.13Z" fill="black"/>
<path d="M5.41999 117.89L5.18999 118.35C4.45999 118.35 3.87999 118.19 3.41999 117.86C2.96999 117.54 2.73999 117.05 2.73999 116.39C2.73999 116.1 2.78999 115.84 2.89999 115.61C2.99999 115.38 3.16999 115.16 3.39999 114.96L4.28999 115.82C4.17999 115.92 4.09999 116.04 4.04999 116.17C3.99999 116.3 3.97999 116.45 3.97999 116.61C3.97999 116.98 4.09999 117.28 4.32999 117.52C4.55999 117.76 4.91999 117.88 5.41999 117.88V117.89ZM8.61999 119.21H2.86999V117.89H8.61999V119.21Z" fill="black"/>
<path d="M8.74 111.72C8.74 112.3 8.61 112.82 8.35 113.28C8.09 113.74 7.73 114.1 7.28 114.37C6.83 114.64 6.31 114.77 5.75 114.77C5.19 114.77 4.67 114.64 4.22 114.37C3.77 114.11 3.41 113.75 3.15 113.3C2.89 112.85 2.75 112.35 2.75 111.79C2.75 111.23 2.87 110.78 3.12 110.37C3.37 109.96 3.71 109.63 4.14 109.4C4.57 109.16 5.06 109.05 5.61 109.05C5.71 109.05 5.8 109.05 5.9 109.07C6 109.08 6.11 109.1 6.23 109.12V113.85H5.15V109.8L5.58 110.29C5.23 110.31 4.93 110.37 4.69 110.49C4.45 110.61 4.27 110.78 4.14 111C4.01 111.22 3.95 111.49 3.95 111.81C3.95 112.13 4.02 112.44 4.17 112.69C4.32 112.94 4.52 113.13 4.77 113.27C5.03 113.41 5.34 113.47 5.7 113.47C6.06 113.47 6.37 113.4 6.65 113.25C6.92 113.11 7.13 112.9 7.28 112.64C7.43 112.38 7.5 112.07 7.5 111.73C7.5 111.43 7.45 111.16 7.34 110.91C7.23 110.66 7.08 110.44 6.88 110.27L7.73 109.43C8.06 109.71 8.3 110.05 8.47 110.45C8.64 110.85 8.72 111.27 8.72 111.72H8.74Z" fill="black"/>
<path d="M8.73998 106.14C8.73998 106.46 8.69998 106.77 8.60998 107.06C8.52998 107.36 8.40998 107.63 8.24998 107.88C8.08998 108.13 7.90998 108.34 7.67998 108.53L6.83998 107.69C7.06998 107.49 7.23998 107.26 7.35998 107C7.47998 106.74 7.52998 106.45 7.52998 106.12C7.52998 105.82 7.48998 105.6 7.39998 105.45C7.30998 105.3 7.17998 105.22 7.01998 105.22C6.85998 105.22 6.70998 105.29 6.60998 105.44C6.50998 105.58 6.42998 105.77 6.35998 106C6.28998 106.23 6.21998 106.47 6.14998 106.72C6.07998 106.97 5.97998 107.21 5.85998 107.44C5.73998 107.67 5.56998 107.85 5.34998 108C5.12998 108.14 4.85998 108.22 4.50998 108.22C4.13998 108.22 3.82998 108.13 3.55998 107.96C3.29998 107.79 3.08998 107.54 2.94998 107.23C2.80998 106.92 2.72998 106.54 2.72998 106.1C2.72998 105.64 2.80998 105.23 2.97998 104.87C3.13998 104.51 3.38998 104.22 3.71998 103.98L4.55998 104.82C4.34998 104.99 4.19998 105.18 4.08998 105.4C3.97998 105.62 3.92998 105.86 3.92998 106.14C3.92998 106.4 3.96998 106.61 4.04998 106.75C4.12998 106.89 4.24998 106.97 4.39998 106.97C4.55998 106.97 4.67998 106.9 4.76998 106.75C4.85998 106.61 4.92998 106.42 4.99998 106.19C5.05998 105.96 5.12998 105.72 5.20998 105.47C5.28998 105.22 5.38998 104.98 5.51998 104.75C5.64998 104.52 5.82998 104.34 6.04998 104.19C6.26998 104.05 6.54998 103.97 6.90998 103.97C7.46998 103.97 7.90998 104.17 8.23998 104.56C8.56998 104.95 8.72998 105.48 8.72998 106.16L8.73998 106.14Z" fill="black"/>
<path d="M8.73998 100.95C8.73998 101.27 8.69998 101.58 8.60998 101.87C8.52998 102.17 8.40998 102.44 8.24998 102.69C8.08998 102.94 7.90998 103.15 7.67998 103.34L6.83998 102.5C7.06998 102.3 7.23998 102.07 7.35998 101.81C7.47998 101.55 7.52998 101.26 7.52998 100.93C7.52998 100.63 7.48998 100.41 7.39998 100.26C7.30998 100.11 7.17998 100.03 7.01998 100.03C6.85998 100.03 6.70998 100.1 6.60998 100.25C6.50998 100.39 6.42998 100.58 6.35998 100.81C6.28998 101.04 6.21998 101.28 6.14998 101.53C6.07998 101.78 5.97998 102.02 5.85998 102.25C5.73998 102.48 5.56998 102.66 5.34998 102.81C5.12998 102.95 4.85998 103.03 4.50998 103.03C4.13998 103.03 3.82998 102.94 3.55998 102.77C3.29998 102.6 3.08998 102.35 2.94998 102.04C2.80998 101.73 2.72998 101.35 2.72998 100.91C2.72998 100.45 2.80998 100.04 2.97998 99.6798C3.13998 99.3198 3.38998 99.0298 3.71998 98.7898L4.55998 99.6298C4.34998 99.7998 4.19998 99.9898 4.08998 100.21C3.97998 100.43 3.92998 100.67 3.92998 100.95C3.92998 101.21 3.96998 101.42 4.04998 101.56C4.12998 101.7 4.24998 101.78 4.39998 101.78C4.55998 101.78 4.67998 101.71 4.76998 101.56C4.85998 101.42 4.92998 101.23 4.99998 101C5.05998 100.77 5.12998 100.53 5.20998 100.28C5.28998 100.03 5.38998 99.7898 5.51998 99.5598C5.64998 99.3298 5.82998 99.1498 6.04998 98.9998C6.26998 98.8598 6.54998 98.7798 6.90998 98.7798C7.46998 98.7798 7.90998 98.9798 8.23998 99.3698C8.56998 99.7598 8.72998 100.29 8.72998 100.97L8.73998 100.95Z" fill="black"/>
<path d="M3.58001 90.68C4.05001 90.08 4.84001 89.77 5.55001 89.77C7.66001 89.77 8.59001 91.22 8.59001 92.66C8.59001 94.32 7.48001 95.59 5.61001 95.59C3.74001 95.59 2.51001 94.35 2.51001 92.46V89.23L3.59001 89.28C3.59001 89.58 3.58001 89.96 3.53001 90.67H3.58001V90.68ZM5.53001 91.23C4.61001 91.23 3.58001 91.63 3.58001 92.61C3.58001 93.64 4.59001 94.06 5.55001 94.06C6.67001 94.06 7.52001 93.5 7.52001 92.62C7.52001 91.82 6.69001 91.23 5.52001 91.23H5.53001Z" fill="black"/>
<path d="M1.04 87.7299H0V85.4399H1.04V87.7299ZM9.77 88.2699H0V87.1599H9.77V88.2699ZM9.77 87.7299H8.73V85.4399H9.77V87.7299Z" fill="black"/>
<path d="M8.61999 84.3H0.23999V83.34L5.97999 79.85V80.47L0.23999 76.98V76.02H8.61999V77.4H2.65999L2.73999 77.09L6.98999 79.68V80.64L2.73999 83.23L2.65999 82.92H8.61999V84.3Z" fill="black"/>
<path d="M5.45999 73.1499H4.25999V71.0499C4.25999 70.7599 4.19999 70.5099 4.08999 70.2899C3.96999 70.0699 3.80999 69.8999 3.59999 69.7699C3.38999 69.6399 3.13999 69.5799 2.84999 69.5799C2.55999 69.5799 2.30999 69.6399 2.09999 69.7699C1.88999 69.8999 1.71999 70.0699 1.60999 70.2899C1.48999 70.5099 1.43999 70.7599 1.43999 71.0499V73.1499H0.23999V70.9799C0.23999 70.4499 0.34999 69.9799 0.55999 69.5599C0.77999 69.1399 1.07999 68.8099 1.46999 68.5599C1.85999 68.3199 2.31999 68.1899 2.84999 68.1899C3.37999 68.1899 3.83999 68.3099 4.22999 68.5599C4.61999 68.8099 4.91999 69.1399 5.13999 69.5599C5.35999 69.9799 5.45999 70.4599 5.45999 70.9799V73.1499ZM8.61999 74.0999H0.23999V72.7199H8.61999V74.0999Z" fill="black"/>
<path d="M8.74 64.9001C8.74 65.4201 8.61 65.8901 8.34 66.3101C8.08 66.7301 7.72 67.0601 7.27 67.3101C6.82 67.5501 6.31 67.6801 5.76 67.6801C5.21 67.6801 4.68 67.5601 4.23 67.3101C3.78 67.0601 3.42 66.7301 3.15 66.3101C2.88 65.8901 2.75 65.4201 2.75 64.9001C2.75 64.4601 2.84 64.0701 3.03 63.7301C3.22 63.3901 3.48 63.1201 3.8 62.9201C4.13 62.7201 4.5 62.6201 4.91 62.6201H6.56C6.98 62.6201 7.35 62.7201 7.67 62.9101C7.99 63.1001 8.25 63.3801 8.44 63.7201C8.63 64.0601 8.72 64.4601 8.72 64.9001H8.74ZM8.62 63.1301H7.08L5.68 62.9001L4.29 63.1301H2.88V61.8101H8.63V63.1301H8.62ZM7.5 64.6801C7.5 64.1901 7.34 63.8001 7.01 63.5001C6.68 63.2001 6.26 63.0501 5.75 63.0501C5.41 63.0501 5.1 63.1201 4.84 63.2501C4.58 63.3801 4.37 63.5801 4.22 63.8201C4.07 64.0601 4 64.3501 4 64.6801C4 65.0101 4.07 65.2801 4.22 65.5301C4.37 65.7701 4.57 65.9701 4.84 66.1101C5.1 66.2501 5.41 66.3201 5.75 66.3201C6.09 66.3201 6.4 66.2501 6.66 66.1101C6.92 65.9701 7.13 65.7801 7.28 65.5301C7.43 65.2901 7.5 65.0001 7.5 64.6801Z" fill="black"/>
<path d="M9.77 59.1H0V58H9.77V59.1ZM1.04 60.83H0V58.54H1.04V60.83ZM9.77 60.83H8.73V58.54H9.77V60.83Z" fill="black"/>
<path d="M139.35 206.418V205.148H146.23V206.418H139.35ZM142.1 213.588V205.398H143.49V213.588H142.1Z" fill="#403B35"/>
<path d="M147.89 206.748C147.67 206.748 147.48 206.668 147.33 206.518C147.18 206.368 147.11 206.178 147.11 205.948C147.11 205.718 147.18 205.538 147.33 205.378C147.48 205.228 147.67 205.148 147.89 205.148C148.11 205.148 148.31 205.228 148.46 205.378C148.6 205.528 148.68 205.718 148.68 205.948C148.68 206.178 148.61 206.358 148.46 206.518C148.32 206.668 148.13 206.748 147.89 206.748ZM147.23 213.588V207.808H148.56V213.588H147.23Z" fill="#403B35"/>
<path d="M150 213.588V207.808H151.33V213.588H150ZM153.84 213.588V210.138C153.84 209.748 153.72 209.448 153.48 209.238C153.24 209.028 152.94 208.918 152.59 208.918C152.35 208.918 152.13 208.968 151.95 209.058C151.77 209.148 151.61 209.298 151.5 209.478C151.39 209.658 151.33 209.878 151.33 210.138L150.81 209.848C150.81 209.408 150.91 209.028 151.1 208.698C151.29 208.378 151.55 208.128 151.88 207.948C152.21 207.768 152.58 207.678 152.99 207.678C153.4 207.678 153.77 207.768 154.1 207.938C154.43 208.118 154.69 208.368 154.88 208.688C155.07 209.008 155.17 209.398 155.17 209.848V213.578H153.84V213.588ZM157.68 213.588V210.138C157.68 209.748 157.56 209.448 157.32 209.238C157.08 209.028 156.78 208.918 156.43 208.918C156.2 208.918 155.98 208.968 155.79 209.058C155.6 209.148 155.44 209.298 155.33 209.478C155.22 209.658 155.16 209.878 155.16 210.138L154.41 209.848C154.45 209.408 154.58 209.028 154.8 208.698C155.02 208.378 155.3 208.128 155.64 207.948C155.98 207.768 156.36 207.678 156.77 207.678C157.18 207.678 157.57 207.768 157.9 207.938C158.24 208.118 158.51 208.368 158.71 208.688C158.91 209.008 159.01 209.398 159.01 209.848V213.578H157.68V213.588Z" fill="#403B35"/>
<path d="M163.08 213.708C162.5 213.708 161.98 213.578 161.52 213.318C161.06 213.058 160.69 212.698 160.42 212.238C160.15 211.778 160.02 211.268 160.02 210.698C160.02 210.128 160.15 209.618 160.42 209.158C160.69 208.708 161.04 208.348 161.5 208.078C161.95 207.818 162.46 207.678 163.01 207.678C163.56 207.678 164.02 207.798 164.44 208.048C164.86 208.298 165.18 208.638 165.42 209.068C165.66 209.498 165.78 209.998 165.78 210.548C165.78 210.648 165.78 210.738 165.76 210.848C165.75 210.948 165.73 211.058 165.71 211.178H160.96V210.098H165.02L164.53 210.528C164.51 210.178 164.45 209.878 164.33 209.638C164.21 209.398 164.04 209.208 163.82 209.088C163.6 208.958 163.33 208.898 163.01 208.898C162.67 208.898 162.38 208.968 162.13 209.118C161.88 209.268 161.69 209.468 161.55 209.728C161.41 209.988 161.35 210.298 161.35 210.658C161.35 211.018 161.42 211.338 161.57 211.608C161.71 211.878 161.92 212.088 162.18 212.238C162.45 212.388 162.75 212.458 163.1 212.458C163.4 212.458 163.67 212.408 163.93 212.298C164.18 212.198 164.4 212.038 164.57 211.838L165.41 212.688C165.13 213.018 164.79 213.268 164.39 213.438C163.99 213.608 163.56 213.688 163.11 213.688L163.08 213.708Z" fill="#403B35"/>
<path d="M166.97 214.748V204.918H168.08V214.748H166.97ZM167.51 205.968V204.918H169.81V205.968H167.51ZM167.51 214.748V213.698H169.81V214.748H167.51Z" fill="#403B35"/>
<path d="M170.8 213.588V204.918H172.13V213.588H170.8ZM174.76 213.588V210.248C174.76 209.858 174.64 209.548 174.39 209.298C174.14 209.048 173.83 208.928 173.44 208.928C173.18 208.928 172.95 208.988 172.75 209.098C172.55 209.208 172.39 209.368 172.28 209.568C172.17 209.768 172.11 209.998 172.11 210.258L171.59 209.968C171.59 209.528 171.69 209.138 171.88 208.798C172.07 208.458 172.34 208.188 172.68 207.988C173.02 207.788 173.4 207.688 173.83 207.688C174.26 207.688 174.65 207.788 174.99 207.978C175.33 208.168 175.59 208.438 175.79 208.778C175.99 209.118 176.08 209.518 176.08 209.968V213.598H174.75L174.76 213.588Z" fill="#403B35"/>
<path d="M180.11 213.708C179.55 213.708 179.04 213.578 178.58 213.308C178.12 213.038 177.76 212.678 177.49 212.218C177.22 211.758 177.09 211.248 177.09 210.688C177.09 210.128 177.22 209.618 177.49 209.168C177.76 208.718 178.12 208.358 178.58 208.088C179.04 207.818 179.55 207.688 180.11 207.688C180.67 207.688 181.19 207.818 181.65 208.088C182.11 208.358 182.47 208.708 182.74 209.168C183.01 209.618 183.14 210.128 183.14 210.688C183.14 211.248 183.01 211.758 182.74 212.218C182.47 212.678 182.11 213.038 181.65 213.308C181.19 213.578 180.68 213.708 180.11 213.708ZM180.11 212.428C180.44 212.428 180.73 212.358 180.98 212.208C181.23 212.058 181.43 211.858 181.57 211.588C181.71 211.328 181.78 211.018 181.78 210.688C181.78 210.358 181.71 210.058 181.56 209.798C181.42 209.538 181.22 209.338 180.97 209.188C180.72 209.038 180.43 208.968 180.1 208.968C179.77 208.968 179.49 209.038 179.24 209.188C178.99 209.338 178.79 209.538 178.65 209.798C178.51 210.058 178.44 210.348 178.44 210.688C178.44 211.028 178.51 211.328 178.65 211.588C178.79 211.858 178.99 212.058 179.24 212.208C179.49 212.358 179.78 212.428 180.1 212.428H180.11Z" fill="#403B35"/>
<path d="M186.63 213.708C186.14 213.708 185.7 213.598 185.32 213.378C184.94 213.158 184.64 212.858 184.43 212.478C184.22 212.098 184.11 211.658 184.11 211.158V207.798H185.44V211.098C185.44 211.378 185.49 211.618 185.58 211.818C185.67 212.018 185.81 212.168 185.99 212.268C186.17 212.368 186.39 212.428 186.63 212.428C187.02 212.428 187.31 212.318 187.52 212.088C187.72 211.858 187.83 211.528 187.83 211.108V207.808H189.16V211.168C189.16 211.678 189.05 212.118 188.84 212.498C188.63 212.878 188.33 213.178 187.95 213.388C187.57 213.598 187.13 213.708 186.64 213.708H186.63Z" fill="#403B35"/>
<path d="M190.5 213.588V207.808H191.83V213.588H190.5ZM191.83 210.368L191.37 210.138C191.37 209.408 191.53 208.818 191.86 208.358C192.19 207.908 192.68 207.678 193.34 207.678C193.63 207.678 193.89 207.728 194.12 207.838C194.35 207.938 194.57 208.108 194.77 208.348L193.9 209.238C193.8 209.128 193.68 209.048 193.55 208.998C193.42 208.948 193.27 208.928 193.1 208.928C192.73 208.928 192.42 209.048 192.18 209.278C191.94 209.508 191.82 209.878 191.82 210.378L191.83 210.368Z" fill="#403B35"/>
<path d="M197.42 213.708C197.1 213.708 196.79 213.668 196.49 213.578C196.19 213.488 195.92 213.378 195.67 213.218C195.42 213.058 195.2 212.868 195.02 212.648L195.86 211.808C196.06 212.038 196.29 212.218 196.55 212.328C196.81 212.448 197.11 212.498 197.44 212.498C197.74 212.498 197.96 212.458 198.11 212.368C198.26 212.278 198.34 212.148 198.34 211.978C198.34 211.808 198.27 211.668 198.12 211.568C197.98 211.468 197.79 211.388 197.56 211.318C197.33 211.248 197.09 211.178 196.84 211.108C196.59 211.038 196.35 210.938 196.12 210.808C195.89 210.678 195.7 210.508 195.56 210.298C195.42 210.078 195.34 209.798 195.34 209.458C195.34 209.088 195.43 208.768 195.6 208.508C195.77 208.238 196.02 208.038 196.33 207.898C196.65 207.758 197.03 207.678 197.47 207.678C197.94 207.678 198.35 207.758 198.7 207.928C199.05 208.098 199.36 208.338 199.6 208.668L198.76 209.508C198.59 209.298 198.4 209.138 198.18 209.038C197.96 208.938 197.71 208.878 197.43 208.878C197.16 208.878 196.96 208.918 196.82 208.998C196.68 209.078 196.6 209.198 196.6 209.348C196.6 209.508 196.67 209.638 196.82 209.718C196.97 209.798 197.15 209.878 197.38 209.948C197.61 210.008 197.85 210.088 198.1 210.158C198.35 210.238 198.59 210.338 198.82 210.468C199.05 210.598 199.24 210.778 199.38 210.998C199.52 211.218 199.6 211.508 199.6 211.858C199.6 212.418 199.4 212.868 199.01 213.198C198.62 213.528 198.08 213.688 197.41 213.688L197.42 213.708Z" fill="#403B35"/>
<path d="M200.01 205.958V204.908H202.31V205.958H200.01ZM200.01 214.738V213.688H202.31V214.738H200.01ZM201.74 214.738V204.908H202.85V214.738H201.74Z" fill="#403B35"/>
<path d="M214.06 160.566C213.52 160.566 213.19 160.576 212.78 160.606C212.82 160.226 212.83 159.916 212.83 159.406V156.866C212.83 156.266 212.82 155.936 212.78 155.586C213.08 155.626 213.33 155.636 213.89 155.636C213.58 155.026 213.34 154.646 212.82 154.056L214.01 153.546C214.56 154.196 214.81 154.546 215.2 155.246L214.29 155.626H218.85C219.42 154.816 219.77 154.206 220.03 153.486L221.44 153.936C220.92 154.766 220.63 155.196 220.3 155.636C220.95 155.636 221.25 155.626 221.58 155.586C221.54 155.906 221.53 156.236 221.53 156.866V159.376C221.53 159.956 221.54 160.286 221.58 160.616C221.16 160.596 220.8 160.576 220.3 160.576H217.77V161.356H221.29C221.9 161.356 222.24 161.346 222.6 161.296V162.636C222.25 162.586 221.76 162.566 221.15 162.566H217.77V163.346C217.77 163.946 217.78 164.186 217.85 164.566H216.37C216.43 164.216 216.44 163.956 216.44 163.346V162.566H213.18C212.57 162.566 212.12 162.586 211.75 162.636V161.296C212.12 161.346 212.48 161.356 213.07 161.356H216.44V160.576H214.06V160.566ZM216.44 156.716H214.12V157.536H216.44V156.716ZM216.44 158.546H214.12V159.476H216.44V158.546ZM216.83 155.556C216.58 154.836 216.4 154.486 215.89 153.686L217.13 153.336C217.6 154.036 217.74 154.296 218.11 155.116L216.83 155.546V155.556ZM220.24 157.526V156.706H217.77V157.526H220.24ZM220.24 159.466V158.536H217.77V159.466H220.24Z" fill="#00AEE0"/>
<path d="M229.08 156.896C228.97 156.676 228.92 156.596 228.69 156.326H227.14C227.06 158.916 227.04 159.226 226.95 160.156C226.75 162.106 226.4 163.346 225.73 164.506C225.2 163.876 225.06 163.726 224.67 163.386C225.06 162.716 225.27 162.156 225.45 161.326C225.73 160.076 225.87 158.066 225.87 155.526C225.87 154.386 225.86 154.096 225.8 153.616C226.26 153.666 226.7 153.676 227.39 153.676H234C234.63 153.676 235.01 153.666 235.4 153.626C235.38 153.936 235.36 154.166 235.36 154.536V155.436C235.36 155.846 235.37 156.096 235.4 156.366C235.05 156.346 234.64 156.326 234.09 156.326H233.69C233.59 156.526 233.55 156.616 233.35 156.896H234.18C234.69 156.896 234.98 156.886 235.2 156.856C235.18 157.136 235.16 157.406 235.16 157.746V159.376C235.16 159.776 235.17 160.016 235.2 160.296C234.91 160.276 234.62 160.256 234.21 160.256H228.6C227.9 160.256 227.78 160.256 227.52 160.296C227.54 159.956 227.56 159.786 227.56 159.296V157.826C227.56 157.306 227.55 157.106 227.52 156.876C227.78 156.896 227.98 156.896 228.58 156.896H229.07H229.08ZM234.13 155.336V154.786H227.15V155.336H234.13ZM233.5 160.656C234.17 160.656 234.39 160.646 234.73 160.606C234.69 160.936 234.68 161.176 234.68 161.626V163.466C234.68 163.936 234.69 164.186 234.74 164.526H233.44V164.116H229.14V164.526H227.85C227.89 164.176 227.9 163.956 227.9 163.416V161.666C227.9 161.136 227.89 160.956 227.85 160.606C228.14 160.626 228.46 160.646 229.08 160.646H233.5V160.656ZM228.79 158.176H230.66V157.726H228.79V158.176ZM228.79 159.426H230.66V158.976H228.79V159.426ZM229.14 161.976H233.44V161.556H229.14V161.976ZM229.14 163.206H233.44V162.786H229.14V163.206ZM232.02 156.896C232.18 156.666 232.27 156.506 232.36 156.326H230.08C230.22 156.546 230.31 156.666 230.42 156.896H232.02ZM231.85 158.176H233.92V157.726H231.85V158.176ZM231.85 159.426H233.92V158.976H231.85V159.426Z" fill="#00AEE0"/>
<path d="M240.69 157.746C241.33 158.276 241.69 158.596 242.18 159.086C242.62 159.533 242.87 159.783 242.93 159.836C243.56 159.306 244.06 158.826 244.51 158.316C245.03 157.736 245.69 156.836 245.98 156.356C246.007 156.316 246.03 156.279 246.05 156.246C246.05 156.246 246.06 156.206 246.07 156.186C245.95 156.196 245.77 156.206 245.52 156.206H239.78C238.8 156.216 238.68 156.216 238.24 156.266V154.736C238.71 154.806 238.99 154.816 239.81 154.816H246.5C247.02 154.806 247.2 154.796 247.5 154.706L248.34 155.656C248.16 155.846 248.09 155.936 247.81 156.366C246.67 158.206 245.4 159.686 243.92 160.926C244.43 161.506 244.88 162.086 245.51 162.936L244.25 163.946C243.58 162.866 242.94 162.036 241.93 160.916C241 159.896 240.4 159.306 239.52 158.596L240.7 157.746H240.69Z" fill="#00AEE0"/>
<path d="M260.54 156.196C260.43 156.426 260.42 156.496 260.36 156.856C260.16 158.246 259.97 158.916 259.6 159.766C259.01 161.156 258.05 162.226 256.63 163.086C255.91 163.536 255.28 163.806 254.23 164.166C253.95 163.556 253.81 163.336 253.27 162.736C254.41 162.456 255.08 162.206 255.83 161.736C257.58 160.656 258.49 159.126 258.72 156.906H252.84V158.456C252.84 158.826 252.85 159.156 252.88 159.416H251.27C251.31 159.116 251.33 158.746 251.33 158.406V156.656C251.33 156.146 251.32 155.836 251.28 155.516C251.7 155.566 251.92 155.576 252.58 155.576H254.94V154.536C254.94 154.146 254.93 153.936 254.88 153.656H256.55C256.51 153.856 256.49 154.186 256.49 154.526V155.566H258.66C259.253 155.566 259.647 155.532 259.84 155.466L260.54 156.176V156.196Z" fill="#00AEE0"/>
<path d="M271.95 163.926C270.95 162.696 269.57 161.346 268.25 160.346C266.89 161.866 265.5 162.926 263.66 163.826C263.32 163.196 263.18 163.006 262.68 162.486C263.61 162.126 264.19 161.796 265.09 161.166C266.91 159.886 268.35 158.146 269.14 156.266L269.27 155.956C269.143 155.962 267.813 155.986 265.28 156.026C264.7 156.036 264.38 156.066 263.97 156.126L263.92 154.586C264.26 154.646 264.49 154.656 264.98 154.656H265.27L269.51 154.596C270.18 154.586 270.28 154.576 270.58 154.466L271.37 155.286C271.21 155.466 271.12 155.636 270.98 155.936C270.43 157.226 269.84 158.276 269.1 159.256C269.86 159.766 270.51 160.266 271.33 161.006C271.53 161.179 272.117 161.736 273.09 162.676L271.93 163.926H271.95Z" fill="#00AEE0"/>
<path d="M277.73 157.786C279.74 157.376 282.08 156.436 282.99 155.646L283.95 157.006C283.857 157.046 283.577 157.179 283.11 157.406C281.4 158.256 279.87 158.766 277.73 159.186V160.736C277.73 160.736 277.73 160.746 277.72 160.776V160.936C277.72 161.646 277.77 161.916 277.94 162.076C278.14 162.296 278.83 162.386 280 162.386C280.81 162.386 281.91 162.316 282.79 162.196C283.37 162.126 283.63 162.066 284.16 161.906L284.23 163.506C283.99 163.506 283.9 163.516 283.04 163.606C282.08 163.706 280.57 163.786 279.67 163.786C278.16 163.786 277.33 163.626 276.86 163.266C276.52 163.016 276.34 162.626 276.27 162.036C276.25 161.836 276.23 161.626 276.23 160.926V155.336C276.22 154.726 276.22 154.556 276.17 154.226H277.78C277.73 154.536 277.72 154.796 277.72 155.346V157.776L277.73 157.786ZM285.72 154.596C285.72 155.336 285.13 155.916 284.4 155.916C283.67 155.916 283.08 155.316 283.08 154.596C283.08 153.876 283.67 153.276 284.4 153.276C285.13 153.276 285.72 153.866 285.72 154.596ZM283.71 154.596C283.71 154.966 284.02 155.286 284.4 155.286C284.78 155.286 285.09 154.976 285.09 154.596C285.09 154.216 284.79 153.906 284.4 153.906C284.01 153.906 283.71 154.216 283.71 154.596Z" fill="#00AEE0"/>
<path d="M286.84 158.076C287.37 158.146 287.6 158.156 288.79 158.156H295.21C296.4 158.156 296.63 158.146 297.16 158.076V159.746C296.68 159.686 296.55 159.686 295.2 159.686H288.81C287.46 159.686 287.33 159.686 286.85 159.746V158.076H286.84Z" fill="#00AEE0"/>
<path d="M307.67 163.926C306.67 162.696 305.29 161.346 303.97 160.346C302.61 161.866 301.22 162.926 299.38 163.826C299.04 163.196 298.9 163.006 298.4 162.486C299.33 162.126 299.91 161.796 300.81 161.166C302.63 159.886 304.07 158.146 304.86 156.266L304.99 155.956C304.863 155.962 303.533 155.986 301 156.026C300.42 156.036 300.1 156.066 299.69 156.126L299.64 154.586C299.98 154.646 300.21 154.656 300.7 154.656H300.99L305.23 154.596C305.9 154.586 306 154.576 306.3 154.466L307.09 155.286C306.93 155.466 306.84 155.636 306.7 155.936C306.15 157.226 305.56 158.276 304.82 159.256C305.58 159.766 306.23 160.266 307.05 161.006C307.25 161.179 307.837 161.736 308.81 162.676L307.65 163.926H307.67Z" fill="#00AEE0"/>
</svg>
