<svg xmlns="http://www.w3.org/2000/svg" xmlns:xlink="http://www.w3.org/1999/xlink" style="display:none"><symbol id="arrow_right" viewBox="0 0 8 8"><path d="M0 0l8 4-8 4 2.667-4z"/></symbol><symbol id="arrow_up" viewBox="0 0 10 7"><path d="M1 6l4-5 4 5" stroke-linecap="round"/></symbol><symbol id="close" viewBox="0 0 14 14"><path d="M1.273 0L14 12.727 12.727 14 0 1.273z"/><path d="M13.999 1.273L1.272 14l-1.273-1.273L12.726 0z"/></symbol><symbol id="menu1" viewBox="0 0 40 40"><rect width="40" height="40" rx="20"/><path d="M23.446 14.685c2.487 1.165 4.191 3.55 4.191 6.305m-11.081-6.305c-2.487 1.165-4.192 3.55-4.192 6.305" stroke-linecap="round" stroke-linejoin="round"/><path d="M12.576 24.882c-.831 0-.756 2.315-.756 2.669 0 .354-.27.553-.71.224-.438-.328-.718-1.778-.802-2.435-.084-.656-.766-1.373-.766-2.305 0-.932.645-2.176 1.373-2.176s1.018.302 1.662.302c.643 0 .933-.302 1.662-.302.728 0 1.372 1.243 1.372 2.176s-.682 1.649-.766 2.305c-.083.657-.364 2.108-.803 2.435-.439.328-.71.13-.71-.224s.076-2.669-.755-2.669h-.001zM20 24.875c-.83 0-.755 2.314-.755 2.669 0 .354-.27.552-.71.224-.439-.328-.719-1.779-.802-2.435-.084-.656-.766-1.373-.766-2.305 0-.933.644-2.176 1.373-2.176.73 0 1.018.302 1.662.302.644 0 .934-.302 1.662-.302.728 0 1.372 1.244 1.372 2.175 0 .932-.681 1.65-.765 2.306-.084.656-.364 2.107-.803 2.435-.439.329-.71.13-.71-.224 0-.355.076-2.67-.755-2.67H20zm7.4.006c-.831 0-.756 2.315-.756 2.669 0 .354-.27.553-.71.224-.438-.328-.718-1.778-.802-2.435-.084-.656-.766-1.373-.766-2.305 0-.932.644-2.176 1.373-2.176.728 0 1.017.302 1.662.302.644 0 .933-.302 1.662-.302.728 0 1.372 1.243 1.372 2.176s-.682 1.65-.766 2.305c-.084.657-.364 2.108-.802 2.436-.44.328-.71.13-.71-.225 0-.354.076-2.669-.755-2.669H27.4zM16.556 14.685a3.016 3.016 0 01.714-2.462c.638-.745 1.624-1.223 2.731-1.223 1.922 0 3.482 1.441 3.482 3.22 0 .157-.013.313-.036.465-.167 1.065-.898 1.96-1.903 2.42a3.703 3.703 0 01-1.542.333c-1.752 0-3.201-1.196-3.445-2.754l-.001.002z" stroke-linecap="round" stroke-linejoin="round"/><path d="M18.683 14.244l.901 1.032 1.15-1.317.911-1.042M7 24.864l.741-.244a.51.51 0 01.609.227c.16.296.373.793.536 1.541.527 2.102 1.922 3.163 3.536 2.325a.368.368 0 01.337 0c1.614.838 3.008-.224 3.536-2.325.528 2.102 1.923 3.163 3.536 2.325a.368.368 0 01.338 0c1.613.838 3.009-.224 3.536-2.325.528 2.102 1.922 3.163 3.536 2.325a.368.368 0 01.337 0c1.614.838 3.008-.224 3.536-2.325.163-.75.376-1.246.536-1.54a.513.513 0 01.609-.228l.741.244" stroke-linecap="round" stroke-linejoin="round"/></symbol><symbol id="menu2" viewBox="0 0 40 40"><rect width="40" height="40" rx="20"/><path d="M31 20.26c-2.065-.822-4.786.225-6.934.755m-8.132 0c-2.148-.529-4.868-1.577-6.934-.755m5.63-4.988l10.69-.084a.594.594 0 00.562-.413l.507-1.585a5.477 5.477 0 00-.044-3.527c-.34-.943-.929-1.782-1.917-2.23-2.59-1.18-3.536.426-4.476.426s-1.889-1.605-4.477-.427c-.941.428-1.52 1.21-1.867 2.1a5.47 5.47 0 00-.085 3.673l.537 1.655c.08.247.311.414.57.412zm3.63-8.082c2.197.938 2.86 1.875 2.86 1.875" stroke-linecap="round" stroke-linejoin="round"/><path d="M18.14 20.362h-1.92a.288.288 0 00-.287.289v.364c.011.291.148.564.374.748l.23.188a1.007 1.007 0 01.341.533l.359 1.661.395 1.83.395 1.831.396 1.831.395 1.83.156.72c.114.476.537.813 1.025.813.489 0 .912-.337 1.026-.813l.156-.72.395-1.83.396-1.83.395-1.831.395-1.83.358-1.662a1.007 1.007 0 01.341-.533l.23-.188c.227-.184.363-.457.375-.748v-.364a.288.288 0 00-.288-.289H21.86M22.2 20l-.367-2.714c-.04-.303-.42-.536-.873-.536h-1.92c-.453 0-.83.232-.873.536L17.8 20h4.4zm-4.157 9.636h4.01m-4.439-1.831h4.868m-5.297-1.829h5.725m-6.153-1.831h6.582m-7.011-1.829h7.44" stroke-linecap="round" stroke-linejoin="round"/></symbol><symbol id="menu3" viewBox="0 0 40 40"><rect width="40" height="40" rx="20"/><path d="M14.44 16.609l11.17-.088a.62.62 0 00.585-.43l.53-1.65a5.678 5.678 0 00-.045-3.67c-.356-.98-.972-1.854-2.003-2.321-2.705-1.226-3.695.444-4.677.444-.982 0-1.973-1.67-4.678-.444-.983.445-1.588 1.26-1.95 2.185a5.667 5.667 0 00-.088 3.82l.561 1.725c.084.257.325.43.596.428l-.001.001zM18.233 8.2c2.295.976 2.988 1.951 2.988 1.951m4.448 13.571c.145-.296.286-.592.406-.91a.566.566 0 00-.53-.765h-1.467a1.182 1.182 0 01-1.173-1.024l-.162-1.206a1.183 1.183 0 00-1.173-1.025h-3.14c-.593 0-1.092.438-1.172 1.025l-.163 1.206a1.183 1.183 0 01-1.172 1.024h-1.469a.566.566 0 00-.529.766c.12.318.261.614.407.91.347.705.72 1.405.908 2.38.285 1.47.764 4.774 1.684 5.518.92.744 1.488.294 1.488-.508s-.331-5.258 1.587-5.258c1.917 0 1.586 4.456 1.586 5.258 0 .802.568 1.253 1.488.508.92-.743 1.399-4.048 1.684-5.518.19-.974.562-1.675.908-2.38m-11.332 0c-.76-1.349-5.333 0-5.333 0" stroke-linecap="round" stroke-linejoin="round"/><path d="M25.667 23.723v-.002c.765-1.346 5.333.002 5.333.002" stroke-linecap="round" stroke-linejoin="round"/></symbol><symbol id="menu4" viewBox="0 0 40 40"><rect width="40" height="40" rx="20"/><path d="M23.466 15.611c1.039 0 2.087-1.708 4.949-.455 1.98.868 2.51 3.105 2.58 4.886.112 2.904-1.465 3.815-1.96 6.286-.333 1.664-.893 5.402-1.97 6.244-1.078.841-1.742.332-1.742-.576 0-.908.387-5.95-1.857-5.95-2.244 0-1.856 5.043-1.856 5.95s-.665 1.417-1.742.576c-1.077-.842-1.637-4.58-1.97-6.244-.496-2.472-2.073-3.381-1.96-6.286.06-1.57.48-3.492 1.932-4.52.196-.14.411-.263.648-.367 2.861-1.253 3.909.455 4.948.455v.001zm-1.87-.712c2.428.998 3.162 1.996 3.162 1.996" stroke-linecap="round" stroke-linejoin="round"/><path d="M23.462 18.816c-.886 0-3.015-.974-4.393-.086-.16.103-.309.23-.444.386-1.362 1.566-.802 3.25-.02 4.733.99 1.877.637 7.511 1.874 6.413.633-.563-1.422-5.564 2.982-5.564m.001-5.882c.986 0 3.521-1.212 4.836.3 1.362 1.566.802 3.25.02 4.733-.99 1.877-.637 7.511-1.875 6.413-.632-.563 1.423-5.564-2.982-5.564" stroke-linecap="round" stroke-linejoin="round"/><path d="M20.148 24.885c-.199-2.343-.57-4.383-1.08-6.155a21.007 21.007 0 00-1.198-3.209c-1.169-2.46-2.68-4.19-4.363-5.372" stroke-linecap="round" stroke-linejoin="round"/><path d="M12.329 10.425l-3.21-2.046a.248.248 0 01-.076-.352l.624-.913a.268.268 0 01.364-.072l3.211 2.046a.784.784 0 01.236 1.109.836.836 0 01-.693.36.85.85 0 01-.454-.132h-.002z" stroke-linecap="round" stroke-linejoin="round"/></symbol><symbol id="menu5" viewBox="0 0 40 40"><rect width="40" height="40" rx="20"/><path d="M26.675 13.097c.604 1.15.821 2.536.866 3.744.127 3.399-1.631 4.462-2.184 7.353-.372 1.947-.996 6.32-2.197 7.305-1.201.985-1.942.388-1.942-.673s.432-6.961-2.07-6.961-2.069 5.9-2.069 6.961-.742 1.658-1.942.673c-1.201-.985-1.825-5.358-2.197-7.305a8.21 8.21 0 00-.211-.855m-.862-2.061c-.604-1.236-1.187-2.429-1.112-4.437.077-2.084.668-4.702 2.877-5.716 3.19-1.466 4.357.532 5.516.532 1.159 0 2.327-1.998 5.516-.532.211.097.406.208.589.331m-8.19-.633c2.707 1.168 3.525 2.335 3.525 2.335" stroke-linecap="round" stroke-linejoin="round"/><path d="M25.253 11.456c.445-.729.683-1.861.719-3.456.094 3.1.9 4.392 2.375 4.472-.726.049-1.281.258-1.672.625-.433.404-.665 1.002-.702 1.789-.102-1.548-.895-2.342-2.381-2.407.716-.052 1.268-.38 1.66-1.023zM10.001 25.237l-.013 1.002-.017 1.006" stroke-linecap="round" stroke-linejoin="round"/><path d="M9 26.226l.988.013.993.017m19.04-12.837l-.012 1.002-.018 1.006" stroke-linecap="round" stroke-linejoin="round"/><path d="M29.02 14.408l.988.013.992.017m-19.133 6.84c.252-.394.39-.897.417-1.507.107 1.64.953 2.475 2.522 2.546-.982.066-1.671.408-2.077 1.022-.264.398-.407.91-.434 1.535-.107-1.64-.953-2.476-2.522-2.546.996-.066 1.692-.418 2.094-1.049v0z" stroke-linecap="round" stroke-linejoin="round"/></symbol><symbol id="menu6" viewBox="0 0 40 40"><rect width="40" height="40" rx="20"/><path d="M20 24.253c-.024-1.225-.236-4.234-1.753-4.233-1.356 0-1.74 1.973-1.757 3.991-.004.45.304.839.726.907a6.533 6.533 0 002.303-.043.611.611 0 00.481-.608" stroke-linecap="round" stroke-linejoin="round"/><path d="M13.964 24.677c-.372-.078-.638-.427-.63-.827.061-2.936 1.223-3.473 1.577-3.473 1.457 0 1.576 3.088 1.579 4.01a.32.32 0 01-.246.317c-.836.18-1.597.114-2.28-.027h0z" stroke-linecap="round" stroke-linejoin="round"/><path d="M11.252 24.323a.812.812 0 01-.623-.826c.043-1.428.39-2.873 1.35-2.873 1.23 0 1.349 2.566 1.355 3.401a.318.318 0 01-.245.318 4.28 4.28 0 01-1.837-.02zm8.748-.07c.024-1.225.236-4.234 1.753-4.233 1.356 0 1.74 1.973 1.757 3.991.004.45-.304.839-.726.907a6.533 6.533 0 01-2.303-.043.611.611 0 01-.481-.608" stroke-linecap="round" stroke-linejoin="round"/><path d="M26.036 24.677c.372-.078.638-.427.63-.827-.061-2.936-1.223-3.473-1.577-3.473-1.457 0-1.576 3.088-1.579 4.01a.32.32 0 00.246.317c.837.18 1.597.114 2.28-.027h0z" stroke-linecap="round" stroke-linejoin="round"/><path d="M28.747 24.323a.812.812 0 00.623-.826c-.043-1.428-.39-2.873-1.35-2.873-1.23 0-1.348 2.566-1.354 3.401a.319.319 0 00.245.318 4.28 4.28 0 001.836-.02zm-18.117-.826s-3.153-6.335-2.554-7.22c.598-.884 2.395 1.643 3.712 1.138 1.317-.505 2.994-3.033 5.15-2.274 1.441.507 1.054 1.516 3.062 1.516" stroke-linecap="round" stroke-linejoin="round"/><path d="M29.37 23.497s3.153-6.334 2.554-7.218c-.598-.884-2.395 1.642-3.712 1.137-1.317-.506-2.994-3.033-5.15-2.274-1.44.507-1.054 1.516-3.061 1.516" stroke-linecap="round" stroke-linejoin="round"/></symbol><symbol id="menu7" viewBox="0 0 40 40"><rect width="40" height="40" rx="20"/><path d="M12.727 12.234l-4.794.302M20 26.33c3.326 0 4.892-2.444 5.74-4.62.848-2.176 1.63-9.241 1.533-9.476C27.175 12 26.75 12 25.837 12c-.913 0-1.63.134-2.511.703-.881.57-.848 1.875-.979 2.679-.13.803-.424 1.406-.685 1.708-.26.301-.652 1.172-.685 1.54-.033.367-.032 2.678-.13 3.247-.098.57-.849.636-.849.636s-.75-.067-.848-.636c-.097-.569-.097-2.879-.13-3.247-.033-.37-.424-1.24-.685-1.54-.262-.3-.555-.904-.685-1.708-.13-.804-.098-2.11-.979-2.679-.878-.569-1.596-.703-2.509-.703-.913 0-1.337 0-1.435.234-.098.235.685 7.3 1.533 9.476.848 2.176 2.413 4.62 5.74 4.62h0z" stroke-miterlimit="10"/><path d="M26.36 12.268s-.392.535-.424 1.54c-.032 1.003-.914 7.633-2.512 9.173-1.598 1.54-2.772 1.54-3.424 1.54-.652 0-1.827 0-3.424-1.54-1.598-1.54-2.479-8.169-2.512-9.174-.032-1.004-.423-1.54-.423-1.54m13.632-.033l4.794.302" stroke-miterlimit="10"/><path d="M20 29.209s1.142 0 3.054-.674c2.11-.743 4.35-2.07 5.393-3.11 1.044-1.037 3.36-4.921 3.946-7.231.588-2.31.946-5.357.131-5.658-.816-.302-1.207 1.072-1.664 2.075-.456 1.005-2.38 6.261-2.87 7.232-.488.97-2.446 3.215-3.88 4.487-1.435 1.272-4.11 1.239-4.11 1.239s-2.674.033-4.108-1.24c-1.435-1.271-3.392-3.514-3.88-4.486-.49-.97-2.414-6.228-2.87-7.232-.459-1.004-.85-2.377-1.666-2.075-.816.301-.456 3.348.13 5.658.588 2.31 2.904 6.194 3.947 7.231 1.044 1.038 3.282 2.366 5.393 3.11 1.912.674 3.054.674 3.054.674z" stroke-miterlimit="10"/><path d="M29.322 24.326s-.842 2.305-1.56 2.506c-.718.201-1.164.013-1.705.312-.54.3-1.198.96-1.361 1.462-.163.502-2.316 1.172-2.805 1.305-.489.134-1.044.1-1.222 0-.18-.1-.571-.2-.669-.2-.098 0-.489.1-.668.2-.18.101-.734.134-1.223 0-.489-.134-2.642-.803-2.805-1.305-.162-.502-.82-1.164-1.361-1.462-.541-.298-.987-.11-1.704-.312-.718-.201-1.56-2.506-1.56-2.506" stroke-miterlimit="10"/></symbol><symbol id="menulist" viewBox="0 0 20 12"><rect width="2" height="2" rx="1"/><rect x="4" width="16" height="2" rx="1"/><rect y="5" width="2" height="2" rx="1"/><rect x="4" y="5" width="14" height="2" rx="1"/><rect y="10" width="2" height="2" rx="1"/><rect x="4" y="10" width="12" height="2" rx="1"/></symbol><symbol id="menu_pickup" viewBox="0 0 34 34"><rect width="34" height="34" rx="17"/><path d="M8.566 15.15c0 .213.024.37.07.47a.41.41 0 00.26.2c.134.04.344.06.63.06.02 0 .03.02.03.06 0 .04-.01.06-.03.06-.273 0-.486-.003-.64-.01l-.87-.01-.73.01c-.133.007-.313.01-.54.01-.02 0-.03-.02-.03-.06 0-.04.01-.06.03-.06.214 0 .367-.017.46-.05a.3.3 0 00.2-.19c.034-.1.05-.25.05-.45v-4.63c0-.2-.016-.347-.05-.44a.3.3 0 00-.2-.19c-.1-.04-.253-.06-.46-.06-.02 0-.03-.02-.03-.06 0-.04.01-.06.03-.06l.53.01c.307.013.55.02.73.02.16 0 .35-.01.57-.03a9.324 9.324 0 01.79-.03c.68 0 1.217.143 1.61.43.394.28.59.717.59 1.31 0 .413-.106.763-.32 1.05a2 2 0 01-.83.65c-.333.147-.676.22-1.03.22-.18 0-.336-.017-.47-.05-.013 0-.02-.017-.02-.05 0-.02.004-.04.01-.06.014-.02.027-.027.04-.02.1.027.214.04.34.04.307 0 .56-.143.76-.43.207-.287.31-.693.31-1.22s-.113-.933-.34-1.22c-.22-.287-.543-.43-.97-.43-.186 0-.313.043-.38.13-.066.087-.1.257-.1.51v4.57zm5.638.04c0 .207.016.357.05.45a.3.3 0 00.19.19c.1.033.256.05.47.05.02 0 .03.02.03.06 0 .04-.01.06-.03.06-.22 0-.394-.003-.52-.01l-.76-.01-.74.01c-.134.007-.314.01-.54.01-.014 0-.02-.02-.02-.06 0-.04.006-.06.02-.06.213 0 .37-.017.47-.05a.3.3 0 00.2-.19c.04-.1.06-.25.06-.45v-4.63c0-.2-.02-.347-.06-.44a.3.3 0 00-.2-.19c-.1-.04-.257-.06-.47-.06-.014 0-.02-.02-.02-.06 0-.04.006-.06.02-.06l.54.01c.306.013.553.02.74.02.206 0 .463-.007.77-.02l.51-.01c.02 0 .03.02.03.06 0 .04-.01.06-.03.06-.207 0-.36.02-.46.06a.33.33 0 00-.2.21c-.034.093-.05.24-.05.44v4.61zm5.358-5.55c.293 0 .6.027.92.08.32.047.57.11.75.19.06.02.096.047.11.08a.4.4 0 01.05.15l.12 1.39c0 .02-.017.033-.05.04-.034.007-.054-.003-.06-.03-.227-.527-.53-.933-.91-1.22a2.13 2.13 0 00-1.32-.43c-.66 0-1.17.243-1.53.73-.36.487-.54 1.14-.54 1.96 0 .613.096 1.173.29 1.68.2.507.476.91.83 1.21.36.293.766.44 1.22.44.426 0 .806-.14 1.14-.42.34-.287.643-.72.91-1.3.006-.027.026-.037.06-.03.04.007.06.02.06.04l-.15 1.36a.406.406 0 01-.05.16c-.014.02-.05.043-.11.07a5.23 5.23 0 01-1.83.33c-.814 0-1.494-.16-2.04-.48-.547-.327-.95-.737-1.21-1.23-.254-.5-.38-1.02-.38-1.56 0-.633.17-1.193.51-1.68a3.451 3.451 0 011.37-1.13 4.31 4.31 0 011.84-.4zm9.119 6.24c.02 0 .03.02.03.06 0 .04-.01.06-.03.06h-1.12c-.107 0-.197.003-.27.01a1.93 1.93 0 01-.18.01.545.545 0 01-.28-.07 1.806 1.806 0 01-.28-.28c-.107-.133-.3-.39-.58-.77a1.936 1.936 0 00-.12-.15 6.059 6.059 0 00-.14-.2l-1.31-1.76-.22.22v2.18c0 .207.017.357.05.45a.3.3 0 00.19.19c.1.033.257.05.47.05.027 0 .04.02.04.06 0 .04-.013.06-.04.06-.22 0-.393-.003-.52-.01l-.75-.01-.74.01c-.133.007-.313.01-.54.01-.013 0-.02-.02-.02-.06 0-.04.007-.06.02-.06.213 0 .37-.017.47-.05a.3.3 0 00.2-.19c.04-.1.06-.25.06-.45v-4.63c0-.2-.02-.347-.06-.44a.3.3 0 00-.2-.19c-.093-.04-.243-.06-.45-.06-.02 0-.03-.02-.03-.06 0-.04.01-.06.03-.06l.53.01c.307.013.55.02.73.02.2 0 .453-.007.76-.02l.51-.01c.02 0 .03.02.03.06 0 .04-.01.06-.03.06-.207 0-.36.02-.46.06a.365.365 0 00-.2.21c-.033.093-.05.24-.05.44v2.12l1.88-1.92c.193-.193.29-.37.29-.53a.313.313 0 00-.16-.28c-.107-.067-.257-.1-.45-.1-.02 0-.03-.02-.03-.06 0-.04.01-.06.03-.06l.47.01a18.136 18.136 0 001.67 0l.45-.01c.02 0 .03.02.03.06 0 .04-.01.06-.03.06-.307 0-.643.09-1.01.27-.367.173-.7.407-1 .7l-1.13 1.15 1.48 2c.433.62.757 1.06.97 1.32.22.253.397.413.53.48.133.06.303.09.51.09zm-10.474 10c.02 0 .03.02.03.06 0 .04-.01.06-.03.06l-.89-.01-.71.01c-.08 0-.133-.01-.16-.03-.02-.02-.03-.073-.03-.16v-.68c-.353.34-.706.59-1.06.75-.353.16-.74.24-1.16.24-.433 0-.83-.08-1.19-.24a2.065 2.065 0 01-.84-.7c-.206-.3-.31-.647-.31-1.04v-3.58c0-.2-.016-.347-.05-.44a.3.3 0 00-.2-.19c-.1-.04-.253-.06-.46-.06-.02 0-.03-.02-.03-.06 0-.04.01-.06.03-.06l.53.01c.307.013.55.02.73.02.2 0 .454-.007.76-.02l.52-.01c.014 0 .02.02.02.06 0 .04-.006.06-.02.06-.206 0-.36.02-.46.06-.1.04-.17.11-.21.21a1.41 1.41 0 00-.05.44v3.21c0 .62.147 1.097.44 1.43.3.333.7.5 1.2.5.32 0 .624-.07.91-.21.287-.14.587-.36.9-.66v-4.27c0-.2-.016-.347-.05-.44a.33.33 0 00-.2-.21c-.093-.04-.246-.06-.46-.06-.013 0-.02-.02-.02-.06 0-.04.007-.06.02-.06l.53.01c.294.013.527.02.7.02.194 0 .437-.007.73-.02l.54-.01c.02 0 .03.02.03.06 0 .04-.01.06-.03.06-.206 0-.36.02-.46.06a.331.331 0 00-.21.19 1.41 1.41 0 00-.05.44v4.63c0 .2.017.35.05.45.04.093.107.157.2.19.1.033.257.05.47.05zm2.478-.73c0 .213.024.37.07.47a.41.41 0 00.26.2c.134.04.344.06.63.06.02 0 .03.02.03.06 0 .04-.01.06-.03.06-.273 0-.486-.003-.64-.01l-.87-.01-.73.01c-.133.007-.313.01-.54.01-.02 0-.03-.02-.03-.06 0-.04.01-.06.03-.06.214 0 .367-.017.46-.05a.3.3 0 00.2-.19c.034-.1.05-.25.05-.45v-4.63c0-.2-.016-.347-.05-.44a.3.3 0 00-.2-.19c-.1-.04-.253-.06-.46-.06-.02 0-.03-.02-.03-.06 0-.04.01-.06.03-.06l.53.01c.307.013.55.02.73.02.16 0 .35-.01.57-.03a9.287 9.287 0 01.79-.03c.68 0 1.217.143 1.61.43.394.28.59.717.59 1.31 0 .413-.106.763-.32 1.05a2 2 0 01-.83.65c-.333.147-.676.22-1.03.22-.18 0-.336-.017-.47-.05-.013 0-.02-.017-.02-.05 0-.02.004-.04.01-.06.014-.02.027-.027.04-.02.1.027.214.04.34.04.307 0 .56-.143.76-.43.207-.287.31-.693.31-1.22s-.113-.933-.34-1.22c-.22-.287-.543-.43-.97-.43-.186 0-.313.043-.38.13-.066.087-.1.257-.1.51v4.57z"/></symbol><symbol id="reserv" viewBox="0 0 20.001 20"><path d="M20.005 7.5V5a2 2 0 00-2-2h-1V1.5a1.5 1.5 0 00-3 0V3h-8V1.5a1.5 1.5 0 00-3 0V3h-1a2 2 0 00-2 2v13a2 2 0 002 2h16a2 2 0 002-2V8.5zm-5-6a.5.5 0 011 0v4a.5.5 0 01-1 0v-4zm-11 0a.5.5 0 011 0v4a.5.5 0 01-1 0v-4zm-2 2.5h1v1.5a1.5 1.5 0 003 0V4h8v1.5a1.5 1.5 0 003 0V4h1a1 1 0 011 1v2.5h-18V5a1 1 0 011-1zm17 14a1 1 0 01-1 1h-16a1 1 0 01-1-1V8.5h18z"/><path d="M8.721 17.036a.5.5 0 01-.413-.218l-2.28-3.344a.5.5 0 01.826-.564l1.837 2.694a21.771 21.771 0 014.439-5.059.5.5 0 11.622.783 20.892 20.892 0 00-4.594 5.452.5.5 0 01-.414.256z"/></symbol><symbol id="sns_instagram" viewBox="0 0 16 16"><path d="M8 1.442c2.136 0 2.389.008 3.232.047a4.428 4.428 0 011.486.276 2.645 2.645 0 011.518 1.517 4.415 4.415 0 01.276 1.486c.039.844.047 1.1.047 3.232s-.008 2.39-.047 3.234a4.414 4.414 0 01-.276 1.485 2.653 2.653 0 01-1.518 1.519 4.44 4.44 0 01-1.486.274c-.844.039-1.1.047-3.232.047s-2.389-.008-3.233-.047a4.443 4.443 0 01-1.486-.274 2.656 2.656 0 01-1.518-1.519 4.414 4.414 0 01-.276-1.485c-.039-.844-.047-1.1-.047-3.234s.008-2.388.047-3.232a4.415 4.415 0 01.276-1.486 2.648 2.648 0 011.518-1.517 4.431 4.431 0 011.486-.276c.844-.039 1.1-.047 3.233-.047M8 0C5.827 0 5.555.01 4.7.048a5.872 5.872 0 00-1.942.373 4.092 4.092 0 00-2.34 2.34 5.876 5.876 0 00-.372 1.942c-.039.853-.048 1.125-.048 3.3s.009 2.445.048 3.3a5.893 5.893 0 00.372 1.942 4.1 4.1 0 002.34 2.34 5.914 5.914 0 001.942.371c.853.039 1.126.047 3.3.047s2.445-.008 3.3-.047a5.913 5.913 0 001.942-.371 4.1 4.1 0 002.34-2.34 5.9 5.9 0 00.372-1.942c.038-.854.048-1.126.048-3.3s-.01-2.445-.048-3.3a5.882 5.882 0 00-.372-1.942 4.086 4.086 0 00-2.34-2.34A5.871 5.871 0 0011.3.048C10.447.01 10.175 0 8 0z"/><path d="M8 3.893a4.108 4.108 0 104.108 4.108A4.108 4.108 0 008 3.893zm0 6.774A2.667 2.667 0 1110.667 8 2.666 2.666 0 018 10.667z"/><circle cx=".96" cy=".96" r=".96" transform="translate(11.31 2.77)"/></symbol></svg>