<svg width="40" height="40" viewBox="0 0 40 40" fill="none" xmlns="http://www.w3.org/2000/svg">
<rect width="40" height="40" rx="20" fill="#C36800"/>
<path d="M31 20.2604C28.9353 19.4382 26.2139 20.4854 24.0662 21.0152" stroke="white" stroke-linecap="round" stroke-linejoin="round"/>
<path d="M15.9338 21.0152C13.7861 20.4865 11.0658 19.4382 9 20.2604" stroke="white" stroke-linecap="round" stroke-linejoin="round"/>
<path d="M14.6295 15.2716L25.3205 15.1882C25.5766 15.186 25.8031 15.0204 25.8816 14.7749L26.3892 13.1898C26.7569 12.041 26.7546 10.7974 26.3448 9.66349C26.0045 8.72024 25.4161 7.8809 24.4281 7.43212C21.8388 6.25362 20.8918 7.85921 19.9516 7.85921C19.0115 7.85921 18.0634 6.25362 15.4752 7.43212C14.5339 7.86035 13.9545 8.64258 13.6085 9.53216C13.1499 10.7061 13.1351 12.0068 13.5232 13.2047L14.0604 14.8605C14.1401 15.1072 14.3711 15.2739 14.6295 15.2716Z" stroke="white" stroke-linecap="round" stroke-linejoin="round"/>
<path d="M18.2603 7.19006C20.457 8.12761 21.1205 9.06515 21.1205 9.06515" stroke="white" stroke-linecap="round" stroke-linejoin="round"/>
<path d="M18.1396 20.3621H16.2206C16.0612 20.3621 15.9326 20.4911 15.9326 20.651V20.9741C15.9326 20.9878 15.9326 21.0016 15.9326 21.0153C15.944 21.3065 16.0806 21.5794 16.3071 21.7632L16.537 21.9505C16.6588 22.0487 16.7544 22.1743 16.8193 22.3159C16.8432 22.3696 16.8637 22.4267 16.8784 22.4838L17.237 24.1453L17.6319 25.9759L18.0269 27.8064L18.423 29.637L18.8179 31.4675L18.9738 32.187C19.0877 32.6632 19.5111 33 19.9994 33C20.4876 33 20.911 32.6632 21.0249 32.187L21.1808 31.4675L21.5757 29.637L21.9718 27.8064L22.3668 25.9759L22.7617 24.1453L23.1203 22.4838C23.1351 22.4256 23.1555 22.3696 23.1794 22.3159C23.2443 22.1743 23.3399 22.0487 23.4617 21.9505L23.6916 21.7632C23.9181 21.5794 24.0536 21.3065 24.0661 21.0153C24.0661 21.0016 24.0661 20.9878 24.0661 20.9741V20.651C24.0661 20.4911 23.9375 20.3621 23.7781 20.3621H21.8591" stroke="white" stroke-linecap="round" stroke-linejoin="round"/>
<path d="M22.1999 20L21.8325 17.2861C21.7921 16.9827 21.4139 16.75 20.9603 16.75H19.0396C18.5873 16.75 18.2091 16.9818 18.1674 17.2861L17.7999 20H22.1999Z" stroke="white" stroke-linecap="round" stroke-linejoin="round"/>
<path d="M18.0428 29.6359H18.4241H21.5758H22.0527" stroke="white" stroke-linecap="round" stroke-linejoin="round"/>
<path d="M17.6139 27.8053H18.0293H21.972H22.4819" stroke="white" stroke-linecap="round" stroke-linejoin="round"/>
<path d="M17.1847 25.9758H17.6343H22.3668H22.9109" stroke="white" stroke-linecap="round" stroke-linejoin="round"/>
<path d="M16.7567 24.1453H17.2393H22.7618H23.3388" stroke="white" stroke-linecap="round" stroke-linejoin="round"/>
<path d="M16.3276 22.3159H16.8205H23.1806H23.768" stroke="white" stroke-linecap="round" stroke-linejoin="round"/>
</svg>
