<svg width="34" height="34" viewBox="0 0 34 34" fill="none" xmlns="http://www.w3.org/2000/svg">
<rect width="34" height="34" rx="17" fill="#C36800"/>
<path d="M8.56625 15.15C8.56625 15.3633 8.58958 15.52 8.63625 15.62C8.68292 15.7133 8.76958 15.78 8.89625 15.82C9.02958 15.86 9.23958 15.88 9.52625 15.88C9.54625 15.88 9.55625 15.9 9.55625 15.94C9.55625 15.98 9.54625 16 9.52625 16C9.25292 16 9.03958 15.9967 8.88625 15.99L8.01625 15.98L7.28625 15.99C7.15292 15.9967 6.97292 16 6.74625 16C6.72625 16 6.71625 15.98 6.71625 15.94C6.71625 15.9 6.72625 15.88 6.74625 15.88C6.95958 15.88 7.11292 15.8633 7.20625 15.83C7.30625 15.7967 7.37292 15.7333 7.40625 15.64C7.43958 15.54 7.45625 15.39 7.45625 15.19V10.56C7.45625 10.36 7.43958 10.2133 7.40625 10.12C7.37292 10.0267 7.30625 9.96333 7.20625 9.93C7.10625 9.89 6.95292 9.87 6.74625 9.87C6.72625 9.87 6.71625 9.85 6.71625 9.81C6.71625 9.77 6.72625 9.75 6.74625 9.75L7.27625 9.76C7.58292 9.77333 7.82625 9.78 8.00625 9.78C8.16625 9.78 8.35625 9.77 8.57625 9.75C8.66292 9.74333 8.77292 9.73667 8.90625 9.73C9.03958 9.72333 9.19292 9.72 9.36625 9.72C10.0463 9.72 10.5829 9.86333 10.9763 10.15C11.3696 10.43 11.5663 10.8667 11.5663 11.46C11.5663 11.8733 11.4596 12.2233 11.2463 12.51C11.0329 12.7967 10.7563 13.0133 10.4163 13.16C10.0829 13.3067 9.73958 13.38 9.38625 13.38C9.20625 13.38 9.04958 13.3633 8.91625 13.33C8.90292 13.33 8.89625 13.3133 8.89625 13.28C8.89625 13.26 8.89958 13.24 8.90625 13.22C8.91958 13.2 8.93292 13.1933 8.94625 13.2C9.04625 13.2267 9.15958 13.24 9.28625 13.24C9.59292 13.24 9.84625 13.0967 10.0463 12.81C10.2529 12.5233 10.3563 12.1167 10.3563 11.59C10.3563 11.0633 10.2429 10.6567 10.0163 10.37C9.79625 10.0833 9.47292 9.94 9.04625 9.94C8.85958 9.94 8.73292 9.98333 8.66625 10.07C8.59958 10.1567 8.56625 10.3267 8.56625 10.58V15.15ZM14.2036 15.19C14.2036 15.3967 14.2203 15.5467 14.2536 15.64C14.2869 15.7333 14.3503 15.7967 14.4436 15.83C14.5436 15.8633 14.7003 15.88 14.9136 15.88C14.9336 15.88 14.9436 15.9 14.9436 15.94C14.9436 15.98 14.9336 16 14.9136 16C14.6936 16 14.5203 15.9967 14.3936 15.99L13.6336 15.98L12.8936 15.99C12.7603 15.9967 12.5803 16 12.3536 16C12.3403 16 12.3336 15.98 12.3336 15.94C12.3336 15.9 12.3403 15.88 12.3536 15.88C12.5669 15.88 12.7236 15.8633 12.8236 15.83C12.9236 15.7967 12.9903 15.7333 13.0236 15.64C13.0636 15.54 13.0836 15.39 13.0836 15.19V10.56C13.0836 10.36 13.0636 10.2133 13.0236 10.12C12.9903 10.0267 12.9236 9.96333 12.8236 9.93C12.7236 9.89 12.5669 9.87 12.3536 9.87C12.3403 9.87 12.3336 9.85 12.3336 9.81C12.3336 9.77 12.3403 9.75 12.3536 9.75L12.8936 9.76C13.2003 9.77333 13.4469 9.78 13.6336 9.78C13.8403 9.78 14.0969 9.77333 14.4036 9.76L14.9136 9.75C14.9336 9.75 14.9436 9.77 14.9436 9.81C14.9436 9.85 14.9336 9.87 14.9136 9.87C14.7069 9.87 14.5536 9.89 14.4536 9.93C14.3536 9.97 14.2869 10.04 14.2536 10.14C14.2203 10.2333 14.2036 10.38 14.2036 10.58V15.19ZM19.5616 9.64C19.8549 9.64 20.1616 9.66667 20.4816 9.72C20.8016 9.76667 21.0516 9.83 21.2316 9.91C21.2916 9.93 21.3282 9.95667 21.3416 9.99C21.3616 10.0167 21.3782 10.0667 21.3916 10.14L21.5116 11.53C21.5116 11.55 21.4949 11.5633 21.4616 11.57C21.4282 11.5767 21.4082 11.5667 21.4016 11.54C21.1749 11.0133 20.8716 10.6067 20.4916 10.32C20.1116 10.0333 19.6716 9.89 19.1716 9.89C18.5116 9.89 18.0016 10.1333 17.6416 10.62C17.2816 11.1067 17.1016 11.76 17.1016 12.58C17.1016 13.1933 17.1982 13.7533 17.3916 14.26C17.5916 14.7667 17.8682 15.17 18.2216 15.47C18.5816 15.7633 18.9882 15.91 19.4416 15.91C19.8682 15.91 20.2482 15.77 20.5816 15.49C20.9216 15.2033 21.2249 14.77 21.4916 14.19C21.4982 14.1633 21.5182 14.1533 21.5516 14.16C21.5916 14.1667 21.6116 14.18 21.6116 14.2L21.4616 15.56C21.4482 15.64 21.4316 15.6933 21.4116 15.72C21.3982 15.74 21.3616 15.7633 21.3016 15.79C20.7082 16.01 20.0982 16.12 19.4716 16.12C18.6582 16.12 17.9782 15.96 17.4316 15.64C16.8849 15.3133 16.4816 14.9033 16.2216 14.41C15.9682 13.91 15.8416 13.39 15.8416 12.85C15.8416 12.2167 16.0116 11.6567 16.3516 11.17C16.6982 10.6833 17.1549 10.3067 17.7216 10.04C18.2949 9.77333 18.9082 9.64 19.5616 9.64ZM28.681 15.88C28.701 15.88 28.711 15.9 28.711 15.94C28.711 15.98 28.701 16 28.681 16H27.561C27.4543 16 27.3643 16.0033 27.291 16.01C27.2177 16.0167 27.1577 16.02 27.111 16.02C27.0043 16.02 26.911 15.9967 26.831 15.95C26.7577 15.8967 26.6643 15.8033 26.551 15.67C26.4443 15.5367 26.251 15.28 25.971 14.9C25.9377 14.8533 25.8977 14.8033 25.851 14.75C25.811 14.69 25.7643 14.6233 25.711 14.55L24.401 12.79L24.181 13.01V15.19C24.181 15.3967 24.1977 15.5467 24.231 15.64C24.2643 15.7333 24.3277 15.7967 24.421 15.83C24.521 15.8633 24.6777 15.88 24.891 15.88C24.9177 15.88 24.931 15.9 24.931 15.94C24.931 15.98 24.9177 16 24.891 16C24.671 16 24.4977 15.9967 24.371 15.99L23.621 15.98L22.881 15.99C22.7477 15.9967 22.5677 16 22.341 16C22.3277 16 22.321 15.98 22.321 15.94C22.321 15.9 22.3277 15.88 22.341 15.88C22.5543 15.88 22.711 15.8633 22.811 15.83C22.911 15.7967 22.9777 15.7333 23.011 15.64C23.051 15.54 23.071 15.39 23.071 15.19V10.56C23.071 10.36 23.051 10.2133 23.011 10.12C22.9777 10.0267 22.911 9.96333 22.811 9.93C22.7177 9.89 22.5677 9.87 22.361 9.87C22.341 9.87 22.331 9.85 22.331 9.81C22.331 9.77 22.341 9.75 22.361 9.75L22.891 9.76C23.1977 9.77333 23.441 9.78 23.621 9.78C23.821 9.78 24.0743 9.77333 24.381 9.76L24.891 9.75C24.911 9.75 24.921 9.77 24.921 9.81C24.921 9.85 24.911 9.87 24.891 9.87C24.6843 9.87 24.531 9.89 24.431 9.93C24.3377 9.97 24.271 10.04 24.231 10.14C24.1977 10.2333 24.181 10.38 24.181 10.58V12.7L26.061 10.78C26.2543 10.5867 26.351 10.41 26.351 10.25C26.351 10.13 26.2977 10.0367 26.191 9.97C26.0843 9.90333 25.9343 9.87 25.741 9.87C25.721 9.87 25.711 9.85 25.711 9.81C25.711 9.77 25.721 9.75 25.741 9.75L26.211 9.76C26.5043 9.77333 26.7777 9.78 27.031 9.78C27.3043 9.78 27.5877 9.77333 27.881 9.76L28.331 9.75C28.351 9.75 28.361 9.77 28.361 9.81C28.361 9.85 28.351 9.87 28.331 9.87C28.0243 9.87 27.6877 9.96 27.321 10.14C26.9543 10.3133 26.621 10.5467 26.321 10.84L25.191 11.99L26.671 13.99C27.1043 14.61 27.4277 15.05 27.641 15.31C27.861 15.5633 28.0377 15.7233 28.171 15.79C28.3043 15.85 28.4743 15.88 28.681 15.88ZM18.2073 25.88C18.2273 25.88 18.2373 25.9 18.2373 25.94C18.2373 25.98 18.2273 26 18.2073 26L17.3173 25.99L16.6073 26C16.5273 26 16.4739 25.99 16.4473 25.97C16.4273 25.95 16.4173 25.8967 16.4173 25.81V25.13C16.0639 25.47 15.7106 25.72 15.3573 25.88C15.0039 26.04 14.6173 26.12 14.1973 26.12C13.7639 26.12 13.3673 26.04 13.0073 25.88C12.6539 25.7133 12.3739 25.48 12.1673 25.18C11.9606 24.88 11.8573 24.5333 11.8573 24.14V20.56C11.8573 20.36 11.8406 20.2133 11.8073 20.12C11.7739 20.0267 11.7073 19.9633 11.6073 19.93C11.5073 19.89 11.3539 19.87 11.1473 19.87C11.1273 19.87 11.1173 19.85 11.1173 19.81C11.1173 19.77 11.1273 19.75 11.1473 19.75L11.6773 19.76C11.9839 19.7733 12.2273 19.78 12.4073 19.78C12.6073 19.78 12.8606 19.7733 13.1673 19.76L13.6873 19.75C13.7006 19.75 13.7073 19.77 13.7073 19.81C13.7073 19.85 13.7006 19.87 13.6873 19.87C13.4806 19.87 13.3273 19.89 13.2273 19.93C13.1273 19.97 13.0573 20.04 13.0173 20.14C12.9839 20.2333 12.9673 20.38 12.9673 20.58V23.79C12.9673 24.41 13.1139 24.8867 13.4073 25.22C13.7073 25.5533 14.1073 25.72 14.6073 25.72C14.9273 25.72 15.2306 25.65 15.5173 25.51C15.8039 25.37 16.1039 25.15 16.4173 24.85V20.58C16.4173 20.38 16.4006 20.2333 16.3673 20.14C16.3339 20.04 16.2673 19.97 16.1673 19.93C16.0739 19.89 15.9206 19.87 15.7073 19.87C15.6939 19.87 15.6873 19.85 15.6873 19.81C15.6873 19.77 15.6939 19.75 15.7073 19.75L16.2373 19.76C16.5306 19.7733 16.7639 19.78 16.9373 19.78C17.1306 19.78 17.3739 19.7733 17.6673 19.76L18.2073 19.75C18.2273 19.75 18.2373 19.77 18.2373 19.81C18.2373 19.85 18.2273 19.87 18.2073 19.87C18.0006 19.87 17.8473 19.89 17.7473 19.93C17.6473 19.9633 17.5773 20.0267 17.5373 20.12C17.5039 20.2133 17.4873 20.36 17.4873 20.56V25.19C17.4873 25.39 17.5039 25.54 17.5373 25.64C17.5773 25.7333 17.6439 25.7967 17.7373 25.83C17.8373 25.8633 17.9939 25.88 18.2073 25.88ZM20.6854 25.15C20.6854 25.3633 20.7087 25.52 20.7554 25.62C20.8021 25.7133 20.8887 25.78 21.0154 25.82C21.1487 25.86 21.3587 25.88 21.6454 25.88C21.6654 25.88 21.6754 25.9 21.6754 25.94C21.6754 25.98 21.6654 26 21.6454 26C21.3721 26 21.1587 25.9967 21.0054 25.99L20.1354 25.98L19.4054 25.99C19.2721 25.9967 19.0921 26 18.8654 26C18.8454 26 18.8354 25.98 18.8354 25.94C18.8354 25.9 18.8454 25.88 18.8654 25.88C19.0787 25.88 19.2321 25.8633 19.3254 25.83C19.4254 25.7967 19.4921 25.7333 19.5254 25.64C19.5587 25.54 19.5754 25.39 19.5754 25.19V20.56C19.5754 20.36 19.5587 20.2133 19.5254 20.12C19.4921 20.0267 19.4254 19.9633 19.3254 19.93C19.2254 19.89 19.0721 19.87 18.8654 19.87C18.8454 19.87 18.8354 19.85 18.8354 19.81C18.8354 19.77 18.8454 19.75 18.8654 19.75L19.3954 19.76C19.7021 19.7733 19.9454 19.78 20.1254 19.78C20.2854 19.78 20.4754 19.77 20.6954 19.75C20.7821 19.7433 20.8921 19.7367 21.0254 19.73C21.1587 19.7233 21.3121 19.72 21.4854 19.72C22.1654 19.72 22.7021 19.8633 23.0954 20.15C23.4887 20.43 23.6854 20.8667 23.6854 21.46C23.6854 21.8733 23.5787 22.2233 23.3654 22.51C23.1521 22.7967 22.8754 23.0133 22.5354 23.16C22.2021 23.3067 21.8587 23.38 21.5054 23.38C21.3254 23.38 21.1687 23.3633 21.0354 23.33C21.0221 23.33 21.0154 23.3133 21.0154 23.28C21.0154 23.26 21.0187 23.24 21.0254 23.22C21.0387 23.2 21.0521 23.1933 21.0654 23.2C21.1654 23.2267 21.2787 23.24 21.4054 23.24C21.7121 23.24 21.9654 23.0967 22.1654 22.81C22.3721 22.5233 22.4754 22.1167 22.4754 21.59C22.4754 21.0633 22.3621 20.6567 22.1354 20.37C21.9154 20.0833 21.5921 19.94 21.1654 19.94C20.9787 19.94 20.8521 19.9833 20.7854 20.07C20.7187 20.1567 20.6854 20.3267 20.6854 20.58V25.15Z" fill="white"/>
</svg>
