<svg width="40" height="40" viewBox="0 0 40 40" fill="none" xmlns="http://www.w3.org/2000/svg">
<rect width="40" height="40" rx="20" fill="#C36800"/>
<path d="M12.7275 12.2344L7.93262 12.5359" stroke="white" stroke-miterlimit="10"/>
<path d="M20.0001 26.3299C23.3265 26.3299 24.8917 23.8857 25.7397 21.7098C26.5876 19.534 27.3702 12.4688 27.2726 12.2344C27.175 12 26.7506 12 25.8373 12C24.924 12 24.2068 12.1342 23.3257 12.7032C22.4447 13.2722 22.4778 14.5784 22.3471 15.3818C22.2163 16.1853 21.9235 16.7882 21.6621 17.0897C21.4015 17.3912 21.0102 18.2617 20.9771 18.6295C20.944 18.9972 20.9448 21.3081 20.8464 21.8771C20.7488 22.4462 19.9984 22.5132 19.9984 22.5132C19.9984 22.5132 19.2481 22.4462 19.1505 21.8771C19.0529 21.3081 19.0529 18.9981 19.0198 18.6295C18.9867 18.2609 18.5962 17.3904 18.3348 17.0897C18.0734 16.7891 17.7805 16.1861 17.6498 15.3818C17.5191 14.5784 17.5522 13.2722 16.6711 12.7032C15.7926 12.1342 15.0753 12 14.162 12C13.2487 12 12.8252 12 12.7267 12.2344C12.6291 12.4688 13.4117 19.5331 14.2596 21.7098C15.1076 23.8857 16.6728 26.3299 19.9993 26.3299H20.0001Z" stroke="white" stroke-miterlimit="10"/>
<path d="M26.3593 12.2675C26.3593 12.2675 25.968 12.8034 25.9357 13.8073C25.9035 14.8111 25.0224 21.4406 23.4241 22.9812C21.8258 24.5209 20.6519 24.5209 20 24.5209C19.3482 24.5209 18.1734 24.5209 16.576 22.9812C14.9777 21.4415 14.0975 14.812 14.0644 13.8073C14.0321 12.8026 13.6408 12.2675 13.6408 12.2675" stroke="white" stroke-miterlimit="10"/>
<path d="M27.2726 12.2344L32.0667 12.5359" stroke="white" stroke-miterlimit="10"/>
<path d="M20 29.209C20 29.209 21.1417 29.209 23.0543 28.5355C25.1647 27.7924 27.4033 26.4641 28.4473 25.4254C29.4913 24.3876 31.8069 20.5039 32.3934 18.1938C32.9808 15.8838 33.339 12.8365 32.5241 12.5359C31.7084 12.2344 31.3171 13.6077 30.8605 14.6115C30.4038 15.6162 28.4796 20.8724 27.9907 21.8432C27.5017 22.8139 25.5444 25.0577 24.1099 26.3299C22.6746 27.6021 20.0009 27.569 20.0009 27.569C20.0009 27.569 17.3263 27.6021 15.8918 26.3299C14.4565 25.0577 12.5 22.8148 12.0111 21.8432C11.5222 20.8724 9.59794 15.6154 9.14128 14.6115C8.68297 13.6068 8.29168 12.2344 7.47599 12.5359C6.6603 12.8374 7.02016 15.8838 7.60669 18.1938C8.19406 20.5039 10.5096 24.3876 11.5528 25.4254C12.5968 26.4633 14.8354 27.7915 16.9458 28.5355C18.8584 29.209 20 29.209 20 29.209Z" stroke="white" stroke-miterlimit="10"/>
<path d="M29.3217 24.3265C29.3217 24.3265 28.4796 26.6314 27.7615 26.8319C27.0443 27.0331 26.5984 26.8454 26.0573 27.1444C25.5163 27.4433 24.8586 28.1041 24.6956 28.606C24.5327 29.1079 22.3801 29.778 21.8912 29.9113C21.4023 30.0447 20.8472 30.0116 20.6685 29.9113C20.4898 29.8111 20.0977 29.7101 20 29.7101C19.9024 29.7101 19.5111 29.8103 19.3316 29.9113C19.1521 30.0124 18.5978 30.0455 18.1089 29.9113C17.62 29.7772 15.4674 29.1079 15.3044 28.606C15.1415 28.1041 14.4838 27.4425 13.9428 27.1444C13.4017 26.8463 12.9558 27.0331 12.2386 26.8319C11.5213 26.6306 10.6783 24.3265 10.6783 24.3265" stroke="white" stroke-miterlimit="10"/>
</svg>
