<svg width="40" height="40" viewBox="0 0 40 40" fill="none" xmlns="http://www.w3.org/2000/svg">
<rect width="40" height="40" rx="20" fill="#C36800"/>
<path d="M23.446 14.6855C25.933 15.8501 27.6373 18.2359 27.6373 20.9904" stroke="white" stroke-linecap="round" stroke-linejoin="round"/>
<path d="M16.5557 14.6855C14.0688 15.8501 12.3645 18.2359 12.3645 20.9904" stroke="white" stroke-linecap="round" stroke-linejoin="round"/>
<path d="M12.5757 24.882C11.7448 24.882 11.8198 27.1966 11.8198 27.5508C11.8198 27.9049 11.5494 28.1039 11.1102 27.7753C10.6721 27.4467 10.3918 25.9965 10.3079 25.3402C10.224 24.684 9.54211 23.9666 9.54211 23.0348C9.54211 22.1029 10.1865 20.8589 10.9148 20.8589C11.6432 20.8589 11.9333 21.161 12.5767 21.161C13.2202 21.161 13.5103 20.8589 14.2386 20.8589C14.9669 20.8589 15.6113 22.102 15.6113 23.0348C15.6113 23.9675 14.9294 24.684 14.8455 25.3402C14.7617 25.9965 14.4814 27.4476 14.0422 27.7753C13.6031 28.103 13.3327 27.9049 13.3327 27.5508C13.3327 27.1966 13.4077 24.882 12.5767 24.882H12.5757Z" stroke="white" stroke-linecap="round" stroke-linejoin="round"/>
<path d="M20.0009 24.8748C19.17 24.8748 19.245 27.1894 19.245 27.5435C19.245 27.8976 18.9746 28.0957 18.5354 27.768C18.0963 27.4404 17.816 25.9892 17.7331 25.333C17.6492 24.6767 16.9673 23.9603 16.9673 23.0275C16.9673 22.0947 17.6107 20.8516 18.34 20.8516C19.0693 20.8516 19.3575 21.1537 20.0019 21.1537C20.6463 21.1537 20.9355 20.8516 21.6638 20.8516C22.3921 20.8516 23.0365 22.0956 23.0365 23.0275C23.0365 23.9594 22.3546 24.6767 22.2707 25.333C22.1868 25.9892 21.9066 27.4404 21.4684 27.768C21.0292 28.0966 20.7588 27.8976 20.7588 27.5435C20.7588 27.1894 20.8338 24.8748 20.0029 24.8748H20.0009Z" stroke="white" stroke-linecap="round" stroke-linejoin="round"/>
<path d="M27.3996 24.8813C26.5687 24.8813 26.6437 27.1959 26.6437 27.55C26.6437 27.9041 26.3733 28.1031 25.9341 27.7745C25.4959 27.4459 25.2157 25.9957 25.1318 25.3394C25.0479 24.6832 24.366 23.9658 24.366 23.034C24.366 22.1021 25.0104 20.8581 25.7387 20.8581C26.467 20.8581 26.7562 21.1602 27.4006 21.1602C28.045 21.1602 28.3342 20.8581 29.0625 20.8581C29.7908 20.8581 30.4352 22.1012 30.4352 23.034C30.4352 23.9667 29.7533 24.6832 29.6694 25.3394C29.5855 25.9957 29.3052 27.4468 28.8671 27.7745C28.4279 28.1031 28.1575 27.9041 28.1575 27.55C28.1575 27.1959 28.2325 24.8813 27.4016 24.8813H27.3996Z" stroke="white" stroke-linecap="round" stroke-linejoin="round"/>
<path d="M16.5558 14.6855C16.5321 14.534 16.5193 14.3779 16.5193 14.22C16.5193 13.4652 16.7996 12.7715 17.2703 12.223C17.9078 11.4783 18.8937 11 20.001 11C21.9234 11 23.4826 12.4411 23.4826 14.2191C23.4826 14.377 23.4698 14.533 23.4471 14.6846C23.2803 15.7497 22.549 16.6459 21.5444 17.1059C21.0796 17.3186 20.5556 17.4382 20.0019 17.4382C18.2503 17.4382 16.8005 16.2416 16.5568 14.6836L16.5558 14.6855Z" stroke="white" stroke-linecap="round" stroke-linejoin="round"/>
<path d="M18.6825 14.2436L19.5845 15.2759L20.7342 13.9589L21.6451 12.9166" stroke="white" stroke-linecap="round" stroke-linejoin="round"/>
<path d="M7 24.8639L7.74114 24.6202C7.977 24.5426 8.23852 24.6394 8.35003 24.8475C8.50991 25.1432 8.72307 25.6397 8.8859 26.3881C9.41289 28.49 10.8083 29.5506 12.4218 28.7127C12.5265 28.658 12.6538 28.658 12.7594 28.7127C14.3729 29.5506 15.7673 28.4891 16.2953 26.3881C16.8233 28.49 18.2177 29.5506 19.8312 28.7127C19.9368 28.658 20.0641 28.658 20.1688 28.7127C21.7823 29.5506 23.1777 28.4891 23.7047 26.3881C24.2327 28.49 25.6271 29.5506 27.2406 28.7127C27.3453 28.658 27.4726 28.658 27.5782 28.7127C29.1917 29.5506 30.5861 28.4891 31.1141 26.3881C31.2769 25.6388 31.4901 25.1423 31.65 24.8475C31.7615 24.6403 32.023 24.5435 32.2589 24.6202L33 24.8639" stroke="white" stroke-linecap="round" stroke-linejoin="round"/>
</svg>
