<svg width="40" height="40" viewBox="0 0 40 40" fill="none" xmlns="http://www.w3.org/2000/svg">
<rect width="40" height="40" rx="20" fill="#C36800"/>
<path d="M14.4397 16.609L25.6098 16.5213C25.877 16.5194 26.1136 16.346 26.1955 16.0908L26.7259 14.4416C27.1104 13.2456 27.1075 11.9531 26.6796 10.7718C26.3236 9.7906 25.7084 8.91674 24.6771 8.44977C21.9716 7.22421 20.9816 8.89408 19.9996 8.89408C19.0176 8.89408 18.0267 7.22322 15.3222 8.44977C14.3391 8.89507 13.7338 9.70981 13.3719 10.6349C12.8937 11.8555 12.8779 13.2092 13.2842 14.4554L13.8452 16.1795C13.929 16.4366 14.1696 16.61 14.4407 16.608L14.4397 16.609Z" stroke="white" stroke-linecap="round" stroke-linejoin="round"/>
<path d="M18.2327 8.19952C20.528 9.17584 21.2211 10.1512 21.2211 10.1512" stroke="white" stroke-linecap="round" stroke-linejoin="round"/>
<path d="M25.6689 23.7219C25.8139 23.4264 25.9549 23.1299 26.0751 22.8126C26.2152 22.4432 25.9411 22.0471 25.5457 22.0471H24.0776C23.485 22.0471 22.9841 21.6097 22.9052 21.0226L22.7426 19.8167C22.6637 19.2305 22.1628 18.7921 21.5702 18.7921H18.4289C17.8364 18.7921 17.3365 19.2295 17.2566 19.8167L17.0939 21.0226C17.015 21.6087 16.5142 22.0471 15.9216 22.0471H14.4535C14.0581 22.0471 13.784 22.4422 13.924 22.8126C14.0443 23.1308 14.1853 23.4274 14.3312 23.7239C14.6783 24.4283 15.051 25.1278 15.2393 26.1031C15.5243 27.573 16.0034 30.8773 16.9234 31.6211C17.8433 32.3649 18.4112 31.9147 18.4112 31.1127C18.4112 30.3108 18.0799 25.8549 19.9976 25.8549C21.9153 25.8549 21.584 30.3108 21.584 31.1127C21.584 31.9147 22.152 32.3659 23.0719 31.6211C23.9918 30.8783 24.471 27.573 24.7559 26.1031C24.9452 25.1288 25.3179 24.4283 25.664 23.7239" stroke="white" stroke-linecap="round" stroke-linejoin="round"/>
<path d="M14.3331 23.723C13.5729 22.3743 9 23.723 9 23.723" stroke="white" stroke-linecap="round" stroke-linejoin="round"/>
<path d="M25.6669 23.723C25.6669 23.723 25.6669 23.722 25.6679 23.721C26.432 22.3753 31 23.723 31 23.723" stroke="white" stroke-linecap="round" stroke-linejoin="round"/>
</svg>
