<svg width="40" height="40" viewBox="0 0 40 40" fill="none" xmlns="http://www.w3.org/2000/svg">
<rect width="40" height="40" rx="20" fill="#C36800"/>
<path d="M20 24.2531C19.9764 23.0281 19.7637 20.0188 18.2475 20.0195C16.8913 20.0195 16.5065 21.9932 16.4897 24.011C16.4863 24.4611 16.7941 24.85 17.216 24.9177C17.9836 25.0402 18.7511 25.0252 19.5187 24.8749C19.7975 24.8201 20 24.5651 20 24.2667" stroke="white" stroke-linecap="round" stroke-linejoin="round"/>
<path d="M13.9642 24.6768C13.5916 24.5992 13.3256 24.2502 13.3337 23.8499C13.3951 20.914 14.5569 20.377 14.9113 20.377C16.3681 20.377 16.4869 23.4653 16.4896 24.3876C16.4896 24.5415 16.3863 24.6732 16.2439 24.7039C15.4075 24.8848 14.6474 24.8178 13.9635 24.6768H13.9642Z" stroke="white" stroke-linecap="round" stroke-linejoin="round"/>
<path d="M11.2525 24.3234C10.8826 24.2437 10.6173 23.8954 10.6294 23.4965C10.672 22.0685 11.0189 20.624 11.9796 20.624C13.2095 20.624 13.3277 23.1903 13.3337 24.025C13.3351 24.1789 13.2318 24.312 13.0887 24.3427C12.3562 24.4972 11.744 24.4296 11.2525 24.3234Z" stroke="white" stroke-linecap="round" stroke-linejoin="round"/>
<path d="M20 24.2531C20.0236 23.0281 20.2363 20.0188 21.7525 20.0195C23.1087 20.0195 23.4935 21.9932 23.5103 24.011C23.5137 24.4611 23.2059 24.85 22.784 24.9177C22.0164 25.0402 21.2489 25.0252 20.4813 24.8749C20.2025 24.8201 20 24.5651 20 24.2667" stroke="white" stroke-linecap="round" stroke-linejoin="round"/>
<path d="M26.0358 24.6768C26.4084 24.5992 26.6744 24.2502 26.6663 23.8499C26.6049 20.914 25.4431 20.377 25.0887 20.377C23.6319 20.377 23.5131 23.4653 23.5104 24.3876C23.5104 24.5415 23.6137 24.6732 23.7561 24.7039C24.5925 24.8848 25.3526 24.8178 26.0365 24.6768H26.0358Z" stroke="white" stroke-linecap="round" stroke-linejoin="round"/>
<path d="M28.7468 24.3234C29.1167 24.2437 29.382 23.8954 29.3699 23.4965C29.3273 22.0685 28.9803 20.624 28.0197 20.624C26.7898 20.624 26.6716 23.1903 26.6655 24.025C26.6642 24.1789 26.7675 24.312 26.9106 24.3427C27.643 24.4972 28.2553 24.4296 28.7468 24.3234Z" stroke="white" stroke-linecap="round" stroke-linejoin="round"/>
<path d="M10.6301 23.497C10.6301 23.497 7.47685 17.1623 8.07563 16.2776C8.67442 15.393 10.4708 17.9201 11.7878 17.4151C13.1049 16.9101 14.7824 14.3823 16.9379 15.1409C18.3792 15.648 17.9924 16.6573 20 16.6573" stroke="white" stroke-linecap="round" stroke-linejoin="round"/>
<path d="M29.37 23.4973C29.37 23.4973 32.5232 17.1625 31.9244 16.2786C31.3256 15.3947 29.5293 17.9211 28.2122 17.4161C26.8952 16.9104 25.2183 14.3834 23.0628 15.1419C21.6216 15.649 22.0084 16.6583 20.0007 16.6583" stroke="white" stroke-linecap="round" stroke-linejoin="round"/>
</svg>
