<svg width="40" height="40" viewBox="0 0 40 40" fill="none" xmlns="http://www.w3.org/2000/svg">
<rect width="40" height="40" rx="20" fill="#C36800"/>
<path d="M26.6748 13.0967C27.2788 14.2472 27.4963 15.633 27.5414 16.8407C27.6676 20.2396 25.9096 21.3033 25.3574 24.1938C24.9855 26.1406 24.3612 30.5142 23.1599 31.499C21.9586 32.4838 21.2182 31.8874 21.2182 30.8261C21.2182 29.7647 21.6498 23.8648 19.148 23.8648C16.6462 23.8648 17.079 29.7647 17.079 30.8261C17.079 31.8874 16.3374 32.4838 15.1373 31.499C13.9359 30.5142 13.3116 26.1406 12.9397 24.1938C12.8823 23.8911 12.8101 23.6066 12.729 23.3392" stroke="white" stroke-linecap="round" stroke-linejoin="round"/>
<path d="M11.8669 21.2782C11.2629 20.042 10.6802 18.8492 10.7546 16.8407C10.8324 14.7567 11.4229 12.1393 13.6317 11.1247C16.822 9.65889 17.9895 11.6571 19.148 11.6571C20.3065 11.6571 21.4751 9.65889 24.6643 11.1247C24.8751 11.2218 25.07 11.3327 25.2526 11.4561" stroke="white" stroke-linecap="round" stroke-linejoin="round"/>
<path d="M17.0632 10.8231C19.7701 11.9908 20.5883 13.1584 20.5883 13.1584" stroke="white" stroke-linecap="round" stroke-linejoin="round"/>
<path d="M25.2527 11.4561C25.6978 10.7272 25.9356 9.59494 25.9716 8C26.0663 11.1008 26.8721 12.3918 28.3472 12.4718C27.6215 12.5209 27.0659 12.73 26.6748 13.0967C26.2421 13.5012 26.01 14.0987 25.9728 14.8859C25.8713 13.3378 25.078 12.5437 23.5916 12.4786C24.3083 12.4272 24.8605 12.0993 25.2527 11.4561Z" stroke="white" stroke-linecap="round" stroke-linejoin="round"/>
<path d="M10.001 25.237L9.98845 26.2389L9.97131 27.2455" stroke="white" stroke-linecap="round" stroke-linejoin="round"/>
<path d="M9 26.2264L9.98832 26.2389L10.9811 26.2561" stroke="white" stroke-linecap="round" stroke-linejoin="round"/>
<path d="M30.0212 13.4189L30.0086 14.4209L29.9915 15.4274" stroke="white" stroke-linecap="round" stroke-linejoin="round"/>
<path d="M29.0199 14.4083L30.0082 14.4209L30.9999 14.438" stroke="white" stroke-linecap="round" stroke-linejoin="round"/>
<path d="M11.8669 21.2782C12.1193 20.884 12.2568 20.3813 12.2839 19.7712C12.3909 21.4107 13.2373 22.2459 14.806 22.3167C13.8244 22.383 13.1347 22.7246 12.729 23.3392C12.4653 23.7368 12.3222 24.2487 12.2951 24.8736C12.1881 23.2341 11.3418 22.3978 9.77307 22.3281C10.7693 22.2619 11.4646 21.91 11.8669 21.2793V21.2782Z" stroke="white" stroke-linecap="round" stroke-linejoin="round"/>
</svg>
