<svg width="40" height="40" viewBox="0 0 40 40" fill="none" xmlns="http://www.w3.org/2000/svg">
<rect width="40" height="40" rx="20" fill="#C36800"/>
<path d="M23.4657 15.611C24.5048 15.611 25.553 13.9028 28.4146 15.1559C30.3958 16.0241 30.9245 18.2606 30.9942 20.042C31.1074 22.9465 29.5305 23.8567 29.0352 26.3276C28.7017 27.9918 28.1417 31.7304 27.0642 32.5722C25.9866 33.4131 25.3225 32.9043 25.3225 31.996C25.3225 31.0877 25.7097 26.0454 23.4657 26.0454C21.2217 26.0454 21.6098 31.0887 21.6098 31.996C21.6098 32.9033 20.9447 33.4131 19.8682 32.5722C18.7907 31.7304 18.2307 27.9918 17.8971 26.3276C17.4018 23.8557 15.825 22.9465 15.9382 20.042C15.9988 18.4725 16.4173 16.5505 17.8698 15.5211C18.0659 15.3815 18.2812 15.2594 18.5178 15.1549C21.3794 13.9019 22.4266 15.61 23.4657 15.61V15.611Z" stroke="white" stroke-linecap="round" stroke-linejoin="round"/>
<path d="M21.5957 14.899C24.0237 15.8971 24.7575 16.8952 24.7575 16.8952" stroke="white" stroke-linecap="round" stroke-linejoin="round"/>
<path d="M23.4616 18.8163C22.5761 18.8163 20.4474 17.8416 19.0686 18.7303C18.9099 18.8329 18.7603 18.9598 18.6249 19.1161C17.2633 20.6816 17.8233 22.3654 18.6047 23.8489C19.5953 25.726 19.2425 31.3602 20.4787 30.2615C21.1115 29.6989 19.0565 24.6976 23.4606 24.6976" stroke="white" stroke-linecap="round" stroke-linejoin="round"/>
<path d="M23.4615 18.8163C24.4481 18.8163 26.9832 17.6043 28.2983 19.1161C29.6598 20.6817 29.0999 22.3654 28.3175 23.8489C27.3279 25.726 27.6807 31.3602 26.4434 30.2615C25.8107 29.699 27.8657 24.6976 23.4615 24.6976" stroke="white" stroke-linecap="round" stroke-linejoin="round"/>
<path d="M20.1482 24.8851C19.9491 22.5421 19.5771 20.502 19.0687 18.7303C18.727 17.5437 18.3247 16.4782 17.8699 15.5211C16.7014 13.0619 15.1892 11.3304 13.5072 10.1486" stroke="white" stroke-linecap="round" stroke-linejoin="round"/>
<path d="M12.3286 10.425L9.11822 8.37897C8.99693 8.30182 8.96357 8.14458 9.04342 8.02738L9.66709 7.11423C9.74695 6.99703 9.90969 6.9648 10.031 7.04196L13.2423 9.08801C13.6082 9.32143 13.7204 9.78631 13.5072 10.1496C13.4981 10.1662 13.489 10.1809 13.4779 10.1965C13.3192 10.4299 13.0543 10.5569 12.7854 10.5569C12.6298 10.5569 12.4711 10.5139 12.3306 10.425H12.3286Z" stroke="white" stroke-linecap="round" stroke-linejoin="round"/>
</svg>
