<svg xmlns="http://www.w3.org/2000/svg" width="20.001" height="20" viewBox="0 0 20.001 20"><defs><style>.a{fill:#fff;}</style></defs><g transform="translate(-5407.595 -3126.58)"><path class="a" d="M5427.6,3134.08h0v-2.5a2,2,0,0,0-2-2h-1v-1.5a1.5,1.5,0,0,0-3,0v1.5h-8v-1.5a1.5,1.5,0,0,0-3,0v1.5h-1a2,2,0,0,0-2,2v13a2,2,0,0,0,2,2h16a2,2,0,0,0,2-2v-9.5h0Zm-5-6a.5.5,0,0,1,1,0v4a.5.5,0,0,1-1,0v-4Zm-11,0a.5.5,0,0,1,1,0v4a.5.5,0,0,1-1,0v-4Zm-2,2.5h1v1.5a1.5,1.5,0,0,0,3,0v-1.5h8v1.5a1.5,1.5,0,0,0,3,0v-1.5h1a1,1,0,0,1,1,1v2.5h-18v-2.5A1,1,0,0,1,5409.6,3130.58Zm17,14a1,1,0,0,1-1,1h-16a1,1,0,0,1-1-1v-9.5h18Z"/><path class="a" d="M5416.316,3143.616a.5.5,0,0,1-.413-.218l-2.28-3.344a.5.5,0,0,1,.826-.564l1.837,2.694a21.771,21.771,0,0,1,4.439-5.059.5.5,0,1,1,.622.783,20.892,20.892,0,0,0-4.594,5.452.5.5,0,0,1-.414.256Z"/></g></svg>