<svg xmlns="http://www.w3.org/2000/svg" width="90" height="16" viewBox="0 0 90 16"><defs><style>.a{fill:#dbd7ce;}</style></defs><g transform="translate(-4069.385 -4570.855)"><rect class="a" width="25.909" height="1" transform="translate(4069.385 4578.405)"/><rect class="a" width="25.909" height="1" transform="translate(4133.476 4578.663)"/><path class="a" d="M4097.651,4586.855a1.56,1.56,0,0,1-1.149-.534,2.776,2.776,0,0,1-.677-1.92,4.9,4.9,0,0,1,.351-1.669,7.931,7.931,0,0,1,1.2-2.12c-.235-.427-.471-.864-.661-1.293a13.065,13.065,0,0,1-1.423.086h0a.5.5,0,0,1,0-1c.373,0,.752-.022,1.13-.06a2.12,2.12,0,0,1,.226-1.446,1.356,1.356,0,0,1,1.151-.615,1.372,1.372,0,0,1,1.4,1.035,1.387,1.387,0,0,1-.659,1.607,2.562,2.562,0,0,1-.772.274c.1.206.211.417.327.632a7.217,7.217,0,0,1,1.256-.962,11.812,11.812,0,0,1,1.55-.813q.412-.174.837-.309a8.822,8.822,0,0,1,1.26-.305.5.5,0,0,1,.58.5q0,1,0,2a4.212,4.212,0,0,1,1.6-2.342,1.123,1.123,0,0,1,.91-.029c1,.405,1.023,2.019,1.041,3.315,0,.27.006.528.02.722.016-.026.03-.051.044-.074.214-.36.41-.735.606-1.109a15.309,15.309,0,0,1,1.11-1.888,2.934,2.934,0,0,1,1.053-.949.784.784,0,0,1,.809,0,.891.891,0,0,1,.362.635,7.653,7.653,0,0,1,.061,1.3,4.525,4.525,0,0,0,.157,1.555.529.529,0,0,0,.158.265c.013,0,.09,0,.334-.172a12.043,12.043,0,0,0,2.007-1.822l.242-.263a4.968,4.968,0,0,0,1.072-1.462.5.5,0,0,1,.967.212c-.092,1.2.017,3.088.547,3.517a1.5,1.5,0,0,0,2.031-.315,5.437,5.437,0,0,0,1.749-3.558l.029-.812c.029-.848.061-1.656.113-2.39a8.76,8.76,0,0,1,.128-1.32,5.817,5.817,0,0,1,.474-1.834.5.5,0,0,1,.922.377,13.835,13.835,0,0,0-.41,1.627c-.047.368-.084.768-.114,1.176-.009.289-.009.6-.008.964s0,.814-.009,1.34l-.017.671a9.223,9.223,0,0,0,.562,4.409c.2.38.429.567.555.581.082,0,.2-.1.256-.167a16.625,16.625,0,0,0,2.229-3.343h0a.5.5,0,0,1,.236-.727c.342-.954.943-2.183,1.959-2.22a1.114,1.114,0,0,1,1.079.527,1.909,1.909,0,0,1-.165,1.829,2.413,2.413,0,0,1-1.809.787c.027.066.055.136.083.212.343.912.72,1.446,1.119,1.587.529.183,1.274-.256,2.14-.767a7.255,7.255,0,0,1,3.669-1.324.5.5,0,0,1,0,1,6.5,6.5,0,0,0-3.161,1.185c-1.036.612-2.015,1.19-2.981.849a2.971,2.971,0,0,1-1.588-1.845,23.448,23.448,0,0,1-2.052,2.9,1.26,1.26,0,0,1-1.125.51,1.925,1.925,0,0,1-1.328-1.1,5.9,5.9,0,0,1-.6-1.981,7.3,7.3,0,0,1-1.24,1.58,2.445,2.445,0,0,1-3.356.374,3.947,3.947,0,0,1-.925-2.687c-.1.111-.2.219-.3.324l-.233.252a13.02,13.02,0,0,1-2.172,1.969,1.4,1.4,0,0,1-1.22.305,1.3,1.3,0,0,1-.789-.876,5.336,5.336,0,0,1-.215-1.9c0-.31.006-.606-.019-.89a2.349,2.349,0,0,0-.457.494,14.284,14.284,0,0,0-1.034,1.765c-.2.391-.409.78-.632,1.155a1.913,1.913,0,0,1-.549.652.816.816,0,0,1-.593.154c-.18-.027-.609-.167-.728-.885a7.82,7.82,0,0,1-.054-1.065c-.01-.672-.031-2.246-.415-2.4a.124.124,0,0,0-.115.008c-.227.1-.707.582-1.371,2.592a20.758,20.758,0,0,0-.66,2.461.51.51,0,0,1-.539.4.5.5,0,0,1-.451-.5v-1.3q0-1.8,0-3.609c-.177.044-.356.1-.535.152q-.381.122-.753.278a10.926,10.926,0,0,0-1.421.746,6.36,6.36,0,0,0-1.142.888c-.044.043-.088.087-.131.132.815,1.509,1.558,3.187.664,4.958a2.366,2.366,0,0,1-.768.888A1.491,1.491,0,0,1,4097.651,4586.855Zm.254-5.274a6.865,6.865,0,0,0-.793,1.5,3.9,3.9,0,0,0-.287,1.326,1.781,1.781,0,0,0,.415,1.235.494.494,0,0,0,.69.116,1.376,1.376,0,0,0,.434-.51C4098.98,4584.031,4098.551,4582.828,4097.9,4581.581Zm-.051-4.3h-.017a.377.377,0,0,0-.348.158,1.253,1.253,0,0,0-.071.8,1.779,1.779,0,0,0,.626-.188.383.383,0,0,0,.191-.463A.4.4,0,0,0,4097.854,4577.283Zm29.568-.472h-.025c-.139.006-.459.145-.878,1.124a1.763,1.763,0,0,0,.9-.28,1.051,1.051,0,0,0,.163-.8C4127.562,4576.821,4127.488,4576.811,4127.422,4576.811Z"/><path class="a" d="M4115.808,4576.332a.523.523,0,0,1-.077-.006.5.5,0,0,1-.418-.57c.091-.594.272-1.545.272-1.545l.983.187s-.178.929-.267,1.509A.5.5,0,0,1,4115.808,4576.332Z"/></g></svg>