<svg xmlns="http://www.w3.org/2000/svg" width="16" height="16" viewBox="0 0 16 16"><defs><style>.a{fill:#d88c32;}</style></defs><path class="a" d="M1233.443,2731.757c2.136,0,2.389.008,3.232.047a4.428,4.428,0,0,1,1.486.276,2.645,2.645,0,0,1,1.518,1.517,4.415,4.415,0,0,1,.276,1.486c.039.844.047,1.1.047,3.232s-.008,2.39-.047,3.234a4.414,4.414,0,0,1-.276,1.485,2.653,2.653,0,0,1-1.518,1.519,4.44,4.44,0,0,1-1.486.274c-.844.039-1.1.047-3.232.047s-2.389-.008-3.233-.047a4.443,4.443,0,0,1-1.486-.274,2.656,2.656,0,0,1-1.518-1.519,4.414,4.414,0,0,1-.276-1.485c-.039-.844-.047-1.1-.047-3.234s.008-2.388.047-3.232a4.415,4.415,0,0,1,.276-1.486,2.648,2.648,0,0,1,1.518-1.517,4.431,4.431,0,0,1,1.486-.276c.844-.039,1.1-.047,3.233-.047m0-1.442c-2.173,0-2.445.01-3.3.048a5.872,5.872,0,0,0-1.942.373,4.092,4.092,0,0,0-2.34,2.34,5.876,5.876,0,0,0-.372,1.942c-.039.853-.048,1.125-.048,3.3s.009,2.445.048,3.3a5.893,5.893,0,0,0,.372,1.942,4.1,4.1,0,0,0,2.34,2.34,5.914,5.914,0,0,0,1.942.371c.853.039,1.126.047,3.3.047s2.445-.008,3.3-.047a5.913,5.913,0,0,0,1.942-.371,4.1,4.1,0,0,0,2.34-2.34,5.9,5.9,0,0,0,.372-1.942c.038-.854.048-1.126.048-3.3s-.01-2.445-.048-3.3a5.882,5.882,0,0,0-.372-1.942,4.086,4.086,0,0,0-2.34-2.34,5.871,5.871,0,0,0-1.942-.373c-.853-.038-1.125-.048-3.3-.048Z" transform="translate(-1225.443 -2730.315)"/><path class="a" d="M1236.848,2737.614a4.108,4.108,0,1,0,4.108,4.108A4.108,4.108,0,0,0,1236.848,2737.614Zm0,6.774a2.667,2.667,0,1,1,2.667-2.667A2.666,2.666,0,0,1,1236.848,2744.388Z" transform="translate(-1228.848 -2733.721)"/><circle class="a" cx="0.96" cy="0.96" r="0.96" transform="translate(11.31 2.77)"/></svg>