<svg width="270" height="266" viewBox="0 0 270 266" fill="none" xmlns="http://www.w3.org/2000/svg">
<path d="M169.884 19.18H171.528C171.468 19.624 171.432 20.212 171.432 21.004C171.432 22.048 171.528 23.488 171.66 24.22C171.864 25.468 172.248 26.236 172.632 26.236C172.812 26.236 172.98 26.056 173.124 25.72C173.412 25.072 173.628 24.352 173.76 23.548C174.18 24.028 174.372 24.208 174.96 24.64C174.336 26.98 173.64 27.952 172.62 27.952C171.816 27.952 171.168 27.364 170.688 26.212C170.196 25.012 169.98 23.272 169.932 19.948C169.92 19.528 169.92 19.444 169.884 19.18ZM175.944 20.32L177.204 19.72C178.716 21.532 179.556 23.536 179.904 26.176L178.416 26.74C178.344 25.612 178.068 24.364 177.648 23.272C177.24 22.18 176.664 21.208 175.944 20.32Z" fill="#C36800"/>
<path d="M159.768 20.056H160.692C160.86 19.768 160.884 19.744 160.992 19.54H160.512C160.116 19.54 159.876 19.552 159.588 19.588V18.508C159.924 18.556 160.188 18.568 160.68 18.568H161.448C161.592 18.22 161.64 18.088 161.724 17.776L163.044 17.908C162.996 17.992 162.9 18.208 162.756 18.568H164.484C165.048 18.568 165.324 18.556 165.696 18.52C165.66 18.892 165.648 19.168 165.648 19.66V20.056H165.924C166.344 20.056 166.56 20.044 166.86 19.996V21.1C166.524 21.052 166.236 21.04 165.768 21.04H159.936C159.348 21.04 159.156 21.052 158.796 21.088V20.38L157.944 21.172C157.104 20.08 156.78 19.72 155.94 18.976L156.888 18.076C157.776 18.856 158.22 19.312 158.796 20.008C159.06 20.044 159.216 20.056 159.768 20.056ZM162.048 20.056H164.412V19.54H162.324C162.216 19.744 162.204 19.768 162.048 20.056ZM163.032 23.584H160.644C160.284 23.584 159.972 23.596 159.744 23.608C159.768 23.344 159.78 23.152 159.78 22.732V22.288C159.78 21.916 159.768 21.64 159.744 21.436C159.984 21.46 160.176 21.472 160.644 21.472H165.144C165.636 21.472 165.828 21.46 166.056 21.436C166.044 21.544 166.044 21.544 166.032 21.724C166.02 21.832 166.02 22.036 166.02 22.276V22.744C166.02 22.888 166.032 23.176 166.056 23.608C165.648 23.584 165.552 23.584 165.168 23.584H164.268V24.016H165.36C165.96 24.016 166.164 24.004 166.428 23.968V25C166.104 24.964 165.852 24.952 165.384 24.952H164.268V25.528H165.684C166.2 25.528 166.476 25.516 166.788 25.468V26.56C166.488 26.524 166.224 26.512 165.672 26.512H164.268C164.28 26.872 164.292 27.028 164.34 27.292H162.96C162.996 27.004 163.008 26.872 163.02 26.512H160.092C159.576 26.512 159.336 26.524 159.072 26.56V25.48C159.276 25.516 159.48 25.528 159.9 25.528H160.2V24.952C159.78 24.952 159.648 24.964 159.372 24.988V23.968C159.612 24.004 159.816 24.016 160.356 24.016H163.032V23.584ZM161.424 24.952V25.528H163.032V24.952H161.424ZM160.992 22.264V22.792H164.772V22.264H160.992ZM155.928 23.788V22.492C156.24 22.54 156.444 22.552 156.876 22.552H157.776C158.196 22.552 158.412 22.54 158.688 22.504C158.64 22.852 158.64 23.092 158.64 23.8V26.392C158.832 26.836 159.12 27.1 159.6 27.304C160.008 27.484 160.764 27.556 162.108 27.556C164.328 27.556 165.576 27.508 167.16 27.34C167.016 27.664 166.932 28 166.812 28.684C165.792 28.732 163.932 28.768 162.804 28.768C161.064 28.768 160.068 28.696 159.54 28.528C158.928 28.336 158.472 28.012 158.016 27.412C157.368 28.012 157.368 28.012 156.276 28.852L155.688 27.496C156.18 27.292 156.792 26.86 157.38 26.308V23.728H156.732C156.408 23.728 156.24 23.74 155.928 23.788Z" fill="#C36800"/>
<path d="M149.136 20.308C148.908 22.192 148.488 23.848 147.888 25.204C147.204 26.752 146.436 27.46 145.452 27.46C144.084 27.46 143.1 26.068 143.1 24.136C143.1 22.816 143.568 21.58 144.42 20.644C145.428 19.54 146.844 18.964 148.548 18.964C151.428 18.964 153.3 20.716 153.3 23.416C153.3 25.492 152.22 27.148 150.384 27.892C149.808 28.132 149.34 28.252 148.5 28.396C148.296 27.76 148.152 27.496 147.768 26.992C148.872 26.848 149.592 26.656 150.156 26.332C151.2 25.756 151.824 24.616 151.824 23.332C151.824 22.18 151.308 21.244 150.348 20.668C149.976 20.452 149.664 20.356 149.136 20.308ZM147.672 20.32C147.048 20.392 146.616 20.56 146.124 20.908C145.116 21.628 144.492 22.864 144.492 24.148C144.492 25.132 144.912 25.912 145.44 25.912C145.836 25.912 146.244 25.408 146.676 24.376C147.132 23.296 147.528 21.676 147.672 20.32Z" fill="#C36800"/>
<path d="M132.948 24.712H132.48C132.06 24.712 131.832 24.724 131.58 24.772V23.56C131.832 23.608 132.06 23.62 132.48 23.62H133.092C133.116 23.128 133.128 22.864 133.128 22.204H132.636C132.204 22.204 132 22.216 131.724 22.264V21.064C131.964 21.112 132.18 21.124 132.636 21.124H133.128V20.752C133.128 20.44 133.104 20.188 133.068 19.888H134.376C134.328 20.116 134.316 20.32 134.316 20.68V21.124H135.744V20.764C135.744 20.38 135.732 20.152 135.684 19.888H137.004C136.956 20.14 136.944 20.368 136.944 20.764V21.124H137.34C137.82 21.124 138.024 21.112 138.288 21.064V22.264C138.024 22.216 137.796 22.204 137.34 22.204H136.944V23.62H137.508C137.964 23.62 138.216 23.608 138.456 23.56V24.772C138.192 24.724 137.964 24.712 137.508 24.712H136.944V25.792C136.944 26.224 136.956 26.536 137.004 26.836H135.684C135.732 26.512 135.744 26.212 135.744 25.792V24.712H134.16C133.944 25.768 133.608 26.38 132.864 27.028C132.504 26.776 132.24 26.632 131.724 26.404C132.456 25.852 132.756 25.444 132.948 24.712ZM135.744 22.204H134.316C134.304 22.876 134.292 23.14 134.268 23.62H135.744V22.204ZM140.196 29.02H138.828V28.336H131.16V29.02H129.792C129.84 28.648 129.864 28.156 129.864 27.46V19.756C129.864 19.192 129.84 18.76 129.792 18.316C130.236 18.364 130.62 18.376 131.208 18.376H138.78C139.368 18.376 139.752 18.364 140.196 18.316C140.148 18.76 140.124 19.144 140.124 19.756V27.472C140.124 28.192 140.148 28.672 140.196 29.02ZM131.16 19.528V27.184H138.828V19.528H131.16Z" fill="#C36800"/>
<path d="M118.98 19.696H118.32C117.96 20.188 117.672 20.524 117.072 21.1C116.688 20.596 116.628 20.524 116.22 20.212C116.784 19.744 117.084 19.444 117.396 18.976C117.708 18.496 117.9 18.1 117.996 17.704L119.28 17.932C119.112 18.28 119.112 18.28 118.956 18.616H120.66C121.176 18.616 121.5 18.592 121.824 18.544V19.48C122.232 18.928 122.544 18.268 122.652 17.728L123.936 17.944C123.756 18.376 123.756 18.376 123.648 18.628H125.904C126.6 18.628 126.876 18.616 127.212 18.556V19.768C126.852 19.72 126.492 19.708 125.952 19.708H125.028C125.292 20.152 125.46 20.44 125.532 20.596L124.344 20.872C124.164 20.452 124.02 20.164 123.744 19.708H123.06C122.712 20.236 122.472 20.512 121.968 21.028C121.728 20.728 121.428 20.44 121.092 20.2C121.392 19.936 121.476 19.876 121.608 19.732C121.38 19.708 121.164 19.696 120.948 19.696H120.228C120.384 19.948 120.468 20.104 120.708 20.524L119.916 20.752C119.904 20.932 119.904 20.968 119.904 21.208H121.26C121.68 21.208 121.908 21.196 122.136 21.16V22.228C121.896 22.192 121.656 22.18 121.26 22.18H119.904V22.708H120.792C121.428 22.708 121.632 22.696 121.86 22.672C121.836 22.96 121.824 23.152 121.824 23.716V25.216C121.824 25.804 121.836 26.02 121.86 26.236C121.644 26.224 121.356 26.212 120.876 26.212H119.904V26.74H121.248C121.656 26.74 121.908 26.728 122.124 26.692V27.796C121.728 27.748 121.644 27.748 121.26 27.748H119.904V27.844C119.904 28.336 119.928 28.66 119.976 28.972H118.704C118.752 28.66 118.776 28.348 118.776 27.844V27.748H117.228C116.904 27.748 116.856 27.748 116.34 27.808V26.668C116.592 26.716 116.88 26.74 117.216 26.74H118.776V26.212H117.888C117.336 26.212 117.156 26.212 116.82 26.248C116.844 25.948 116.856 25.66 116.856 25.192V23.74C116.856 23.188 116.844 23.02 116.82 22.672C117.192 22.708 117.312 22.708 117.9 22.708H118.776V22.18H117.216C116.88 22.18 116.688 22.192 116.4 22.228V21.148C116.664 21.196 116.868 21.208 117.228 21.208H118.776C118.776 20.944 118.752 20.692 118.716 20.512H119.4C119.292 20.296 119.148 20.008 118.98 19.696ZM118.776 23.524H117.924V24.052H118.776V23.524ZM119.904 23.524V24.052H120.756V23.524H119.904ZM118.776 24.844H117.924V25.396H118.776V24.844ZM119.904 24.844V25.396H120.756V24.844H119.904ZM125.568 22.312H123.792V27.268C123.792 27.496 123.828 27.568 123.972 27.616C124.08 27.664 124.38 27.688 124.776 27.688C125.544 27.688 125.772 27.64 125.904 27.484C126.024 27.316 126.084 26.848 126.084 25.948C126.6 26.212 126.888 26.32 127.296 26.392C127.248 27.496 127.188 27.868 126.984 28.216C126.864 28.42 126.696 28.552 126.42 28.66C126.156 28.768 125.7 28.816 124.92 28.816C123.636 28.816 123.312 28.78 123.012 28.612C122.7 28.432 122.58 28.204 122.58 27.784V22.192C122.58 21.664 122.568 21.376 122.52 21.136C122.748 21.172 123.024 21.184 123.504 21.184H125.82C126.288 21.184 126.588 21.172 126.828 21.136C126.792 21.4 126.78 21.628 126.78 22.408C126.78 23.74 126.732 24.676 126.636 25.072C126.516 25.624 126.132 25.852 125.352 25.852C125.268 25.852 124.992 25.84 124.524 25.816C124.464 25.3 124.404 25.06 124.248 24.64C124.62 24.7 124.968 24.724 125.184 24.724C125.412 24.724 125.46 24.652 125.508 24.268C125.544 23.956 125.568 23.452 125.568 22.312Z" fill="#C36800"/>
<path d="M108.3 27.22V19.708H105.156C104.592 19.708 104.136 19.732 103.632 19.78V18.424C104.088 18.472 104.556 18.496 105.144 18.496H112.092C112.656 18.496 113.124 18.472 113.616 18.424V19.78C113.136 19.732 112.62 19.708 112.092 19.708H109.68V22.636H111.732C112.308 22.636 112.692 22.612 113.076 22.564V23.896C112.704 23.848 112.26 23.824 111.732 23.824H109.68V27.22H112.428C113.028 27.22 113.532 27.196 114.012 27.136V28.528C113.544 28.468 113.076 28.444 112.44 28.444H104.772C104.172 28.444 103.704 28.468 103.188 28.528V27.136C103.632 27.208 103.956 27.22 104.748 27.22H105V23.344C105 22.72 104.976 22.228 104.916 21.784H106.44C106.38 22.204 106.356 22.708 106.356 23.332V27.22H108.3Z" fill="#C36800"/>
<path d="M91.6321 20.584H91.4041C91.1881 21.208 91.0321 21.532 90.6601 22.12C90.4201 21.772 90.0961 21.436 89.7721 21.172C90.2761 20.416 90.5641 19.648 90.7681 18.568C90.7921 18.448 90.8161 18.208 90.8521 17.872L92.1121 18.1C92.0521 18.256 92.0401 18.304 91.9321 18.748C91.8841 18.928 91.8481 19.06 91.7521 19.432H92.6761C93.1441 19.432 93.3481 19.42 93.5881 19.384V20.608C93.3481 20.596 93.2161 20.584 92.8201 20.584C92.7961 21.892 92.7961 21.892 92.7601 22.552H93.0001C93.3001 22.552 93.5521 22.54 93.7321 22.516C93.6241 22.348 93.5641 22.288 93.3721 22.096C94.2841 21.676 94.6921 21.388 95.2321 20.824H94.8601C94.3321 20.824 94.1041 20.836 93.8041 20.872V19.78C94.1521 19.804 94.3441 19.816 94.8361 19.816H95.9761C96.0961 19.6 96.1561 19.492 96.2521 19.276C95.6761 19.312 95.2561 19.324 94.1881 19.336C93.9721 18.784 93.9481 18.724 93.7441 18.352C94.1761 18.364 94.5001 18.376 94.6681 18.376C96.6601 18.376 98.7721 18.124 99.5041 17.8L100.236 18.82C100.116 18.844 100.104 18.844 99.9361 18.868C99.2881 18.988 98.3281 19.12 97.5601 19.192C97.4401 19.444 97.3921 19.528 97.2481 19.816H99.3841C99.9601 19.816 100.404 19.792 100.704 19.756V20.884C100.332 20.836 99.9481 20.824 99.4201 20.824H98.7481C99.2401 21.328 99.9721 21.712 101.04 22.036C100.776 22.42 100.716 22.564 100.5 23.164C99.9001 22.912 99.5641 22.732 99.1081 22.432V22.852C99.1081 23.224 99.1081 23.38 99.1321 23.596C98.9041 23.584 98.6881 23.572 98.3041 23.572H95.8441C95.4721 23.572 95.2441 23.584 95.0161 23.596C95.0401 23.356 95.0521 23.2 95.0521 22.852V22.42C94.6921 22.708 94.5481 22.816 94.0801 23.104C93.9841 22.888 93.9481 22.816 93.8041 22.612V23.764C93.6001 23.728 93.3241 23.716 92.9761 23.716H92.6521C92.6281 23.92 92.6161 24.004 92.5681 24.316C92.8801 24.88 93.3961 25.54 93.8761 25.972V24.952C93.8761 24.556 93.8521 24.232 93.8161 23.932C94.0921 23.968 94.4641 23.992 95.0041 23.992H99.3241C99.8881 23.992 100.248 23.98 100.536 23.932C100.5 24.268 100.488 24.724 100.488 25.156V27.676C100.488 28.384 100.392 28.612 100.044 28.756C99.8041 28.876 99.4321 28.912 98.6521 28.912C98.5321 28.912 98.3521 28.912 98.1121 28.9C98.0881 28.48 98.0401 28.276 97.9201 27.868H96.6841V28.336H95.6401C95.6641 28.168 95.6761 27.82 95.6761 27.544V26.176C95.6761 25.816 95.6641 25.624 95.6521 25.408C95.8081 25.444 95.9281 25.444 96.3361 25.444H98.0161C98.4001 25.444 98.5201 25.444 98.6761 25.408C98.6521 25.612 98.6521 25.684 98.6521 26.14V27.196C98.6521 27.496 98.6521 27.592 98.6521 27.736H98.9041C98.9161 27.736 98.9521 27.736 98.9641 27.736C99.2281 27.736 99.2761 27.688 99.2761 27.412V25H95.0761V27.676C95.0761 28.468 95.0761 28.684 95.1241 29.008H93.8041C93.8521 28.648 93.8761 28.216 93.8761 27.496V26.176C93.6601 26.464 93.5281 26.704 93.3121 27.22C92.8441 26.728 92.6041 26.392 92.2321 25.756C91.8841 26.86 91.4401 27.604 90.5761 28.54C90.3961 28.108 90.1561 27.772 89.7241 27.352C90.7681 26.404 91.1881 25.54 91.4521 23.716H90.9241C90.5761 23.716 90.2881 23.74 89.9881 23.776V22.492C90.2881 22.54 90.5761 22.552 91.0081 22.552H91.5721C91.6081 22 91.6201 21.532 91.6321 20.584ZM97.3681 20.824H96.6241C96.4441 21.076 96.3601 21.172 96.1801 21.376H97.8481C97.6561 21.172 97.5601 21.064 97.3681 20.824ZM96.6721 26.272V26.968H97.6801V26.272H96.6721ZM96.1921 22.192V22.732H97.9561V22.192H96.1921Z" fill="#C36800"/>
<path d="M205.073 2.308C204.845 4.192 204.425 5.848 203.825 7.204C203.141 8.752 202.373 9.46 201.389 9.46C200.021 9.46 199.037 8.068 199.037 6.136C199.037 4.816 199.505 3.58 200.357 2.644C201.365 1.54 202.781 0.963997 204.485 0.963997C207.365 0.963997 209.237 2.716 209.237 5.416C209.237 7.492 208.157 9.148 206.321 9.892C205.745 10.132 205.277 10.252 204.437 10.396C204.233 9.76 204.089 9.496 203.705 8.992C204.809 8.848 205.529 8.656 206.093 8.332C207.137 7.756 207.761 6.616 207.761 5.332C207.761 4.18 207.245 3.244 206.285 2.668C205.913 2.452 205.601 2.356 205.073 2.308ZM203.609 2.32C202.985 2.392 202.553 2.56 202.061 2.908C201.053 3.628 200.429 4.864 200.429 6.148C200.429 7.132 200.849 7.912 201.377 7.912C201.773 7.912 202.181 7.408 202.613 6.376C203.069 5.296 203.465 3.676 203.609 2.32Z" fill="#C36800"/>
<path d="M191.713 10.144H190.297C190.237 9.76 190.045 9.196 189.769 8.524L188.041 4.408C187.813 3.868 187.705 3.544 187.429 2.572C187.477 3.208 187.525 4.192 187.525 4.456V8.392C187.525 9.22 187.549 9.676 187.621 10.144H185.941C186.013 9.664 186.037 9.196 186.037 8.392V2.368C186.037 1.588 186.013 1.084 185.941 0.591995H188.137C188.221 1.012 188.377 1.516 188.581 2.02L191.017 7.972L193.441 2.02C193.681 1.432 193.789 1.048 193.873 0.591995H196.081C196.009 1.16799 195.985 1.564 195.985 2.368V8.392C195.985 9.268 196.009 9.7 196.081 10.144H194.401C194.473 9.652 194.497 9.22 194.497 8.392V4.408C194.545 3.364 194.581 2.752 194.593 2.572C194.437 3.22 194.209 3.892 194.041 4.324L192.241 8.548C192.001 9.112 191.785 9.784 191.713 10.144Z" fill="#C36800"/>
<path d="M181.67 6.928L183.386 7.228C183.158 8.092 182.942 8.56 182.582 9.028C181.898 9.868 180.746 10.336 179.306 10.336C177.998 10.336 176.954 9.94 176.222 9.184C175.382 8.308 174.914 6.952 174.914 5.416C174.914 3.832 175.418 2.44 176.318 1.54C177.038 0.808001 178.118 0.400002 179.318 0.400002C180.254 0.400002 180.962 0.580001 181.622 0.976001C182.162 1.312 182.594 1.756 182.894 2.284C183.038 2.536 183.122 2.752 183.266 3.208L181.598 3.592C181.43 3.064 181.322 2.836 181.082 2.56C180.674 2.068 180.074 1.816 179.33 1.816C177.626 1.816 176.594 3.148 176.594 5.356C176.594 7.552 177.65 8.92 179.33 8.92C180.17 8.92 180.89 8.596 181.274 8.032C181.478 7.732 181.574 7.48 181.67 6.928Z" fill="#C36800"/>
<path d="M173.095 8.608V10.228C172.663 10.168 172.243 10.144 171.391 10.144H167.839C167.167 10.144 166.747 10.156 166.315 10.18C166.387 9.736 166.411 9.29199 166.411 8.59599V2.368C166.411 1.54 166.387 1.108 166.315 0.591995H168.127C168.055 1.084 168.031 1.48 168.031 2.356V8.692H171.391C172.207 8.692 172.591 8.668 173.095 8.608Z" fill="#C36800"/>
<path d="M155.839 0.388001L157.399 0.136002C157.447 0.940001 157.807 2.668 158.191 3.892C158.971 3.604 158.971 3.604 161.299 2.836C161.515 2.764 161.575 2.74 161.755 2.656L162.271 4.168C161.227 4.372 159.655 4.828 158.311 5.32C156.559 5.968 155.683 6.736 155.683 7.6C155.683 8.476 156.499 8.848 158.431 8.848C159.931 8.848 161.407 8.668 162.307 8.356L162.439 10C162.175 10 162.115 10.012 161.467 10.084C160.171 10.216 159.499 10.264 158.659 10.264C156.991 10.264 155.947 10.06 155.179 9.604C154.519 9.208 154.135 8.464 154.135 7.6C154.135 6.796 154.519 6.028 155.203 5.452C155.671 5.056 156.055 4.816 156.835 4.42C156.535 3.448 156.331 2.644 156.031 1.168C155.911 0.592001 155.899 0.568002 155.839 0.388001Z" fill="#C36800"/>
<path d="M143.887 10.54H142.243C142.303 10.156 142.315 9.832 142.315 9.196V1.504C142.315 0.915999 142.291 0.603999 142.243 0.279999H143.887C143.839 0.639999 143.839 0.795999 143.839 1.54V3.772C145.483 4.348 147.367 5.224 149.287 6.304L148.447 7.72C147.451 7.036 146.203 6.352 144.199 5.428C143.923 5.296 143.887 5.284 143.791 5.224C143.827 5.56 143.839 5.704 143.839 6.04V9.208C143.839 9.832 143.851 10.144 143.887 10.54Z" fill="#C36800"/>
<path d="M135.595 1.564L136.363 2.32C136.243 2.5 136.195 2.608 136.063 3.04C135.511 4.864 134.659 6.484 133.603 7.672C132.499 8.932 131.179 9.868 129.331 10.72C128.995 10.12 128.839 9.916 128.311 9.46C129.511 8.968 130.183 8.608 130.939 8.044C132.655 6.772 133.783 5.128 134.443 2.98L130.831 3.04C130.099 4.204 129.163 5.236 128.023 6.112C127.663 5.62 127.483 5.464 126.859 5.08C128.227 4.144 129.091 3.184 129.967 1.6C130.339 0.915999 130.531 0.447998 130.579 0.0159988L132.223 0.339998C132.151 0.447998 132.151 0.447998 132.019 0.711998C131.983 0.771998 131.983 0.771998 131.863 1.048C131.827 1.12 131.827 1.12 131.707 1.36C131.635 1.528 131.635 1.528 131.515 1.744C131.671 1.732 131.863 1.72 132.091 1.72L134.719 1.684C135.187 1.684 135.319 1.66 135.595 1.564Z" fill="#C36800"/>
<path d="M115.063 0.556L116.767 0.568C116.719 0.892 116.707 1.192 116.695 1.78L116.635 8.632C117.883 8.392 119.011 7.936 119.911 7.312C121.015 6.556 121.759 5.728 122.359 4.564C122.827 5.188 122.983 5.356 123.499 5.788C122.671 7.06 121.903 7.864 120.823 8.584C119.623 9.388 118.399 9.856 116.455 10.228C116.131 10.288 115.987 10.336 115.735 10.432L114.967 9.508C115.051 9.184 115.075 8.968 115.075 8.272L115.123 1.792C115.123 0.952 115.123 0.952 115.063 0.556Z" fill="#C36800"/>
<path d="M108.091 9.412H102.619C101.791 9.412 101.503 9.424 101.143 9.46V7.912C101.587 7.984 101.803 7.996 102.643 7.996H108.103V2.764H102.847C101.995 2.764 101.743 2.776 101.311 2.824V1.264C101.755 1.336 101.983 1.348 102.859 1.348H108.631C109.255 1.348 109.255 1.348 109.675 1.324C109.639 1.648 109.639 1.768 109.639 2.32V8.908C109.639 9.508 109.651 9.844 109.699 10.144H108.091V9.412Z" fill="#C36800"/>
<path d="M96.6908 0.82L97.4948 1.732C97.3268 1.936 97.3268 1.948 97.0148 2.572C96.5948 3.46 95.8988 4.36 95.1668 4.984C94.6868 5.404 94.2908 5.668 93.7268 5.98C93.3668 5.476 93.1868 5.296 92.6468 4.888C93.4508 4.528 93.9068 4.252 94.3988 3.784C94.8908 3.328 95.2628 2.836 95.5388 2.26H89.2388C88.3988 2.26 88.0988 2.272 87.6068 2.332V0.832C88.0628 0.904 88.4348 0.928 89.2628 0.928H95.5268C96.2468 0.928 96.3548 0.916 96.6908 0.82ZM90.9908 3.244H92.6228C92.5868 3.472 92.5868 3.484 92.5748 4.216C92.5268 6.268 92.2028 7.42 91.3868 8.464C90.6668 9.388 89.7908 10 88.2908 10.624C87.9788 9.976 87.8228 9.76 87.3428 9.256C88.3148 8.968 88.8548 8.704 89.4428 8.236C90.6668 7.264 91.0508 6.232 91.0508 3.964C91.0508 3.604 91.0388 3.496 90.9908 3.244Z" fill="#C36800"/>
<path d="M75.511 0.531998L77.143 0.543998C77.095 0.879997 77.095 0.987998 77.095 1.624V4.936C77.095 5.536 77.095 5.692 77.143 5.992H75.499C75.535 5.716 75.559 5.344 75.559 4.912V1.612C75.559 0.999997 75.547 0.843998 75.511 0.531998ZM80.923 0.555997H82.591C82.543 0.855998 82.531 0.987998 82.531 1.672V3.292C82.519 5.164 82.435 6.172 82.219 6.928C81.871 8.128 81.103 9.028 79.855 9.724C79.219 10.084 78.619 10.324 77.515 10.648C77.299 10.06 77.179 9.856 76.675 9.22C77.851 8.992 78.547 8.74 79.267 8.26C80.395 7.516 80.791 6.784 80.923 5.2C80.971 4.684 80.983 4.156 80.983 3.196V1.696C80.983 1.084 80.971 0.831997 80.923 0.555997Z" fill="#C36800"/>
<path d="M69.5949 1.564L70.3629 2.32C70.2429 2.5 70.1949 2.608 70.0629 3.04C69.5109 4.864 68.6589 6.484 67.6029 7.672C66.4989 8.932 65.1789 9.868 63.3309 10.72C62.9949 10.12 62.8389 9.916 62.3109 9.46C63.5109 8.968 64.1829 8.608 64.9389 8.044C66.6549 6.772 67.7829 5.128 68.4429 2.98L64.8309 3.04C64.0989 4.204 63.1629 5.236 62.0229 6.112C61.6629 5.62 61.4829 5.464 60.8589 5.08C62.2269 4.144 63.0909 3.184 63.9669 1.6C64.3389 0.915999 64.5309 0.447998 64.5789 0.0159988L66.2229 0.339998C66.1509 0.447998 66.1509 0.447998 66.0189 0.711998C65.9829 0.771998 65.9829 0.771998 65.8629 1.048C65.8269 1.12 65.8269 1.12 65.7069 1.36C65.6349 1.528 65.6349 1.528 65.5149 1.744C65.6709 1.732 65.8629 1.72 66.0909 1.72L68.7189 1.684C69.1869 1.684 69.3189 1.66 69.5949 1.564Z" fill="#C36800"/>
<path d="M14.4702 58.56C14.3502 58.74 14.3002 58.85 14.1702 59.28C13.6202 61.1 12.7702 62.72 11.7102 63.91C10.6102 65.17 9.29021 66.1 7.44021 66.96C7.10021 66.36 6.95021 66.16 6.42021 65.7C7.62021 65.21 8.29022 64.85 9.05022 64.28C10.7602 63.01 11.8902 61.37 12.5502 59.22L8.94021 59.28C8.21021 60.44 7.27021 61.48 6.13021 62.35C5.77021 61.86 5.59021 61.7 4.97021 61.32C6.34021 60.38 7.20021 59.42 8.08021 57.84C8.45021 57.16 8.64021 56.69 8.69021 56.26L10.3302 56.58C10.2835 56.6533 10.2169 56.7767 10.1302 56.95C10.1035 56.99 10.0502 57.1 9.97021 57.28L9.81021 57.59C9.76355 57.7033 9.70021 57.83 9.62021 57.97C9.78021 57.96 9.97021 57.95 10.2002 57.95L12.8302 57.91C13.3002 57.91 13.4302 57.89 13.7102 57.79L14.4802 58.54L14.4702 58.56Z" fill="#EF5274"/>
<path d="M19.8002 56.79C19.7502 57.12 19.7502 57.23 19.7502 57.87V61.18C19.7502 61.78 19.7502 61.93 19.8002 62.23H18.1602C18.2002 61.95 18.2202 61.58 18.2202 61.15V57.85C18.2202 57.24 18.2102 57.08 18.1702 56.77H19.8002V56.79ZM25.2402 56.8C25.1902 57.1 25.1802 57.23 25.1802 57.92V59.54C25.1702 61.41 25.0802 62.42 24.8702 63.17C24.5202 64.37 23.7502 65.27 22.5102 65.96C21.8702 66.32 21.2702 66.56 20.1702 66.88C19.9502 66.29 19.8302 66.09 19.3302 65.45C20.5002 65.22 21.2002 64.97 21.9202 64.49C23.0502 63.75 23.4402 63.02 23.5802 61.43C23.6302 60.91 23.6402 60.39 23.6402 59.43V57.93C23.6402 57.32 23.6302 57.07 23.5802 56.79H25.2502L25.2402 56.8Z" fill="#EF5274"/>
<path d="M33.8801 59.49C33.8401 59.72 33.8401 59.73 33.8301 60.46C33.7801 62.51 33.4601 63.66 32.6401 64.71C31.9201 65.63 31.0501 66.25 29.5501 66.87C29.2401 66.22 29.0801 66.01 28.6001 65.5C29.5701 65.21 30.1101 64.95 30.7001 64.48C31.9201 63.51 32.3101 62.48 32.3101 60.21C32.3101 59.85 32.3001 59.74 32.2501 59.49H33.8801ZM38.7501 57.98C38.5801 58.18 38.5801 58.2 38.2701 58.82C37.8501 59.71 37.1501 60.61 36.4201 61.23C35.9401 61.65 35.5401 61.91 34.9801 62.23C34.6201 61.73 34.4401 61.55 33.9001 61.14C34.7001 60.78 35.1601 60.51 35.6501 60.04C36.1401 59.58 36.5101 59.09 36.7901 58.52H30.4901C29.6501 58.52 29.3501 58.53 28.8601 58.59V57.09C29.3201 57.16 29.6901 57.19 30.5201 57.19H36.7801C37.5001 57.19 37.6101 57.18 37.9401 57.08L38.7401 57.99L38.7501 57.98Z" fill="#EF5274"/>
<path d="M7.13015 79.65C6.30015 79.65 6.01015 79.66 5.65015 79.7V78.15C6.09015 78.22 6.31015 78.23 7.15015 78.23H12.6101V73H7.36015C6.51015 73 6.26015 73.01 5.82015 73.06V71.5C6.26015 71.57 6.49015 71.58 7.37015 71.58H13.1401C13.5535 71.58 13.9001 71.5733 14.1801 71.56C14.1401 71.88 14.1401 72 14.1401 72.56V79.14C14.1401 79.74 14.1501 80.08 14.2001 80.38H12.5901V79.65H7.12015H7.13015Z" fill="#EF5274"/>
<path d="M20.0502 70.81C20.0002 71.13 19.9902 71.43 19.9802 72.02L19.9202 78.87C21.1702 78.63 22.3002 78.17 23.1902 77.55C24.2902 76.8 25.0402 75.97 25.6402 74.8C26.1102 75.42 26.2602 75.59 26.7802 76.02C25.9502 77.29 25.1902 78.09 24.1102 78.81C22.9102 79.61 21.6902 80.08 19.7402 80.45C19.4202 80.51 19.2702 80.56 19.0202 80.65L18.2502 79.73C18.3302 79.41 18.3602 79.19 18.3602 78.49L18.4102 72.01C18.4102 71.45 18.3902 71.0367 18.3502 70.77H20.0502V70.81Z" fill="#EF5274"/>
<path d="M38.8701 72.56C38.7501 72.74 38.7001 72.85 38.5701 73.28C38.0201 75.1 37.1701 76.72 36.1101 77.91C35.0101 79.17 33.6901 80.1 31.8401 80.96C31.5001 80.36 31.3501 80.16 30.8201 79.7C32.0201 79.21 32.6901 78.85 33.4501 78.28C35.1601 77.01 36.2901 75.37 36.9501 73.22L33.3401 73.28C32.6101 74.44 31.6701 75.48 30.5301 76.35C30.1701 75.86 29.9901 75.7 29.3701 75.32C30.7401 74.38 31.6001 73.42 32.4801 71.84C32.8501 71.16 33.0401 70.69 33.0901 70.26L34.7301 70.58C34.6835 70.6533 34.6168 70.7767 34.5301 70.95C34.5035 70.99 34.4501 71.1 34.3701 71.28L34.2101 71.59C34.1635 71.7033 34.1001 71.83 34.0201 71.97C34.1801 71.96 34.3701 71.95 34.6001 71.95L37.2301 71.91C37.7001 71.91 37.8301 71.89 38.1101 71.79L38.8801 72.54L38.8701 72.56Z" fill="#EF5274"/>
<path d="M42.9204 80.78C42.9804 80.4 42.9904 80.07 42.9904 79.44V71.75C42.9904 71.16 42.9704 70.85 42.9204 70.53H44.5604C44.5104 70.89 44.5104 71.05 44.5104 71.79V74.02C46.1504 74.6 48.0404 75.47 49.9604 76.55L49.1204 77.97C48.1204 77.29 46.8804 76.6 44.8704 75.68C44.5904 75.55 44.5604 75.54 44.4604 75.48C44.5004 75.82 44.5104 75.96 44.5104 76.3V79.47C44.5104 80.09 44.5204 80.41 44.5604 80.8H42.9204V80.78Z" fill="#EF5274"/>
<path d="M126.65 126.13C126.22 126.07 125.8 126.05 124.95 126.05H121.4C120.73 126.05 120.31 126.06 119.88 126.09C119.95 125.65 119.98 125.2 119.98 124.51V118.29C119.98 117.46 119.96 117.03 119.88 116.52H121.69C121.62 117.01 121.59 117.41 121.59 118.28V124.61H124.95C125.77 124.61 126.15 124.59 126.65 124.53V126.15V126.13Z" fill="#00AEE0"/>
<path d="M136.791 123.13C136.561 123.99 136.351 124.46 135.991 124.93C135.311 125.77 134.161 126.24 132.721 126.24C131.411 126.24 130.371 125.84 129.641 125.09C128.801 124.21 128.331 122.86 128.331 121.32C128.331 119.78 128.831 118.35 129.731 117.45C130.451 116.72 131.531 116.31 132.731 116.31C133.671 116.31 134.371 116.49 135.031 116.89C135.571 117.23 136.001 117.67 136.301 118.2C136.441 118.45 136.531 118.67 136.671 119.12L135.001 119.5C134.831 118.97 134.721 118.74 134.481 118.47C134.071 117.98 133.471 117.73 132.731 117.73C131.031 117.73 130.001 119.06 130.001 121.27C130.001 123.48 131.061 124.83 132.731 124.83C133.571 124.83 134.291 124.51 134.671 123.94C134.871 123.64 134.971 123.39 135.071 122.84L136.781 123.14L136.791 123.13Z" fill="#00AEE0"/>
<path d="M143.55 126.04C143.49 125.66 143.3 125.09 143.02 124.42L141.29 120.31C141.06 119.77 140.95 119.45 140.68 118.48C140.73 119.12 140.78 120.1 140.78 120.36V124.29C140.78 125.12 140.8 125.57 140.88 126.04H139.2C139.27 125.56 139.3 125.09 139.3 124.29V118.27C139.3 117.49 139.28 116.99 139.2 116.5H141.39C141.47 116.92 141.63 117.42 141.83 117.93L144.26 123.88L146.68 117.93C146.92 117.34 147.03 116.96 147.11 116.5H149.32C149.25 117.08 149.22 117.47 149.22 118.27V124.29C149.22 125.17 149.24 125.6 149.32 126.04H147.64C147.71 125.55 147.74 125.12 147.74 124.29V120.31C147.79 119.27 147.82 118.65 147.84 118.48C147.68 119.13 147.46 119.8 147.29 120.23L145.49 124.45C145.25 125.01 145.03 125.69 144.96 126.05H143.54L143.55 126.04Z" fill="#00AEE0"/>
<path d="M233.94 118.4L237.43 112.1H239.25L235.68 118.4H233.94ZM233.94 119.38V118.4L234.63 117.94H241.55V119.38H233.95H233.94ZM238.59 121.9V115.49H240.17V121.9H238.59Z" fill="#403B35"/>
<path d="M28.4502 118.4L31.9402 112.1H33.7602L30.1902 118.4H28.4502ZM28.4502 119.38V118.4L29.1402 117.94H36.0602V119.38H28.4602H28.4502ZM33.1002 121.9V115.49H34.6802V121.9H33.1002Z" fill="#403B35"/>
<path d="M21.0301 148.06C20.3501 148.06 19.7401 147.94 19.2101 147.7C18.6801 147.46 18.2301 147.11 17.8701 146.66L18.9601 145.57C19.1601 145.87 19.4301 146.11 19.7901 146.28C20.1501 146.46 20.5501 146.55 21.0001 146.55C21.4101 146.55 21.7701 146.48 22.0801 146.33C22.3901 146.18 22.6301 145.97 22.8101 145.69C22.9901 145.41 23.0801 145.08 23.0801 144.7C23.0801 144.32 22.9901 143.97 22.8201 143.7C22.6501 143.43 22.4201 143.23 22.1301 143.1C21.8401 142.96 21.5401 142.9 21.2101 142.9C20.8401 142.9 20.5001 142.94 20.2101 143.03C19.9201 143.12 19.6301 143.26 19.3501 143.48L19.3901 142.47C19.5401 142.27 19.7101 142.11 19.9101 141.99C20.1101 141.86 20.3301 141.77 20.6001 141.7C20.8701 141.63 21.1701 141.6 21.5201 141.6C22.2101 141.6 22.7901 141.74 23.2601 142.03C23.7301 142.32 24.0901 142.7 24.3301 143.19C24.5701 143.67 24.6901 144.2 24.6901 144.79C24.6901 145.42 24.5301 145.99 24.2201 146.48C23.9101 146.98 23.4801 147.36 22.9201 147.65C22.3701 147.94 21.7301 148.08 21.0201 148.08L21.0301 148.06ZM19.3501 143.45L18.4701 142.57L18.9001 138.12H20.3701L19.8701 142.75L19.3501 143.45ZM19.1801 139.56L18.9001 138.12H24.1501V139.56H19.1801Z" fill="#403B35"/>
<path d="M248.24 148.06C247.56 148.06 246.95 147.94 246.42 147.7C245.89 147.46 245.44 147.11 245.08 146.66L246.17 145.57C246.37 145.87 246.64 146.11 247 146.28C247.36 146.46 247.76 146.55 248.21 146.55C248.62 146.55 248.98 146.48 249.29 146.33C249.6 146.18 249.84 145.97 250.02 145.69C250.2 145.41 250.29 145.08 250.29 144.7C250.29 144.32 250.2 143.97 250.03 143.7C249.86 143.43 249.63 143.23 249.34 143.1C249.05 142.96 248.75 142.9 248.42 142.9C248.05 142.9 247.71 142.94 247.42 143.03C247.13 143.12 246.84 143.26 246.56 143.48L246.6 142.47C246.75 142.27 246.92 142.11 247.12 141.99C247.32 141.86 247.54 141.77 247.81 141.7C248.07 141.63 248.38 141.6 248.73 141.6C249.42 141.6 250 141.74 250.47 142.03C250.94 142.32 251.3 142.7 251.54 143.19C251.78 143.67 251.9 144.2 251.9 144.79C251.9 145.42 251.74 145.99 251.43 146.48C251.12 146.98 250.69 147.36 250.14 147.65C249.59 147.94 248.95 148.08 248.24 148.08V148.06ZM246.56 143.45L245.68 142.57L246.11 138.12H247.58L247.08 142.75L246.56 143.45ZM246.39 139.56L246.11 138.12H251.36V139.56H246.39Z" fill="#403B35"/>
<path d="M260.24 177.77C259.59 177.77 259 177.62 258.48 177.31C257.96 177.01 257.54 176.6 257.24 176.09C256.94 175.58 256.78 175.01 256.78 174.38C256.78 173.48 257.09 172.58 257.72 171.66L260.39 167.82H262.25L259.39 171.84L258.8 172.19C258.89 171.98 259.01 171.79 259.16 171.64C259.31 171.49 259.5 171.37 259.73 171.28C259.96 171.19 260.26 171.15 260.62 171.15C261.19 171.15 261.7 171.28 262.17 171.55C262.63 171.82 263 172.18 263.28 172.66C263.56 173.13 263.7 173.68 263.7 174.32C263.7 174.96 263.55 175.53 263.24 176.06C262.93 176.58 262.51 177 261.99 177.31C261.46 177.62 260.88 177.77 260.23 177.77H260.24ZM260.24 176.26C260.59 176.26 260.91 176.18 261.19 176.01C261.47 175.84 261.69 175.61 261.85 175.32C262.01 175.03 262.1 174.7 262.1 174.33C262.1 173.96 262.02 173.64 261.85 173.35C261.69 173.06 261.47 172.83 261.19 172.67C260.91 172.51 260.59 172.42 260.24 172.42C259.89 172.42 259.57 172.5 259.29 172.67C259.01 172.84 258.79 173.06 258.63 173.35C258.47 173.64 258.39 173.96 258.39 174.32C258.39 174.68 258.47 175.01 258.63 175.31C258.79 175.6 259.01 175.84 259.29 176C259.57 176.17 259.89 176.25 260.24 176.25V176.26Z" fill="#403B35"/>
<path d="M9.74027 177.77C9.09027 177.77 8.50027 177.62 7.98027 177.31C7.46027 177.01 7.04027 176.6 6.74027 176.09C6.44027 175.58 6.28027 175.01 6.28027 174.38C6.28027 173.48 6.59027 172.58 7.22027 171.66L9.89027 167.82H11.7503L8.89027 171.84L8.30027 172.19C8.39027 171.98 8.51027 171.79 8.66027 171.64C8.81027 171.49 9.00027 171.37 9.23027 171.28C9.46027 171.19 9.76027 171.15 10.1203 171.15C10.6903 171.15 11.2003 171.28 11.6703 171.55C12.1303 171.82 12.5003 172.18 12.7803 172.66C13.0603 173.13 13.2003 173.68 13.2003 174.32C13.2003 174.96 13.0503 175.53 12.7403 176.06C12.4303 176.58 12.0103 177 11.4903 177.31C10.9603 177.62 10.3803 177.77 9.73027 177.77H9.74027ZM9.74027 176.26C10.0903 176.26 10.4103 176.18 10.6903 176.01C10.9703 175.84 11.1903 175.61 11.3503 175.32C11.5103 175.03 11.6003 174.7 11.6003 174.33C11.6003 173.96 11.5203 173.64 11.3503 173.35C11.1903 173.06 10.9703 172.83 10.6903 172.67C10.4103 172.51 10.0903 172.42 9.74027 172.42C9.39027 172.42 9.07027 172.5 8.79027 172.67C8.51027 172.84 8.29027 173.06 8.13027 173.35C7.97027 173.64 7.89027 173.96 7.89027 174.32C7.89027 174.68 7.97027 175.01 8.13027 175.31C8.29027 175.6 8.51027 175.84 8.79027 176C9.07027 176.17 9.39027 176.25 9.74027 176.25V176.26Z" fill="#403B35"/>
<path d="M0.680176 209.81V208.37H7.25018V209.35L6.56018 209.81H0.680176ZM2.08018 218.17L5.65018 209.35H7.25018L3.76018 218.17H2.08018Z" fill="#403B35"/>
<path d="M262.72 209.81V208.37H269.29V209.35L268.6 209.81H262.72ZM264.12 218.17L267.69 209.35H269.29L265.8 218.17H264.12Z" fill="#403B35"/>
<path d="M266.67 253.38C266 253.38 265.41 253.26 264.92 253.02C264.43 252.78 264.04 252.44 263.77 252C263.49 251.57 263.36 251.07 263.36 250.52C263.36 250.08 263.45 249.68 263.62 249.31C263.79 248.94 264.04 248.63 264.38 248.36C264.71 248.1 265.11 247.91 265.56 247.8L265.52 248.25C265.15 248.15 264.83 247.98 264.58 247.75C264.32 247.52 264.13 247.24 264 246.92C263.87 246.6 263.8 246.27 263.8 245.93C263.8 245.41 263.92 244.95 264.17 244.55C264.42 244.15 264.76 243.84 265.2 243.62C265.64 243.4 266.13 243.28 266.68 243.28C267.23 243.28 267.74 243.39 268.17 243.62C268.6 243.84 268.94 244.16 269.19 244.55C269.44 244.95 269.56 245.41 269.56 245.93C269.56 246.28 269.49 246.61 269.36 246.92C269.23 247.23 269.04 247.51 268.79 247.75C268.54 247.99 268.22 248.15 267.84 248.25L267.8 247.8C268.27 247.91 268.66 248.1 268.99 248.36C269.32 248.62 269.57 248.94 269.74 249.31C269.91 249.68 270 250.08 270 250.52C270 251.07 269.86 251.56 269.59 252C269.32 252.44 268.93 252.77 268.43 253.02C267.93 253.26 267.35 253.38 266.67 253.38ZM266.67 251.92C267.02 251.92 267.32 251.85 267.59 251.71C267.86 251.57 268.07 251.38 268.22 251.14C268.37 250.9 268.45 250.62 268.45 250.31C268.45 250 268.37 249.71 268.22 249.48C268.07 249.24 267.86 249.05 267.59 248.91C267.32 248.77 267.02 248.7 266.67 248.7C266.32 248.7 266.02 248.77 265.75 248.91C265.48 249.05 265.27 249.24 265.12 249.48C264.97 249.72 264.89 250 264.89 250.31C264.89 250.62 264.97 250.89 265.12 251.14C265.27 251.38 265.48 251.57 265.75 251.71C266.02 251.85 266.32 251.92 266.67 251.92ZM266.67 247.44C267.08 247.44 267.42 247.31 267.68 247.05C267.94 246.79 268.07 246.45 268.07 246.04C268.07 245.63 267.94 245.3 267.68 245.04C267.42 244.78 267.08 244.66 266.67 244.66C266.26 244.66 265.94 244.79 265.67 245.04C265.4 245.29 265.27 245.63 265.27 246.04C265.27 246.45 265.4 246.79 265.67 247.05C265.94 247.31 266.27 247.44 266.67 247.44Z" fill="#403B35"/>
<path d="M3.31 253.38C2.64 253.38 2.05 253.26 1.56 253.02C1.07 252.78 0.68 252.44 0.41 252C0.13 251.57 0 251.07 0 250.52C0 250.08 0.09 249.68 0.26 249.31C0.43 248.94 0.68 248.63 1.02 248.36C1.35 248.1 1.75 247.91 2.2 247.8L2.16 248.25C1.79 248.15 1.47 247.98 1.22 247.75C0.96 247.52 0.77 247.24 0.64 246.92C0.51 246.6 0.44 246.27 0.44 245.93C0.44 245.41 0.56 244.95 0.81 244.55C1.06 244.15 1.4 243.84 1.84 243.62C2.28 243.4 2.77 243.28 3.32 243.28C3.87 243.28 4.38 243.39 4.81 243.62C5.24 243.84 5.58 244.16 5.83 244.55C6.08 244.95 6.2 245.41 6.2 245.93C6.2 246.28 6.13 246.61 6 246.92C5.87 247.23 5.68 247.51 5.43 247.75C5.18 247.99 4.86 248.15 4.48 248.25L4.44 247.8C4.91 247.91 5.3 248.1 5.63 248.36C5.96 248.62 6.21 248.94 6.38 249.31C6.55 249.68 6.64 250.08 6.64 250.52C6.64 251.07 6.5 251.56 6.23 252C5.96 252.44 5.57 252.77 5.07 253.02C4.57 253.26 3.99 253.38 3.31 253.38ZM3.31 251.92C3.66 251.92 3.96 251.85 4.23 251.71C4.5 251.57 4.71 251.38 4.86 251.14C5.01 250.9 5.09 250.62 5.09 250.31C5.09 250 5.01 249.71 4.86 249.48C4.71 249.24 4.5 249.05 4.23 248.91C3.96 248.77 3.66 248.7 3.31 248.7C2.96 248.7 2.66 248.77 2.39 248.91C2.12 249.05 1.91 249.24 1.76 249.48C1.61 249.72 1.53 250 1.53 250.31C1.53 250.62 1.61 250.89 1.76 251.14C1.91 251.38 2.12 251.57 2.39 251.71C2.66 251.85 2.96 251.92 3.31 251.92ZM3.31 247.44C3.72 247.44 4.06 247.31 4.32 247.05C4.58 246.79 4.71 246.45 4.71 246.04C4.71 245.63 4.58 245.3 4.32 245.04C4.06 244.78 3.72 244.66 3.31 244.66C2.9 244.66 2.58 244.79 2.31 245.04C2.04 245.29 1.91 245.63 1.91 246.04C1.91 246.45 2.04 246.79 2.31 247.05C2.58 247.31 2.91 247.44 3.31 247.44Z" fill="#403B35"/>
<path d="M216.6 93.24C215.95 93.24 215.36 93.12 214.83 92.88C214.3 92.64 213.86 92.29 213.49 91.84L214.58 90.75C214.78 91.05 215.05 91.29 215.41 91.46C215.76 91.64 216.15 91.73 216.57 91.73C216.99 91.73 217.32 91.66 217.61 91.51C217.9 91.36 218.13 91.15 218.29 90.88C218.45 90.61 218.54 90.3 218.54 89.94C218.54 89.57 218.46 89.25 218.29 88.99C218.13 88.73 217.89 88.53 217.59 88.38C217.29 88.24 216.92 88.16 216.49 88.16C216.32 88.16 216.15 88.17 215.97 88.2C215.79 88.23 215.63 88.26 215.49 88.31L216.2 87.39C216.4 87.31 216.6 87.25 216.82 87.2C217.04 87.15 217.25 87.12 217.46 87.12C217.96 87.12 218.42 87.24 218.82 87.48C219.23 87.72 219.55 88.06 219.79 88.49C220.03 88.92 220.15 89.44 220.15 90.02C220.15 90.65 220 91.22 219.7 91.7C219.4 92.19 218.99 92.56 218.45 92.83C217.92 93.1 217.3 93.24 216.59 93.24H216.6ZM213.98 84.74V83.3H220.04V84.25L218.65 84.74H213.97H213.98ZM215.49 88.3V87.35L218.11 84.3L220.04 84.26L217.31 87.4L215.49 88.31V88.3Z" fill="#403B35"/>
<path d="M52.7204 93.24C52.0704 93.24 51.4804 93.12 50.9504 92.88C50.4204 92.64 49.9804 92.29 49.6104 91.84L50.7004 90.75C50.9004 91.05 51.1704 91.29 51.5304 91.46C51.8804 91.64 52.2704 91.73 52.6904 91.73C53.1104 91.73 53.4404 91.66 53.7304 91.51C54.0204 91.36 54.2504 91.15 54.4104 90.88C54.5704 90.61 54.6604 90.3 54.6604 89.94C54.6604 89.57 54.5804 89.25 54.4104 88.99C54.2504 88.73 54.0104 88.53 53.7104 88.38C53.4104 88.24 53.0404 88.16 52.6104 88.16C52.4404 88.16 52.2704 88.17 52.0904 88.2C51.9104 88.23 51.7504 88.26 51.6104 88.31L52.3204 87.39C52.5204 87.31 52.7204 87.25 52.9404 87.2C53.1604 87.15 53.3704 87.12 53.5804 87.12C54.0804 87.12 54.5404 87.24 54.9404 87.48C55.3504 87.72 55.6704 88.06 55.9104 88.49C56.1504 88.92 56.2704 89.44 56.2704 90.02C56.2704 90.65 56.1204 91.22 55.8204 91.7C55.5204 92.19 55.1104 92.56 54.5704 92.83C54.0404 93.1 53.4204 93.24 52.7104 93.24H52.7204ZM50.1004 84.74V83.3H56.1604V84.25L54.7704 84.74H50.0904H50.1004ZM51.6104 88.3V87.35L54.2304 84.3L56.1604 84.26L53.4304 87.4L51.6104 88.31V88.3Z" fill="#403B35"/>
<path d="M183.89 71.08L187.5 67.24C187.8 66.92 188.04 66.64 188.23 66.39C188.42 66.14 188.55 65.9 188.64 65.68C188.72 65.46 188.77 65.23 188.77 64.99C188.77 64.55 188.63 64.21 188.34 63.96C188.06 63.71 187.69 63.59 187.26 63.59C186.79 63.59 186.38 63.71 186.03 63.94C185.68 64.17 185.36 64.54 185.08 65.03L183.96 64.11C184.34 63.45 184.81 62.95 185.37 62.61C185.93 62.27 186.58 62.1 187.32 62.1C187.93 62.1 188.46 62.22 188.92 62.46C189.38 62.7 189.73 63.04 189.98 63.48C190.23 63.91 190.36 64.42 190.36 64.98C190.36 65.39 190.31 65.76 190.21 66.08C190.11 66.4 189.95 66.72 189.71 67.05C189.48 67.37 189.15 67.75 188.74 68.18L185.97 71.05L183.9 71.09L183.89 71.08ZM183.89 72.03V71.08L185.28 70.59H190.54V72.03H183.89Z" fill="#403B35"/>
<path d="M79.3101 71.08L82.9201 67.24C83.2201 66.92 83.4601 66.64 83.6501 66.39C83.8401 66.14 83.9701 65.9 84.0601 65.68C84.1401 65.46 84.1901 65.23 84.1901 64.99C84.1901 64.55 84.0501 64.21 83.7601 63.96C83.4801 63.71 83.1101 63.59 82.6801 63.59C82.2101 63.59 81.8001 63.71 81.4501 63.94C81.1001 64.17 80.7801 64.54 80.5001 65.03L79.3801 64.11C79.7601 63.45 80.2301 62.95 80.7901 62.61C81.3501 62.27 82.0001 62.1 82.7401 62.1C83.3501 62.1 83.8801 62.22 84.3401 62.46C84.8001 62.7 85.1501 63.04 85.4001 63.48C85.6501 63.91 85.7801 64.42 85.7801 64.98C85.7801 65.39 85.7301 65.76 85.6301 66.08C85.5301 66.4 85.3701 66.72 85.1301 67.05C84.9001 67.37 84.5701 67.75 84.1601 68.18L81.3901 71.05L79.3201 71.09L79.3101 71.08ZM79.3101 72.03V71.08L80.7001 70.59H85.9601V72.03H79.3101Z" fill="#403B35"/>
<path d="M148.78 49.44V48H152.18V49.44H148.78ZM150.74 57.8V48H152.32V57.8H150.74Z" fill="#403B35"/>
<path d="M116.96 49.44V48H120.36V49.44H116.96ZM118.92 57.8V48H120.5V57.8H118.92Z" fill="#403B35"/>
<path d="M15.3802 261.19C20.5702 266.82 34.4902 266.42 38.5902 260.53C41.9102 255.75 42.7402 241.43 38.1402 237.64C33.6102 233.91 18.0302 229.51 13.4002 237.53C10.5602 242.45 10.7102 256.13 15.3902 261.19H15.3802Z" fill="#FFFFEF" stroke="#403B35" stroke-miterlimit="10"/>
<path d="M22.4401 258.28C27.3501 256.95 27.4701 249.49 26.4501 248.91C25.4401 248.33 24.1901 248.25 22.9701 248.22C21.2101 248.18 19.4301 248.22 17.6401 248.33" stroke="#403B35" stroke-miterlimit="10" stroke-linecap="round"/>
<path d="M26.2202 254.97C27.3602 256.16 29.4602 256.56 30.6202 258.46" stroke="#403B35" stroke-miterlimit="10" stroke-linecap="round"/>
<path d="M25.9702 248.57C27.3602 244.35 27.3102 242.3 27.0702 241.46L25.7402 238.88" stroke="#403B35" stroke-miterlimit="10" stroke-linecap="round"/>
<path d="M27.2202 242.42C27.8802 241.31 29.6302 240.87 30.6902 240.21" stroke="#403B35" stroke-miterlimit="10" stroke-linecap="round"/>
<path d="M254.13 236.38C248.76 230.96 234.89 231.86 231.01 237.88C227.86 242.77 227.51 257.08 232.23 260.69C236.87 264.24 252.56 268.07 256.91 259.91C259.58 254.9 258.96 241.27 254.13 236.39V236.38Z" fill="#FFFFEF" stroke="#403B35" stroke-miterlimit="10"/>
<path d="M247.19 239.53C242.34 241.03 242.47 248.48 243.5 249.02C244.53 249.56 245.78 249.59 246.99 249.58C248.75 249.56 250.52 249.46 252.3 249.28" stroke="#403B35" stroke-miterlimit="10" stroke-linecap="round"/>
<path d="M243.43 242.91C242.25 241.76 240.15 241.45 238.92 239.59" stroke="#403B35" stroke-miterlimit="10" stroke-linecap="round"/>
<path d="M243.99 249.35C242.75 253.61 242.86 255.65 243.14 256.48L244.56 259" stroke="#403B35" stroke-miterlimit="10" stroke-linecap="round"/>
<path d="M242.95 255.52C242.33 256.65 240.6 257.16 239.56 257.85" stroke="#403B35" stroke-miterlimit="10" stroke-linecap="round"/>
<path d="M41.7803 117.96C44.4002 113.48 54.5203 110.73 57.3903 113.37C62.9303 118.47 67.8403 129.87 64.7402 134.76C61.5802 139.74 52.8103 140.38 43.6203 134.35C41.5303 132.98 38.9103 122.87 41.7803 117.96Z" fill="#FFFFEF" stroke="#403B35" stroke-miterlimit="10"/>
<path d="M55.1602 119.95C55.1602 119.95 55.8402 122.56 56.4802 123.13C57.1202 123.7 58.6202 123.71 59.7902 123.93" stroke="#403B35" stroke-miterlimit="10" stroke-linecap="round"/>
<path d="M53.8705 133.55C53.8705 133.55 53.0105 131 52.3405 130.48C51.6605 129.96 50.1705 130.06 48.9805 129.93" stroke="#403B35" stroke-miterlimit="10" stroke-linecap="round"/>
<path d="M56.7104 123.35C53.9504 125.46 52.5204 126.75 52.1504 130.29" stroke="#403B35" stroke-miterlimit="10"/>
<path d="M29.7503 143.52C32.0303 137.32 39.4003 133.9 44.2703 136.3C50.8003 139.52 58.6703 147.23 55.8903 154.54C53.1003 161.87 44.9203 161.44 35.7203 157.98C32.4403 156.75 28.0103 148.29 29.7503 143.52Z" fill="#FFFFEF" stroke="#403B35" stroke-miterlimit="10"/>
<path d="M43.1304 140.81C43.1304 140.81 43.8504 143.66 44.5404 144.25C45.1904 144.8 46.6504 144.69 47.8104 144.82" stroke="#403B35" stroke-miterlimit="10" stroke-linecap="round"/>
<path d="M42.3604 156.22C42.3604 156.22 41.4704 153.45 40.7504 152.92C40.0704 152.42 38.6104 152.66 37.4404 152.64" stroke="#403B35" stroke-miterlimit="10" stroke-linecap="round"/>
<path d="M44.85 144.44C42.22 147.08 41.09 149.03 40.75 152.47" stroke="#403B35" stroke-miterlimit="10" stroke-linecap="round"/>
<path d="M15.5502 226.31C19.9902 233.39 34.1102 235.02 39.0802 229.03C43.1102 224.17 45.9902 208.23 41.8802 203.3C37.8402 198.45 22.7202 191.19 16.9102 199.48C13.3402 204.57 11.5502 219.93 15.5502 226.3V226.31Z" fill="#FFFFEF" stroke="#403B35" stroke-miterlimit="10"/>
<path d="M23.0802 224.1C28.2302 223.34 29.4102 215 28.4702 214.2C27.5302 213.4 26.2802 213.13 25.0602 212.91C23.2802 212.6 21.4802 212.37 19.6602 212.24" stroke="#403B35" stroke-miterlimit="10" stroke-linecap="round"/>
<path d="M27.3503 221.04C28.3303 222.55 30.3903 223.3 31.3003 225.61" stroke="#403B35" stroke-miterlimit="10" stroke-linecap="round"/>
<path d="M28.0403 213.74C30.0403 209.22 30.2903 206.91 30.1603 205.93L29.1803 202.84" stroke="#403B35" stroke-miterlimit="10" stroke-linecap="round"/>
<path d="M30.1702 207.04C30.9902 205.89 32.8302 205.66 33.9902 205.08" stroke="#403B35" stroke-miterlimit="10" stroke-linecap="round"/>
<path d="M25.7702 159.63C32.5702 155.62 46.5802 161.31 49.6202 170.93C51.5402 177.01 48.9302 183.93 48.5402 185.93C46.9202 194.17 43.1802 195.04 41.7302 195.97C36.4602 199.33 21.6502 193.61 18.4402 186.37C16.0502 180.96 17.2802 178.88 17.6902 176.5C18.1502 173.87 18.6802 163.81 25.7702 159.63Z" fill="#FFFFEF" stroke="#403B35" stroke-miterlimit="10"/>
<path d="M30.5903 188.8C31.6103 184.91 36.7403 185.15 40.1103 186.46" stroke="#403B35" stroke-miterlimit="10" stroke-linecap="round"/>
<path d="M32.6502 185.75C32.3802 183.47 32.1302 181.4 32.3602 178.99C32.5902 176.58 33.4002 174.01 34.8802 172.33C35.6202 171.49 36.5102 170.88 37.1302 169.87" stroke="#403B35" stroke-miterlimit="10" stroke-linecap="round"/>
<path d="M35.6201 166.24C36.1701 167.49 36.7801 168.71 37.4701 169.89" stroke="#403B35" stroke-miterlimit="10" stroke-linecap="round"/>
<path d="M32.9501 175.46C30.1101 175.28 27.4201 174.22 25.1401 172.37" stroke="#403B35" stroke-miterlimit="10" stroke-linecap="round"/>
<path d="M37.52 169.74C38.89 170.28 40.25 170.82 41.62 171.37" stroke="#403B35" stroke-miterlimit="10" stroke-linecap="round"/>
<path d="M108.69 66.63C111.62 64.66 114.96 63.58 118.33 62.92C120.6 62.47 122.95 62.01 125.28 62.07C130.6 62.2 132.42 63.07 134.32 65.32C134.97 66.1 135.19 67.05 135.21 68.13C135.38 76.88 130.96 97.47 122.8 98.4C116.28 99.14 105.78 84.3 104.85 76.36C104.8 75.93 104.74 75.5 104.65 75.08C103.84 71.03 105.91 68.51 108.7 66.64L108.69 66.63Z" fill="#FFFFEF" stroke="#403B35" stroke-miterlimit="10"/>
<path d="M84.0503 98.9C87.0103 101.31 95.0403 107.53 101.24 104.15C105.63 101.76 107.77 89.95 104.18 77.35C103.53 75.08 102.35 73.02 100.2 72.33C99.6803 72.16 99.1503 72.07 98.5603 72.04C98.4603 72.04 98.3503 72.04 98.2503 72.04C96.6503 72.04 94.9803 72.54 93.3703 73.01C93.0503 73.11 92.7303 73.2 92.4103 73.29C90.9803 73.7 89.4403 74.32 87.5503 75.26C83.7903 77.12 76.1803 83.22 75.9203 86.64C75.7803 88.53 76.7503 90.14 77.6603 91.59C79.4803 94.48 81.6303 96.94 84.0403 98.9H84.0503Z" fill="#FFFFEF" stroke="#403B35" stroke-miterlimit="10"/>
<path d="M56.5403 111.35C61.6203 118.62 78.1304 124.07 82.3204 118.77C85.8704 114.28 80.2104 94.89 76.6504 92.18C73.6104 89.87 67.3303 90.87 64.3703 92.01C60.2703 93.59 58.2504 95.6 56.9604 99.8C56.0404 102.78 55.1404 109.33 56.5504 111.35H56.5403Z" fill="#FFFFEF" stroke="#403B35" stroke-miterlimit="10"/>
<path d="M229.63 117.93C227.01 113.45 216.89 110.7 214.02 113.34C208.48 118.44 203.57 129.84 206.67 134.73C209.83 139.71 218.6 140.35 227.79 134.32C229.88 132.95 232.5 122.84 229.63 117.93Z" fill="#FFFFEF" stroke="#403B35" stroke-miterlimit="10"/>
<path d="M216.25 119.91C216.25 119.91 215.57 122.52 214.93 123.09C214.29 123.66 212.79 123.67 211.62 123.89" stroke="#403B35" stroke-miterlimit="10" stroke-linecap="round"/>
<path d="M217.54 133.52C217.54 133.52 218.4 130.97 219.07 130.45C219.75 129.93 221.24 130.03 222.43 129.9" stroke="#403B35" stroke-miterlimit="10" stroke-linecap="round"/>
<path d="M214.71 123.32C217.47 125.43 218.9 126.72 219.27 130.26" stroke="#403B35" stroke-miterlimit="10"/>
<path d="M241.67 143.49C239.39 137.29 232.02 133.87 227.15 136.27C220.62 139.49 212.75 147.2 215.53 154.51C218.32 161.84 226.5 161.41 235.7 157.95C238.98 156.72 243.41 148.26 241.67 143.49Z" fill="#FFFFEF" stroke="#403B35" stroke-miterlimit="10"/>
<path d="M228.28 140.78C228.28 140.78 227.56 143.63 226.87 144.22C226.22 144.77 224.76 144.66 223.6 144.79" stroke="#403B35" stroke-miterlimit="10" stroke-linecap="round"/>
<path d="M229.05 156.19C229.05 156.19 229.94 153.42 230.66 152.89C231.34 152.39 232.8 152.63 233.97 152.61" stroke="#403B35" stroke-miterlimit="10" stroke-linecap="round"/>
<path d="M226.57 144.41C229.2 147.05 230.33 149 230.67 152.44" stroke="#403B35" stroke-miterlimit="10" stroke-linecap="round"/>
<path d="M255.87 226.28C251.43 233.36 237.31 234.99 232.34 229C228.31 224.14 225.43 208.2 229.54 203.27C233.58 198.42 248.7 191.16 254.51 199.45C258.08 204.54 259.87 219.9 255.87 226.27V226.28Z" fill="#FFFFEF" stroke="#403B35" stroke-miterlimit="10"/>
<path d="M248.7 224.81C243.55 224.05 242.37 215.71 243.31 214.91C244.25 214.11 245.5 213.84 246.72 213.62C248.5 213.31 250.3 213.08 252.12 212.95" stroke="#403B35" stroke-miterlimit="10" stroke-linecap="round"/>
<path d="M244.43 221.75C243.45 223.26 241.39 224.01 240.48 226.32" stroke="#403B35" stroke-miterlimit="10" stroke-linecap="round"/>
<path d="M243.75 214.45C241.75 209.93 241.5 207.62 241.63 206.64L242.61 203.55" stroke="#403B35" stroke-miterlimit="10" stroke-linecap="round"/>
<path d="M241.61 207.74C240.79 206.59 238.95 206.36 237.79 205.78" stroke="#403B35" stroke-miterlimit="10" stroke-linecap="round"/>
<path d="M245.64 159.6C238.84 155.59 224.83 161.28 221.79 170.9C219.87 176.98 222.48 183.9 222.87 185.9C224.49 194.14 227.86 195.05 229.7 196.15C234.58 199.08 249.76 193.58 252.97 186.33C255.36 180.92 254.13 178.84 253.72 176.46C253.27 173.83 252.73 163.77 245.64 159.59V159.6Z" fill="#FFFFEF" stroke="#403B35" stroke-miterlimit="10"/>
<path d="M240.82 188.77C239.8 184.88 234.67 185.12 231.3 186.43" stroke="#403B35" stroke-miterlimit="10" stroke-linecap="round"/>
<path d="M238.77 185.72C239.04 183.44 239.29 181.37 239.06 178.96C238.83 176.55 238.02 173.98 236.54 172.3C235.8 171.46 234.91 170.85 234.29 169.84" stroke="#403B35" stroke-miterlimit="10" stroke-linecap="round"/>
<path d="M235.79 166.21C235.24 167.46 234.63 168.68 233.94 169.86" stroke="#403B35" stroke-miterlimit="10" stroke-linecap="round"/>
<path d="M238.46 175.42C241.3 175.24 243.99 174.18 246.27 172.33" stroke="#403B35" stroke-miterlimit="10" stroke-linecap="round"/>
<path d="M233.9 169.71C232.53 170.25 231.17 170.79 229.8 171.34" stroke="#403B35" stroke-miterlimit="10" stroke-linecap="round"/>
<path d="M162.73 66.6C159.8 64.63 156.46 63.55 153.09 62.89C150.82 62.44 148.47 61.98 146.14 62.04C140.82 62.17 139 63.04 137.1 65.29C136.45 66.07 136.23 67.02 136.21 68.1C136.04 76.85 140.46 97.44 148.62 98.37C155.14 99.11 165.64 84.27 166.57 76.33C166.62 75.9 166.68 75.47 166.77 75.05C167.58 71 165.51 68.48 162.72 66.61L162.73 66.6Z" fill="#FFFFEF" stroke="#403B35" stroke-miterlimit="10"/>
<path d="M71.4404 116.19C79.5704 118.41 80.3004 116.56 79.5704 109.91" stroke="#403B35" stroke-miterlimit="10" stroke-linecap="round"/>
<path d="M187.36 98.87C184.4 101.28 176.37 107.5 170.17 104.12C165.78 101.73 163.64 89.92 167.23 77.32C167.88 75.05 169.06 72.99 171.21 72.3C171.73 72.13 172.26 72.04 172.85 72.02C172.95 72.02 173.06 72.02 173.16 72.02C174.76 72.02 176.43 72.52 178.04 72.99C178.36 73.09 178.68 73.18 179 73.27C180.43 73.68 181.97 74.3 183.86 75.24C187.62 77.1 195.23 83.2 195.49 86.62C195.63 88.51 194.66 90.12 193.75 91.57C191.93 94.46 189.78 96.92 187.37 98.88L187.36 98.87Z" fill="#FFFFEF" stroke="#403B35" stroke-miterlimit="10"/>
<path d="M214.87 111.09C209.8 118.27 193.31 123.66 189.14 118.43C185.6 113.99 191.25 94.85 194.81 92.17C197.84 89.89 204.11 90.87 207.07 92C211.16 93.56 213.17 95.54 214.47 99.69C215.39 102.63 216.28 109.1 214.87 111.09Z" fill="#FFFFEF" stroke="#403B35" stroke-miterlimit="10"/>
<path d="M192.36 108.2C190.37 116.56 192.59 118.04 199.61 115.82" stroke="#403B35" stroke-miterlimit="10" stroke-linecap="round"/>
<path d="M92.3604 99.22C99.1404 103.27 100.99 101.42 101.37 94.29" stroke="#403B35" stroke-miterlimit="10" stroke-linecap="round"/>
<path d="M115.76 88.86C121.67 96.25 124.26 95.88 127.58 87.01" stroke="#403B35" stroke-miterlimit="10" stroke-linecap="round"/>
<path d="M144.2 88.11C147.51 95.87 150.09 96.62 155.65 89.61" stroke="#403B35" stroke-miterlimit="10" stroke-linecap="round"/>
<path d="M170.26 94.04C170.45 102.17 173.16 102.68 179.81 98.87" stroke="#403B35" stroke-miterlimit="10" stroke-linecap="round"/>
<path opacity="0.2" d="M135.2 55.68C146.73 55.68 179.95 60.94 206.59 81.62C230.29 100.02 237.45 115.54 245.27 131.75C251.95 145.61 257.01 165.03 260.66 182.27C264.31 199.51 266.43 216.63 263.01 226.61C259.41 237.1 255.13 240.82 247.63 241.63C240.13 242.44 227.3 240.82 223.79 230.93C220.27 221.05 211.23 165.24 197.02 140.81C178.05 108.2 144.74 102.46 135.2 102.46C125.66 102.46 92.3504 108.2 73.3804 140.81C59.1704 165.24 50.1304 221.05 46.6104 230.93C43.0904 240.81 30.2604 242.44 22.7704 241.63C15.2804 240.82 10.9904 237.1 7.39044 226.61C3.79044 216.12 6.08044 199.51 9.74044 182.27C13.4004 165.03 18.4504 145.61 25.1304 131.75C32.9404 115.54 40.1004 100.03 63.8104 81.62C90.4504 60.94 123.68 55.68 135.2 55.68Z" fill="#EF5274"/>
<path d="M135.2 55.68C146.73 55.68 179.95 60.94 206.59 81.62C230.29 100.02 237.45 115.54 245.27 131.75C251.95 145.61 257.01 165.03 260.66 182.27C264.31 199.51 266.43 216.63 263.01 226.61C259.41 237.1 255.13 240.82 247.63 241.63C240.13 242.44 227.3 240.82 223.79 230.93C220.27 221.05 211.23 165.24 197.02 140.81C178.05 108.2 144.74 102.46 135.2 102.46C125.66 102.46 92.3504 108.2 73.3804 140.81C59.1704 165.24 50.1304 221.05 46.6104 230.93C43.0904 240.81 30.2604 242.44 22.7704 241.63C15.2804 240.82 10.9904 237.1 7.39044 226.61C3.79044 216.12 6.08044 199.51 9.74044 182.27C13.4004 165.03 18.4504 145.61 25.1304 131.75C32.9404 115.54 40.1004 100.03 63.8104 81.62C90.4504 60.94 123.68 55.68 135.2 55.68Z" stroke="#EF5274" stroke-linecap="round" stroke-linejoin="round"/>
<path opacity="0.2" d="M219.27 100.15C212.4 90.68 213.57 92.37 203.52 84.57C177.35 64.25 152.84 59.68 135.2 59.68C117.56 59.68 93.0505 64.25 66.8805 84.57C63.9405 86.85 61.2605 88.68 59.1005 90.79C37.1205 112.31 67.8105 138.68 83.3205 121.8C100.78 102.8 125.1 98.89 135.21 98.89C146.74 98.89 166.43 103.31 186.56 120.97C204.37 136.6 229.8 114.65 219.28 100.14L219.27 100.15Z" fill="#00AEE0"/>
<path d="M219.27 100.15C212.4 90.68 213.57 92.37 203.52 84.57C177.35 64.25 152.84 59.68 135.2 59.68C117.56 59.68 93.0505 64.25 66.8805 84.57C63.9405 86.85 61.2605 88.68 59.1005 90.79C37.1205 112.31 67.8105 138.68 83.3205 121.8C100.78 102.8 125.1 98.89 135.21 98.89C146.74 98.89 166.43 103.31 186.56 120.97C204.37 136.6 229.8 114.65 219.28 100.14L219.27 100.15Z" stroke="#00AEE0" stroke-linecap="round" stroke-linejoin="round"/>
</svg>
