<svg width="270" height="266" viewBox="0 0 270 266" fill="none" xmlns="http://www.w3.org/2000/svg"><path d="M169.884 19.18h1.644c-.06.444-.096 1.032-.096 1.824 0 1.044.096 2.484.228 3.216.204 1.248.588 2.016.972 2.016.18 0 .348-.18.492-.516a8.847 8.847 0 00.636-2.172c.42.48.612.66 1.2 1.092-.624 2.34-1.32 3.312-2.34 3.312-.804 0-1.452-.588-1.932-1.74-.492-1.2-.708-2.94-.756-6.264-.012-.42-.012-.504-.048-.768zm6.06 1.14l1.26-.6c1.512 1.812 2.352 3.816 2.7 6.456l-1.488.564a12.165 12.165 0 00-.768-3.468 10.474 10.474 0 00-1.704-2.952zm-16.176-.264h.924c.168-.288.192-.312.3-.516h-.48c-.396 0-.636.012-.924.048v-1.08c.336.048.6.06 1.092.06h.768c.144-.348.192-.48.276-.792l1.32.132c-.048.084-.144.3-.288.66h1.728c.564 0 .84-.012 1.212-.048-.036.372-.048.648-.048 1.14v.396h.276c.42 0 .636-.012.936-.06V21.1a7.18 7.18 0 00-1.092-.06h-5.832c-.588 0-.78.012-1.14.048v-.708l-.852.792c-.84-1.092-1.164-1.452-2.004-2.196l.948-.9c.888.78 1.332 1.236 1.908 1.932.264.036.42.048.972.048zm2.28 0h2.364v-.516h-2.088c-.108.204-.12.228-.276.516zm.984 3.528h-2.388c-.36 0-.672.012-.9.024a8.29 8.29 0 00.036-.876v-.444a7.64 7.64 0 00-.036-.852c.24.024.432.036.9.036h4.5c.492 0 .684-.012.912-.036-.012.108-.012.108-.024.288-.012.108-.012.312-.012.552v.468c0 .144.012.432.036.864-.408-.024-.504-.024-.888-.024h-.9v.432h1.092c.6 0 .804-.012 1.068-.048V25a8.47 8.47 0 00-1.044-.048h-1.116v.576h1.416c.516 0 .792-.012 1.104-.06v1.092c-.3-.036-.564-.048-1.116-.048h-1.404c.012.36.024.516.072.78h-1.38c.036-.288.048-.42.06-.78h-2.928c-.516 0-.756.012-1.02.048v-1.08c.204.036.408.048.828.048h.3v-.576c-.42 0-.552.012-.828.036v-1.02c.24.036.444.048.984.048h2.676v-.432zm-1.608 1.368v.576h1.608v-.576h-1.608zm-.432-2.688v.528h3.78v-.528h-3.78zm-5.064 1.524v-1.296c.312.048.516.06.948.06h.9c.42 0 .636-.012.912-.048-.048.348-.048.588-.048 1.296v2.592c.192.444.48.708.96.912.408.18 1.164.252 2.508.252 2.22 0 3.468-.048 5.052-.216-.144.324-.228.66-.348 1.344-1.02.048-2.88.084-4.008.084-1.74 0-2.736-.072-3.264-.24-.612-.192-1.068-.516-1.524-1.116-.648.6-.648.6-1.74 1.44l-.588-1.356c.492-.204 1.104-.636 1.692-1.188v-2.58h-.648c-.324 0-.492.012-.804.06zm-6.792-3.48c-.228 1.884-.648 3.54-1.248 4.896-.684 1.548-1.452 2.256-2.436 2.256-1.368 0-2.352-1.392-2.352-3.324 0-1.32.468-2.556 1.32-3.492 1.008-1.104 2.424-1.68 4.128-1.68 2.88 0 4.752 1.752 4.752 4.452 0 2.076-1.08 3.732-2.916 4.476-.576.24-1.044.36-1.884.504-.204-.636-.348-.9-.732-1.404 1.104-.144 1.824-.336 2.388-.66 1.044-.576 1.668-1.716 1.668-3 0-1.152-.516-2.088-1.476-2.664-.372-.216-.684-.312-1.212-.36zm-1.464.012a3.055 3.055 0 00-1.548.588c-1.008.72-1.632 1.956-1.632 3.24 0 .984.42 1.764.948 1.764.396 0 .804-.504 1.236-1.536.456-1.08.852-2.7.996-4.056zm-14.724 4.392h-.468c-.42 0-.648.012-.9.06V23.56c.252.048.48.06.9.06h.612c.024-.492.036-.756.036-1.416h-.492c-.432 0-.636.012-.912.06v-1.2c.24.048.456.06.912.06h.492v-.372c0-.312-.024-.564-.06-.864h1.308c-.048.228-.06.432-.06.792v.444h1.428v-.36c0-.384-.012-.612-.06-.876h1.32c-.048.252-.06.48-.06.876v.36h.396c.48 0 .684-.012.948-.06v1.2c-.264-.048-.492-.06-.948-.06h-.396v1.416h.564c.456 0 .708-.012.948-.06v1.212c-.264-.048-.492-.06-.948-.06h-.564v1.08c0 .432.012.744.06 1.044h-1.32c.048-.324.06-.624.06-1.044v-1.08h-1.584c-.216 1.056-.552 1.668-1.296 2.316-.36-.252-.624-.396-1.14-.624.732-.552 1.032-.96 1.224-1.692zm2.796-2.508h-1.428c-.012.672-.024.936-.048 1.416h1.476v-1.416zm4.452 6.816h-1.368v-.684h-7.668v.684h-1.368c.048-.372.072-.864.072-1.56v-7.704c0-.564-.024-.996-.072-1.44.444.048.828.06 1.416.06h7.572c.588 0 .972-.012 1.416-.06-.048.444-.072.828-.072 1.44v7.716c0 .72.024 1.2.072 1.548zm-9.036-9.492v7.656h7.668v-7.656h-7.668zm-12.18.168h-.66c-.36.492-.648.828-1.248 1.404-.384-.504-.444-.576-.852-.888.564-.468.864-.768 1.176-1.236.312-.48.504-.876.6-1.272l1.284.228c-.168.348-.168.348-.324.684h1.704c.516 0 .84-.024 1.164-.072v.936c.408-.552.72-1.212.828-1.752l1.284.216c-.18.432-.18.432-.288.684h2.256c.696 0 .972-.012 1.308-.072v1.212c-.36-.048-.72-.06-1.26-.06h-.924c.264.444.432.732.504.888l-1.188.276a8.301 8.301 0 00-.6-1.164h-.684c-.348.528-.588.804-1.092 1.32a4.44 4.44 0 00-.876-.828c.3-.264.384-.324.516-.468a6.25 6.25 0 00-.66-.036h-.72c.156.252.24.408.48.828l-.792.228c-.012.18-.012.216-.012.456h1.356c.42 0 .648-.012.876-.048v1.068a5.677 5.677 0 00-.876-.048h-1.356v.528h.888c.636 0 .84-.012 1.068-.036-.024.288-.036.48-.036 1.044v1.5c0 .588.012.804.036 1.02a16.816 16.816 0 00-.984-.024h-.972v.528h1.344c.408 0 .66-.012.876-.048v1.104c-.396-.048-.48-.048-.864-.048h-1.356v.096c0 .492.024.816.072 1.128h-1.272c.048-.312.072-.624.072-1.128v-.096h-1.548c-.324 0-.372 0-.888.06v-1.14c.252.048.54.072.876.072h1.56v-.528h-.888c-.552 0-.732 0-1.068.036.024-.3.036-.588.036-1.056V23.74c0-.552-.012-.72-.036-1.068.372.036.492.036 1.08.036h.876v-.528h-1.56c-.336 0-.528.012-.816.048v-1.08c.264.048.468.06.828.06h1.548c0-.264-.024-.516-.06-.696h.684a29.57 29.57 0 00-.42-.816zm-.204 3.828h-.852v.528h.852v-.528zm1.128 0v.528h.852v-.528h-.852zm-1.128 1.32h-.852v.552h.852v-.552zm1.128 0v.552h.852v-.552h-.852zm5.664-2.532h-1.776v4.956c0 .228.036.3.18.348.108.048.408.072.804.072.768 0 .996-.048 1.128-.204.12-.168.18-.636.18-1.536.516.264.804.372 1.212.444-.048 1.104-.108 1.476-.312 1.824-.12.204-.288.336-.564.444-.264.108-.72.156-1.5.156-1.284 0-1.608-.036-1.908-.204-.312-.18-.432-.408-.432-.828v-5.592c0-.528-.012-.816-.06-1.056.228.036.504.048.984.048h2.316c.468 0 .768-.012 1.008-.048-.036.264-.048.492-.048 1.272 0 1.332-.048 2.268-.144 2.664-.12.552-.504.78-1.284.78-.084 0-.36-.012-.828-.036a4.228 4.228 0 00-.276-1.176c.372.06.72.084.936.084.228 0 .276-.072.324-.456.036-.312.06-.816.06-1.956zM108.3 27.22v-7.512h-3.144c-.564 0-1.02.024-1.524.072v-1.356c.456.048.924.072 1.512.072h6.948c.564 0 1.032-.024 1.524-.072v1.356c-.48-.048-.996-.072-1.524-.072h-2.412v2.928h2.052c.576 0 .96-.024 1.344-.072v1.332a10.662 10.662 0 00-1.344-.072h-2.052v3.396h2.748c.6 0 1.104-.024 1.584-.084v1.392c-.468-.06-.936-.084-1.572-.084h-7.668c-.6 0-1.068.024-1.584.084v-1.392c.444.072.768.084 1.56.084H105v-3.876c0-.624-.024-1.116-.084-1.56h1.524c-.06.42-.084.924-.084 1.548v3.888h1.944zm-16.668-6.636h-.228c-.216.624-.372.948-.744 1.536a4.76 4.76 0 00-.888-.948c.504-.756.792-1.524.996-2.604.024-.12.048-.36.084-.696l1.26.228c-.06.156-.072.204-.18.648-.048.18-.084.312-.18.684h.924c.468 0 .672-.012.912-.048v1.224c-.24-.012-.372-.024-.768-.024-.024 1.308-.024 1.308-.06 1.968H93c.3 0 .552-.012.732-.036-.108-.168-.168-.228-.36-.42.912-.42 1.32-.708 1.86-1.272h-.372c-.528 0-.756.012-1.056.048V19.78c.348.024.54.036 1.032.036h1.14c.12-.216.18-.324.276-.54-.576.036-.996.048-2.064.06-.216-.552-.24-.612-.444-.984.432.012.756.024.924.024 1.992 0 4.104-.252 4.836-.576l.732 1.02c-.12.024-.132.024-.3.048-.648.12-1.608.252-2.376.324-.12.252-.168.336-.312.624h2.136c.576 0 1.02-.024 1.32-.06v1.128a9.9 9.9 0 00-1.284-.06h-.672c.492.504 1.224.888 2.292 1.212-.264.384-.324.528-.54 1.128a7.533 7.533 0 01-1.392-.732v.42c0 .372 0 .528.024.744-.228-.012-.444-.024-.828-.024h-2.46c-.372 0-.6.012-.828.024.024-.24.036-.396.036-.744v-.432c-.36.288-.504.396-.972.684a2.23 2.23 0 00-.276-.492v1.152a5.103 5.103 0 00-.828-.048h-.324c-.024.204-.036.288-.084.6a6.988 6.988 0 001.308 1.656v-1.02c0-.396-.024-.72-.06-1.02.276.036.648.06 1.188.06h4.32c.564 0 .924-.012 1.212-.06-.036.336-.048.792-.048 1.224v2.52c0 .708-.096.936-.444 1.08-.24.12-.612.156-1.392.156-.12 0-.3 0-.54-.012-.024-.42-.072-.624-.192-1.032h-1.236v.468H95.64c.024-.168.036-.516.036-.792v-1.368c0-.36-.012-.552-.024-.768.156.036.276.036.684.036h1.68c.384 0 .504 0 .66-.036-.024.204-.024.276-.024.732v1.596h.312c.264 0 .312-.048.312-.324V25h-4.2v2.676c0 .792 0 1.008.048 1.332h-1.32c.048-.36.072-.792.072-1.512v-1.32c-.216.288-.348.528-.564 1.044-.468-.492-.708-.828-1.08-1.464-.348 1.104-.792 1.848-1.656 2.784-.18-.432-.42-.768-.852-1.188 1.044-.948 1.464-1.812 1.728-3.636h-.528c-.348 0-.636.024-.936.06v-1.284c.3.048.588.06 1.02.06h.564c.036-.552.048-1.02.06-1.968zm5.736.24h-.744c-.18.252-.264.348-.444.552h1.668a7.55 7.55 0 01-.48-.552zm-.696 5.448v.696h1.008v-.696h-1.008zm-.48-4.08v.54h1.764v-.54h-1.764zM205.073 2.308c-.228 1.884-.648 3.54-1.248 4.896-.684 1.548-1.452 2.256-2.436 2.256-1.368 0-2.352-1.392-2.352-3.324 0-1.32.468-2.556 1.32-3.492 1.008-1.104 2.424-1.68 4.128-1.68 2.88 0 4.752 1.752 4.752 4.452 0 2.076-1.08 3.732-2.916 4.476-.576.24-1.044.36-1.884.504-.204-.636-.348-.9-.732-1.404 1.104-.144 1.824-.336 2.388-.66 1.044-.576 1.668-1.716 1.668-3 0-1.152-.516-2.088-1.476-2.664-.372-.216-.684-.312-1.212-.36zm-1.464.012a3.055 3.055 0 00-1.548.588c-1.008.72-1.632 1.956-1.632 3.24 0 .984.42 1.764.948 1.764.396 0 .804-.504 1.236-1.536.456-1.08.852-2.7.996-4.056zm-11.896 7.824h-1.416c-.06-.384-.252-.948-.528-1.62l-1.728-4.116c-.228-.54-.336-.864-.612-1.836.048.636.096 1.62.096 1.884v3.936c0 .828.024 1.284.096 1.752h-1.68c.072-.48.096-.948.096-1.752V2.368c0-.78-.024-1.284-.096-1.776h2.196c.084.42.24.924.444 1.428l2.436 5.952 2.424-5.952a6.65 6.65 0 00.432-1.428h2.208c-.072.576-.096.972-.096 1.776v6.024c0 .876.024 1.308.096 1.752h-1.68c.072-.492.096-.924.096-1.752V4.408c.048-1.044.084-1.656.096-1.836-.156.648-.384 1.32-.552 1.752l-1.8 4.224c-.24.564-.456 1.236-.528 1.596zM181.67 6.928l1.716.3c-.228.864-.444 1.332-.804 1.8-.684.84-1.836 1.308-3.276 1.308-1.308 0-2.352-.396-3.084-1.152-.84-.876-1.308-2.232-1.308-3.768 0-1.584.504-2.976 1.404-3.876.72-.732 1.8-1.14 3-1.14.936 0 1.644.18 2.304.576.54.336.972.78 1.272 1.308.144.252.228.468.372.924l-1.668.384c-.168-.528-.276-.756-.516-1.032-.408-.492-1.008-.744-1.752-.744-1.704 0-2.736 1.332-2.736 3.54 0 2.196 1.056 3.564 2.736 3.564.84 0 1.56-.324 1.944-.888.204-.3.3-.552.396-1.104zm-8.575 1.68v1.62c-.432-.06-.852-.084-1.704-.084h-3.552c-.672 0-1.092.012-1.524.036.072-.444.096-.888.096-1.584V2.368c0-.828-.024-1.26-.096-1.776h1.812c-.072.492-.096.888-.096 1.764v6.336h3.36c.816 0 1.2-.024 1.704-.084zM155.839.388l1.56-.252c.048.804.408 2.532.792 3.756.78-.288.78-.288 3.108-1.056.216-.072.276-.096.456-.18l.516 1.512c-1.044.204-2.616.66-3.96 1.152-1.752.648-2.628 1.416-2.628 2.28 0 .876.816 1.248 2.748 1.248 1.5 0 2.976-.18 3.876-.492l.132 1.644c-.264 0-.324.012-.972.084-1.296.132-1.968.18-2.808.18-1.668 0-2.712-.204-3.48-.66-.66-.396-1.044-1.14-1.044-2.004 0-.804.384-1.572 1.068-2.148.468-.396.852-.636 1.632-1.032-.3-.972-.504-1.776-.804-3.252-.12-.576-.132-.6-.192-.78zM143.887 10.54h-1.644c.06-.384.072-.708.072-1.344V1.504c0-.588-.024-.9-.072-1.224h1.644c-.048.36-.048.516-.048 1.26v2.232c1.644.576 3.528 1.452 5.448 2.532l-.84 1.416c-.996-.684-2.244-1.368-4.248-2.292-.276-.132-.312-.144-.408-.204.036.336.048.48.048.816v3.168c0 .624.012.936.048 1.332zm-8.292-8.976l.768.756c-.12.18-.168.288-.3.72-.552 1.824-1.404 3.444-2.46 4.632-1.104 1.26-2.424 2.196-4.272 3.048-.336-.6-.492-.804-1.02-1.26 1.2-.492 1.872-.852 2.628-1.416 1.716-1.272 2.844-2.916 3.504-5.064l-3.612.06a11.745 11.745 0 01-2.808 3.072c-.36-.492-.54-.648-1.164-1.032 1.368-.936 2.232-1.896 3.108-3.48.372-.684.564-1.152.612-1.584l1.644.324c-.072.108-.072.108-.204.372-.036.06-.036.06-.156.336l-.156.312c-.072.168-.072.168-.192.384.156-.012.348-.024.576-.024l2.628-.036c.468 0 .6-.024.876-.12zM115.063.556l1.704.012c-.048.324-.06.624-.072 1.212l-.06 6.852c1.248-.24 2.376-.696 3.276-1.32 1.104-.756 1.848-1.584 2.448-2.748.468.624.624.792 1.14 1.224-.828 1.272-1.596 2.076-2.676 2.796-1.2.804-2.424 1.272-4.368 1.644-.324.06-.468.108-.72.204l-.768-.924c.084-.324.108-.54.108-1.236l.048-6.48c0-.84 0-.84-.06-1.236zm-6.972 8.856h-5.472c-.828 0-1.116.012-1.476.048V7.912c.444.072.66.084 1.5.084h5.46V2.764h-5.256c-.852 0-1.104.012-1.536.06v-1.56c.444.072.672.084 1.548.084h5.772c.624 0 .624 0 1.044-.024-.036.324-.036.444-.036.996v6.588c0 .6.012.936.06 1.236h-1.608v-.732zM96.69.82l.805.912c-.168.204-.168.216-.48.84a7.615 7.615 0 01-1.848 2.412c-.48.42-.876.684-1.44.996-.36-.504-.54-.684-1.08-1.092.804-.36 1.26-.636 1.752-1.104a4.976 4.976 0 001.14-1.524h-6.3c-.84 0-1.14.012-1.632.072v-1.5c.456.072.828.096 1.656.096h6.264c.72 0 .828-.012 1.164-.108zm-5.7 2.424h1.633c-.036.228-.036.24-.048.972-.048 2.052-.372 3.204-1.188 4.248-.72.924-1.596 1.536-3.096 2.16-.312-.648-.468-.864-.948-1.368.972-.288 1.512-.552 2.1-1.02 1.224-.972 1.608-2.004 1.608-4.272 0-.36-.012-.468-.06-.72zM75.511.532l1.632.012c-.048.336-.048.444-.048 1.08v3.312c0 .6 0 .756.048 1.056h-1.644c.036-.276.06-.648.06-1.08v-3.3c0-.612-.012-.768-.048-1.08zm5.412.024h1.668c-.048.3-.06.432-.06 1.116v1.62c-.012 1.872-.096 2.88-.312 3.636-.348 1.2-1.116 2.1-2.364 2.796-.636.36-1.236.6-2.34.924-.216-.588-.336-.792-.84-1.428 1.176-.228 1.872-.48 2.592-.96 1.128-.744 1.524-1.476 1.656-3.06.048-.516.06-1.044.06-2.004v-1.5c0-.612-.012-.864-.06-1.14zM69.595 1.564l.768.756c-.12.18-.168.288-.3.72-.552 1.824-1.404 3.444-2.46 4.632-1.104 1.26-2.424 2.196-4.272 3.048-.336-.6-.492-.804-1.02-1.26 1.2-.492 1.872-.852 2.628-1.416 1.716-1.272 2.844-2.916 3.504-5.064l-3.612.06a11.745 11.745 0 01-2.808 3.072c-.36-.492-.54-.648-1.164-1.032 1.368-.936 2.232-1.896 3.108-3.48.372-.684.564-1.152.612-1.584l1.644.324c-.072.108-.072.108-.204.372-.036.06-.036.06-.156.336l-.156.312c-.072.168-.072.168-.192.384.156-.012.348-.024.576-.024l2.628-.036c.468 0 .6-.024.876-.12z" fill="#C36800"/><path d="M14.47 58.56c-.12.18-.17.29-.3.72-.55 1.82-1.4 3.44-2.46 4.63-1.1 1.26-2.42 2.19-4.27 3.05-.34-.6-.49-.8-1.02-1.26 1.2-.49 1.87-.85 2.63-1.42 1.71-1.27 2.84-2.91 3.5-5.06l-3.61.06a11.68 11.68 0 01-2.81 3.07c-.36-.49-.54-.65-1.16-1.03 1.37-.94 2.23-1.9 3.11-3.48.37-.68.56-1.15.61-1.58l1.64.32a4.598 4.598 0 00-.2.37c-.027.04-.08.15-.16.33l-.16.31c-.046.113-.11.24-.19.38.16-.01.35-.02.58-.02l2.63-.04c.47 0 .6-.02.88-.12l.77.75-.01.02zm5.33-1.77c-.05.33-.05.44-.05 1.08v3.31c0 .6 0 .75.05 1.05h-1.64c.04-.28.06-.65.06-1.08v-3.3c0-.61-.01-.77-.05-1.08h1.63v.02zm5.44.01c-.05.3-.06.43-.06 1.12v1.62c-.01 1.87-.1 2.88-.31 3.63-.35 1.2-1.12 2.1-2.36 2.79-.64.36-1.24.6-2.34.92-.22-.59-.34-.79-.84-1.43 1.17-.23 1.87-.48 2.59-.96 1.13-.74 1.52-1.47 1.66-3.06.05-.52.06-1.04.06-2v-1.5c0-.61-.01-.86-.06-1.14h1.67l-.01.01zm8.64 2.69c-.04.23-.04.24-.05.97-.05 2.05-.37 3.2-1.19 4.25-.72.92-1.59 1.54-3.09 2.16-.31-.65-.47-.86-.95-1.37.97-.29 1.51-.55 2.1-1.02 1.22-.97 1.61-2 1.61-4.27 0-.36-.01-.47-.06-.72h1.63zm4.87-1.51c-.17.2-.17.22-.48.84-.42.89-1.12 1.79-1.85 2.41-.48.42-.88.68-1.44 1-.36-.5-.54-.68-1.08-1.09.8-.36 1.26-.63 1.75-1.1.49-.46.86-.95 1.14-1.52h-6.3c-.84 0-1.14.01-1.63.07v-1.5c.46.07.83.1 1.66.1h6.26c.72 0 .83-.01 1.16-.11l.8.91.01-.01zM7.13 79.65c-.83 0-1.12.01-1.48.05v-1.55c.44.07.66.08 1.5.08h5.46V73H7.36c-.85 0-1.1.01-1.54.06V71.5c.44.07.67.08 1.55.08h5.77c.413 0 .76-.007 1.04-.02-.04.32-.04.44-.04 1v6.58c0 .6.01.94.06 1.24h-1.61v-.73H7.12h.01zm12.92-8.84c-.05.32-.06.62-.07 1.21l-.06 6.85c1.25-.24 2.38-.7 3.27-1.32 1.1-.75 1.85-1.58 2.45-2.75.47.62.62.79 1.14 1.22-.83 1.27-1.59 2.07-2.67 2.79-1.2.8-2.42 1.27-4.37 1.64-.32.06-.47.11-.72.2l-.77-.92c.08-.32.11-.54.11-1.24l.05-6.48c0-.56-.02-.973-.06-1.24h1.7v.04zm18.82 1.75c-.12.18-.17.29-.3.72-.55 1.82-1.4 3.44-2.46 4.63-1.1 1.26-2.42 2.19-4.27 3.05-.34-.6-.49-.8-1.02-1.26 1.2-.49 1.87-.85 2.63-1.42 1.71-1.27 2.84-2.91 3.5-5.06l-3.61.06a11.68 11.68 0 01-2.81 3.07c-.36-.49-.54-.65-1.16-1.03 1.37-.94 2.23-1.9 3.11-3.48.37-.68.56-1.15.61-1.58l1.64.32a4.631 4.631 0 00-.2.37c-.026.04-.08.15-.16.33l-.16.31c-.047.113-.11.24-.19.38.16-.01.35-.02.58-.02l2.63-.04c.47 0 .6-.02.88-.12l.77.75-.01.02zm4.05 8.22c.06-.38.07-.71.07-1.34v-7.69c0-.59-.02-.9-.07-1.22h1.64c-.05.36-.05.52-.05 1.26v2.23c1.64.58 3.53 1.45 5.45 2.53l-.84 1.42c-1-.68-2.24-1.37-4.25-2.29-.28-.13-.31-.14-.41-.2.04.34.05.48.05.82v3.17c0 .62.01.94.05 1.33h-1.64v-.02z" fill="#EF5274"/><path d="M126.65 126.13c-.43-.06-.85-.08-1.7-.08h-3.55c-.67 0-1.09.01-1.52.04.07-.44.1-.89.1-1.58v-6.22c0-.83-.02-1.26-.1-1.77h1.81c-.07.49-.1.89-.1 1.76v6.33h3.36c.82 0 1.2-.02 1.7-.08v1.62-.02zm10.141-3c-.23.86-.44 1.33-.8 1.8-.68.84-1.83 1.31-3.27 1.31-1.31 0-2.35-.4-3.08-1.15-.84-.88-1.31-2.23-1.31-3.77s.5-2.97 1.4-3.87c.72-.73 1.8-1.14 3-1.14.94 0 1.64.18 2.3.58.54.34.97.78 1.27 1.31.14.25.23.47.37.92l-1.67.38c-.17-.53-.28-.76-.52-1.03-.41-.49-1.01-.74-1.75-.74-1.7 0-2.73 1.33-2.73 3.54s1.06 3.56 2.73 3.56c.84 0 1.56-.32 1.94-.89.2-.3.3-.55.4-1.1l1.71.3.01-.01zm6.759 2.91c-.06-.38-.25-.95-.53-1.62l-1.73-4.11c-.23-.54-.34-.86-.61-1.83.05.64.1 1.62.1 1.88v3.93c0 .83.02 1.28.1 1.75h-1.68c.07-.48.1-.95.1-1.75v-6.02c0-.78-.02-1.28-.1-1.77h2.19c.08.42.24.92.44 1.43l2.43 5.95 2.42-5.95c.24-.59.35-.97.43-1.43h2.21c-.07.58-.1.97-.1 1.77v6.02c0 .88.02 1.31.1 1.75h-1.68c.07-.49.1-.92.1-1.75v-3.98c.05-1.04.08-1.66.1-1.83-.16.65-.38 1.32-.55 1.75l-1.8 4.22c-.24.56-.46 1.24-.53 1.6h-1.42l.01-.01z" fill="#00AEE0"/><path d="M233.94 118.4l3.49-6.3h1.82l-3.57 6.3h-1.74zm0 .98v-.98l.69-.46h6.92v1.44h-7.61zm4.65 2.52v-6.41h1.58v6.41h-1.58zm-210.14-3.5l3.49-6.3h1.82l-3.57 6.3h-1.74zm0 .98v-.98l.69-.46h6.92v1.44h-7.61zm4.65 2.52v-6.41h1.58v6.41H33.1zm-12.07 26.16c-.68 0-1.29-.12-1.82-.36s-.98-.59-1.34-1.04l1.09-1.09c.2.3.47.54.83.71.36.18.76.27 1.21.27.41 0 .77-.07 1.08-.22.31-.15.55-.36.73-.64.18-.28.27-.61.27-.99s-.09-.73-.26-1-.4-.47-.69-.6c-.29-.14-.59-.2-.92-.2-.37 0-.71.04-1 .13-.29.09-.58.23-.86.45l.04-1.01c.15-.2.32-.36.52-.48.2-.13.42-.22.69-.29.27-.07.57-.1.92-.1.69 0 1.27.14 1.74.43s.83.67 1.07 1.16c.24.48.36 1.01.36 1.6 0 .63-.16 1.2-.47 1.69-.31.5-.74.88-1.3 1.17-.55.29-1.19.43-1.9.43l.01-.02zm-1.68-4.61l-.88-.88.43-4.45h1.47l-.5 4.63-.52.7zm-.17-3.89l-.28-1.44h5.25v1.44h-4.97zm229.06 8.5c-.68 0-1.29-.12-1.82-.36s-.98-.59-1.34-1.04l1.09-1.09c.2.3.47.54.83.71.36.18.76.27 1.21.27.41 0 .77-.07 1.08-.22.31-.15.55-.36.73-.64.18-.28.27-.61.27-.99s-.09-.73-.26-1-.4-.47-.69-.6c-.29-.14-.59-.2-.92-.2-.37 0-.71.04-1 .13-.29.09-.58.23-.86.45l.04-1.01c.15-.2.32-.36.52-.48.2-.13.42-.22.69-.29.26-.07.57-.1.92-.1.69 0 1.27.14 1.74.43s.83.67 1.07 1.16c.24.48.36 1.01.36 1.6 0 .63-.16 1.2-.47 1.69-.31.5-.74.88-1.29 1.17-.55.29-1.19.43-1.9.43v-.02zm-1.68-4.61l-.88-.88.43-4.45h1.47l-.5 4.63-.52.7zm-.17-3.89l-.28-1.44h5.25v1.44h-4.97zm13.85 38.21c-.65 0-1.24-.15-1.76-.46-.52-.3-.94-.71-1.24-1.22-.3-.51-.46-1.08-.46-1.71 0-.9.31-1.8.94-2.72l2.67-3.84h1.86l-2.86 4.02-.59.35c.09-.21.21-.4.36-.55.15-.15.34-.27.57-.36.23-.09.53-.13.89-.13.57 0 1.08.13 1.55.4.46.27.83.63 1.11 1.11.28.47.42 1.02.42 1.66 0 .64-.15 1.21-.46 1.74-.31.52-.73.94-1.25 1.25-.53.31-1.11.46-1.76.46h.01zm0-1.51c.35 0 .67-.08.95-.25.28-.17.5-.4.66-.69.16-.29.25-.62.25-.99s-.08-.69-.25-.98c-.16-.29-.38-.52-.66-.68-.28-.16-.6-.25-.95-.25a1.799 1.799 0 00-1.61.93c-.16.29-.24.61-.24.97s.08.69.24.99c.16.29.38.53.66.69.28.17.6.25.95.25v.01zm-250.5 1.51c-.65 0-1.24-.15-1.76-.46-.52-.3-.94-.71-1.24-1.22-.3-.51-.46-1.08-.46-1.71 0-.9.31-1.8.94-2.72l2.67-3.84h1.86l-2.86 4.02-.59.35c.09-.21.21-.4.36-.55.15-.15.34-.27.57-.36.23-.09.53-.13.89-.13.57 0 1.08.13 1.55.4.46.27.83.63 1.11 1.11.28.47.42 1.02.42 1.66 0 .64-.15 1.21-.46 1.74-.31.52-.73.94-1.25 1.25-.53.31-1.11.46-1.76.46h.01zm0-1.51c.35 0 .67-.08.95-.25.28-.17.5-.4.66-.69.16-.29.25-.62.25-.99s-.08-.69-.25-.98c-.16-.29-.38-.52-.66-.68-.28-.16-.6-.25-.95-.25a1.799 1.799 0 00-1.61.93c-.16.29-.24.61-.24.97s.08.69.24.99c.16.29.38.53.66.69.28.17.6.25.95.25v.01zM.68 209.81v-1.44h6.57v.98l-.69.46H.68zm1.4 8.36l3.57-8.82h1.6l-3.49 8.82H2.08zm260.64-8.36v-1.44h6.57v.98l-.69.46h-5.88zm1.4 8.36l3.57-8.82h1.6l-3.49 8.82h-1.68zm2.55 35.21c-.67 0-1.26-.12-1.75-.36a2.72 2.72 0 01-1.15-1.02c-.28-.43-.41-.93-.41-1.48 0-.44.09-.84.26-1.21s.42-.68.76-.95c.33-.26.73-.45 1.18-.56l-.04.45c-.37-.1-.69-.27-.94-.5-.26-.23-.45-.51-.58-.83-.13-.32-.2-.65-.2-.99 0-.52.12-.98.37-1.38.25-.4.59-.71 1.03-.93.44-.22.93-.34 1.48-.34.55 0 1.06.11 1.49.34.43.22.77.54 1.02.93.25.4.37.86.37 1.38a2.537 2.537 0 01-.77 1.82c-.25.24-.57.4-.95.5l-.04-.45c.47.11.86.3 1.19.56.33.26.58.58.75.95.17.37.26.77.26 1.21 0 .55-.14 1.04-.41 1.48-.27.44-.66.77-1.16 1.02-.5.24-1.08.36-1.76.36zm0-1.46c.35 0 .65-.07.92-.21.27-.14.48-.33.63-.57.15-.24.23-.52.23-.83 0-.31-.08-.6-.23-.83-.15-.24-.36-.43-.63-.57a1.95 1.95 0 00-.92-.21c-.35 0-.65.07-.92.21-.27.14-.48.33-.63.57-.15.24-.23.52-.23.83 0 .31.08.58.23.83.15.24.36.43.63.57.27.14.57.21.92.21zm0-4.48c.41 0 .75-.13 1.01-.39s.39-.6.39-1.01c0-.41-.13-.74-.39-1s-.6-.38-1.01-.38c-.41 0-.73.13-1 .38s-.4.59-.4 1c0 .41.13.75.4 1.01s.6.39 1 .39zM3.31 253.38c-.67 0-1.26-.12-1.75-.36A2.72 2.72 0 01.41 252c-.28-.43-.41-.93-.41-1.48 0-.44.09-.84.26-1.21s.42-.68.76-.95c.33-.26.73-.45 1.18-.56l-.04.45c-.37-.1-.69-.27-.94-.5-.26-.23-.45-.51-.58-.83-.13-.32-.2-.65-.2-.99 0-.52.12-.98.37-1.38.25-.4.59-.71 1.03-.93.44-.22.93-.34 1.48-.34.55 0 1.06.11 1.49.34.43.22.77.54 1.02.93.25.4.37.86.37 1.38a2.537 2.537 0 01-.77 1.82c-.25.24-.57.4-.95.5l-.04-.45c.47.11.86.3 1.19.56.33.26.58.58.75.95.17.37.26.77.26 1.21 0 .55-.14 1.04-.41 1.48-.27.44-.66.77-1.16 1.02-.5.24-1.08.36-1.76.36zm0-1.46c.35 0 .65-.07.92-.21.27-.14.48-.33.63-.57.15-.24.23-.52.23-.83 0-.31-.08-.6-.23-.83-.15-.24-.36-.43-.63-.57a1.95 1.95 0 00-.92-.21c-.35 0-.65.07-.92.21-.27.14-.48.33-.63.57-.15.24-.23.52-.23.83 0 .31.08.58.23.83.15.24.36.43.63.57.27.14.57.21.92.21zm0-4.48c.41 0 .75-.13 1.01-.39s.39-.6.39-1.01c0-.41-.13-.74-.39-1s-.6-.38-1.01-.38c-.41 0-.73.13-1 .38s-.4.59-.4 1c0 .41.13.75.4 1.01s.6.39 1 .39zM216.6 93.24c-.65 0-1.24-.12-1.77-.36s-.97-.59-1.34-1.04l1.09-1.09c.2.3.47.54.83.71.35.18.74.27 1.16.27.42 0 .75-.07 1.04-.22.29-.15.52-.36.68-.63.16-.27.25-.58.25-.94 0-.37-.08-.69-.25-.95-.16-.26-.4-.46-.7-.61-.3-.14-.67-.22-1.1-.22-.17 0-.34.01-.52.04s-.34.06-.48.11l.71-.92c.2-.08.4-.14.62-.19.22-.05.43-.08.64-.08.5 0 .96.12 1.36.36.41.24.73.58.97 1.01.24.43.36.95.36 1.53 0 .63-.15 1.2-.45 1.68-.3.49-.71.86-1.25 1.13-.53.27-1.15.41-1.86.41h.01zm-2.62-8.5V83.3h6.06v.95l-1.39.49h-4.68.01zm1.51 3.56v-.95l2.62-3.05 1.93-.04-2.73 3.14-1.82.91v-.01zM52.72 93.24c-.65 0-1.24-.12-1.77-.36s-.97-.59-1.34-1.04l1.09-1.09c.2.3.47.54.83.71.35.18.74.27 1.16.27.42 0 .75-.07 1.04-.22.29-.15.52-.36.68-.63.16-.27.25-.58.25-.94 0-.37-.08-.69-.25-.95-.16-.26-.4-.46-.7-.61-.3-.14-.67-.22-1.1-.22-.17 0-.34.01-.52.04s-.34.06-.48.11l.71-.92c.2-.08.4-.14.62-.19.22-.05.43-.08.64-.08.5 0 .96.12 1.36.36.41.24.73.58.97 1.01.24.43.36.95.36 1.53 0 .63-.15 1.2-.45 1.68-.3.49-.71.86-1.25 1.13-.53.27-1.15.41-1.86.41h.01zm-2.62-8.5V83.3h6.06v.95l-1.39.49h-4.68.01zm1.51 3.56v-.95l2.62-3.05 1.93-.04-2.73 3.14-1.82.91v-.01zm132.28-17.22l3.61-3.84c.3-.32.54-.6.73-.85.19-.25.32-.49.41-.71.08-.22.13-.45.13-.69 0-.44-.14-.78-.43-1.03-.28-.25-.65-.37-1.08-.37-.47 0-.88.12-1.23.35-.35.23-.67.6-.95 1.09l-1.12-.92c.38-.66.85-1.16 1.41-1.5.56-.34 1.21-.51 1.95-.51.61 0 1.14.12 1.6.36.46.24.81.58 1.06 1.02.25.43.38.94.38 1.5 0 .41-.05.78-.15 1.1-.1.32-.26.64-.5.97-.23.32-.56.7-.97 1.13l-2.77 2.87-2.07.04-.01-.01zm0 .95v-.95l1.39-.49h5.26v1.44h-6.65zm-104.58-.95l3.61-3.84c.3-.32.54-.6.73-.85.19-.25.32-.49.41-.71.08-.22.13-.45.13-.69 0-.44-.14-.78-.43-1.03-.28-.25-.65-.37-1.08-.37-.47 0-.88.12-1.23.35-.35.23-.67.6-.95 1.09l-1.12-.92c.38-.66.85-1.16 1.41-1.5.56-.34 1.21-.51 1.95-.51.61 0 1.14.12 1.6.36.46.24.81.58 1.06 1.02.25.43.38.94.38 1.5 0 .41-.05.78-.15 1.1-.1.32-.26.64-.5.97-.23.32-.56.7-.97 1.13l-2.77 2.87-2.07.04-.01-.01zm0 .95v-.95l1.39-.49h5.26v1.44h-6.65zm69.47-22.59V48h3.4v1.44h-3.4zm1.96 8.36V48h1.58v9.8h-1.58zm-33.78-8.36V48h3.4v1.44h-3.4zm1.96 8.36V48h1.58v9.8h-1.58z" fill="#403B35"/><path d="M15.38 261.19c5.19 5.63 19.11 5.23 23.21-.66 3.32-4.78 4.15-19.1-.45-22.89-4.53-3.73-20.11-8.13-24.74-.11-2.84 4.92-2.69 18.6 1.99 23.66h-.01z" fill="#FFFFEF" stroke="#403B35" stroke-miterlimit="10"/><path d="M22.44 258.28c4.91-1.33 5.03-8.79 4.01-9.37-1.01-.58-2.26-.66-3.48-.69-1.76-.04-3.54 0-5.33.11m8.58 6.64c1.14 1.19 3.24 1.59 4.4 3.49m-4.65-9.89c1.39-4.22 1.34-6.27 1.1-7.11l-1.33-2.58m1.48 3.54c.66-1.11 2.41-1.55 3.47-2.21" stroke="#403B35" stroke-miterlimit="10" stroke-linecap="round"/><path d="M254.13 236.38c-5.37-5.42-19.24-4.52-23.12 1.5-3.15 4.89-3.5 19.2 1.22 22.81 4.64 3.55 20.33 7.38 24.68-.78 2.67-5.01 2.05-18.64-2.78-23.52v-.01z" fill="#FFFFEF" stroke="#403B35" stroke-miterlimit="10"/><path d="M247.19 239.53c-4.85 1.5-4.72 8.95-3.69 9.49 1.03.54 2.28.57 3.49.56 1.76-.02 3.53-.12 5.31-.3m-8.87-6.37c-1.18-1.15-3.28-1.46-4.51-3.32m5.07 9.76c-1.24 4.26-1.13 6.3-.85 7.13l1.42 2.52m-1.61-3.48c-.62 1.13-2.35 1.64-3.39 2.33" stroke="#403B35" stroke-miterlimit="10" stroke-linecap="round"/><path d="M41.78 117.96c2.62-4.48 12.74-7.23 15.61-4.59 5.54 5.1 10.45 16.5 7.35 21.39-3.16 4.98-11.93 5.62-21.12-.41-2.09-1.37-4.71-11.48-1.84-16.39z" fill="#FFFFEF" stroke="#403B35" stroke-miterlimit="10"/><path d="M55.16 119.95s.68 2.61 1.32 3.18c.64.57 2.14.58 3.31.8m-5.92 9.62s-.86-2.55-1.53-3.07c-.68-.52-2.17-.42-3.36-.55" stroke="#403B35" stroke-miterlimit="10" stroke-linecap="round"/><path d="M56.71 123.35c-2.76 2.11-4.19 3.4-4.56 6.94" stroke="#403B35" stroke-miterlimit="10"/><path d="M29.75 143.52c2.28-6.2 9.65-9.62 14.52-7.22 6.53 3.22 14.4 10.93 11.62 18.24-2.79 7.33-10.97 6.9-20.17 3.44-3.28-1.23-7.71-9.69-5.97-14.46z" fill="#FFFFEF" stroke="#403B35" stroke-miterlimit="10"/><path d="M43.13 140.81s.72 2.85 1.41 3.44c.65.55 2.11.44 3.27.57m-5.45 11.4s-.89-2.77-1.61-3.3c-.68-.5-2.14-.26-3.31-.28m7.41-8.2c-2.63 2.64-3.76 4.59-4.1 8.03" stroke="#403B35" stroke-miterlimit="10" stroke-linecap="round"/><path d="M15.55 226.31c4.44 7.08 18.56 8.71 23.53 2.72 4.03-4.86 6.91-20.8 2.8-25.73-4.04-4.85-19.16-12.11-24.97-3.82-3.57 5.09-5.36 20.45-1.36 26.82v.01z" fill="#FFFFEF" stroke="#403B35" stroke-miterlimit="10"/><path d="M23.08 224.1c5.15-.76 6.33-9.1 5.39-9.9-.94-.8-2.19-1.07-3.41-1.29-1.78-.31-3.58-.54-5.4-.67m7.69 8.8c.98 1.51 3.04 2.26 3.95 4.57m-3.26-11.87c2-4.52 2.25-6.83 2.12-7.81l-.98-3.09m.99 4.2c.82-1.15 2.66-1.38 3.82-1.96" stroke="#403B35" stroke-miterlimit="10" stroke-linecap="round"/><path d="M25.77 159.63c6.8-4.01 20.81 1.68 23.85 11.3 1.92 6.08-.69 13-1.08 15-1.62 8.24-5.36 9.11-6.81 10.04-5.27 3.36-20.08-2.36-23.29-9.6-2.39-5.41-1.16-7.49-.75-9.87.46-2.63.99-12.69 8.08-16.87z" fill="#FFFFEF" stroke="#403B35" stroke-miterlimit="10"/><path d="M30.59 188.8c1.02-3.89 6.15-3.65 9.52-2.34m-7.46-.71c-.27-2.28-.52-4.35-.29-6.76.23-2.41 1.04-4.98 2.52-6.66.74-.84 1.63-1.45 2.25-2.46m-1.51-3.63a35.69 35.69 0 001.85 3.65m-4.52 5.57c-2.84-.18-5.53-1.24-7.81-3.09m12.38-2.63c1.37.54 2.73 1.08 4.1 1.63" stroke="#403B35" stroke-miterlimit="10" stroke-linecap="round"/><path d="M108.69 66.63c2.93-1.97 6.27-3.05 9.64-3.71 2.27-.45 4.62-.91 6.95-.85 5.32.13 7.14 1 9.04 3.25.65.78.87 1.73.89 2.81.17 8.75-4.25 29.34-12.41 30.27-6.52.74-17.02-14.1-17.95-22.04-.05-.43-.11-.86-.2-1.28-.81-4.05 1.26-6.57 4.05-8.44l-.01-.01zM84.05 98.9c2.96 2.41 10.99 8.63 17.19 5.25 4.39-2.39 6.53-14.2 2.94-26.8-.65-2.27-1.83-4.33-3.98-5.02-.52-.17-1.05-.26-1.64-.29h-.31c-1.6 0-3.27.5-4.88.97-.32.1-.64.19-.96.28-1.43.41-2.97 1.03-4.86 1.97-3.76 1.86-11.37 7.96-11.63 11.38-.14 1.89.83 3.5 1.74 4.95 1.82 2.89 3.97 5.35 6.38 7.31h.01zm-27.51 12.45c5.08 7.27 21.59 12.72 25.78 7.42 3.55-4.49-2.11-23.88-5.67-26.59-3.04-2.31-9.32-1.31-12.28-.17-4.1 1.58-6.12 3.59-7.41 7.79-.92 2.98-1.82 9.53-.41 11.55h-.01zm173.09 6.58c-2.62-4.48-12.74-7.23-15.61-4.59-5.54 5.1-10.45 16.5-7.35 21.39 3.16 4.98 11.93 5.62 21.12-.41 2.09-1.37 4.71-11.48 1.84-16.39z" fill="#FFFFEF" stroke="#403B35" stroke-miterlimit="10"/><path d="M216.25 119.91s-.68 2.61-1.32 3.18c-.64.57-2.14.58-3.31.8m5.92 9.63s.86-2.55 1.53-3.07c.68-.52 2.17-.42 3.36-.55" stroke="#403B35" stroke-miterlimit="10" stroke-linecap="round"/><path d="M214.71 123.32c2.76 2.11 4.19 3.4 4.56 6.94" stroke="#403B35" stroke-miterlimit="10"/><path d="M241.67 143.49c-2.28-6.2-9.65-9.62-14.52-7.22-6.53 3.22-14.4 10.93-11.62 18.24 2.79 7.33 10.97 6.9 20.17 3.44 3.28-1.23 7.71-9.69 5.97-14.46z" fill="#FFFFEF" stroke="#403B35" stroke-miterlimit="10"/><path d="M228.28 140.78s-.72 2.85-1.41 3.44c-.65.55-2.11.44-3.27.57m5.45 11.4s.89-2.77 1.61-3.3c.68-.5 2.14-.26 3.31-.28m-7.4-8.2c2.63 2.64 3.76 4.59 4.1 8.03" stroke="#403B35" stroke-miterlimit="10" stroke-linecap="round"/><path d="M255.87 226.28c-4.44 7.08-18.56 8.71-23.53 2.72-4.03-4.86-6.91-20.8-2.8-25.73 4.04-4.85 19.16-12.11 24.97-3.82 3.57 5.09 5.36 20.45 1.36 26.82v.01z" fill="#FFFFEF" stroke="#403B35" stroke-miterlimit="10"/><path d="M248.7 224.81c-5.15-.76-6.33-9.1-5.39-9.9.94-.8 2.19-1.07 3.41-1.29 1.78-.31 3.58-.54 5.4-.67m-7.69 8.8c-.98 1.51-3.04 2.26-3.95 4.57m3.27-11.87c-2-4.52-2.25-6.83-2.12-7.81l.98-3.09m-1 4.19c-.82-1.15-2.66-1.38-3.82-1.96" stroke="#403B35" stroke-miterlimit="10" stroke-linecap="round"/><path d="M245.64 159.6c-6.8-4.01-20.81 1.68-23.85 11.3-1.92 6.08.69 13 1.08 15 1.62 8.24 4.99 9.15 6.83 10.25 4.88 2.93 20.06-2.57 23.27-9.82 2.39-5.41 1.16-7.49.75-9.87-.45-2.63-.99-12.69-8.08-16.87v.01z" fill="#FFFFEF" stroke="#403B35" stroke-miterlimit="10"/><path d="M240.82 188.77c-1.02-3.89-6.15-3.65-9.52-2.34m7.47-.71c.27-2.28.52-4.35.29-6.76-.23-2.41-1.04-4.98-2.52-6.66-.74-.84-1.63-1.45-2.25-2.46m1.5-3.63a35.69 35.69 0 01-1.85 3.65m4.52 5.56c2.84-.18 5.53-1.24 7.81-3.09m-12.37-2.62c-1.37.54-2.73 1.08-4.1 1.63" stroke="#403B35" stroke-miterlimit="10" stroke-linecap="round"/><path d="M162.73 66.6c-2.93-1.97-6.27-3.05-9.64-3.71-2.27-.45-4.62-.91-6.95-.85-5.32.13-7.14 1-9.04 3.25-.65.78-.87 1.73-.89 2.81-.17 8.75 4.25 29.34 12.41 30.27 6.52.74 17.02-14.1 17.95-22.04.05-.43.11-.86.2-1.28.81-4.05-1.26-6.57-4.05-8.44l.01-.01z" fill="#FFFFEF" stroke="#403B35" stroke-miterlimit="10"/><path d="M71.44 116.19c8.13 2.22 8.86.37 8.13-6.28" stroke="#403B35" stroke-miterlimit="10" stroke-linecap="round"/><path d="M187.36 98.87c-2.96 2.41-10.99 8.63-17.19 5.25-4.39-2.39-6.53-14.2-2.94-26.8.65-2.27 1.83-4.33 3.98-5.02.52-.17 1.05-.26 1.64-.28h.31c1.6 0 3.27.5 4.88.97.32.1.64.19.96.28 1.43.41 2.97 1.03 4.86 1.97 3.76 1.86 11.37 7.96 11.63 11.38.14 1.89-.83 3.5-1.74 4.95-1.82 2.89-3.97 5.35-6.38 7.31l-.01-.01zm27.51 12.22c-5.07 7.18-21.56 12.57-25.73 7.34-3.54-4.44 2.11-23.58 5.67-26.26 3.03-2.28 9.3-1.3 12.26-.17 4.09 1.56 6.1 3.54 7.4 7.69.92 2.94 1.81 9.41.4 11.4z" fill="#FFFFEF" stroke="#403B35" stroke-miterlimit="10"/><path d="M192.36 108.2c-1.99 8.36.23 9.84 7.25 7.62M92.36 99.22c6.78 4.05 8.63 2.2 9.01-4.93m14.39-5.43c5.91 7.39 8.5 7.02 11.82-1.85m16.62 1.1c3.31 7.76 5.89 8.51 11.45 1.5m14.61 4.43c.19 8.13 2.9 8.64 9.55 4.83" stroke="#403B35" stroke-miterlimit="10" stroke-linecap="round"/><path opacity=".2" d="M135.2 55.68c11.53 0 44.75 5.26 71.39 25.94 23.7 18.4 30.86 33.92 38.68 50.13 6.68 13.86 11.74 33.28 15.39 50.52 3.65 17.24 5.77 34.36 2.35 44.34-3.6 10.49-7.88 14.21-15.38 15.02-7.5.81-20.33-.81-23.84-10.7-3.52-9.88-12.56-65.69-26.77-90.12-18.97-32.61-52.28-38.35-61.82-38.35s-42.85 5.74-61.82 38.35c-14.21 24.43-23.25 80.24-26.77 90.12-3.52 9.88-16.35 11.51-23.84 10.7-7.49-.81-11.78-4.53-15.38-15.02-3.6-10.49-1.31-27.1 2.35-44.34 3.66-17.24 8.71-36.66 15.39-50.52 7.81-16.21 14.97-31.72 38.68-50.13 26.64-20.68 59.87-25.94 71.39-25.94z" fill="#EF5274"/><path d="M135.2 55.68c11.53 0 44.75 5.26 71.39 25.94 23.7 18.4 30.86 33.92 38.68 50.13 6.68 13.86 11.74 33.28 15.39 50.52 3.65 17.24 5.77 34.36 2.35 44.34-3.6 10.49-7.88 14.21-15.38 15.02-7.5.81-20.33-.81-23.84-10.7-3.52-9.88-12.56-65.69-26.77-90.12-18.97-32.61-52.28-38.35-61.82-38.35s-42.85 5.74-61.82 38.35c-14.21 24.43-23.25 80.24-26.77 90.12-3.52 9.88-16.35 11.51-23.84 10.7-7.49-.81-11.78-4.53-15.38-15.02-3.6-10.49-1.31-27.1 2.35-44.34 3.66-17.24 8.71-36.66 15.39-50.52 7.81-16.21 14.97-31.72 38.68-50.13 26.64-20.68 59.87-25.94 71.39-25.94z" stroke="#EF5274" stroke-linecap="round" stroke-linejoin="round"/><path opacity=".2" d="M219.27 100.15c-6.87-9.47-5.7-7.78-15.75-15.58-26.17-20.32-50.68-24.89-68.32-24.89-17.64 0-42.15 4.57-68.32 24.89-2.94 2.28-5.62 4.11-7.78 6.22-21.98 21.52 8.71 47.89 24.22 31.01 17.46-19 41.78-22.91 51.89-22.91 11.53 0 31.22 4.42 51.35 22.08 17.81 15.63 43.24-6.32 32.72-20.83l-.01.01z" fill="#00AEE0"/><path d="M219.27 100.15c-6.87-9.47-5.7-7.78-15.75-15.58-26.17-20.32-50.68-24.89-68.32-24.89-17.64 0-42.15 4.57-68.32 24.89-2.94 2.28-5.62 4.11-7.78 6.22-21.98 21.52 8.71 47.89 24.22 31.01 17.46-19 41.78-22.91 51.89-22.91 11.53 0 31.22 4.42 51.35 22.08 17.81 15.63 43.24-6.32 32.72-20.83l-.01.01z" stroke="#00AEE0" stroke-linecap="round" stroke-linejoin="round"/></svg>