<svg width="310" height="215" viewBox="0 0 310 215" fill="none" xmlns="http://www.w3.org/2000/svg"><path d="M32.79 4.45v179.087H310" stroke="#403B35" stroke-miterlimit="10"/><path d="M297.48 189.807v-1.24h5.65v.84l-.59.4h-5.06zm1.2 7.19l3.07-7.59h1.37l-3 7.59h-1.45.01zm5.14-.82l3.11-3.3c.26-.27.47-.52.63-.74.16-.22.28-.42.35-.61.07-.19.11-.39.11-.59 0-.38-.12-.67-.37-.89-.25-.22-.56-.32-.93-.32-.4 0-.75.1-1.06.3-.31.2-.58.51-.82.94l-.96-.8c.33-.57.74-1 1.22-1.3.48-.3 1.04-.44 1.67-.44.52 0 .98.1 1.37.31.39.21.7.5.92.87.22.37.33.8.33 1.3 0 .35-.04.67-.13.95-.08.28-.23.55-.43.83-.2.28-.48.6-.83.97l-2.39 2.47-1.78.04-.01.01zm0 .82v-.82l1.19-.42h4.53v1.24h-5.72zm-51.24.12c-.56 0-1.07-.13-1.52-.39-.45-.26-.8-.61-1.07-1.05-.26-.44-.39-.93-.39-1.47 0-.77.27-1.55.81-2.34l2.3-3.3h1.6l-2.46 3.46-.51.3c.08-.18.18-.34.31-.48.13-.14.29-.24.49-.31s.46-.11.77-.11c.49 0 .93.11 1.33.34.4.23.72.55.96.95.24.41.36.88.36 1.43 0 .55-.13 1.04-.4 1.49-.27.45-.62.81-1.08 1.07-.45.27-.96.4-1.51.4l.01.01zm0-1.3c.3 0 .58-.07.82-.22s.43-.34.57-.6c.14-.25.21-.54.21-.85 0-.31-.07-.59-.21-.84-.14-.25-.33-.44-.57-.58-.24-.14-.51-.21-.82-.21-.31 0-.58.07-.82.22s-.43.34-.57.58c-.14.25-.2.52-.2.84 0 .32.07.6.2.85.14.25.33.45.57.6.24.14.51.22.82.22v-.01zm7.37 1.301c-.63 0-1.22-.18-1.74-.54-.53-.36-.95-.86-1.26-1.51-.31-.65-.47-1.42-.47-2.3 0-.88.15-1.65.46-2.3.31-.65.72-1.15 1.25-1.5.52-.35 1.1-.53 1.73-.53.63 0 1.23.18 1.75.53.52.35.94.85 1.25 1.5.31.65.46 1.42.46 2.31 0 .89-.15 1.65-.46 2.3-.31.65-.72 1.15-1.24 1.51-.52.35-1.09.53-1.73.53zm-.02-1.3c.42 0 .78-.11 1.08-.34.31-.23.54-.56.72-1.01.17-.45.26-1.02.26-1.7 0-.68-.09-1.24-.26-1.69-.17-.45-.41-.79-.72-1.01-.31-.22-.67-.33-1.08-.33-.41 0-.77.11-1.08.33-.31.22-.55.55-.72 1-.17.45-.25 1.01-.25 1.69 0 .68.08 1.25.25 1.7.17.45.41.79.72 1.01.31.22.67.34 1.08.34v.01zm-57.44-1.831l3-5.42h1.57l-3.07 5.42h-1.5zm0 .84v-.84l.59-.4h5.95v1.24h-6.54zm4 2.17v-5.52h1.36v5.52h-1.36zm6.29.121c-.58 0-1.08-.1-1.51-.31-.43-.21-.76-.5-.99-.87-.24-.37-.36-.8-.36-1.27 0-.38.07-.72.22-1.04.15-.32.37-.59.65-.81.28-.22.62-.39 1.02-.48l-.04.39c-.32-.09-.59-.23-.81-.43-.22-.2-.39-.44-.5-.71-.11-.27-.17-.56-.17-.85 0-.45.11-.85.32-1.19.21-.34.51-.61.89-.8.38-.19.8-.29 1.28-.29s.91.1 1.28.29c.37.19.67.46.88.8.21.34.32.74.32 1.19 0 .3-.06.58-.17.85-.11.27-.28.51-.49.71-.22.2-.49.35-.82.43l-.04-.39c.4.1.74.26 1.02.48.28.22.5.5.64.81.15.32.22.66.22 1.04 0 .47-.12.9-.35 1.27-.23.37-.56.66-.99.87-.43.21-.93.31-1.51.31h.01zm0-1.25c.3 0 .56-.06.79-.18.23-.12.41-.29.54-.49.13-.21.2-.45.2-.71 0-.26-.07-.51-.2-.72-.13-.2-.31-.37-.54-.49-.23-.12-.49-.18-.79-.18-.3 0-.56.06-.79.18-.23.12-.41.28-.54.49-.13.2-.2.44-.2.72 0 .28.07.5.2.71.13.21.31.37.54.49.23.12.49.18.79.18zm0-3.86c.35 0 .64-.11.87-.34.23-.23.34-.51.34-.87s-.11-.64-.34-.86c-.23-.22-.51-.33-.87-.33s-.63.11-.86.33c-.23.22-.34.51-.34.86s.11.64.34.87c.23.22.52.34.86.34zm-54.09 5.109c-.56 0-1.07-.1-1.52-.31-.45-.2-.84-.5-1.15-.9l.94-.94c.17.26.41.46.71.61.3.15.64.23 1 .23s.64-.06.89-.19.44-.31.58-.54c.14-.23.21-.5.21-.81 0-.32-.07-.59-.21-.82-.14-.22-.34-.4-.6-.52-.26-.12-.58-.19-.95-.19-.14 0-.29.01-.45.03-.15.02-.29.05-.41.09l.61-.8c.17-.06.35-.12.54-.16.19-.04.37-.07.55-.07.43 0 .83.1 1.18.31s.63.5.83.87c.2.37.31.81.31 1.32 0 .55-.13 1.03-.39 1.45-.26.42-.61.74-1.07.98-.46.23-.99.35-1.6.35v.01zm-2.25-7.31v-1.24h5.22v.82l-1.19.42h-4.03zm1.3 3.06v-.82l2.25-2.63 1.66-.04-2.35 2.7-1.57.78.01.01zm7.92 4.25c-.56 0-1.07-.13-1.52-.39-.45-.26-.8-.61-1.07-1.05-.26-.44-.39-.93-.39-1.47 0-.77.27-1.55.81-2.34l2.3-3.3h1.6l-2.46 3.46-.51.3c.08-.18.18-.34.31-.48.13-.14.29-.24.49-.31s.46-.11.77-.11c.49 0 .93.11 1.33.34.4.23.72.55.96.95.24.41.36.88.36 1.43 0 .55-.13 1.04-.4 1.49-.27.45-.62.81-1.08 1.07-.45.27-.96.4-1.51.4l.01.01zm0-1.3c.3 0 .58-.07.82-.22s.43-.34.57-.6c.14-.25.21-.54.21-.85 0-.31-.07-.59-.21-.84-.14-.25-.33-.44-.57-.58-.24-.14-.51-.21-.82-.21-.31 0-.58.07-.82.22s-.43.34-.57.58c-.14.25-.2.52-.2.84 0 .32.07.6.2.85.14.25.33.45.57.6.24.14.51.22.82.22v-.01zm-56.22.36l3.11-3.3c.26-.27.47-.52.63-.74.16-.22.28-.42.35-.61.07-.19.11-.39.11-.59 0-.38-.12-.67-.37-.89-.25-.22-.56-.32-.93-.32-.4 0-.75.1-1.06.3-.31.2-.58.51-.82.94l-.96-.8c.33-.57.74-1 1.22-1.3.48-.3 1.04-.44 1.67-.44.52 0 .98.1 1.37.31.39.21.7.5.92.87.22.37.33.8.33 1.3 0 .35-.04.67-.13.95-.08.28-.23.55-.43.83-.2.28-.48.6-.83.97l-2.39 2.47-1.78.04-.01.01zm0 .82v-.82l1.19-.42h4.53v1.24h-5.72zm6.29-3.01l3-5.42h1.57l-3.07 5.42h-1.5zm0 .84v-.84l.59-.4h5.95v1.24h-6.54zm4 2.17v-5.52h1.36v5.52h-1.36zm-54.19-7.19v-1.24h2.93v1.24h-2.93zm1.69 7.19v-8.43h1.36v8.43h-1.36zm2.61-.82l3.11-3.3c.26-.27.47-.52.63-.74.16-.22.28-.42.35-.61.07-.19.11-.39.11-.59 0-.38-.12-.67-.37-.89-.25-.22-.56-.32-.93-.32-.4 0-.75.1-1.06.3-.31.2-.58.51-.82.94l-.96-.8c.33-.57.74-1 1.22-1.3.48-.3 1.04-.44 1.67-.44.52 0 .98.1 1.37.31.39.21.7.5.92.87.22.37.33.8.33 1.3 0 .35-.04.67-.13.95-.08.28-.23.55-.43.83-.2.28-.48.6-.83.97l-2.39 2.47-1.78.04-.01.01zm0 .82v-.82l1.19-.42h4.53v1.24h-5.72zm-41.52.121c-.63 0-1.22-.18-1.74-.54-.53-.36-.95-.86-1.26-1.51-.31-.65-.47-1.42-.47-2.3 0-.88.15-1.65.46-2.3.31-.65.72-1.15 1.25-1.5.52-.35 1.1-.53 1.73-.53.63 0 1.23.18 1.75.53.52.35.94.85 1.25 1.5.31.65.46 1.42.46 2.31 0 .89-.15 1.65-.46 2.3-.31.65-.72 1.15-1.24 1.51-.52.35-1.09.53-1.73.53zm-.02-1.3c.42 0 .78-.11 1.08-.34.31-.23.54-.56.72-1.01.17-.45.26-1.02.26-1.7 0-.68-.09-1.24-.26-1.69-.17-.45-.41-.79-.72-1.01-.31-.22-.67-.33-1.08-.33-.41 0-.77.11-1.08.33-.31.22-.55.55-.72 1-.17.45-.25 1.01-.25 1.69 0 .68.08 1.25.25 1.7.17.45.41.79.72 1.01.31.22.67.34 1.08.34v.01zm-7.81-26.582l3.11-3.3c.26-.27.47-.52.63-.74.16-.22.28-.42.35-.61.07-.19.11-.39.11-.59 0-.38-.12-.67-.37-.89-.25-.22-.56-.32-.93-.32-.4 0-.75.1-1.06.3-.31.2-.58.51-.82.94l-.96-.8c.33-.57.74-1 1.22-1.3.48-.3 1.04-.44 1.67-.44.52 0 .98.1 1.37.31.39.21.7.5.92.87.22.37.33.8.33 1.3 0 .35-.04.67-.13.95-.08.28-.23.55-.43.83-.2.28-.48.6-.83.97l-2.39 2.47-1.78.04-.01.01zm0 .82v-.82l1.19-.42h4.53v1.24h-5.72zm-.35-29.95l3-5.42h1.57l-3.07 5.42h-1.5zm0 .84v-.84l.59-.4h5.95v1.24h-6.54zm4 2.17v-5.52h1.36v5.52h-1.36zm-.73-26.812c-.56 0-1.07-.13-1.52-.39-.45-.26-.8-.61-1.07-1.05-.26-.44-.39-.93-.39-1.47 0-.77.27-1.55.81-2.34l2.3-3.3h1.6l-2.46 3.46-.51.3c.08-.18.18-.34.31-.48.13-.14.29-.24.49-.31s.46-.11.77-.11c.49 0 .93.11 1.33.34.4.23.72.55.96.95.24.41.36.88.36 1.43 0 .55-.13 1.04-.4 1.49-.27.45-.62.81-1.08 1.07-.45.27-.96.4-1.51.4l.01.01zm0-1.3c.3 0 .58-.07.82-.22s.43-.34.57-.6c.14-.25.21-.54.21-.85 0-.31-.07-.59-.21-.84-.14-.25-.33-.44-.57-.58-.24-.14-.51-.21-.82-.21-.31 0-.58.07-.82.22s-.43.34-.57.58c-.14.25-.2.52-.2.84 0 .32.07.6.2.85.14.25.33.45.57.6.24.14.51.22.82.22v-.01zm0-25.64c-.58 0-1.08-.1-1.51-.31-.43-.21-.76-.5-.99-.87-.24-.37-.36-.8-.36-1.27 0-.38.07-.72.22-1.04.15-.32.37-.59.65-.81.28-.22.62-.39 1.02-.48l-.04.39c-.32-.09-.59-.23-.81-.43-.22-.2-.39-.44-.5-.71-.11-.27-.17-.56-.17-.85 0-.45.11-.85.32-1.19.21-.34.51-.61.89-.8.38-.19.8-.29 1.28-.29s.91.1 1.28.29c.37.19.67.46.88.8.21.34.32.74.32 1.19 0 .3-.06.58-.17.85-.11.27-.28.51-.49.71-.22.2-.49.35-.82.43l-.04-.39c.4.1.74.26 1.02.48.28.22.5.5.64.81.15.32.22.66.22 1.04 0 .47-.12.9-.35 1.27-.23.37-.56.66-.99.87-.43.21-.93.31-1.51.31h.01zm0-1.25c.3 0 .56-.06.79-.18.23-.12.41-.29.54-.49.13-.21.2-.45.2-.71 0-.26-.07-.51-.2-.72-.13-.2-.31-.37-.54-.49-.23-.12-.49-.18-.79-.18-.3 0-.56.06-.79.18-.23.12-.41.28-.54.49-.13.2-.2.44-.2.72 0 .28.07.5.2.71.13.21.31.37.54.49.23.12.49.18.79.18zm0-3.86c.35 0 .64-.11.87-.34.23-.23.34-.51.34-.87s-.11-.64-.34-.86c-.23-.22-.51-.33-.87-.33s-.63.11-.86.33c-.23.22-.34.51-.34.86s.11.64.34.87c.23.22.52.34.86.34zm-5.82-29.142v-1.24h2.93v1.24h-2.93zm1.69 7.19v-8.43h1.36v8.43h-1.36zm6.33.13c-.63 0-1.22-.18-1.74-.54-.53-.36-.95-.86-1.26-1.51-.31-.65-.47-1.42-.47-2.3 0-.88.15-1.65.46-2.3.31-.65.72-1.15 1.25-1.5.52-.35 1.1-.53 1.73-.53.63 0 1.23.18 1.75.53.52.35.94.85 1.25 1.5.31.65.46 1.42.46 2.31 0 .89-.15 1.65-.46 2.3-.31.65-.72 1.15-1.24 1.51-.52.35-1.09.53-1.73.53zm-.02-1.3c.42 0 .78-.11 1.08-.34.31-.23.54-.56.72-1.01.17-.45.26-1.02.26-1.7 0-.68-.09-1.24-.26-1.69-.17-.45-.41-.79-.72-1.01-.31-.22-.67-.33-1.08-.33-.41 0-.77.11-1.08.33-.31.22-.55.55-.72 1-.17.45-.25 1.01-.25 1.69 0 .68.08 1.25.25 1.7.17.45.41.79.72 1.01.31.22.67.34 1.08.34v.01zM18.33 28.18v-1.24h2.93v1.24h-2.93zm1.69 7.19v-8.43h1.36v8.43h-1.36zm2.6-.82l3.11-3.3c.26-.27.47-.52.63-.74.16-.22.28-.42.35-.61.07-.19.11-.39.11-.59 0-.38-.12-.67-.37-.89-.25-.22-.56-.32-.93-.32-.4 0-.75.1-1.06.3-.31.2-.58.51-.82.94l-.96-.8c.33-.57.74-1 1.22-1.3.48-.3 1.04-.44 1.67-.44.52 0 .98.1 1.37.31.39.21.7.5.92.87.22.37.33.8.33 1.3 0 .35-.04.67-.13.95-.08.28-.23.55-.43.83-.2.28-.48.6-.83.97l-2.39 2.47-1.78.04-.01.01zm0 .82v-.82l1.19-.42h4.53v1.24h-5.72zM18.01 1.24V0h2.93v1.24h-2.93zm1.69 7.19V0h1.36v8.43H19.7zm2.54-3.01l3-5.42h1.57l-3.07 5.42h-1.5zm0 .84v-.84l.59-.4h5.95v1.24h-6.54zm4 2.17V2.92h1.36v5.52h-1.36v-.01z" fill="#403B35"/><path d="M32.93 4.45s-6.32 106.364 64.527 139.646c70.846 33.281 212.528 30.361 212.528 30.361" stroke="#00AEE0" stroke-miterlimit="10"/><path d="M32.88 81.974s-3.26 18.84 33.048 25.791c43.948 8.42 244.056 13.62 244.056 13.62" stroke="#EF5274" stroke-miterlimit="10"/><path d="M302.888 11.122h-.028c-.406.378-.602.546-1.036.896v2.24c.98-.154 1.89-.336 2.632-.518l.028 1.274c-1.638.406-2.898.658-5.082 1.008-.434.07-.532.098-.798.168l-.28-1.498c.434 0 1.064-.07 2.072-.224v-1.484c-1.022.616-2.044 1.092-3.304 1.54a4.576 4.576 0 00-.714-1.274c1.82-.546 3.332-1.26 4.494-2.128h-1.176c-.63 0-.924.014-1.288.056a13.5 13.5 0 00.056-1.302v-.588h-.336c-.812 0-1.106.014-1.54.07V7.972c.378.056.84.084 1.54.084h.336v-.504a24.159 24.159 0 00-.056-1.358c.378.042.798.056 1.386.056h6.3c.616 0 1.036-.014 1.428-.056-.042.322-.056.84-.056 1.358v.504h.462c.714 0 1.162-.028 1.54-.084v1.386c-.42-.056-.784-.07-1.54-.07h-.462v.588c0 .616 0 .728.042 1.288a17.18 17.18 0 00-1.316-.042h-1.806c.294.644.672 1.134 1.358 1.68 1.022-.686 1.694-1.26 2.268-1.918l1.204.812c-.952.854-1.61 1.386-2.352 1.862.812.49 1.624.826 2.688 1.106-.364.476-.574.84-.826 1.47-1.932-.714-3.094-1.414-4.158-2.506-.854-.868-1.246-1.456-1.68-2.506zm3.122-3.024V7.44h-6.104v.658h6.104zm0 1.162h-6.104v.686h6.104V9.26zm-3.92-4.956v-.238a5.2 5.2 0 00-.07-.854h1.764c-.056.21-.084.532-.084.84v.252h4.018c.672 0 1.162-.028 1.61-.084v1.442c-.476-.056-.798-.07-1.554-.07h-9.422c-.728 0-1.106.014-1.61.07V4.22c.476.056.98.084 1.652.084h3.696zm-12.46 5.768v2.646c0 .322 0 .546.014.742.266-.308.518-.658.91-1.288-.406-1.526-.644-3.486-.728-5.95h-3.892c0 3.864-.084 5.544-.364 7.112-.196 1.162-.49 1.932-1.05 2.842a5.559 5.559 0 00-1.246-.994c.546-.826.77-1.414.98-2.534.238-1.274.35-3.22.35-5.978 0-.56-.014-1.078-.042-1.442l-1.078 1.064a9.699 9.699 0 00-2.114-1.89l1.078-.994c.938.644 1.414 1.05 2.114 1.82-.028-.182-.028-.238-.056-.434.308.042.854.07 1.568.07h3.738c-.014-.994-.028-1.316-.084-1.638h1.54c-.07.392-.098.77-.098 1.428 0 .028 0 .112.014.21h1.512a8.5 8.5 0 00-1.302-.966l.896-.826c.588.35.812.518 1.456 1.05l-.756.728c.364 0 .518-.014.826-.07v1.498c-.462-.042-.7-.056-1.484-.056h-1.134c.042 1.526.14 2.912.308 4.102.42-1.036.742-2.366.756-3.136l1.428.504c-.084.266-.14.434-.238.798-.392 1.47-.826 2.604-1.484 3.808.21.672.686 1.652.938 1.918l.042.042c.014.014.014.014.028.014.112 0 .224-.91.238-1.932.364.294.714.518 1.12.714-.056.896-.14 1.4-.308 1.904-.21.63-.574.994-1.008.994-.658 0-1.302-.742-1.932-2.198a9.978 9.978 0 01-2.59 2.492c-.35-.434-.602-.658-1.106-1.022a10.456 10.456 0 002.114-1.596c-.252-.028-.462-.028-.728-.028h-1.288v.756h-1.19c.056-.266.07-.574.07-1.218v-2.814c0-.35-.014-.77-.042-.952.182.014.504.028.966.028h1.568c.294 0 .588-.014.812-.028-.028.112-.042.406-.042.7zm-2.142.49v1.764h1.036v-1.764h-1.036zm-6.51-2.576l1.008-1.05c.924.56 1.484.98 2.198 1.666l-.98 1.134c-.784-.77-1.288-1.162-2.226-1.75zm1.652 2.646l1.134.938c-.504 1.918-.77 2.73-1.358 4.06-.056.126-.07.182-.126.322l-1.288-1.134c.14-.168.196-.238.336-.49.168-.294.434-.938.686-1.596.266-.714.392-1.148.616-2.1zm3.556-2.114v-1.33c.224.028.392.042.77.042h1.904c.406 0 .602-.014.798-.042v1.33a5.297 5.297 0 00-.784-.042h-1.918c-.336 0-.574.014-.77.042zm-12.894-2.492c-.266 2.198-.756 4.13-1.456 5.712-.798 1.806-1.694 2.632-2.842 2.632-1.596 0-2.744-1.624-2.744-3.878 0-1.54.546-2.982 1.54-4.074 1.176-1.288 2.828-1.96 4.816-1.96 3.36 0 5.544 2.044 5.544 5.194 0 2.422-1.26 4.354-3.402 5.222-.672.28-1.218.42-2.198.588-.238-.742-.406-1.05-.854-1.638 1.288-.168 2.128-.392 2.786-.77 1.218-.672 1.946-2.002 1.946-3.5 0-1.344-.602-2.436-1.722-3.108-.434-.252-.798-.364-1.414-.42zm-1.708.014c-.728.084-1.232.28-1.806.686-1.176.84-1.904 2.282-1.904 3.78 0 1.148.49 2.058 1.106 2.058.462 0 .938-.588 1.442-1.792.532-1.26.994-3.15 1.162-4.732zm-14.644-.028h3.542c.84 0 1.33-.014 1.806-.07-.056.546-.056.546-.084 2.114-.042 1.918-.182 4.284-.322 5.208-.182 1.288-.378 1.778-.812 2.086-.364.266-.882.378-1.666.378-.644 0-1.26-.042-2.142-.154-.084-.714-.182-1.12-.392-1.694.896.182 1.708.28 2.408.28.658 0 .868-.252 1.022-1.19.182-1.05.308-3.22.322-5.46h-3.794c-.238 2.072-.616 3.486-1.274 4.662-.812 1.47-2.086 2.646-4.032 3.738a4.728 4.728 0 00-1.162-1.456c1.918-.84 3.192-1.96 3.948-3.486.434-.854.7-1.932.882-3.458h-2.436c-.714 0-1.26.028-1.736.084v-1.68c.504.07.98.098 1.778.098h2.492c.028-.56.028-.7.028-1.428 0-.672-.028-1.078-.084-1.358h1.862c-.07.364-.07.364-.154 2.786zm-15.89 8.078V5.326h-3.668c-.658 0-1.19.028-1.778.084V3.828c.532.056 1.078.084 1.764.084h8.106c.658 0 1.204-.028 1.778-.084V5.41a18.03 18.03 0 00-1.778-.084h-2.814v3.416h2.394c.672 0 1.12-.028 1.568-.084v1.554a12.44 12.44 0 00-1.568-.084h-2.394v3.962h3.206c.7 0 1.288-.028 1.848-.098v1.624a13.921 13.921 0 00-1.834-.098h-8.946c-.7 0-1.246.028-1.848.098v-1.624c.518.084.896.098 1.82.098h.294V9.568c0-.728-.028-1.302-.098-1.82h1.778c-.07.49-.098 1.078-.098 1.806v4.536h2.268zm-19.446-7.742h-.266c-.252.728-.434 1.106-.868 1.792a5.552 5.552 0 00-1.036-1.106c.588-.882.924-1.778 1.162-3.038.028-.14.056-.42.098-.812l1.47.266c-.07.182-.084.238-.21.756-.056.21-.098.364-.21.798h1.078c.546 0 .784-.014 1.064-.056v1.428c-.28-.014-.434-.028-.896-.028-.028 1.526-.028 1.526-.07 2.296h.28c.35 0 .644-.014.854-.042-.126-.196-.196-.266-.42-.49 1.064-.49 1.54-.826 2.17-1.484h-.434c-.616 0-.882.014-1.232.056V5.41c.406.028.63.042 1.204.042h1.33c.14-.252.21-.378.322-.63-.672.042-1.162.056-2.408.07-.252-.644-.28-.714-.518-1.148.504.014.882.028 1.078.028 2.324 0 4.788-.294 5.642-.672l.854 1.19c-.14.028-.154.028-.35.056-.756.14-1.876.294-2.772.378-.14.294-.196.392-.364.728h2.492c.672 0 1.19-.028 1.54-.07v1.316c-.434-.056-.882-.07-1.498-.07h-.784c.574.588 1.428 1.036 2.674 1.414-.308.448-.378.616-.63 1.316a8.786 8.786 0 01-1.624-.854v.49c0 .434 0 .616.028.868-.266-.014-.518-.028-.966-.028h-2.87c-.434 0-.7.014-.966.028.028-.28.042-.462.042-.868V8.49c-.42.336-.588.462-1.134.798a2.602 2.602 0 00-.322-.574v1.344c-.238-.042-.56-.056-.966-.056h-.378c-.028.238-.042.336-.098.7a8.152 8.152 0 001.526 1.932v-1.19c0-.462-.028-.84-.07-1.19.322.042.756.07 1.386.07h5.04c.658 0 1.078-.014 1.414-.07-.042.392-.056.924-.056 1.428v2.94c0 .826-.112 1.092-.518 1.26-.28.14-.714.182-1.624.182-.14 0-.35 0-.63-.014-.028-.49-.084-.728-.224-1.204h-1.442v.546h-1.218c.028-.196.042-.602.042-.924v-1.596c0-.42-.014-.644-.028-.896.182.042.322.042.798.042h1.96c.448 0 .588 0 .77-.042-.028.238-.028.322-.028.854v1.862h.364c.308 0 .364-.056.364-.378V11.5h-4.9v3.122c0 .924 0 1.176.056 1.554h-1.54c.056-.42.084-.924.084-1.764v-1.54c-.252.336-.406.616-.658 1.218-.546-.574-.826-.966-1.26-1.708-.406 1.288-.924 2.156-1.932 3.248-.21-.504-.49-.896-.994-1.386 1.218-1.106 1.708-2.114 2.016-4.242h-.616a8.77 8.77 0 00-1.092.07V8.574c.35.056.686.07 1.19.07h.658c.042-.644.056-1.19.07-2.296zm6.692.28h-.868c-.21.294-.308.406-.518.644h1.946a8.808 8.808 0 01-.56-.644zm-.812 6.356v.812h1.176v-.812h-1.176zm-.56-4.76v.63h2.058v-.63h-2.058zm-19.152-4.438l1.82-.294c.056.938.476 2.954.924 4.382.91-.336.91-.336 3.626-1.232.252-.084.322-.112.532-.21l.602 1.764c-1.218.238-3.052.77-4.62 1.344-2.044.756-3.066 1.652-3.066 2.66 0 1.022.952 1.456 3.206 1.456 1.75 0 3.472-.21 4.522-.574l.154 1.918c-.308 0-.378.014-1.134.098-1.512.154-2.296.21-3.276.21-1.946 0-3.164-.238-4.06-.77-.77-.462-1.218-1.33-1.218-2.338 0-.938.448-1.834 1.246-2.506.546-.462.994-.742 1.904-1.204-.35-1.134-.588-2.072-.938-3.794-.14-.672-.154-.7-.224-.91zm-7.448 3.976h.07c.476 0 .658-.014.882-.056a9.683 9.683 0 00-.056 1.19v3.976c0 .504-.126.784-.462.952-.294.14-.602.182-1.442.182h-.91a5.38 5.38 0 00-.336-1.302c.56.07.952.098 1.204.098.406 0 .518-.056.518-.224V8.994h-5.586v3.682c0 .63.014.882.056 1.232h-1.54c.042-.35.056-.63.056-1.232v-3.85c0-.518-.014-.686-.056-1.12.238.042.434.056.938.056V4.878c0-.56-.014-.882-.056-1.274.42.042.756.056 1.344.056h4.088c.756 0 .98-.014 1.344-.056-.042.308-.056.616-.056 1.274v2.884zm-4.2 0V6.656c0-.574 0-.714-.042-1.078.28.028.686.042 1.12.042h1.708v-.686h-3.836v2.828h1.05zm1.344 0h1.442v-1.05h-1.442v1.05zm1.512 2.506v1.428c0 .448 0 .574.042.798-.392-.028-.56-.042-.854-.042h-1.96v.462h-1.288c.028-.28.042-.448.042-.798v-1.82c0-.294-.014-.476-.042-.826.168.028.364.042.854.042h2.394c.532 0 .644 0 .854-.042-.042.322-.042.448-.042.798zm-2.772.322v.784h1.512v-.784h-1.512zm-7.392-6.16l1.134-1.036c1.106.994 1.484 1.414 2.38 2.562l-1.162 1.134c-.882-1.232-1.246-1.638-2.352-2.66zm-.07 5.67V8.588c.35.056.574.07 1.12.07h.98a7.24 7.24 0 001.064-.056c-.056.434-.056.63-.056 1.512v3.024c.224.392.378.56.63.742.294.21.616.364.924.42.63.14 1.358.196 2.24.196 2.87 0 4.578-.07 6.216-.28-.266.644-.308.84-.42 1.596-1.33.056-3.318.084-5.264.084-2.114 0-2.968-.112-3.738-.476-.518-.252-.91-.574-1.302-1.092a23.471 23.471 0 01-1.988 1.68l-.686-1.596c.56-.238 1.106-.63 1.932-1.372v-3.01h-.7c-.392 0-.588.014-.952.07zm-15.176.476l-.168-1.456c.238.028.364.042.7.042.028 0 .322 0 .49-.014.224-.28.378-.49.672-.896a13.805 13.805 0 00-1.904-2.17l.728-1.19.546.546c.504-.868.952-1.834 1.064-2.352l1.414.574c-.126.21-.126.21-.518.966a16.424 16.424 0 01-1.05 1.806c.252.322.308.378.504.63.868-1.372 1.078-1.764 1.344-2.422l1.232.728c-.14.196-.14.196-.84 1.288-.434.7-1.232 1.82-1.722 2.45.672-.028 1.064-.07 1.512-.112-.14-.406-.21-.588-.448-1.134l.924-.462c.588 1.274.812 1.848 1.134 2.926l-1.064.532a8.258 8.258 0 00-.168-.686c-.462.056-.602.084-.938.112v4.424c0 .686.014 1.036.084 1.47h-1.54c.07-.448.084-.798.084-1.484v-4.298c-.658.056-.658.056-1.176.084-.63.042-.658.042-.896.098zm9.422.462h1.274c.588 0 .98-.028 1.344-.084v1.484a13.18 13.18 0 00-1.358-.056h-1.26v1.932h1.722c.742 0 1.148-.014 1.512-.07v1.512a11.666 11.666 0 00-1.54-.084h-4.592c-.63 0-1.078.028-1.54.084v-1.512c.378.056.728.07 1.344.07h1.638v-1.932h-.938c-.532 0-.952.014-1.4.056v-1.47c.378.056.714.07 1.4.07h.938v-.28c0-.7-.014-1.064-.07-1.344h1.596c-.056.35-.07.7-.07 1.344v.28zm1.904-7.322l.882.84c-.49.742-.98 1.456-1.12 1.638-.35.476-.742.91-1.204 1.358.924.49 1.736.784 2.996 1.036-.336.546-.462.84-.658 1.526-1.484-.462-2.506-.924-3.514-1.596-.854.602-1.484.938-2.604 1.4a5.065 5.065 0 00-.91-1.316c.952-.294 1.624-.588 2.352-1.022-.77-.756-1.274-1.47-1.75-2.436-.35.014-.518.028-.756.07V3.702c.322.042.812.07 1.54.07h3.654c.532 0 .812-.014 1.092-.056zm-1.232 1.428h-2.786c.392.686.714 1.064 1.358 1.61.658-.574.98-.938 1.428-1.61zm-9.688 5.908l1.218.224c-.084 1.946-.168 2.73-.49 4.228l-1.288-.518c.378-1.19.504-2.128.56-3.934zm3.444.196l1.05-.28c.196.756.28 1.274.434 2.968l-1.19.336c-.014-1.19-.084-1.862-.294-3.024zm-10.234-.812v2.842c0 .532.014.854.042 1.218.308.028.812.07 1.064.07.392 0 .518-.098.518-.378V8.336h-2.758c-.49 0-.938.014-1.288.042.028-.406.042-.672.042-1.274V4.962c0-.476-.014-.868-.042-1.302.378.042.714.056 1.428.056h2.688c.7 0 1.05-.014 1.442-.056-.042.504-.056.854-.056 1.554v9.17c0 .84-.168 1.204-.672 1.414-.294.126-.714.168-1.582.168-.196 0-.252 0-.966-.042a5.317 5.317 0 00-.364-1.442c-.406-.014-.672-.014-.784-.014h-2.968v.784h-1.484c.056-.336.098-.896.098-1.4v-3.416c0-.49-.014-.882-.042-1.26.406.042.728.056 1.302.056h3.122c.588 0 .896-.014 1.302-.056-.028.364-.042.714-.042 1.26zm-.994-5.586v.7h2.618v-.7h-2.618zm0 1.694v.714h2.618v-.714h-2.618zm-3.262 3.864v.84h2.856v-.84h-2.856zm0 1.974v.91h2.856v-.91h-2.856zm-2.926-4.046v6.048c0 .84.028 1.344.084 1.722h-1.638c.056-.42.084-.868.084-1.736V5.228c0-.728-.014-1.12-.056-1.568.392.042.756.056 1.442.056h2.478c.728 0 1.05-.014 1.428-.056-.028.448-.042.756-.042 1.302v2.142c0 .644.014.966.042 1.274a17.164 17.164 0 00-1.288-.042h-2.534zm0-3.486v.7h2.408v-.7h-2.408zm0 1.694v.714h2.408v-.714h-2.408zm-9.478-.448h-1.19c-1.162.028-1.162.028-1.498.07V4.682c.392.056.84.084 1.456.084h1.232v-.378c0-.392-.028-.7-.084-1.05h1.61c-.042.322-.07.616-.07 1.05v.378h1.526c.602 0 1.064-.028 1.456-.084v1.484c-.392-.056-.812-.07-1.442-.07h-1.54v1.33h1.932c.672 0 1.176-.028 1.526-.084v1.484c-.378-.056-.756-.07-1.372-.07h-.238v1.19h.182c.672 0 1.05-.014 1.386-.07v1.526c-.406-.07-.756-.084-1.386-.084h-.182v3.164c0 .812-.14 1.148-.56 1.344-.35.154-.84.224-1.54.224-.126 0-.126 0-1.092-.014-.028-.602-.126-1.022-.336-1.47.35.056 1.078.112 1.568.112.434 0 .518-.07.518-.378v-2.982h-3.346c-.518 0-1.05.028-1.498.084V9.876c.364.056.798.07 1.526.07h3.318v-1.19h-3.318c-.588 0-1.106.028-1.54.07V7.342c.35.056.882.084 1.554.084h1.442v-1.33zm-7.406 7.49v-8.19c0-.63-.014-.994-.056-1.414.308.028.574.042 1.232.042h1.694c.63 0 .882-.014 1.218-.042-.042.322-.042.574-.042 1.386v8.008c0 .742.014 1.05.042 1.4h-1.428v-.7h-1.274v1.176h-1.47c.056-.434.084-.924.084-1.666zm1.4-8.232V8.28h1.26V5.354h-1.26zm0 4.214v3.15h1.26v-3.15h-1.26zm6.594 4.06l-1.232.938a10.695 10.695 0 00-1.792-2.296l1.19-.784c.686.616 1.246 1.26 1.834 2.142z" fill="#C36800"/><path d="M303.82 31.31h-.86c.04-.27.06-.51.06-1.05v-6.21c0-.53-.02-.77-.06-1.02h.86c-.04.26-.05.47-.05 1.04v1.87c1.54.55 2.7 1.1 4.45 2.11l-.43.74c-.94-.66-2.32-1.4-3.73-1.98-.15-.06-.22-.1-.31-.17l-.02.01c.03.2.04.34.04.59v3.01c0 .56.01.78.05 1.06zm-6.99-8.25l.69.49c-.18.13-.19.15-.44.42-.63.66-1.48 1.39-2.34 2.01v4.26c0 .57.01.79.05 1.06h-.87c.05-.26.06-.49.06-1.04v-3.8c-1.3.8-2.03 1.13-3.86 1.75-.14-.32-.19-.42-.39-.67a14.08 14.08 0 005.19-2.59c.93-.72 1.63-1.42 1.91-1.89zm-15.057 2.06h3.05v-.97c0-.71 0-.79-.03-1.01h.78c-.03.26-.03.26-.04.93v1.05h.86c.59 0 .81-.01 1.17-.06v.76c-.34-.04-.63-.05-1.16-.05h-.88c-.02 2.03-.12 2.67-.49 3.39-.35.66-.91 1.23-1.63 1.65-.35.19-.61.31-1.16.51-.13-.28-.21-.39-.45-.63.87-.25 1.38-.51 1.91-.98.7-.63.98-1.29 1.07-2.5.02-.32.03-.63.04-1.44h-3.04v1.67c0 .43.01.56.04.81h-.81c.03-.22.04-.41.04-.84v-1.64h-.84c-.53 0-.82.01-1.16.05v-.76c.36.05.58.06 1.17.06h.83v-1.15c0-.43-.01-.61-.04-.84h.81c-.04.27-.04.35-.04.81v1.18zm-7.91-.49h1.88c.43 0 .72-.02.97-.06v.72c-.29-.04-.61-.06-1.03-.06h-1.79c.06 1.13.09 1.38.21 2.1.15.81.28 1.31.5 1.88.26.69.53 1.15.83 1.42.13.12.26.19.32.19.22 0 .4-.54.56-1.64.22.2.33.28.59.39-.18.85-.3 1.25-.49 1.56-.17.28-.39.42-.64.42-.37 0-.81-.34-1.2-.91-.49-.72-.91-1.96-1.13-3.29-.1-.63-.16-1.18-.21-2.12h-4.18c-.41 0-.69.02-1.03.06v-.72c.28.04.59.06 1.03.06h4.16c-.01-.31-.01-.31-.02-1.01-.01-.42-.01-.42-.06-.78h.77c-.04.21-.06.53-.06.93 0 .21 0 .41.02.86zm-3.59 2.7h-.95c-.38 0-.65.01-.9.05v-.67c.24.04.48.05.91.05h2.59c.43 0 .65-.01.9-.05v.67c-.25-.04-.51-.05-.89-.05h-1.02v2.7c.74-.15 1.17-.26 2.25-.55v.61c-1.48.39-2.82.68-4.48.98-.14.03-.33.07-.45.1l-.15-.71c.47 0 .72-.04 2.19-.31v-2.82zm5.78-3.32l-.47.38c-.44-.49-.71-.73-1.26-1.12l.46-.34c.58.42.84.64 1.27 1.08zm-10.87 7.25l-.6.39c-.25-.51-.36-.7-.58-1.09-1.73.27-3.55.45-5.5.56-.77.05-.83.05-1.14.11l-.16-.78c.25.01.49.02.67.02.21 0 .32 0 .65-.01.59-.99 1.01-1.86 1.54-3.16.33-.82.5-1.32.58-1.72l.77.23c-.01.02-.02.04-.03.05-.04.09-.08.19-.16.41-.59 1.47-1.33 3.05-1.96 4.16 1.92-.1 2.88-.19 4.42-.41-.51-.79-.81-1.2-1.51-2.05l.55-.34c.99 1.23 1.79 2.41 2.46 3.63zm-5.39-8.25l.77.27c-.09.13-.12.19-.28.51-.43.86-1.06 1.77-1.68 2.43-.47.5-.87.85-1.49 1.32-.15-.24-.27-.39-.48-.56 1.18-.81 1.99-1.65 2.62-2.7.31-.52.49-.94.54-1.27zm2.22.27l.67-.29c.17.55.58 1.28 1.13 1.98.58.74 1.21 1.31 2.2 1.98-.22.21-.33.36-.47.61-1.67-1.27-2.41-2.15-3.38-4-.08-.16-.1-.21-.15-.28zm-12.89 8.03h-.86c.04-.27.06-.51.06-1.05v-6.21c0-.53-.02-.77-.06-1.02h.86c-.04.26-.05.47-.05 1.04v1.87c1.54.55 2.7 1.1 4.45 2.11l-.43.74c-.94-.66-2.32-1.4-3.73-1.98-.15-.06-.22-.1-.31-.17l-.02.01c.03.2.04.34.04.59v3.01c0 .56.01.78.05 1.06zm-10.57-8.46l.82.21c-.09.13-.09.13-.22.41-.26.54-.35.71-.46.89.13-.03.13-.03 3.02-.08.35 0 .38-.01.52-.07l.43.42c-.09.12-.09.13-.2.49-.42 1.41-1.15 2.77-2 3.76-.92 1.05-2.02 1.84-3.48 2.5-.16-.29-.24-.39-.5-.59 1.51-.62 2.57-1.38 3.53-2.53.77-.93 1.37-2.1 1.72-3.35l-3.37.06a9.64 9.64 0 01-2.39 2.6c-.17-.25-.27-.34-.56-.52 1.06-.69 1.82-1.52 2.51-2.74.38-.66.58-1.11.63-1.46zm-12.97.47h.85c-.03.21-.05.47-.05.89l-.03 6.03c1.15-.19 2.06-.5 2.86-1 1-.62 1.67-1.34 2.25-2.4.25.35.31.43.55.63-1.37 2.04-2.84 2.97-5.51 3.49-.39.08-.44.09-.58.15l-.4-.5c.05-.17.07-.28.07-.65l.02-5.73v-.37c0-.2-.01-.32-.03-.54zm-5.79 6.96h-4.78c-.81.01-.81.01-1.07.04v-.79c.33.06.47.07 1.09.07h4.76v-4.83h-4.55c-.6 0-.81.01-1.15.05v-.8c.35.06.5.07 1.15.07h4.8c.13 0 .27-.01.52-.02-.02.25-.02.42-.02.78v5.12c0 .37.02.73.05.91h-.8v-.6zm-9.77-6.66l.4.48c-.1.13-.12.16-.24.4-.69 1.34-1.62 2.25-2.92 2.85-.15-.25-.23-.34-.49-.57.7-.27 1.11-.51 1.58-.95.46-.43.83-.92 1.12-1.49h-5.68c-.55 0-.81.01-1.18.05v-.77c.34.05.62.07 1.19.07h5.37c.67 0 .67 0 .85-.07zm-4.36 1.74h.81c-.03.18-.03.18-.04.7-.03 1.67-.31 2.66-.99 3.52-.61.77-1.35 1.27-2.56 1.73-.15-.32-.22-.42-.46-.67.81-.24 1.31-.49 1.83-.92 1.06-.85 1.45-1.87 1.45-3.82 0-.28-.01-.35-.04-.54zm-13.01-2.08h.83c-.03.24-.04.37-.04.83v2.69c0 .48.01.59.04.83h-.83c.03-.23.04-.44.04-.84v-2.67c0-.43-.01-.6-.04-.84zm4.42 0h.84c-.04.23-.05.39-.05.87v1.18c0 1.59-.07 2.47-.25 3.05-.29.94-.92 1.67-1.9 2.22-.49.28-.97.47-1.82.72-.11-.29-.17-.39-.42-.69.9-.2 1.38-.37 1.9-.68.93-.54 1.41-1.18 1.6-2.11.11-.57.14-1.03.14-2.55v-1.13c0-.52-.01-.66-.04-.88zm-13.52-.43l.82.21c-.09.13-.09.13-.22.41-.26.54-.35.71-.46.89.13-.03.13-.03 3.02-.08.35 0 .38-.01.52-.07l.43.42c-.09.12-.09.13-.2.49-.42 1.41-1.15 2.77-2 3.76-.92 1.05-2.02 1.84-3.48 2.5-.16-.29-.24-.39-.5-.59 1.51-.62 2.57-1.38 3.53-2.53.77-.93 1.37-2.1 1.72-3.35l-3.37.06a9.64 9.64 0 01-2.39 2.6c-.17-.25-.27-.34-.56-.52 1.06-.69 1.82-1.52 2.51-2.74.38-.66.58-1.11.63-1.46zm-9.76 1.65v.99h-.99v-.99h.99zm0 5.4h-.99v-.99h.99v.99zm-11.12-1.48v1.89c0 .53.01.85.05 1.09h-.72c.04-.26.05-.56.05-1.09v-1.89h-2.74c-.15 1.51-.41 2.33-1.08 3.28-.22-.21-.32-.28-.58-.43.43-.56.65-1.01.81-1.69.22-.92.31-2.38.31-4.85 0-1.01 0-1.2-.04-1.63.3.03.6.04 1.1.04h5.38c.5 0 .77-.01 1.06-.04-.03.27-.04.53-.04.98v6.71c0 .63-.23.78-1.2.78-.32 0-.82-.02-1.24-.05-.02-.23-.06-.4-.15-.65.58.07 1.07.11 1.43.11.44 0 .53-.05.53-.3v-2.26h-2.93zm0-2.93h2.93v-1.75h-2.93v1.75zm-.62 0v-1.75h-2.63v1.19l-.01.56h2.64zm.62.57v1.78h2.93v-1.78h-2.93zm-.62 0h-2.65c-.01.28-.01.52-.01.66-.01.62-.01.66-.04 1.12h2.7v-1.78zm-13.93 1.45h2.58c.36 0 .6-.01.88-.05-.03.14-.04.27-.06.52-.08 1.18-.3 2.37-.54 2.91-.19.43-.54.59-1.26.59-.49 0-1.05-.04-1.67-.12-.03-.33-.06-.45-.14-.72.71.15 1.28.22 1.79.22.39 0 .58-.09.68-.3.2-.42.33-1.14.47-2.48h-2.76c-.28 0-.51.01-.75.03.3-1.1.46-2 .49-2.77.25.03.5.04.86.04h2.12v-1.62h-2.46c-.35 0-.65.02-.96.06v-.71c.26.04.59.06.97.06h2.25c.3 0 .6-.01.88-.04-.02.25-.03.47-.03.77v1.34c0 .34.01.55.03.74-.28-.02-.58-.03-.86-.03h-2.2c-.1.64-.19 1.06-.31 1.56zm5.77-4.63h.81c-.06.36-.07.58-.07.97v6.64c0 .47.02.76.07 1.16h-.81c.05-.41.07-.71.07-1.17v-6.63c0-.39-.02-.6-.07-.97z" fill="#6C675B"/><path d="M236.8 103.004c-.12.18-.17.29-.3.72-.55 1.83-1.41 3.46-2.47 4.65-1.11 1.26-2.43 2.2-4.29 3.06-.34-.6-.49-.81-1.02-1.26 1.2-.49 1.88-.85 2.64-1.42 1.72-1.28 2.85-2.93 3.52-5.08l-3.62.06a11.59 11.59 0 01-2.82 3.08c-.36-.49-.54-.65-1.17-1.04 1.37-.94 2.24-1.9 3.12-3.49.37-.69.57-1.16.61-1.59l1.65.32a4.598 4.598 0 00-.2.37c-.027.04-.08.153-.16.34a18.255 18.255 0 00-.35.7c.16-.01.35-.02.58-.02l2.64-.04c.47 0 .6-.02.88-.12l.77.76h-.01zm5.35-1.78c-.05.34-.05.45-.05 1.08v3.32c0 .6 0 .76.05 1.06h-1.65c.04-.28.06-.65.06-1.08v-3.31c0-.61-.01-.77-.05-1.08h1.64v.01zm5.47.01c-.05.3-.06.43-.06 1.12v1.63c-.01 1.88-.1 2.89-.31 3.65-.35 1.2-1.12 2.11-2.37 2.81-.64.36-1.24.6-2.35.93-.22-.59-.34-.8-.84-1.43 1.18-.23 1.88-.48 2.6-.96 1.13-.75 1.53-1.48 1.66-3.07.05-.52.06-1.05.06-2.01v-1.51c0-.61-.01-.87-.06-1.14h1.67v-.02zm8.67 2.7c-.04.23-.04.24-.05.98-.05 2.06-.37 3.21-1.19 4.26-.72.93-1.6 1.54-3.11 2.17-.31-.65-.47-.87-.95-1.37.98-.29 1.52-.55 2.11-1.02 1.23-.97 1.61-2.01 1.61-4.29 0-.36-.01-.47-.06-.72h1.64v-.01zm4.89-1.52c-.17.2-.17.22-.48.84-.42.89-1.12 1.79-1.85 2.42-.48.42-.88.69-1.45 1-.36-.51-.54-.69-1.08-1.1.81-.36 1.26-.64 1.76-1.11.49-.46.87-.95 1.14-1.53h-6.32c-.84 0-1.14.01-1.64.07v-1.51c.46.07.83.1 1.66.1h6.29c.72 0 .83-.01 1.17-.11l.81.91-.01.02zm4.38 7.71c-.83 0-1.12.01-1.48.05v-1.55c.45.07.66.08 1.51.08h5.48v-5.25h-5.27c-.85 0-1.11.01-1.54.06v-1.57c.45.07.67.08 1.55.08h5.79c.42 0 .77-.007 1.05-.02-.04.33-.04.45-.04 1v6.61c0 .6.01.94.06 1.24h-1.61v-.73h-5.5zm12.97-8.87c-.05.32-.06.63-.07 1.22l-.06 6.88c1.25-.24 2.38-.7 3.29-1.32 1.11-.76 1.85-1.59 2.46-2.76.47.63.63.8 1.14 1.23-.83 1.28-1.6 2.08-2.69 2.81-1.2.81-2.43 1.28-4.38 1.65-.33.06-.47.11-.72.2l-.77-.93c.08-.32.11-.54.11-1.24l.05-6.5c0-.56-.02-.973-.06-1.24h1.71-.01zm18.9 1.75c-.12.18-.17.29-.3.72-.55 1.83-1.41 3.46-2.47 4.65-1.11 1.26-2.43 2.2-4.29 3.06-.34-.6-.49-.81-1.02-1.26 1.2-.49 1.88-.85 2.64-1.42 1.72-1.28 2.85-2.93 3.52-5.08l-3.62.06a11.59 11.59 0 01-2.82 3.08c-.36-.49-.54-.65-1.17-1.04 1.37-.94 2.24-1.9 3.12-3.49.37-.69.57-1.16.61-1.59l1.65.32a4.598 4.598 0 00-.2.37c-.027.04-.08.153-.16.34a18.255 18.255 0 00-.35.7c.16-.01.35-.02.58-.02l2.64-.04c.47 0 .6-.02.88-.12l.77.76h-.01zm4.07 8.25c.06-.39.07-.71.07-1.35v-7.72c0-.59-.02-.9-.07-1.23h1.65c-.05.36-.05.52-.05 1.26v2.24c1.65.58 3.54 1.46 5.47 2.54l-.84 1.42c-1-.69-2.25-1.37-4.26-2.3-.28-.13-.31-.15-.41-.2.04.34.05.48.05.82v3.18c0 .63.01.94.05 1.34h-1.66z" fill="#EF5274"/><path d="M8.74 127.5c0 .66-.12 1.23-.36 1.69-.24.46-.59.88-1.05 1.25l-.93-.94c.34-.23.6-.51.78-.83.19-.32.28-.73.28-1.22 0-.46-.1-.83-.29-1.11a.902.902 0 00-.79-.41c-.28 0-.51.07-.68.22-.18.14-.32.34-.44.57-.12.24-.22.5-.31.78s-.2.57-.31.85c-.12.28-.26.54-.44.78s-.4.43-.68.57c-.28.14-.63.22-1.07.22-.49 0-.92-.12-1.26-.37-.35-.24-.61-.57-.8-.99-.18-.42-.28-.88-.28-1.39 0-.55.11-1.05.32-1.48.22-.44.49-.79.83-1.06l.93.94c-.27.24-.47.49-.6.75s-.2.56-.2.9c0 .42.08.74.25.98.17.24.4.35.71.35.26 0 .46-.07.62-.22.16-.14.29-.33.4-.57.11-.24.21-.5.31-.78s.2-.57.32-.85.27-.54.46-.78.43-.43.72-.57c.3-.14.67-.22 1.11-.22.75 0 1.35.27 1.78.8.44.53.66 1.25.66 2.16l.01-.02zm-.12-4.75H.48v-1.32h8.14v1.32zm-4.55 1.38h-1.2v-4.08h1.2v4.08zm1.35-6.24l-.23.46c-.73 0-1.31-.16-1.77-.49-.45-.32-.68-.81-.68-1.47 0-.29.05-.55.16-.78.1-.23.27-.45.5-.65l.89.86c-.11.1-.19.22-.24.35-.05.13-.07.28-.07.44 0 .37.12.67.35.91.23.24.59.36 1.09.36v.01zm3.2 1.32H2.87v-1.32h5.75v1.32zm.12-7.49c0 .58-.13 1.1-.39 1.56-.26.46-.62.82-1.07 1.09-.45.27-.97.4-1.53.4s-1.08-.13-1.53-.4a2.961 2.961 0 01-1.47-2.58c0-.56.12-1.01.37-1.42.25-.41.59-.74 1.02-.97.43-.24.92-.35 1.47-.35.1 0 .19 0 .29.02.1.01.21.03.33.05v4.73H5.15v-4.05l.43.49c-.35.02-.65.08-.89.2-.24.12-.42.29-.55.51-.13.22-.19.49-.19.81 0 .32.07.63.22.88s.35.44.6.58c.26.14.57.2.93.2.36 0 .67-.07.95-.22.27-.14.48-.35.63-.61.15-.26.22-.57.22-.91a2 2 0 00-.16-.82c-.11-.25-.26-.47-.46-.64l.85-.84c.33.28.57.62.74 1.02.17.4.25.82.25 1.27h.02zm0-5.58c0 .32-.04.63-.13.92a2.88 2.88 0 01-.93 1.47l-.84-.84c.23-.2.4-.43.52-.69.12-.26.17-.55.17-.88 0-.3-.04-.52-.13-.67a.43.43 0 00-.38-.23.48.48 0 00-.41.22c-.1.14-.18.33-.25.56-.07.23-.14.47-.21.72-.07.25-.17.49-.29.72-.12.23-.29.41-.51.56-.22.14-.49.22-.84.22-.37 0-.68-.09-.95-.26-.26-.17-.47-.42-.61-.73s-.22-.69-.22-1.13c0-.46.08-.87.25-1.23.16-.36.41-.65.74-.89l.84.84a1.61 1.61 0 00-.63 1.32c0 .26.04.47.12.61.08.14.2.22.35.22.16 0 .28-.07.37-.22.09-.14.16-.33.23-.56.06-.23.13-.47.21-.72.08-.25.18-.49.31-.72.13-.23.31-.41.53-.56.22-.14.5-.22.86-.22.56 0 1 .2 1.33.59.33.39.49.92.49 1.6l.01-.02zm0-5.19c0 .32-.04.63-.13.92a2.88 2.88 0 01-.93 1.47l-.84-.84c.23-.2.4-.43.52-.69.12-.26.17-.55.17-.88 0-.3-.04-.52-.13-.67a.43.43 0 00-.38-.23.48.48 0 00-.41.22c-.1.14-.18.33-.25.56-.07.23-.14.47-.21.72-.07.25-.17.49-.29.72-.12.23-.29.41-.51.56-.22.14-.49.22-.84.22-.37 0-.68-.09-.95-.26-.26-.17-.47-.42-.61-.73s-.22-.69-.22-1.13c0-.46.08-.87.25-1.23.16-.36.41-.65.74-.89l.84.84a1.61 1.61 0 00-.63 1.32c0 .26.04.47.12.61.08.14.2.22.35.22.16 0 .28-.07.37-.22.09-.14.16-.33.23-.56.06-.23.13-.47.21-.72.08-.25.18-.49.31-.72.13-.23.31-.41.53-.56.22-.14.5-.22.86-.22.56 0 1 .2 1.33.59.33.39.49.92.49 1.6l.01-.02zM3.58 90.68c.47-.6 1.26-.91 1.97-.91 2.11 0 3.04 1.45 3.04 2.89 0 1.66-1.11 2.93-2.98 2.93-1.87 0-3.1-1.24-3.1-3.13v-3.23l1.08.05c0 .3-.01.68-.06 1.39h.05v.01zm1.95.55c-.92 0-1.95.4-1.95 1.38 0 1.03 1.01 1.45 1.97 1.45 1.12 0 1.97-.56 1.97-1.44 0-.8-.83-1.39-2-1.39h.01zm-4.49-3.5H0v-2.29h1.04v2.29zm8.73.54H0v-1.11h9.77v1.11zm0-.54H8.73v-2.29h1.04v2.29zM8.62 84.3H.24v-.96l5.74-3.49v.62L.24 76.98v-.96h8.38v1.38H2.66l.08-.31 4.25 2.59v.96l-4.25 2.59-.08-.31h5.96v1.38zM5.46 73.15h-1.2v-2.1c0-.29-.06-.54-.17-.76-.12-.22-.28-.39-.49-.52-.21-.13-.46-.19-.75-.19s-.54.06-.75.19c-.21.13-.38.3-.49.52-.12.22-.17.47-.17.76v2.1H.24v-2.17c0-.53.11-1 .32-1.42.22-.42.52-.75.91-1 .39-.24.85-.37 1.38-.37.53 0 .99.12 1.38.37.39.25.69.58.91 1 .22.42.32.9.32 1.42v2.17zm3.16.95H.24v-1.38h8.38v1.38zm.12-9.2c0 .52-.13.99-.4 1.41-.26.42-.62.75-1.07 1-.45.24-.96.37-1.51.37s-1.08-.12-1.53-.37a2.97 2.97 0 01-1.08-1c-.27-.42-.4-.89-.4-1.41 0-.44.09-.83.28-1.17.19-.34.45-.61.77-.81.33-.2.7-.3 1.11-.3h1.65c.42 0 .79.1 1.11.29.32.19.58.47.77.81.19.34.28.74.28 1.18h.02zm-.12-1.77H7.08l-1.4-.23-1.39.23H2.88v-1.32h5.75v1.32h-.01zM7.5 64.68c0-.49-.16-.88-.49-1.18-.33-.3-.75-.45-1.26-.45-.34 0-.65.07-.91.2s-.47.33-.62.57c-.15.24-.22.53-.22.86 0 .33.07.6.22.85.15.24.35.44.62.58.26.14.57.21.91.21.34 0 .65-.07.91-.21.26-.14.47-.33.62-.58.15-.24.22-.53.22-.85zm2.27-5.58H0V58h9.77v1.1zm-8.73 1.73H0v-2.29h1.04v2.29zm8.73 0H8.73v-2.29h1.04v2.29z" fill="#000"/><path d="M139.35 206.418v-1.27h6.88v1.27h-6.88zm2.75 7.17v-8.19h1.39v8.19h-1.39zm5.79-6.84a.77.77 0 01-.78-.8c0-.23.07-.41.22-.57a.77.77 0 01.56-.23c.22 0 .42.08.57.23.14.15.22.34.22.57 0 .23-.07.41-.22.57-.14.15-.33.23-.57.23zm-.66 6.84v-5.78h1.33v5.78h-1.33zm2.77 0v-5.78h1.33v5.78H150zm3.84 0v-3.45c0-.39-.12-.69-.36-.9-.24-.21-.54-.32-.89-.32-.24 0-.46.05-.64.14-.18.09-.34.24-.45.42-.11.18-.17.4-.17.66l-.52-.29c0-.44.1-.82.29-1.15.19-.32.45-.57.78-.75.33-.18.7-.27 1.11-.27.41 0 .78.09 1.11.26.33.18.59.43.78.75.19.32.29.71.29 1.16v3.73h-1.33v.01zm3.84 0v-3.45c0-.39-.12-.69-.36-.9-.24-.21-.54-.32-.89-.32-.23 0-.45.05-.64.14-.19.09-.35.24-.46.42-.11.18-.17.4-.17.66l-.75-.29c.04-.44.17-.82.39-1.15.22-.32.5-.57.84-.75.34-.18.72-.27 1.13-.27.41 0 .8.09 1.13.26.34.18.61.43.81.75.2.32.3.71.3 1.16v3.73h-1.33v.01zm5.4.12c-.58 0-1.1-.13-1.56-.39-.46-.26-.83-.62-1.1-1.08-.27-.46-.4-.97-.4-1.54 0-.57.13-1.08.4-1.54.27-.45.62-.81 1.08-1.08.45-.26.96-.4 1.51-.4s1.01.12 1.43.37c.42.25.74.59.98 1.02.24.43.36.93.36 1.48 0 .1 0 .19-.02.3-.01.1-.03.21-.05.33h-4.75v-1.08h4.06l-.49.43c-.02-.35-.08-.65-.2-.89a1.24 1.24 0 00-.51-.55c-.22-.13-.49-.19-.81-.19-.34 0-.63.07-.88.22s-.44.35-.58.61c-.14.26-.2.57-.2.93 0 .36.07.68.22.95.14.27.35.48.61.63.27.15.57.22.92.22.3 0 .57-.05.83-.16.25-.1.47-.26.64-.46l.84.85c-.28.33-.62.58-1.02.75-.4.17-.83.25-1.28.25l-.03.02zm3.89 1.04v-9.83h1.11v9.83h-1.11zm.54-8.78v-1.05h2.3v1.05h-2.3zm0 8.78v-1.05h2.3v1.05h-2.3zm3.29-1.16v-8.67h1.33v8.67h-1.33zm3.96 0v-3.34c0-.39-.12-.7-.37-.95s-.56-.37-.95-.37c-.26 0-.49.06-.69.17-.2.11-.36.27-.47.47-.11.2-.17.43-.17.69l-.52-.29c0-.44.1-.83.29-1.17.19-.34.46-.61.8-.81.34-.2.72-.3 1.15-.3.43 0 .82.1 1.16.29.34.19.6.46.8.8.2.34.29.74.29 1.19v3.63h-1.33l.01-.01zm5.35.12c-.56 0-1.07-.13-1.53-.4-.46-.27-.82-.63-1.09-1.09-.27-.46-.4-.97-.4-1.53s.13-1.07.4-1.52c.27-.45.63-.81 1.09-1.08.46-.27.97-.4 1.53-.4a2.999 2.999 0 012.63 1.48c.27.45.4.96.4 1.52s-.13 1.07-.4 1.53c-.27.46-.63.82-1.09 1.09-.46.27-.97.4-1.54.4zm0-1.28c.33 0 .62-.07.87-.22s.45-.35.59-.62c.14-.26.21-.57.21-.9 0-.33-.07-.63-.22-.89-.14-.26-.34-.46-.59-.61-.25-.15-.54-.22-.87-.22-.33 0-.61.07-.86.22s-.45.35-.59.61c-.14.26-.21.55-.21.89 0 .34.07.64.21.9.14.27.34.47.59.62.25.15.54.22.86.22h.01zm6.52 1.28c-.49 0-.93-.11-1.31-.33-.38-.22-.68-.52-.89-.9-.21-.38-.32-.82-.32-1.32v-3.36h1.33v3.3c0 .28.05.52.14.72.09.2.23.35.41.45.18.1.4.16.64.16.39 0 .68-.11.89-.34.2-.23.31-.56.31-.98v-3.3h1.33v3.36c0 .51-.11.95-.32 1.33-.21.38-.51.68-.89.89-.38.21-.82.32-1.31.32h-.01zm3.87-.12v-5.78h1.33v5.78h-1.33zm1.33-3.22l-.46-.23c0-.73.16-1.32.49-1.78.33-.45.82-.68 1.48-.68.29 0 .55.05.78.16.23.1.45.27.65.51l-.87.89a.916.916 0 00-.35-.24c-.13-.05-.28-.07-.45-.07-.37 0-.68.12-.92.35-.24.23-.36.6-.36 1.1l.01-.01zm5.59 3.34c-.32 0-.63-.04-.93-.13-.3-.09-.57-.2-.82-.36-.25-.16-.47-.35-.65-.57l.84-.84c.2.23.43.41.69.52.26.12.56.17.89.17.3 0 .52-.04.67-.13.15-.09.23-.22.23-.39s-.07-.31-.22-.41c-.14-.1-.33-.18-.56-.25-.23-.07-.47-.14-.72-.21-.25-.07-.49-.17-.72-.3-.23-.13-.42-.3-.56-.51-.14-.22-.22-.5-.22-.84 0-.37.09-.69.26-.95.17-.27.42-.47.73-.61.32-.14.7-.22 1.14-.22.47 0 .88.08 1.23.25.35.17.66.41.9.74l-.84.84c-.17-.21-.36-.37-.58-.47-.22-.1-.47-.16-.75-.16-.27 0-.47.04-.61.12-.14.08-.22.2-.22.35 0 .16.07.29.22.37.15.08.33.16.56.23.23.06.47.14.72.21.25.08.49.18.72.31.23.13.42.31.56.53.14.22.22.51.22.86 0 .56-.2 1.01-.59 1.34-.39.33-.93.49-1.6.49l.01.02zm2.59-7.75v-1.05h2.3v1.05h-2.3zm0 8.78v-1.05h2.3v1.05h-2.3zm1.73 0v-9.83h1.11v9.83h-1.11z" fill="#403B35"/><path d="M214.06 160.566c-.54 0-.87.01-1.28.04.04-.38.05-.69.05-1.2v-2.54c0-.6-.01-.93-.05-1.28.3.04.55.05 1.11.05-.31-.61-.55-.99-1.07-1.58l1.19-.51c.55.65.8 1 1.19 1.7l-.91.38h4.56c.57-.81.92-1.42 1.18-2.14l1.41.45c-.52.83-.81 1.26-1.14 1.7.65 0 .95-.01 1.28-.05-.04.32-.05.65-.05 1.28v2.51c0 .58.01.91.05 1.24-.42-.02-.78-.04-1.28-.04h-2.53v.78h3.52c.61 0 .95-.01 1.31-.06v1.34c-.35-.05-.84-.07-1.45-.07h-3.38v.78c0 .6.01.84.08 1.22h-1.48c.06-.35.07-.61.07-1.22v-.78h-3.26c-.61 0-1.06.02-1.43.07v-1.34c.37.05.73.06 1.32.06h3.37v-.78h-2.38v-.01zm2.38-3.85h-2.32v.82h2.32v-.82zm0 1.83h-2.32v.93h2.32v-.93zm.39-2.99c-.25-.72-.43-1.07-.94-1.87l1.24-.35c.47.7.61.96.98 1.78l-1.28.43v.01zm3.41 1.97v-.82h-2.47v.82h2.47zm0 1.94v-.93h-2.47v.93h2.47zm8.84-2.57c-.11-.22-.16-.3-.39-.57h-1.55c-.08 2.59-.1 2.9-.19 3.83-.2 1.95-.55 3.19-1.22 4.35-.53-.63-.67-.78-1.06-1.12.39-.67.6-1.23.78-2.06.28-1.25.42-3.26.42-5.8 0-1.14-.01-1.43-.07-1.91.46.05.9.06 1.59.06H234c.63 0 1.01-.01 1.4-.05-.02.31-.04.54-.04.91v.9c0 .41.01.66.04.93-.35-.02-.76-.04-1.31-.04h-.4c-.1.2-.14.29-.34.57h.83c.51 0 .8-.01 1.02-.04-.02.28-.04.55-.04.89v1.63c0 .4.01.64.04.92-.29-.02-.58-.04-.99-.04h-5.61c-.7 0-.82 0-1.08.04.02-.34.04-.51.04-1v-1.47c0-.52-.01-.72-.04-.95.26.02.46.02 1.06.02h.5zm5.05-1.56v-.55h-6.98v.55h6.98zm-.63 5.32c.67 0 .89-.01 1.23-.05-.04.33-.05.57-.05 1.02v1.84c0 .47.01.72.06 1.06h-1.3v-.41h-4.3v.41h-1.29c.04-.35.05-.57.05-1.11v-1.75c0-.53-.01-.71-.05-1.06.29.02.61.04 1.23.04h4.42v.01zm-4.71-2.48h1.87v-.45h-1.87v.45zm0 1.25h1.87v-.45h-1.87v.45zm.35 2.55h4.3v-.42h-4.3v.42zm0 1.23h4.3v-.42h-4.3v.42zm2.88-6.31c.16-.23.25-.39.34-.57h-2.28c.14.22.23.34.34.57h1.6zm-.17 1.28h2.07v-.45h-2.07v.45zm0 1.25h2.07v-.45h-2.07v.45zm8.84-1.68c.64.53 1 .85 1.49 1.34.44.447.69.697.75.75.63-.53 1.13-1.01 1.58-1.52a16.087 16.087 0 001.54-2.07s.01-.04.02-.06c-.12.01-.3.02-.55.02h-5.74c-.98.01-1.1.01-1.54.06v-1.53c.47.07.75.08 1.57.08h6.69c.52-.01.7-.02 1-.11l.84.95c-.18.19-.25.28-.53.71-1.14 1.84-2.41 3.32-3.89 4.56.51.58.96 1.16 1.59 2.01l-1.26 1.01c-.67-1.08-1.31-1.91-2.32-3.03-.93-1.02-1.53-1.61-2.41-2.32l1.18-.85h-.01zm19.85-1.55c-.11.23-.12.3-.18.66-.2 1.39-.39 2.06-.76 2.91-.59 1.39-1.55 2.46-2.97 3.32-.72.45-1.35.72-2.4 1.08-.28-.61-.42-.83-.96-1.43 1.14-.28 1.81-.53 2.56-1 1.75-1.08 2.66-2.61 2.89-4.83h-5.88v1.55c0 .37.01.7.04.96h-1.61c.04-.3.06-.67.06-1.01v-1.75c0-.51-.01-.82-.05-1.14.42.05.64.06 1.3.06h2.36v-1.04c0-.39-.01-.6-.06-.88h1.67c-.04.2-.06.53-.06.87v1.04h2.17c.593 0 .987-.034 1.18-.1l.7.71v.02zm11.41 7.73c-1-1.23-2.38-2.58-3.7-3.58-1.36 1.52-2.75 2.58-4.59 3.48-.34-.63-.48-.82-.98-1.34.93-.36 1.51-.69 2.41-1.32 1.82-1.28 3.26-3.02 4.05-4.9l.13-.31c-.127.006-1.457.03-3.99.07-.58.01-.9.04-1.31.1l-.05-1.54c.34.06.57.07 1.06.07h.29l4.24-.06c.67-.01.77-.02 1.07-.13l.79.82c-.16.18-.25.35-.39.65-.55 1.29-1.14 2.34-1.88 3.32.76.51 1.41 1.01 2.23 1.75.2.173.787.73 1.76 1.67l-1.16 1.25h.02zm5.78-6.14c2.01-.41 4.35-1.35 5.26-2.14l.96 1.36c-.093.04-.373.173-.84.4-1.71.85-3.24 1.36-5.38 1.78v1.55s0 .01-.01.04v.16c0 .71.05.98.22 1.14.2.22.89.31 2.06.31.81 0 1.91-.07 2.79-.19.58-.07.84-.13 1.37-.29l.07 1.6c-.24 0-.33.01-1.19.1-.96.1-2.47.18-3.37.18-1.51 0-2.34-.16-2.81-.52-.34-.25-.52-.64-.59-1.23-.02-.2-.04-.41-.04-1.11v-5.59c-.01-.61-.01-.78-.06-1.11h1.61c-.05.31-.06.57-.06 1.12v2.43l.01.01zm7.99-3.19c0 .74-.59 1.32-1.32 1.32-.73 0-1.32-.6-1.32-1.32 0-.72.59-1.32 1.32-1.32.73 0 1.32.59 1.32 1.32zm-2.01 0c0 .37.31.69.69.69.38 0 .69-.31.69-.69 0-.38-.3-.69-.69-.69-.39 0-.69.31-.69.69zm3.13 3.48c.53.07.76.08 1.95.08h6.42c1.19 0 1.42-.01 1.95-.08v1.67c-.48-.06-.61-.06-1.96-.06h-6.39c-1.35 0-1.48 0-1.96.06v-1.67h-.01zm20.83 5.85c-1-1.23-2.38-2.58-3.7-3.58-1.36 1.52-2.75 2.58-4.59 3.48-.34-.63-.48-.82-.98-1.34.93-.36 1.51-.69 2.41-1.32 1.82-1.28 3.26-3.02 4.05-4.9l.13-.31c-.127.006-1.457.03-3.99.07-.58.01-.9.04-1.31.1l-.05-1.54c.34.06.57.07 1.06.07h.29l4.24-.06c.67-.01.77-.02 1.07-.13l.79.82c-.16.18-.25.35-.39.65-.55 1.29-1.14 2.34-1.88 3.32.76.51 1.41 1.01 2.23 1.75.2.173.787.73 1.76 1.67l-1.16 1.25h.02z" fill="#00AEE0"/></svg>