<svg xmlns="http://www.w3.org/2000/svg" width="40" height="40" viewBox="0 0 40 40"><defs><linearGradient id="a" x1=".5" x2=".5" y2="1" gradientUnits="objectBoundingBox"><stop offset="0" stop-color="#f9b700"/><stop offset="1" stop-color="#ca6717"/><stop offset="1" stop-color="#b86821"/></linearGradient></defs><path d="M39.999 10.348v25.983a.336.336 0 01-.341.335h-5.986a.336.336 0 01-.341-.335V20a.6.6 0 01.165-.553 9.34 9.34 0 001.9-2.093c.153-.223.047-.294-.159-.106A16.02 16.02 0 0133.62 18.5c-.288.194-.288-.171-.288-.171v-7.981a.341.341 0 01.341-.341h5.986a.341.341 0 01.341.341m-8.339 9.143V.335A.335.335 0 0031.326 0h-5.992a.335.335 0 00-.335.335v21.538a.244.244 0 00.323.247 31.357 31.357 0 006.145-2.246.462.462 0 00.194-.382m-6.662 4.497v5.674a.331.331 0 00.335.335h5.992a.331.331 0 00.335-.335V21.22s0-.37-.282-.194c-1.847 1.152-3.811 2.4-6.092 2.64a.326.326 0 00-.288.323m-1.67-1.876V13.67a.331.331 0 00-.335-.335h-5.995a.335.335 0 00-.335.335v8.443a.345.345 0 00.323.347 37.8 37.8 0 006.051-.006.338.338 0 00.294-.341m-6.669 2.252v11.966a.335.335 0 00.335.335h6a.331.331 0 00.335-.335V24.219s0-.282-.329-.223a21.49 21.49 0 01-5.991.004c-.453-.047-.353.365-.353.365M4.634 17.128a20.179 20.179 0 001.752 1.388c.271.2.271-.182.271-.182V7.009a.34.34 0 00-.335-.341H.335a.333.333 0 00-.336.341v22.654A.328.328 0 00.335 30h5.987a.335.335 0 00.335-.335v-9.75a.788.788 0 00-.229-.529 12.373 12.373 0 01-1.882-2.117c-.129-.194-.082-.288.088-.141" fill="#ca6716"/><path d="M1.417 21.144v18.527a.333.333 0 00.329.329h6.01a.329.329 0 00.329-.329v-15.54a.436.436 0 00-.365-.482 24.046 24.046 0 01-6.034-2.634.248.248 0 00-.135-.047c-.135 0-.135.176-.135.176M1.746 0a.333.333 0 00-.329.329v19.139s0 .318.218.412A37.538 37.538 0 007.68 22.1c.323.082.406-.3.406-.3V.329A.329.329 0 007.756 0z" transform="translate(6.91)" fill="url(#a)"/></svg>