<svg xmlns="http://www.w3.org/2000/svg" width="172" height="23" viewBox="0 0 172 23"><path d="M10.764 5.833c-.181 0-5.682 1.381-5.811 1.439a9.646 9.646 0 01-1.178.538 5.3 5.3 0 01-1.78-1.017 5.922 5.922 0 01-.63-1.638c0-.14.029-.222.163-.222.018 0 .607.17.677.193a4.316 4.316 0 001.389.287c.893 0 5.817-.451 7.17-1.041a9.506 9.506 0 011.441-.878c.618 0 2.229 1.439 2.229 2.141 0 .257-.974 1.018-1.126 1.217-.525.679-2.6 3.979-3.016 4.622a.941.941 0 00-.2.568c0 .252.053.31 1.143.96 1.184.731 5.863 3.581 5.863 6.149a1.183 1.183 0 01-1.073 1.24c-.6 0-.706-.2-1.622-1.948-1.809-3.411-4.107-5.553-4.685-5.553-.263 0-.338.082-.916.79a26.65 26.65 0 01-6.989 6.032 5.841 5.841 0 01-1.616.649c-.053 0-.193 0-.193-.17a8.35 8.35 0 011.213-1.041c6.826-5.33 9.935-12.638 9.865-13.089a.3.3 0 00-.315-.228m20.866.732c.414-.088 2.7-.679 2.748-.679.548 0 3.378 2.317 3.378 3.727 0 .392-.4.532-1.021.62-1.412.2-1.674.421-3.955 2.481-.362.339-1.231 1.018-1.7 1.55a.694.694 0 00-.128.287c0 .222.105.334.893 1.27a3.3 3.3 0 01.811 1.943c0 .562-.292 1.1-.893 1.1-.683 0-.834-.193-2.357-2.03a19.764 19.764 0 00-3.868-3.557c-.263-.193-.292-.222-.292-.334a.22.22 0 01.233-.228 42.937 42.937 0 014.4 1.357c.788 0 4.271-5.307 4.271-6.126 0-.339-.315-.369-.525-.369A76.351 76.351 0 0022.95 9.865c-.344.111-1.966.93-2.048.93-.414 0-2.532-1.492-2.532-2.82 0-.059 0-.451.181-.451a7.661 7.661 0 01.863.339 6.876 6.876 0 001.517.14 88.482 88.482 0 0010.702-1.438m17.59 1.831c1.021.679 1.12.79 1.12 1.041 0 .176-.28.96-.309 1.129a29.344 29.344 0 00-.158 5c0 .761.023 2.282.076 3.388.029.334.187 1.972.187 2.335 0 .287 0 1.246-.63 1.246-.729 0-1.622-1.217-1.622-1.978 0-.281.257-1.527.286-1.8.163-1.527.263-3.7.263-5.2 0-1.012 0-3.973-.683-3.973-.123 0-.233.111-.443.334-2.567 2.656-6.96 5.389-7.433 5.389-.076 0-.128-.053-.128-.17a.237.237 0 01.082-.193c.677-.649 1.412-1.3 1.826-1.7 6.177-5.697 8.219-10.485 8.219-11.285a1.644 1.644 0 00-.21-.784 2.967 2.967 0 01-.181-.456.261.261 0 01.263-.222c.391 0 3.028 1.188 3.028 2.258a.7.7 0 01-.233.562 7.963 7.963 0 00-1.776 2.311c-.449.679-1.284 1.7-1.785 2.375a.471.471 0 00.239.392m10.742 4.524c-1.569 3.669-4.317 5.359-4.842 5.359a.128.128 0 01-.128-.14 7.6 7.6 0 011.05-1.5c2.876-4.259 3.168-7.331 3.168-8.267a6.519 6.519 0 00-.456-2.416 2.572 2.572 0 01-.1-.509c0-.088.029-.14.128-.14.187 0 2.958.96 2.958 2.4 0 .082-1.33 4.148-1.779 5.219m4.241 2.621c0-.14.128-.872.158-1.012.076-.538.105-2.767.105-3.475a18.7 18.7 0 00-.5-5.3 6.975 6.975 0 01-.344-1.018.147.147 0 01.158-.14c.128 0 2.882.509 2.882 1.978 0 .339-.373 1.8-.42 2.118-.105.755-.21 4.172-.21 5.1 0 .369.023.93.5.93.788 0 3.191-1.861 5.706-4.6.443-.48 2.672-3.013 2.777-3.013a.119.119 0 01.1.111c0 .222-1.523 3.721-6.1 8.068a15.174 15.174 0 00-1.8 1.8c-.449.538-.683.737-.863.766-.764.135-2.147-1.527-2.147-2.317m30.704-3.508a.891.891 0 00.758-.4c.438-.568.508-.62.648-.62s1.657.971 1.657 1.416c0 .2-.041.275-.484.848a6.971 6.971 0 00-.158 1.9c0 .649.047 3.487.047 4.061 0 1.591 0 1.767-.169 2.089a2.965 2.965 0 01-1.954 1.362c-.274 0-.391-.2-.718-.766a2.389 2.389 0 00-1.359-1.1c-.362-.1-.438-.3-.438-.351 0-.094.163-.094.257-.094.228 0 1.266.094 1.5.094.992 0 1.219 0 1.219-.766 0-.971.047-5.184.023-6.056 0-.544-.023-.948-.718-.948H82.045c-.694 0-.694.374-.694 1.123.023 1.194.088 6.477.088 7.548a1.2 1.2 0 01-1.285 1.275c-.653 0-.653-.275-.653-.579 0-.626.1-3.335.1-3.885 0-1.393 0-4.037-.07-5.307 0-.222-.117-1.346-.117-1.439 0-.152.047-.328.187-.328.07 0 1.33.62 1.429.673a2.455 2.455 0 001.149.252h.9c.618 0 .618-.152.642-1.5 0-.772-.023-6.1-.023-6.225-.07-.421-.368-.421-.618-.421h-.578c-2.036 0-2.7.047-2.929.047a3.609 3.609 0 01-.484.076c-.076 0-.123-.076-.21-.176l-.438-.573c-.093-.1-.093-.123-.093-.146 0-.053.023-.082.07-.082.163 0 .875.082 1.015.105 1.132.047 2.1.07 3.18.07h4.294c.688 0 .688-.445.688-.819a7.894 7.894 0 00-.07-1.047c-.023-.146-.14-.872-.14-1.018 0-.2.076-.222.257-.222a11.926 11.926 0 011.733.345c.251.076.548.123.548.4 0 .176-.041.228-.438.62a1.067 1.067 0 00-.187.726c0 .872.163 1.018.788 1.018h4.008c.694 0 .992 0 1.342-.521.642-.971.712-1.094.968-1.094a8.6 8.6 0 012.468 1.943c0 .351-.461.351-1.248.351h-3.683c-.694 0-.694.269-.694.942v6.653c0 .474.257.55.624.55zm-7.841 7.425c-.368 0-.554 0-.642.421-.146.445-.257.866-.992.866-.671 0-.694-.316-.694-.72 0-.322.047-1.9.047-2.264v-2.047a18.202 18.202 0 01-.093-1.17c0-.146.023-.345.181-.345.023 0 .811.4.881.421a2.133 2.133 0 00.968.2h3.162c.385 0 .525-.123.618-.275.2-.246.414-.521.508-.521s1.634.772 1.634 1.223c0 .123-.023.146-.438.644a.88.88 0 00-.181.649c0 .451.07 2.791.07 2.92a1.278 1.278 0 01-1.2 1.164c-.414 0-.438-.193-.5-.7-.023-.222-.239-.468-.7-.468zM85.89 3.891c-.665 0-.665.146-.665 1.316 0 .726.07.9.665.9h5.164c.665 0 .665-.146.665-1.316 0-.726-.07-.9-.665-.9zm5.169 5.3c.665 0 .665-.176.665-1.469 0-.649 0-.948-.665-.948H85.89c-.665 0-.665.152-.665 1.474 0 .644 0 .942.665.942zm.047 2.844c.618 0 .618-.129.618-1.346 0-.573 0-.848-.618-.848h-5.263c-.618 0-.618.252-.618.872 0 1.194 0 1.322.618 1.322zm-3.991 3.434c-.764 0-.764.246-.764 1.521 0 1.615 0 1.814.764 1.814h2.579c.764 0 .764-.293.764-1.246 0-2.042 0-2.089-.764-2.089zm14.795-7.646c-.1-.1-.111-.123-.111-.152 0-.047.041-.07.088-.07.344 0 1.844.176 2.141.176.554 0 .554-.2.554-1.9a24.957 24.957 0 00-.113-4.005c-.018-.152-.239-.848-.239-.924 0-.1.1-.123.193-.123.07 0 2.357.421 2.357.971a4.557 4.557 0 01-.4.7 7.557 7.557 0 00-.169 2.294c0 .369-.017 2.042-.017 2.387 0 .152 0 .4.251.4.163 0 .233-.07.333-.275.268-.62.408-.8.613-.8.379 0 1.6 1.17 1.6 1.574 0 .369-.443.369-1.254.369h-.782c-.315 0-.758 0-.758.6 0 .772 0 6 .041 6.2a.38.38 0 00.4.322 14.847 14.847 0 002.439-.995c.041 0 .093.023.093.07 0 .152-.712.649-.852.778-.928.8-1.336.971-4.574 2.885a2 2 0 00-.642.649.536.536 0 01-.391.252c-.228 0-.268-.129-.688-1.153-.023-.041-.484-1.194-.484-1.24a.238.238 0 01.2-.228c.053 0 .368.152.461.176a.717.717 0 00.368.076c.42 0 1.657-.17 1.943-.6a18.913 18.913 0 00.123-2.69c0-.6 0-4.558-.1-4.8a.54.54 0 00-.525-.3c-.216 0-1.272.129-1.459.129-.082 0-.134-.076-.2-.176zm9.959-1.369a.762.762 0 00-.578.2 13.027 13.027 0 00-.187 2.662c0 .6.123.848.653.848h.782a.776.776 0 00.811-.4c.245-.374.268-.421.385-.421a5.446 5.446 0 011.68 1.316c0 .176-.589.673-.665.825-.023.076-.163 4.008-.228 4.757-.163 2.042-.3 3.786-2.474 3.786-.414 0-.414-.029-.665-.924a3.223 3.223 0 00-.875-1.463c-.093-.105-.117-.129-.117-.176a.122.122 0 01.14-.129c.111 0 .624.252.747.275a4.143 4.143 0 00.98.176c.467 0 .531-.351.624-.8a38.319 38.319 0 00.344-5.43c0-.573-.163-.749-.712-.749h-.782c-.653 0-.653.146-.694 1.393-.14 3.089-.548 7.2-4.131 9.736a7.1 7.1 0 01-.98.579.108.108 0 01-.1-.105c0-.041.671-.72.782-.843 2.3-2.767 3.045-5.828 3.045-11.556a24.517 24.517 0 00-.21-3.709c-.047-.2-.274-1.153-.274-1.246a.231.231 0 01.228-.252 4.925 4.925 0 011.5.72 1.6 1.6 0 00.968.275h2.882c.531 0 .583-.421.583-.649 0-.4-.181-4.008-.239-4.353 0-.1-.181-.5-.181-.573 0-.053.018-.228.3-.228a8.53 8.53 0 011.639.474c.391.123.618.228.618.474 0 .1-.2.252-.391.421-.245.2-.344.275-.344 2.247s0 2.188.764 2.188h1.272c1.126 0 1.2-.023 1.336-.176.14-.17.741-1.194.945-1.194.14 0 1.867 1.369 1.867 1.668 0 .351-.461.351-1.219.351h-4.089c-.391 0-.718.047-.718.62 0 .673.63 6.53 1.342 6.53.368 0 .852-2.042.992-2.645a6.624 6.624 0 00.28-2.089c0-.275 0-.374.181-.374.07 0 1.079.573 1.2.644.951.527 1.062.6 1.062.825 0 .2-.023.228-.484.55a1.019 1.019 0 00-.391.62 41.223 41.223 0 01-1.7 4.259 1.407 1.407 0 00-.2.649c0 .872 2.007 3.212 2.514 3.212.385 0 1.377-2.738 1.581-3.411.047-.129.181-.55.263-.55s.088.1.088.129a8.866 8.866 0 01-.146.995c-.228 1.82-.338 2.61-.338 3.212a2.626 2.626 0 00.234 1.122 1.909 1.909 0 01.123.573c0 .374-.123.825-.723.825-.788 0-2.882-1.673-4.195-3.762-.163-.275-.3-.445-.484-.445-.21 0-.228.047-.753.72a8.737 8.737 0 01-4.661 3.312 8.864 8.864 0 01-.811.176.1.1 0 01-.111-.1c0-.053.823-.5.968-.6 2.853-1.837 4.539-4.7 4.539-5.377a20.025 20.025 0 00-.735-2.463 29.126 29.126 0 01-1.087-6.359c-.064-.673-.228-.8-.688-.8zm8.769-2.691c-.333 0-.42-.176-1.208-1.668a9.594 9.594 0 00-.6-1c-.14-.17-.181-.222-.181-.269s.041-.076.087-.076c1.412 0 2.608.749 2.608 1.8 0 .866-.4 1.217-.712 1.217m19.73-.449c.875 0 1.033-.023 1.173-.222.163-.2.764-1.4.992-1.4a5.237 5.237 0 011.937 1.943c0 .351-.117.351-1.219.351h-4.2c-.712 0-.712.474-.712.948 0 1.545 0 1.72.735 1.72h4.491c1.044 0 1.161 0 1.476-.4.653-.843.718-.919.928-.919.163 0 2.17 1.322 2.17 1.644 0 .345-.461.345-1.248.345h-15.706c-2.024 0-2.579.029-2.812.053-.07 0-.531.076-.6.076-.088 0-.111-.076-.2-.176l-.438-.573c-.093-.1-.093-.129-.093-.146 0-.053.023-.076.07-.076.14 0 .712.076.834.076.712.047 2.444.123 3.11.123a.567.567 0 00.618-.351c.07-.176.07-2.042.07-2.364a15.175 15.175 0 00-.093-1.8c-.018-.1-.251-.5-.251-.6 0-.228.233-.3.414-.3s1.981.482 1.981.854c0 .123-.35.568-.4.667-.117.351-.117.427-.117 2.9 0 .72.029.971.764.971h2.024c.694 0 .694-.427.694-.9a44.84 44.84 0 00-.07-4.733c-.023-.123-.117-.649-.117-.743 0-.2.14-.275.3-.275.2 0 1.914.451 1.914.9 0 .076-.187.3-.28.421a2.5 2.5 0 00-.181 1.123c0 .345 0 .872.688.872zm3.366 16.934c.438 0 .642-.176.665-.374.07-.451.07-2.691.07-3.212 0-2.867-.093-6.477-.187-7.372-.018-.152-.251-.772-.251-.948 0-.152.064-.176.21-.176.292 0 2.211.328 2.211.971 0 .123-.093.252-.3.427-.169.146-.169.843-.169 2.364 0 2.019.023 4.113.07 6.1 0 .4.163 3.165.163 3.212 0 .778-.391 1.316-1.132 1.316-.688 0-.712-.316-.735-.995-.023-.644-.414-.644-.712-.644h-11.942c-.642 0-.688.246-.782.971-.064.573-.782.848-1.155.848-.572 0-.572-.573-.572-.878 0-.193.041-1.065.041-1.27.093-1.644.093-6.348.093-8.168a26.018 26.018 0 00-.117-3.013c-.017-.123-.245-.819-.245-.919 0-.152.041-.152.158-.152.618 0 2.264.445 2.264.848 0 .1-.28.421-.327.521a12.465 12.465 0 00-.2 3.265c0 .8.023 6.354.111 6.851a.6.6 0 00.671.421zm-11.785-7.169c-.088-.1-.111-.129-.111-.176 0-.023.041-.047.087-.047.163 0 .881.094 1.015.094 1.429.076 2.188.076 3.436.076.642 0 .642-.345.642-1.545a12.878 12.878 0 00-.158-2.241 5.145 5.145 0 01-.163-.948c0-.222.093-.275.344-.275.3 0 2.194.2 2.194.7 0 .2-.28.445-.484.6-.3.252-.391.3-.391 1.293 0 2.416 0 2.416.712 2.416h1.383a3.677 3.677 0 001.132-.076c.21-.094.828-1.065 1.033-1.065a2.81 2.81 0 011.342 1.439c0 .351-.42.351-1.219.351h-3.875c-.233 0-.461.023-.461.275s.158.345 1.768 1.141c2.637 1.3 3.255 1.6 3.255 2.569 0 .55-.373 1.071-.758 1.071-.3 0-.391-.1-1.569-1.393-.321-.374-1.867-1.9-2.17-2.218-.228-.252-.3-.322-.391-.322s-.158.07-.158.322c0 .345.023.8.023 1.17.023.4.158 2.112.158 2.463a1.006 1.006 0 01-.992 1.077c-.484 0-.712-.275-.712-.8 0-.374.07-1.293.093-1.767 0-.2.023-1.744.023-2.27 0-.123-.023-.269-.14-.269-.093 0-.187.146-.327.351a12.131 12.131 0 01-4.358 3.932.072.072 0 01-.064-.076c0-.053.665-.819.782-.995 1.219-1.6 2.4-3.464 2.4-4.014 0-.222-.257-.222-.35-.222-.327 0-1.383.029-1.844.047-.07 0-.42.053-.484.053-.093 0-.14-.053-.21-.146zm3.92-1.843c0 .673-.414 1.118-.834 1.118-.3 0-.344-.07-.642-.919a10.233 10.233 0 00-1.3-2.241c-.064-.076-.228-.252-.292-.322 0-.053.041-.053.088-.053a3.709 3.709 0 011.313.374 2.4 2.4 0 011.663 2.042m7.31-1.147c0 .3-.28.322-.648.4-.443.076-.624.2-2.164 1.469a6.486 6.486 0 01-.928.6c-.041 0-.041-.023-.041-.047 0-.076.805-1.4.922-1.673a10.747 10.747 0 00.852-2.042c.093-.269.163-.345.251-.345.257 0 .9.55.945.6.187.152.811.673.811 1.047m14.357-2.524c-.858 0-.858.374-.858 1.071 0 .8.093.971.718 1.369 2.281 1.4 2.742 2.065 2.742 3.066 0 .573-.35 1.217-.9 1.217s-.624-.222-1.219-2.089c-.233-.7-.741-1.644-1.085-1.644-.117 0-.163.1-.21.2-.047.176-.047 1.621-.047 2.095 0 1.147.093 6.793.093 8.068 0 .825 0 2.071-1.173 2.071-.578 0-.7-.328-.7-.825 0-.252.216-3.862.233-4.336.023-1.094.093-5.582.093-6.676 0-.053 0-.252-.134-.252-.093 0-.945 1.621-1.132 1.919a17.6 17.6 0 01-3 3.961.076.076 0 01-.07-.076c0-.07.554-1.094.648-1.293.968-2.095 2.859-6.325 2.859-7.425 0-.176-.047-.421-.438-.421-.414 0-1.686.053-2.077.076-.047 0-.251.047-.321.047s-.093-.047-.187-.146l-.461-.573a.332.332 0 01-.093-.176c0-.053.047-.076.093-.076.117 0 .694.076.828.076.257.023 2.147.1 2.725.1.368 0 .624-.076.735-.322a9.692 9.692 0 00.07-2.241c0-1.047 0-1.5-.624-1.5-.064 0-2.094.176-2.485.176-.117 0-.992-.023-.992-.123 0-.029.087-.076.251-.129a40.376 40.376 0 004.889-1.744c.3-.123 1.733-.942 1.867-.942.35 0 1.709 1.141 1.709 1.668 0 .345-.233.421-.438.474-.123.023-2.007.275-2.287.345-.484.152-.484.152-.484 2.516 0 1.621 0 1.82.578 1.82a.693.693 0 00.671-.445c.432-.7.554-.825.735-.825a3.036 3.036 0 011.453 1.591c0 .129-.07.228-.251.275a3.406 3.406 0 01-1.108.076zm12.147 5.231c-.694.246-.694.573-.694 1.644 0 2.34.023 3.236.07 4.809.023.351.146 1.866.146 2.188a1.232 1.232 0 01-1.185 1.366c-.712 0-.828-.474-.828-1.293 0-.468.14-2.492.14-2.914 0-.521.023-1.123.023-3.511 0-.9-.047-1.223-.414-1.223a.606.606 0 00-.3.076l-2.579.971c-.6.222-2.234.819-2.859 1.147a1.184 1.184 0 01-.373.17.358.358 0 01-.2-.07l-.578-.374c-.088-.053-.158-.1-.158-.152s.07-.07.642-.222c.992-.275 2.077-.673 3.436-1.17l2.584-.948c.718-.269.805-.351.805-1.843 0-9.537 0-9.964-.28-10.836a.7.7 0 01-.041-.269c0-.2.088-.275.274-.275.368 0 2.188.649 2.188 1.293 0 .123-.321.4-.368.5a3.406 3.406 0 00-.14.872c0 .9.023 8.32.023 8.642.023.573.023.8.327.8.274 0 .414-.275.508-.573.251-.848.274-.948.554-.948.251 0 1.61.573 1.61.995 0 .3-.368.451-1.079.7zm-4.959-1.993a1.185 1.185 0 01-.968 1.293c-.455 0-.508-.129-1.173-1.445a4.485 4.485 0 00-1.365-1.744c-.064-.076-.438-.275-.438-.351 0-.123.123-.123.187-.123a6.216 6.216 0 012.124.451c.718.322 1.634.919 1.634 1.919m.741-6.553c0 .7-.438 1.018-.788 1.018-.461 0-.665-.3-1.353-1.369a5.674 5.674 0 00-1.6-1.591.49.49 0 01-.158-.152c0-.1.35-.1.484-.1a7.85 7.85 0 011.038.123c.344.053 2.374.48 2.374 2.071" fill="#ca6716"/></svg>