<svg width="80" height="80" viewBox="0 0 80 80" fill="none" xmlns="http://www.w3.org/2000/svg"><path d="M60.684-.001V19.31h19.313V0H60.684zm16.552 5.514V16.55h-13.79V2.759h13.79v2.754zM13.79 13.796H5.515V5.513h8.276v8.282zm19.312-8.283h5.515V2.76h2.76V0H55.17v2.76h-2.754v2.754h2.754v2.761h-2.76V5.52h-2.755V2.76h-5.521v2.753h.006v2.761h5.509v2.761h-5.515v-2.76h-11.03V5.512zm-8.276 5.522h-2.76v-2.76h2.76V5.52h-2.76V0h2.76v5.514h2.754V0h8.276v2.76h-2.76v2.76h-2.755v2.754h-2.76v2.761h.006v2.76h-2.76v-2.76zm49.655 2.76h-8.276V5.514h8.276v8.282zm-55.17 2.755V-.001H0V19.31h19.312v-2.76zm-2.76-11.037V16.55H2.76V2.759h13.79v2.754zM2.76 24.826H0v-2.761h2.76v2.76zm13.79 0v2.76h-2.76v-5.521h8.276V16.55h2.76v5.522h-2.76v2.754h-5.515zm55.17 0h-2.76v-2.761h2.76v2.76zm2.76-2.761h5.516v5.522h-2.761v-2.761h-2.754v-2.761zm-49.654 5.522v2.76h2.754v8.276h2.761v2.754h2.761v-2.754h5.515v-2.76h-2.754v-2.761h8.269v2.76h2.76v2.761h2.761v5.515h2.761v-2.76h2.754V30.34h-2.76v-2.754h5.521v-2.761H52.41v-2.754h5.515V19.31h.006v-5.52h-2.76v-2.755H52.41v2.754h-5.515v2.761h-2.761v2.76h2.76v-2.76h2.761v2.76h2.755v2.755h-2.755v-2.754h-2.76v2.754h-2.761v2.76H41.38v2.762h-2.761v2.754h-2.754v-5.515h5.508V19.31h.007v-5.52h-2.761v5.52h-2.754v-5.513h2.754v-2.76h-2.76v2.753h-2.755v-2.754h-2.76v2.76h2.76v5.515h2.754v5.516h-2.754v13.79h-2.76v-8.275h-2.755v-2.754h2.754v-2.761h2.754V19.31h-2.754v-2.76h-2.76v8.276h-5.515v2.76h2.76zM52.415 16.55h2.754v2.76h-2.754v-2.76zm-8.282 11.037h2.76v-2.761h2.761v2.76h-2.76v2.761h2.76v2.755h2.755v2.76h-2.761v-2.76h-5.509V30.34h-.006v-2.754zm27.588 0h5.515v2.76H71.72v-2.76zM2.76 33.102h2.754v2.76H0v-8.275h2.76v5.515zm8.269-2.755v2.755H5.515V22.065h5.515v8.282zm46.9-.006h2.761v2.76h-2.76v-2.76zm11.03.006v2.755h-5.515v-5.515h-2.76v-5.522h2.76v2.76h5.515v5.522zm8.276-.006h2.76v2.76h-2.76v-2.76zm-2.76 5.521h5.52v5.515h-2.753v2.761h-2.761v-2.76H71.72v-5.516h-2.76v-2.76h5.514v2.76zm-8.277 0v2.755h2.761v5.521h-5.515v-5.515H60.69v2.754h-2.76v-2.76h2.753v-2.755H66.2zm-24.82 2.755v2.76h-2.761v-2.76h2.76zM2.76 41.377h11.03v2.761h2.76v-2.76h5.516v-2.755h2.754v-2.76h-2.755v-2.761h2.755V30.34h-2.755v-2.754h-5.514v2.754H13.79v2.76h-2.76v2.761H8.276v2.755H2.754v2.76H0v2.761h2.76v-2.76zm13.79-11.03h2.755v2.755H16.55v-2.755zm-2.76 5.515h5.515v2.755H13.79v-2.755zm13.79 8.276h-5.514v-2.76h5.514v2.76zm5.522 0v-2.76h5.515v2.76h-5.515zm8.276 0v-2.76h2.76v2.76h-2.76zm-24.827 2.76v2.755h2.754v2.76H13.79V46.9h-2.76v-2.76h8.276v2.76H16.55zM2.76 52.415H0v-2.761h2.754v-5.515H8.27v2.76H5.515v2.755H2.761v2.76zm22.066 0v-2.761h-2.76v-5.515h2.76v2.754h2.754v2.761h.007v2.76h-2.76zm8.276 0v-2.761h2.754V46.9h-2.754v2.754h-2.76v-5.515h5.514v2.754h2.761v2.761h-2.754v2.76h-2.761zm-27.588 0v-2.761h5.515v2.76H8.276v2.762H5.515v2.754h-2.76v-2.761h2.76v-2.754zm13.797 8.276H0v19.312h19.312V60.69zm-2.76 5.514v11.037H2.76v-13.79h13.79v2.753zm11.03-2.754v-2.76h2.76V57.93h-2.76v-2.761H13.79v2.76h8.276v8.276h2.76V63.45h2.754zm-2.755-5.521h2.754v2.76h-2.754v-2.76zm19.306 2.76h2.76v2.755h2.755v2.76h-5.515V60.69zm19.312 2.761h-2.76v-2.76h2.76v2.76zm13.798 0v-2.76h2.754V57.93h-5.522v-2.754h.007v-5.522h2.754V46.9h.007v-2.76h-2.761v2.753H71.72v-2.754h-5.515v2.754h-2.76v2.761H57.93V46.9h2.754v-2.76H52.41v2.76h2.76v5.515h-5.514v-5.522h-2.761v5.522H41.38v5.515h-2.761v-2.761h-2.76v5.522h-5.516v5.514h2.761v5.522h5.515v2.754h-5.515v2.761h2.754v2.76h13.79v-2.76h-2.753v-5.515h2.754v-2.76h-5.515v2.754H41.38v-2.755h2.754v-2.76h-5.515v2.76h-2.754v-2.76h-.007V63.45h2.761v-2.76h5.515v-2.761h.006v-2.754h8.27v2.754h-5.515v2.76h2.76v2.761h5.515v5.515h-2.76v2.761h8.275v-2.76h5.522v2.754h-2.76v2.76h-2.762v2.761H66.2v-2.76h.007v-2.755h5.515v-2.76h-2.76v-2.761h2.76V60.69h2.76v5.514h-2.76v2.761h2.76v2.754h-2.76v2.761h2.76v-2.754h2.755v2.754h-2.754v5.522h2.76V74.48h2.755v-2.76h-2.754v-2.755h2.754v-2.76h-2.754V63.45zM41.379 74.48h2.754v2.761h-2.754v-2.76zm24.827-13.79v5.514H57.93V57.93h8.276v2.76zm5.515-8.276v2.754H60.69v-2.754h5.515v-5.515h2.754v2.754h2.76v2.76zM13.79 74.48H5.515v-8.276h8.276v8.276zm16.551 2.761h2.761v2.76H22.066v-2.76h2.761v-2.76h2.754v-2.755h-2.754v2.754h-2.76v-5.515h2.76v-2.76h2.761v2.76h2.754v2.754h2.754v2.761h-2.754v2.761zm24.827-2.76h2.761v2.76h-.006v2.76h-5.515v-2.76h2.76v-2.76zm13.791 0h2.76V80h-2.76v-5.52z" fill="#403B35"/></svg>