<svg width="217" height="89" viewBox="0 0 217 89" fill="none" xmlns="http://www.w3.org/2000/svg">
<path d="M20.2278 73.5876C20.4962 74.7355 20.4612 75.9302 20.1227 77.0664C19.8777 77.6638 20.4028 77.2655 20.4028 77.2655C23.6588 73.7984 19.5626 69.7222 19.3759 69.6987C19.3759 70.9286 19.1308 72.1468 18.6757 73.283C17.7304 75.3914 19.0608 77.7692 19.4809 77.3124C20.3561 76.3519 20.2394 73.5876 20.2394 73.5876M16.5751 64.7792C16.3533 65.9154 15.9215 66.993 15.303 67.9652C14.066 69.7456 14.9646 72.1937 15.4197 71.8423C16.3883 71.1161 16.6918 68.5274 16.6918 68.5274C16.7384 69.6402 16.505 70.7412 15.9916 71.7134C15.6648 72.2288 16.2133 71.9477 16.2133 71.9477C19.8193 69.3356 16.7384 64.826 16.5751 64.7675M12.969 66.7704C16.5517 64.2872 13.6342 59.801 13.4708 59.7424C13.2258 60.8552 12.7823 61.8977 12.1638 62.8465C10.9151 64.5566 11.7554 66.8993 12.2105 66.5713C13.1791 65.8802 13.5175 63.4204 13.5175 63.4204C13.5409 64.5098 13.2841 65.5757 12.7706 66.5362C12.4322 67.0281 12.9807 66.7704 12.9807 66.7704M10.2733 60.1056C14.171 58.4774 12.2572 53.6281 12.1171 53.5227C11.6737 54.53 11.0435 55.432 10.2733 56.205C8.75616 57.5755 9.05958 60.0118 9.54972 59.7893C10.6 59.3325 11.4403 57.0367 11.4403 57.0367C11.2535 58.0674 10.7984 59.0396 10.1216 59.8362C9.70143 60.2344 10.2733 60.1056 10.2733 60.1056ZM8.45274 54.0029C8.00928 54.3778 8.59278 54.284 8.59278 54.284C12.5723 52.8784 10.9268 47.9237 10.7867 47.8183C10.2966 48.7905 9.61974 49.669 8.80284 50.3952C7.21572 51.6837 7.3791 54.1201 7.89258 53.9326C8.96622 53.5344 9.92316 51.2854 9.92316 51.2854C9.68976 52.3045 9.17628 53.2533 8.45274 54.0146M6.87729 48.322C6.42216 48.6499 6.99399 48.5914 6.99399 48.5914C10.9385 47.5255 9.70143 42.6176 9.57306 42.5005C9.02457 43.4024 8.3127 44.1989 7.47246 44.8314C5.83866 45.9559 5.83866 48.3337 6.34047 48.1931C7.40244 47.8886 8.48775 45.7802 8.48775 45.7802C8.18433 46.7524 7.62417 47.6192 6.87729 48.3103M5.94369 41.2354C5.45355 41.4814 6.01371 41.5165 6.01371 41.5165C9.99318 41.1417 9.57306 36.1753 9.46803 36.0464C8.79117 36.8312 7.97427 37.4872 7.06401 37.9674C5.31351 38.7873 4.9284 41.0832 5.44188 41.0246C6.52719 40.9075 7.90425 39.045 7.90425 39.045C7.46079 39.9353 6.78393 40.6849 5.94369 41.2237M6.17709 35.4373C5.68695 35.6716 6.24711 35.7185 6.24711 35.7185C10.1799 35.3788 9.80646 30.4826 9.70143 30.3538C9.02457 31.1268 8.21934 31.7594 7.30908 32.2279C5.57025 33.0244 5.17347 35.2851 5.68695 35.2382C6.76059 35.1328 8.13765 33.3055 8.13765 33.3055C7.69419 34.184 7.01733 34.922 6.18876 35.4373M5.61693 29.487C6.6789 29.5104 8.21934 27.9057 8.21934 27.9057C7.68252 28.7022 6.94731 29.3347 6.08373 29.7447C5.58192 29.9204 6.10707 30.0258 6.10707 30.0258C9.98151 30.1664 10.1682 25.3522 10.0865 25.2116C9.35133 25.8793 8.48775 26.4064 7.54248 26.7461C5.75697 27.3083 5.11512 29.4753 5.61693 29.4753M7.42578 22.8338C6.90063 22.9158 7.40244 23.115 7.40244 23.115C11.1835 23.9583 12.2105 19.2496 12.1521 19.0973C11.3119 19.6244 10.3666 19.9758 9.38634 20.1398C7.53081 20.374 6.52719 22.377 7.01733 22.4824C8.05596 22.705 9.85314 21.3931 9.85314 21.3931C9.18795 22.0842 8.34771 22.5761 7.42578 22.8221M9.57306 16.7312C10.46 16.9186 12.0004 15.8059 12.0004 15.8059C11.4286 16.3915 10.7167 16.8132 9.92316 17.024C9.4797 17.0943 9.89982 17.27 9.89982 17.27C13.1324 17.9962 14.0077 13.9669 13.961 13.838C13.2374 14.2948 12.4322 14.5994 11.592 14.7399C10.0049 14.9391 9.15294 16.6609 9.56139 16.7429M12.0938 12.1396C11.6153 12.1982 12.0704 12.3973 12.0704 12.3973C15.5014 13.3109 16.5867 9.04728 16.5401 8.90672C15.7465 9.35182 14.8829 9.64465 13.9843 9.76179C12.2805 9.91406 11.3002 11.7062 11.7437 11.8116C12.689 12.0459 14.3694 10.9214 14.3694 10.9214C13.7393 11.5305 12.9574 11.9405 12.1055 12.1396M18.629 3.55374C18.524 3.46003 14.5095 3.13206 14.2294 6.52891C14.2294 6.52891 14.2644 7.00916 14.4628 6.58748C14.8829 5.88468 15.4898 5.29902 16.2133 4.91248C16.2133 4.91248 14.7195 6.09552 14.6262 7.02087C14.5795 7.45427 16.435 7.11458 17.1002 5.61528C17.4737 4.8422 17.9988 4.1394 18.629 3.56545M14.0777 74.3138C12.9107 74.6183 11.7087 74.6886 10.5183 74.5246C10.5183 74.7238 13.8793 79.4442 17.672 76.6213C17.672 76.6213 18.1388 76.1528 17.5203 76.3168C16.3883 76.5042 15.2213 76.3753 14.1477 75.9419C14.1477 75.9419 16.7968 76.4456 17.8471 75.696C18.3372 75.3329 16.2366 73.6578 14.0777 74.3138ZM13.6926 70.9989C13.6926 70.9989 14.136 70.5655 13.5525 70.7061C12.4789 70.8584 11.3819 70.7178 10.39 70.2961C10.39 70.2961 12.864 70.8935 13.856 70.2024C14.3228 69.8862 12.3855 68.1877 10.3433 68.7734C9.2463 69.0311 8.10264 69.0779 6.99399 68.914C6.99399 69.1014 10.0749 73.5993 13.6926 71.0106M10.3316 65.2945C10.3316 65.2945 10.8334 64.9432 10.2383 64.99C9.17628 64.9666 8.13765 64.6386 7.25073 64.0647C7.25073 64.0647 9.4797 65.0251 10.5533 64.5215C11.0552 64.2872 9.52638 62.3545 7.44912 62.5771C6.34047 62.6473 5.23182 62.5068 4.18152 62.1437C4.15818 62.3194 6.41049 67.1804 10.3316 65.2945ZM7.76421 58.6765C7.76421 58.6765 8.28936 58.4071 7.71753 58.372C6.70224 58.1963 5.7453 57.7395 4.96341 57.0718C4.96341 57.0718 7.029 58.3017 8.12598 57.962C8.63946 57.8098 7.36743 55.7365 5.34852 55.6662C4.27488 55.5842 3.22458 55.2914 2.26764 54.7994C2.22096 54.9634 3.7614 59.965 7.76421 58.6765ZM5.87367 52.5505C5.87367 52.5505 6.41049 52.3279 5.85033 52.2459C4.84671 51.9882 3.93645 51.4611 3.20124 50.7232C3.20124 50.7232 5.1618 52.1171 6.28212 51.8828C6.80727 51.7657 5.71029 49.5987 3.69138 49.3645C2.62941 49.1888 1.60245 48.8139 0.680521 48.2517C0.6105 48.4157 1.75416 53.511 5.862 52.5739M4.82337 46.1784C4.82337 46.1784 5.36019 45.991 4.82337 45.8856C3.86643 45.5928 2.99118 45.0423 2.32599 44.2926C2.32599 44.2926 4.18152 45.7216 5.2785 45.5342C5.79198 45.4405 4.8117 43.297 2.87448 42.9807C1.84752 42.7699 0.867241 42.3599 0.00366036 41.7742C-0.0663597 41.9265 0.8439 46.9164 4.85838 46.1667M4.32156 39.5839C4.32156 39.5839 4.87005 39.455 4.3449 39.291C3.43464 38.9045 2.64108 38.2837 2.05758 37.4755C2.05758 37.4755 3.71472 39.0685 4.8117 38.9982C5.32518 38.963 4.5783 36.7609 2.7111 36.2573C1.73082 35.941 0.820561 35.4373 0.0270009 34.7814C-0.0546891 34.922 0.342089 39.8884 4.32156 39.5721M4.28655 33.4578C4.28655 33.4578 4.83504 33.4929 4.39158 33.1884C3.63303 32.5559 3.0612 31.7359 2.73444 30.8106C2.73444 30.8106 3.86643 32.8019 4.91673 33.0595C5.40687 33.1767 5.30184 30.8809 3.67971 29.8618C2.83947 29.2761 2.11593 28.5382 1.5441 27.6949C1.4274 27.8003 0.435451 32.6262 4.28655 33.4812M4.95174 26.8398C4.95174 26.8398 5.47689 26.9335 5.08011 26.5821C4.41492 25.8793 3.94812 25.0008 3.73806 24.052C3.73806 24.052 4.61331 26.1253 5.60526 26.5001C6.07206 26.6758 6.23544 24.4268 4.77669 23.2321C4.02981 22.5644 3.4113 21.7562 2.95617 20.8543C2.8278 20.948 1.29903 25.5162 4.96341 26.8281M6.45717 20.866C6.45717 20.866 6.97065 21.0534 6.62055 20.6434C6.08373 19.8352 5.76864 18.8982 5.71029 17.926C5.71029 17.926 6.23544 20.1281 7.15737 20.6552C7.58916 20.9129 8.11431 18.7225 6.86562 17.2934C6.23544 16.5086 5.75697 15.6067 5.45355 14.6462C5.31351 14.7165 3.07287 18.9567 6.45717 20.866ZM8.8962 15.0093C8.8962 15.0093 9.33966 15.1616 9.03624 14.8102C8.55777 14.1308 8.26602 13.3343 8.18433 12.5144C8.18433 12.5144 8.68614 14.3768 9.49137 14.8102C9.86481 15.0211 10.2616 13.1235 9.16461 11.9405C8.60445 11.2845 8.17266 10.5349 7.89258 9.71493C7.77588 9.78521 5.95536 13.4632 8.90787 15.0093M11.627 9.70322C11.627 9.70322 12.0588 9.9492 11.8137 9.52752C11.4519 8.7193 11.3119 7.81738 11.4053 6.93888C11.4053 6.93888 11.5336 9.00042 12.2805 9.63294C12.6306 9.92577 13.4475 8.03993 12.5372 6.55234C12.0938 5.74412 11.802 4.85391 11.6737 3.94028C11.5336 3.97542 8.86119 7.43084 11.627 9.70322ZM27.1948 83.2979C24.2656 81.8103 21.6515 79.7722 19.4809 77.3124C21.4064 82.0563 28 85.5 28 85.5L27.1948 83.2979Z" fill="white"/>
<path d="M137.32 9.31003H136.46C136.5 9.04003 136.52 8.80003 136.52 8.26003V2.05003C136.52 1.52003 136.5 1.28003 136.46 1.03003H137.32C137.28 1.29003 137.27 1.50003 137.27 2.07003V3.94003C138.81 4.49003 139.97 5.04003 141.72 6.05003L141.29 6.79003C140.35 6.13003 138.97 5.39003 137.56 4.81003C137.41 4.75003 137.34 4.71003 137.25 4.64003L137.23 4.65003C137.26 4.85003 137.27 4.99003 137.27 5.24003V8.25003C137.27 8.81003 137.28 9.03003 137.32 9.31003Z" fill="white"/>
<path d="M127.75 0.849976L128.57 1.05998C128.48 1.18998 128.48 1.18998 128.35 1.46998C128.09 2.00998 128 2.17998 127.89 2.35998C128.02 2.32998 128.02 2.32998 130.91 2.27998C131.26 2.27998 131.29 2.26998 131.43 2.20998L131.86 2.62998C131.77 2.74998 131.77 2.75998 131.66 3.11998C131.24 4.52998 130.51 5.88998 129.66 6.87998C128.74 7.92998 127.64 8.71998 126.18 9.37998C126.02 9.08998 125.94 8.98998 125.68 8.78998C127.19 8.16998 128.25 7.40998 129.21 6.25998C129.98 5.32998 130.58 4.15998 130.93 2.90998L127.56 2.96998C126.95 3.94998 126.15 4.82998 125.17 5.56998C125 5.31998 124.9 5.22998 124.61 5.04998C125.67 4.35998 126.43 3.52998 127.12 2.30998C127.5 1.64998 127.7 1.19998 127.75 0.849976Z" fill="white"/>
<path d="M115.78 1.31995H116.63C116.6 1.52995 116.58 1.78995 116.58 2.20995L116.55 8.23995C117.7 8.04995 118.61 7.73995 119.41 7.23995C120.41 6.61995 121.08 5.89995 121.66 4.83995C121.91 5.18995 121.97 5.26995 122.21 5.46995C120.84 7.50995 119.37 8.43995 116.7 8.95995C116.31 9.03995 116.26 9.04995 116.12 9.10995L115.72 8.60995C115.77 8.43995 115.79 8.32995 115.79 7.95995L115.81 2.22995V1.85995C115.81 1.65995 115.8 1.53995 115.78 1.31995Z" fill="white"/>
<path d="M110.99 8.28002H106.21C105.4 8.29002 105.4 8.29002 105.14 8.32002V7.53002C105.47 7.59002 105.61 7.60002 106.23 7.60002H110.99V2.77002H106.44C105.84 2.77002 105.63 2.78002 105.29 2.82002V2.02002C105.64 2.08002 105.79 2.09002 106.44 2.09002H111.24C111.37 2.09002 111.51 2.08002 111.76 2.07002C111.74 2.32002 111.74 2.49002 111.74 2.85002V7.97002C111.74 8.34002 111.76 8.70002 111.79 8.88002H110.99V8.28002Z" fill="white"/>
<path d="M102.22 1.62L102.62 2.09999C102.52 2.23 102.5 2.26 102.38 2.49999C101.69 3.84 100.76 4.75 99.4596 5.35C99.3096 5.1 99.2296 5.01 98.9696 4.78C99.6696 4.51 100.08 4.27 100.55 3.83C101.01 3.4 101.38 2.91 101.67 2.34H95.9896C95.4396 2.34 95.1796 2.35 94.8096 2.39V1.62C95.1496 1.67 95.4296 1.69 95.9996 1.69H101.37C102.04 1.69 102.04 1.69 102.22 1.62ZM97.8596 3.36H98.6696C98.6396 3.54 98.6396 3.54 98.6296 4.06C98.5996 5.73 98.3196 6.72 97.6396 7.58C97.0296 8.35 96.2896 8.85 95.0796 9.31C94.9296 8.99 94.8596 8.89 94.6196 8.64C95.4296 8.4 95.9296 8.15 96.4496 7.72C97.5096 6.87 97.8996 5.85 97.8996 3.9C97.8996 3.62 97.8896 3.55 97.8596 3.36Z" fill="white"/>
<path d="M85.8501 1.28003H86.6801C86.6501 1.52003 86.6401 1.65003 86.6401 2.11003V4.80003C86.6401 5.28003 86.6501 5.39003 86.6801 5.63003H85.8501C85.8801 5.40003 85.8901 5.19003 85.8901 4.79003V2.12003C85.8901 1.69003 85.8801 1.52003 85.8501 1.28003ZM90.2701 1.28003H91.1101C91.0701 1.51003 91.0601 1.67003 91.0601 2.15003V3.33003C91.0601 4.92003 90.9901 5.80003 90.8101 6.38003C90.5201 7.32003 89.8901 8.05003 88.9101 8.60003C88.4201 8.88003 87.9401 9.07003 87.0901 9.32003C86.9801 9.03003 86.9201 8.93003 86.6701 8.63003C87.5701 8.43003 88.0501 8.26003 88.5701 7.95003C89.5001 7.41003 89.9801 6.77003 90.1701 5.84003C90.2801 5.27003 90.3101 4.81003 90.3101 3.29003V2.16003C90.3101 1.64003 90.3001 1.50003 90.2701 1.28003Z" fill="white"/>
<path d="M77.7499 0.849976L78.5699 1.05998C78.4799 1.18998 78.4799 1.18998 78.3499 1.46998C78.0899 2.00998 77.9999 2.17998 77.8899 2.35998C78.0199 2.32998 78.0199 2.32998 80.9099 2.27998C81.2599 2.27998 81.2899 2.26998 81.4299 2.20998L81.8599 2.62998C81.7699 2.74998 81.7699 2.75998 81.6599 3.11998C81.2399 4.52998 80.5099 5.88998 79.6599 6.87998C78.7399 7.92998 77.6399 8.71998 76.1799 9.37998C76.0199 9.08998 75.9399 8.98998 75.6799 8.78998C77.1899 8.16998 78.2499 7.40998 79.2099 6.25998C79.9799 5.32998 80.5799 4.15998 80.9299 2.90998L77.5599 2.96998C76.9499 3.94998 76.1499 4.82998 75.1699 5.56998C74.9999 5.31998 74.8999 5.22998 74.6099 5.04998C75.6699 4.35998 76.4299 3.52998 77.1199 2.30998C77.4999 1.64998 77.6999 1.19998 77.7499 0.849976Z" fill="white"/>
<path d="M173.213 27.83V16.562H168.497C167.651 16.562 166.967 16.598 166.211 16.67V14.636C166.895 14.708 167.597 14.744 168.479 14.744H178.901C179.747 14.744 180.449 14.708 181.187 14.636V16.67C180.467 16.598 179.693 16.562 178.901 16.562H175.283V20.954H178.361C179.225 20.954 179.801 20.918 180.377 20.846V22.844C179.819 22.772 179.153 22.736 178.361 22.736H175.283V27.83H179.405C180.305 27.83 181.061 27.794 181.781 27.704V29.792C181.079 29.702 180.377 29.666 179.423 29.666H167.921C167.021 29.666 166.319 29.702 165.545 29.792V27.704C166.211 27.812 166.697 27.83 167.885 27.83H168.263V22.016C168.263 21.08 168.227 20.342 168.137 19.676H170.423C170.333 20.306 170.297 21.062 170.297 21.998V27.83H173.213Z" fill="white"/>
<path d="M148.931 17.8761H148.589C148.265 18.8121 148.031 19.2981 147.473 20.1801C147.113 19.6581 146.627 19.1541 146.141 18.7581C146.897 17.6241 147.329 16.4721 147.635 14.8521C147.671 14.6721 147.707 14.3121 147.761 13.8081L149.651 14.1501C149.561 14.3841 149.543 14.4561 149.381 15.1221C149.309 15.3921 149.255 15.5901 149.111 16.1481H150.497C151.199 16.1481 151.505 16.1301 151.865 16.0761V17.9121C151.505 17.8941 151.307 17.8761 150.713 17.8761C150.677 19.8381 150.677 19.8381 150.623 20.8281H150.983C151.433 20.8281 151.811 20.8101 152.081 20.7741C151.919 20.5221 151.829 20.4321 151.541 20.1441C152.909 19.5141 153.521 19.0821 154.331 18.2361H153.773C152.981 18.2361 152.639 18.2541 152.189 18.3081V16.6701C152.711 16.7061 152.999 16.7241 153.737 16.7241H155.447C155.627 16.4001 155.717 16.2381 155.861 15.9141C154.997 15.9681 154.367 15.9861 152.765 16.0041C152.441 15.1761 152.405 15.0861 152.099 14.5281C152.747 14.5461 153.233 14.5641 153.485 14.5641C156.473 14.5641 159.641 14.1861 160.739 13.7001L161.837 15.2301C161.657 15.2661 161.639 15.2661 161.387 15.3021C160.415 15.4821 158.975 15.6801 157.823 15.7881C157.643 16.1661 157.571 16.2921 157.355 16.7241H160.559C161.423 16.7241 162.089 16.6881 162.539 16.6341V18.3261C161.981 18.2541 161.405 18.2361 160.613 18.2361H159.605C160.343 18.9921 161.441 19.5681 163.043 20.0541C162.647 20.6301 162.557 20.8461 162.233 21.7461C161.333 21.3681 160.829 21.0981 160.145 20.6481V21.2781C160.145 21.8361 160.145 22.0701 160.181 22.3941C159.839 22.3761 159.515 22.3581 158.939 22.3581H155.249C154.691 22.3581 154.349 22.3761 154.007 22.3941C154.043 22.0341 154.061 21.8001 154.061 21.2781V20.6301C153.521 21.0621 153.305 21.2241 152.603 21.6561C152.459 21.3321 152.405 21.2241 152.189 20.9181V22.6461C151.883 22.5921 151.469 22.5741 150.947 22.5741H150.461C150.425 22.8801 150.407 23.0061 150.335 23.4741C150.803 24.3201 151.577 25.3101 152.297 25.9581V24.4281C152.297 23.8341 152.261 23.3481 152.207 22.8981C152.621 22.9521 153.179 22.9881 153.989 22.9881H160.469C161.315 22.9881 161.855 22.9701 162.287 22.8981C162.233 23.4021 162.215 24.0861 162.215 24.7341V28.5141C162.215 29.5761 162.071 29.9181 161.549 30.1341C161.189 30.3141 160.631 30.3681 159.461 30.3681C159.281 30.3681 159.011 30.3681 158.651 30.3501C158.615 29.7201 158.543 29.4141 158.363 28.8021H156.509V29.5041H154.943C154.979 29.2521 154.997 28.7301 154.997 28.3161V26.2641C154.997 25.7241 154.979 25.4361 154.961 25.1121C155.195 25.1661 155.375 25.1661 155.987 25.1661H158.507C159.083 25.1661 159.263 25.1661 159.497 25.1121C159.461 25.4181 159.461 25.5261 159.461 26.2101V27.7941C159.461 28.2441 159.461 28.3881 159.461 28.6041H159.839C159.857 28.6041 159.911 28.6041 159.929 28.6041C160.325 28.6041 160.397 28.5321 160.397 28.1181V24.5001H154.097V28.5141C154.097 29.7021 154.097 30.0261 154.169 30.5121H152.189C152.261 29.9721 152.297 29.3241 152.297 28.2441V26.2641C151.973 26.6961 151.775 27.0561 151.451 27.8301C150.749 27.0921 150.389 26.5881 149.831 25.6341C149.309 27.2901 148.643 28.4061 147.347 29.8101C147.077 29.1621 146.717 28.6581 146.069 28.0281C147.635 26.6061 148.265 25.3101 148.661 22.5741H147.869C147.347 22.5741 146.915 22.6101 146.465 22.6641V20.7381C146.915 20.8101 147.347 20.8281 147.995 20.8281H148.841C148.895 20.0001 148.913 19.2981 148.931 17.8761ZM157.535 18.2361H156.419C156.149 18.6141 156.023 18.7581 155.753 19.0641H158.255C157.967 18.7581 157.823 18.5961 157.535 18.2361ZM156.491 26.4081V27.4521H158.003V26.4081H156.491ZM155.771 20.2881V21.0981H158.417V20.2881H155.771Z" fill="white"/>
<path d="M143.297 27.722L141.569 29.594C140.075 27.758 138.005 25.742 136.043 24.248C134.009 26.516 131.939 28.1 129.185 29.45C128.681 28.514 128.465 28.226 127.727 27.452C129.113 26.912 129.977 26.426 131.327 25.472C134.045 23.564 136.205 20.954 137.375 18.146L137.573 17.678C137.285 17.696 137.285 17.696 131.615 17.786C130.751 17.804 130.265 17.84 129.653 17.93L129.581 15.626C130.085 15.716 130.427 15.734 131.165 15.734C131.237 15.734 131.381 15.734 131.597 15.734L137.933 15.644C138.941 15.626 139.085 15.608 139.535 15.446L140.723 16.67C140.489 16.94 140.345 17.192 140.147 17.642C139.319 19.568 138.437 21.134 137.339 22.61C138.473 23.366 139.445 24.122 140.669 25.22C141.119 25.616 141.119 25.616 143.297 27.722Z" fill="white"/>
<path d="M110.494 23.3481V20.8461C111.286 20.9541 111.628 20.9721 113.41 20.9721H123.004C124.786 20.9721 125.128 20.9541 125.92 20.8461V23.3481C125.2 23.2581 125.002 23.2581 122.986 23.2581H113.428C111.412 23.2581 111.214 23.2581 110.494 23.3481Z" fill="white"/>
<path d="M96.8694 16.778V20.414C99.5874 19.91 103.565 18.308 104.735 17.21L106.175 19.244C105.977 19.316 105.941 19.334 105.797 19.406L105.329 19.64C102.665 21.008 99.8754 21.944 96.8694 22.502V24.878C96.8514 24.986 96.8514 25.094 96.8514 25.166C96.8514 26.174 96.9234 26.57 97.1754 26.822C97.4814 27.128 98.5074 27.29 100.253 27.29C101.459 27.29 103.115 27.182 104.429 27.002C105.293 26.894 105.689 26.804 106.481 26.57L106.589 28.964C106.211 28.964 106.121 28.982 104.213 29.162C103.151 29.27 100.883 29.378 99.7854 29.378C97.5174 29.378 96.2754 29.144 95.5734 28.604C95.0694 28.226 94.7994 27.65 94.6914 26.768C94.6554 26.462 94.6374 26.156 94.6374 25.112L94.6194 16.76C94.6194 15.842 94.6194 15.554 94.5474 15.104H96.9594C96.8874 15.536 96.8694 15.86 96.8694 16.778ZM107.237 13.592C108.389 13.592 109.325 14.528 109.325 15.662C109.325 16.814 108.389 17.75 107.237 17.75C106.103 17.75 105.167 16.814 105.167 15.662C105.167 14.528 106.103 13.592 107.237 13.592ZM107.237 14.492C106.589 14.492 106.067 15.014 106.067 15.662C106.067 16.31 106.589 16.85 107.237 16.85C107.903 16.85 108.425 16.31 108.425 15.662C108.425 15.014 107.903 14.492 107.237 14.492Z" fill="white"/>
<path d="M89.2912 27.722L87.5632 29.594C86.0692 27.758 83.9992 25.742 82.0372 24.248C80.0032 26.516 77.9332 28.1 75.1792 29.45C74.6752 28.514 74.4592 28.226 73.7212 27.452C75.1072 26.912 75.9712 26.426 77.3212 25.472C80.0392 23.564 82.1992 20.954 83.3692 18.146L83.5672 17.678C83.2792 17.696 83.2792 17.696 77.6092 17.786C76.7452 17.804 76.2592 17.84 75.6472 17.93L75.5752 15.626C76.0792 15.716 76.4212 15.734 77.1592 15.734C77.2312 15.734 77.3752 15.734 77.5912 15.734L83.9272 15.644C84.9352 15.626 85.0792 15.608 85.5292 15.446L86.7172 16.67C86.4832 16.94 86.3392 17.192 86.1412 17.642C85.3132 19.568 84.4312 21.134 83.3332 22.61C84.4672 23.366 85.4392 24.122 86.6632 25.22C87.1132 25.616 87.1132 25.616 89.2912 27.722Z" fill="white"/>
<path d="M68.5191 16.976L69.5631 18.038C69.4011 18.38 69.3831 18.488 69.2931 19.028C68.9871 21.098 68.7171 22.106 68.1591 23.384C67.2771 25.454 65.8371 27.056 63.7131 28.352C62.6331 29.018 61.6971 29.432 60.1311 29.972C59.7171 29.054 59.5011 28.73 58.6911 27.83C60.4011 27.416 61.3911 27.038 62.5251 26.336C65.1351 24.716 66.5031 22.43 66.8451 19.118H58.0611V21.44C58.0611 21.998 58.0791 22.484 58.1151 22.88H55.7031C55.7571 22.43 55.7931 21.872 55.7931 21.368V18.758C55.7931 18.002 55.7751 17.534 55.7211 17.048C56.3511 17.12 56.6751 17.138 57.6651 17.138H61.1931V15.59C61.1931 15.014 61.1751 14.69 61.1031 14.276H63.6051C63.5511 14.582 63.5151 15.068 63.5151 15.572V17.12H66.7551C68.0871 17.12 68.0871 17.12 68.5191 16.976Z" fill="white"/>
<path d="M37.9192 21.6381L39.6832 20.3601C40.6372 21.1521 41.1772 21.6381 41.9152 22.3581C42.9052 23.3661 42.9052 23.3661 43.0312 23.4741C43.9672 22.6821 44.7232 21.9621 45.3892 21.2061C46.1632 20.3421 47.1532 18.9921 47.5852 18.2721C47.6392 18.1821 47.6392 18.1821 47.6932 18.1101C47.7112 18.0561 47.7112 18.0561 47.7292 18.0201C47.5492 18.0381 47.2792 18.0561 46.9012 18.0561H40.3492C39.7012 18.0561 39.1792 18.0561 38.3152 18.0561C36.8572 18.0741 36.6772 18.0741 36.0112 18.1461V15.8601C36.7132 15.9681 37.1272 15.9861 38.3512 15.9861L48.3592 15.9681C49.1332 15.9681 49.4032 15.9501 49.8532 15.8241L51.1132 17.2461C50.8432 17.5341 50.7352 17.6601 50.3212 18.3081C48.6112 21.0621 46.7212 23.2761 44.5072 25.1301C45.2632 25.9941 45.9472 26.8581 46.8832 28.1361L44.9932 29.6481C43.9852 28.0281 43.0312 26.7861 41.5192 25.1121C40.1332 23.5821 39.2332 22.7001 37.9192 21.6381Z" fill="white"/>
<path d="M82.3 45.72V49.62H83.52C84.02 49 84.18 48.8 84.72 48.2C85.48 48.82 85.72 49.02 86.42 49.72C86.52 49.8 86.54 49.86 86.54 49.9C86.54 50 86.46 50.04 86.3 50.04H82.3V54.98H84C84.46 54.38 84.58 54.22 85.02 53.76C84.92 53.76 84.84 53.78 84.78 53.78C84.56 53.78 84.48 53.66 84.26 53.06C83.88 51.96 83.6 51.44 82.96 50.7L83.08 50.58C85.26 51.22 86.04 51.72 86.04 52.42C86.04 52.88 85.84 53.22 85.36 53.58C86.14 54.22 86.3 54.36 87.02 55.06C87.1 55.14 87.14 55.22 87.14 55.28C87.14 55.36 87.04 55.4 86.92 55.4H77.26C76.78 55.4 76.42 55.42 76.04 55.5L75.92 54.84C76.4 54.94 76.82 54.98 77.26 54.98H80.12V50.04H77.94C77.56 50.04 77.22 50.06 76.76 50.14L76.66 49.48C77.2 49.6 77.48 49.62 77.96 49.62H80.12V45.72H77.6C77.2 45.72 76.78 45.76 76.34 45.82L76.22 45.14C76.76 45.26 77.16 45.3 77.62 45.3H83.56C84.1 44.64 84.28 44.44 84.86 43.8C85.74 44.48 86 44.68 86.8 45.4C86.88 45.48 86.92 45.54 86.92 45.58C86.92 45.66 86.82 45.72 86.7 45.72H82.3ZM75.34 58.14V58.9C75.32 59.14 75.26 59.26 75.06 59.34C74.88 59.4 74.3 59.46 73.78 59.46C73.12 59.46 72.98 59.36 72.98 58.92C73.14 54.9 73.16 52.7 73.16 45.54C73.16 43.74 73.14 42.7 73.04 41.14C74.2 41.64 74.54 41.82 75.64 42.42H87.42C87.9 41.88 88.06 41.72 88.58 41.2C89.34 41.7 89.56 41.88 90.3 42.42C90.48 42.56 90.56 42.66 90.56 42.8C90.56 43 90.4 43.16 89.8 43.5V49.22C89.8 53.32 89.86 56.9 89.96 58.76C89.96 59.04 89.9 59.18 89.68 59.28C89.5 59.36 88.88 59.44 88.34 59.44C87.8 59.44 87.66 59.36 87.62 59.02V58.14H75.34ZM75.34 42.84V57.72H87.62V42.84H75.34Z" fill="white"/>
<path d="M58.3999 49.42V53.4H60.5599C61.1999 52.62 61.3999 52.38 62.0599 51.66C62.9999 52.4 63.2999 52.66 64.2599 53.46C64.3399 53.56 64.3799 53.62 64.3799 53.68C64.3799 53.76 64.2799 53.82 64.1199 53.82H58.3999V58.38H62.3199C63.0399 57.58 63.2599 57.32 63.9599 56.54C64.9999 57.34 65.3199 57.62 66.3599 58.5C66.4399 58.58 66.4799 58.64 66.4799 58.68C66.4799 58.76 66.3999 58.8 66.2799 58.8H50.3199C49.7799 58.8 49.4599 58.82 48.9599 58.92L48.7799 58.2C49.3399 58.32 49.8599 58.38 50.3599 58.38H56.1399V53.82H52.6399C52.0599 53.82 51.8199 53.84 51.3599 53.92L51.1999 53.22C51.6999 53.32 52.2599 53.4 52.6599 53.4H56.1399V49.42H52.9399C52.4999 49.42 52.2799 49.44 51.8599 49.52L51.6999 48.88C52.1599 48.96 52.4999 49 52.9799 49H59.2999C59.8799 48.32 60.0599 48.12 60.6399 47.48C61.5599 48.14 61.8599 48.36 62.7799 49.08C62.8799 49.18 62.9199 49.24 62.9199 49.28C62.9199 49.36 62.8199 49.42 62.6399 49.42H58.3999ZM48.0199 50.74L47.8999 50.52C50.0199 49 51.9599 47.14 53.2599 45.42C54.0199 44.42 54.7999 43.18 55.2599 42.24C55.4799 41.8 55.5599 41.62 55.6999 41.08C58.8399 41.72 59.0799 41.8 59.0799 42.02C59.0799 42.18 58.8799 42.28 58.1799 42.44C59.3999 44.1 60.4599 45.02 62.1599 45.94C63.7799 46.82 65.2799 47.3 67.2399 47.6L67.2199 47.82C66.7599 48.02 66.6199 48.12 66.3599 48.48C66.0399 48.9 65.8799 49.26 65.6799 49.9C65.6399 50.04 65.5799 50.1 65.4799 50.1C65.2999 50.1 64.6399 49.78 63.8599 49.3C62.2199 48.3 60.8599 47.12 59.7799 45.74C59.1399 44.92 58.6799 44.14 57.8999 42.66C56.4999 44.78 55.2999 46.16 53.6199 47.52C51.9799 48.84 50.2199 49.84 48.0199 50.74Z" fill="white"/>
<rect x="43.5" y="66" width="52" height="18" rx="9" fill="white"/>
<path d="M83.3721 76.76H82.5201C82.2201 77.672 82.0641 78.032 81.6921 78.608C82.2921 78.872 82.4241 79.016 82.4241 79.376C82.4241 79.76 82.1961 80.168 81.9681 80.168C81.8721 80.168 81.7881 80.096 81.6441 79.904C81.4761 79.7 81.3321 79.544 81.0921 79.34C80.7321 79.688 80.3841 79.952 79.9281 80.204C79.2081 80.6 78.5961 80.804 77.3241 81.044L77.2761 80.924C78.3081 80.504 78.9441 80.12 79.6161 79.52C79.8921 79.28 80.0841 79.064 80.3241 78.764C79.9281 78.512 79.7841 78.428 79.2921 78.212C79.2081 78.38 79.2081 78.38 79.0641 78.728C78.9441 78.896 78.8481 78.932 78.5241 78.932C78.0681 78.932 77.8161 78.848 77.8161 78.692C77.8161 78.68 77.8161 78.656 77.8161 78.632C77.9001 78.488 77.9361 78.428 78.0441 78.26C78.3681 77.732 78.4281 77.612 78.8121 76.76H78.1761C77.8521 76.76 77.6721 76.772 77.3361 76.808L77.2521 76.4C77.5401 76.472 77.8641 76.508 78.1761 76.508H78.9321C79.1841 76.016 79.3161 75.668 79.3881 75.356C79.7001 75.416 79.9401 75.452 80.0961 75.476C80.6721 75.548 80.8881 75.632 80.8881 75.764C80.8881 75.884 80.7561 75.944 80.4081 76.004C80.3601 76.112 80.2761 76.28 80.1561 76.508H81.6801C81.9681 76.16 82.0521 76.064 82.3521 75.716C82.8201 76.1 82.9761 76.22 83.4441 76.604C83.4681 76.64 83.4801 76.664 83.4801 76.676C83.4801 76.724 83.4321 76.76 83.3721 76.76ZM81.2841 76.76H80.0241C79.7481 77.324 79.4601 77.888 79.3761 78.02C79.7601 78.08 80.3601 78.212 80.6361 78.296C80.9241 77.828 81.1041 77.408 81.2841 76.76ZM81.3321 81.044L81.2601 80.924C83.0361 79.892 83.8041 79.16 84.6681 77.744C84.1761 76.772 83.9481 75.944 83.7561 74.576C83.4921 74.972 83.1801 75.368 82.7601 75.824L82.6401 75.74C83.1921 74.588 83.5641 73.484 83.8401 72.176C84.0201 71.36 84.1281 70.604 84.1641 70.064C84.5241 70.124 84.8241 70.184 85.0041 70.22C85.8081 70.352 86.0961 70.448 86.0961 70.592C86.0961 70.712 85.9401 70.772 85.5441 70.832C85.3521 71.432 85.2561 71.672 84.6801 72.92H86.4081C86.7681 72.512 86.8761 72.38 87.2361 71.96C87.8601 72.476 87.8601 72.476 88.5081 73.004C88.5321 73.04 88.5441 73.064 88.5441 73.088C88.5441 73.124 88.4961 73.172 88.4721 73.172H87.3921C87.1161 75.248 86.6601 76.604 85.8441 77.876C86.6361 78.62 87.2721 78.968 88.6521 79.436L88.6281 79.532C88.4241 79.568 88.3161 79.628 88.1361 79.832C87.9321 80.048 87.7761 80.324 87.7041 80.6C87.6561 80.744 87.6201 80.792 87.5481 80.792C87.4761 80.792 87.3681 80.732 87.1281 80.576C86.4801 80.156 85.7601 79.436 85.2321 78.692C84.7761 79.22 84.4281 79.532 83.9361 79.868C83.2041 80.36 82.5801 80.636 81.3321 81.044ZM86.0361 73.172H84.5601C84.3081 73.676 84.1761 73.916 83.9241 74.324C84.2121 75.488 84.5001 76.16 85.0641 76.976C85.4961 76.184 85.8801 74.648 86.0361 73.172ZM80.9961 72.824V73.244C81.9081 73.52 82.0761 73.568 82.3761 73.724C82.6881 73.88 82.8681 74.12 82.8681 74.396C82.8681 74.78 82.6041 75.176 82.3281 75.176C82.1841 75.176 82.0881 75.056 81.9561 74.72C81.7761 74.264 81.4761 73.868 80.9961 73.46C80.9961 73.892 81.0081 74.672 81.0081 75.032C80.9961 75.152 80.9601 75.188 80.8401 75.224C80.7681 75.236 80.2761 75.272 80.0841 75.272C79.9041 75.272 79.8441 75.224 79.8441 75.068C79.8561 74.912 79.8561 74.912 79.8561 74.516L79.8801 73.832C79.5441 74.252 79.1601 74.588 78.5721 75.02C78.1641 75.308 77.8401 75.488 77.1801 75.8L77.1201 75.704C77.8521 75.068 78.2241 74.648 78.7281 73.88C78.9921 73.484 79.1721 73.184 79.3401 72.824H78.1761C77.9121 72.824 77.7201 72.836 77.3481 72.884L77.2761 72.488C77.6001 72.548 77.8161 72.572 78.1761 72.572H79.8801V71.264C79.8801 71.084 79.8321 70.316 79.7961 70.064C81.2361 70.172 81.4401 70.22 81.4401 70.4C81.4401 70.496 81.3201 70.568 80.9841 70.664L80.9961 72.572H82.0521C82.2681 72.272 82.3401 72.188 82.5801 71.9C82.9881 72.224 83.1081 72.332 83.4681 72.668C83.5041 72.704 83.5161 72.716 83.5161 72.74C83.5161 72.788 83.4801 72.824 83.4441 72.824H80.9961ZM77.7441 70.388L77.8161 70.316C78.8481 70.736 79.4121 71.216 79.4121 71.66C79.4121 72.008 79.0401 72.428 78.7281 72.428C78.5841 72.428 78.5001 72.32 78.4521 72.068C78.2961 71.384 78.1281 70.988 77.7441 70.388ZM81.3921 72.452L81.3081 72.392C81.6441 71.696 81.8721 71.012 82.0041 70.268C82.3161 70.388 82.5441 70.472 82.7001 70.52C83.2161 70.7 83.4561 70.832 83.4561 70.94C83.4561 71.048 83.3361 71.084 82.9881 71.12C82.5681 71.48 82.5321 71.504 82.4121 71.612C82.1481 71.84 81.8121 72.116 81.3921 72.452Z" fill="#C36800"/>
<path d="M65.6844 73.664L66.0084 73.712C66.5364 73.784 66.6084 73.808 66.6084 73.928C66.6084 74.024 66.5244 74.084 66.2004 74.192V76.652C66.2004 76.928 66.2004 77.432 66.2004 78.104C66.2124 79.184 66.2124 79.22 66.2124 80.6C66.2124 80.72 66.1764 80.768 66.1164 80.804C66.0084 80.864 65.6844 80.912 65.3004 80.912C65.0484 80.912 64.9524 80.84 64.9524 80.672C64.9524 80.66 64.9524 80.636 64.9524 80.612C64.9884 79.076 65.0124 77.66 65.0124 76.76V74.672C64.6044 75.236 64.3044 75.572 63.7164 76.136L63.6084 76.04C64.2444 74.924 64.5924 74.132 65.0124 72.836C65.4564 71.504 65.6364 70.688 65.6724 69.908C67.2924 70.196 67.4844 70.244 67.4844 70.4C67.4844 70.496 67.3404 70.58 67.0164 70.652C66.6084 71.816 66.1404 72.908 65.6844 73.664ZM67.0404 71.252L66.9804 70.892C67.2684 70.94 67.3884 70.952 67.5684 70.952H69.6444C70.0284 70.508 70.0284 70.508 70.3884 70.1C70.8684 70.484 71.0004 70.604 71.4444 71.012C71.4804 71.06 71.5044 71.096 71.5044 71.108C71.5044 71.132 71.4924 71.144 71.4924 71.168C72.7764 71.288 72.8964 71.312 72.8964 71.468C72.8964 71.564 72.8124 71.624 72.5004 71.744V74.612C72.5004 74.684 72.5124 76.676 72.5244 77.972C72.5124 78.116 72.4644 78.164 72.3564 78.212C72.2484 78.248 71.8764 78.296 71.6244 78.296C71.3484 78.296 71.2644 78.236 71.2644 78.02C71.3004 76.052 71.3124 75.212 71.3124 73.64C71.3124 72.296 71.3004 71.852 71.2644 71.204H69.1284C69.0084 72.044 68.8884 72.62 68.6964 73.208H69.6564C69.8964 72.956 69.9684 72.872 70.2204 72.608C70.6044 72.884 70.7244 72.968 71.0724 73.244C71.1924 73.328 71.2284 73.388 71.2284 73.448C71.2284 73.544 71.1564 73.616 70.8564 73.76C70.5924 75.368 70.3884 76.16 69.9804 77.06C69.5004 78.152 68.8404 79.028 67.9524 79.784C67.5924 80.096 67.2684 80.336 66.5244 80.816L66.4524 80.72C67.5324 79.604 68.0484 78.884 68.6244 77.648C69.2124 76.364 69.4764 75.356 69.7044 73.46H68.6124C68.4204 73.988 68.3844 74.072 68.1444 74.552C68.3724 74.708 68.6004 74.912 68.8284 75.164C69.0564 75.44 69.1524 75.656 69.1524 75.92C69.1524 76.424 68.7564 76.952 68.3844 76.952C68.2524 76.952 68.1564 76.82 68.1564 76.628C68.1564 76.592 68.1564 76.544 68.1684 76.496C68.2404 75.98 68.2644 75.716 68.2644 75.488C68.2644 75.224 68.1924 74.936 68.0604 74.72C67.5924 75.596 67.1244 76.208 66.3924 76.928L66.3084 76.844C67.2204 75.2 67.6884 73.484 67.8564 71.204H67.5564C67.3644 71.204 67.2564 71.216 67.0404 71.252ZM70.8204 79.604L70.8324 79.46C72.2604 79.532 72.3084 79.532 73.0884 79.544C73.2204 79.532 73.2564 79.484 73.2564 79.316V71.288C73.2564 70.7 73.2564 70.58 73.2204 70.124C73.5804 70.16 73.8684 70.196 74.0604 70.22C74.8284 70.304 75.0084 70.364 75.0084 70.508C75.0084 70.616 74.8644 70.7 74.5044 70.808V76.172C74.5044 76.82 74.5164 77.936 74.5284 79.556C74.5164 80.18 74.3484 80.468 73.8924 80.66C73.5684 80.804 73.1124 80.9 72.8124 80.9C72.6924 80.9 72.6684 80.876 72.6444 80.684C72.6084 80.42 72.4884 80.192 72.2844 80.06C72.0804 79.916 71.9124 79.868 70.8204 79.604Z" fill="#C36800"/>
<path d="M50.9722 80.9599L50.8762 80.8519C51.8962 79.1119 52.2682 77.9119 52.4362 75.7759C52.1482 76.1719 51.9922 76.3759 51.4522 76.9999C51.4522 77.4799 51.4042 77.6479 51.2722 77.6479C51.2002 77.6479 51.1402 77.5999 51.0802 77.4679C50.9722 77.2639 50.7322 76.6399 50.4922 75.9319C51.1642 75.7759 51.6922 75.5719 52.4722 75.1519C52.5082 74.3359 52.5082 74.1679 52.5082 73.5679C52.5082 72.5839 52.4842 71.7199 52.4002 70.5679C53.0962 70.9039 53.3002 71.0119 53.9362 71.3839H56.3362V70.7479C56.3362 70.4719 56.3122 70.2799 56.2522 69.8719C57.8842 70.0279 57.9442 70.0399 58.1002 70.1119C58.1482 70.1479 58.1962 70.2079 58.1962 70.2439C58.1962 70.3639 58.1242 70.4119 57.6682 70.5679V71.3839H59.7562C60.1042 70.9639 60.1042 70.9639 60.6082 70.3879C61.1962 70.8199 61.3762 70.9639 61.9522 71.4319C62.0122 71.4799 62.0362 71.5279 62.0362 71.5519C62.0362 71.5999 61.9762 71.6359 61.8922 71.6359H53.7802C53.7802 72.8959 53.7682 73.7479 53.7202 74.5639C53.6362 76.4239 53.3962 77.5399 52.8442 78.6319C52.4002 79.5439 51.9322 80.1199 50.9722 80.9599ZM50.6482 72.1279L50.7802 72.0319C51.8002 72.6799 52.3522 73.3039 52.3522 73.7959C52.3522 74.2639 51.9322 74.7559 51.5482 74.7559C51.3562 74.7559 51.2842 74.6359 51.2602 74.2639C51.2362 73.9639 51.1642 73.5919 51.0682 73.1959C50.9362 72.6799 50.8642 72.4999 50.6482 72.1279ZM54.0082 73.5079L53.9482 73.0999C54.2722 73.1599 54.5362 73.1839 54.9442 73.1839H59.5042C59.8042 72.8359 60.0682 72.5119 60.3202 72.2239C60.8842 72.6439 61.0522 72.7759 61.6042 73.2199C61.6522 73.2799 61.6762 73.3159 61.6762 73.3519C61.6762 73.3999 61.6162 73.4359 61.5442 73.4359H58.4362V76.2679H59.2762C59.6362 75.8239 59.7562 75.6919 60.1162 75.2959C60.6682 75.7279 60.8242 75.8599 61.3402 76.2919C61.4002 76.3639 61.4242 76.3999 61.4242 76.4359C61.4242 76.4839 61.3642 76.5199 61.2562 76.5199H58.4362V80.1919H59.6482C60.0562 79.7359 60.1882 79.6039 60.5722 79.1719C61.1722 79.6279 61.3402 79.7719 61.8682 80.2639C61.9162 80.3119 61.9402 80.3479 61.9402 80.3719C61.9402 80.4199 61.8922 80.4439 61.8082 80.4439H53.6242C53.2162 80.4439 52.9282 80.4679 52.6042 80.5279L52.5322 80.0719C52.9282 80.1679 53.1682 80.1919 53.6242 80.1919H54.5242V76.5199C54.5242 75.8839 54.5122 75.6799 54.4522 75.1519C55.8562 75.2719 55.9522 75.2839 56.1082 75.3439C56.2042 75.3799 56.2402 75.4279 56.2402 75.4879C56.2402 75.5959 56.1442 75.6559 55.8202 75.7639V80.1919H57.1282V73.4359H54.9922C54.5122 73.4359 54.3202 73.4479 54.0082 73.5079Z" fill="#C36800"/>
<path d="M164.449 66.456C162.093 66.456 160.041 65.506 158.293 63.606L158.255 63.53C158.255 63.4287 158.306 63.3527 158.407 63.302C158.534 63.226 158.623 63.226 158.673 63.302C159.332 64.0114 160.117 64.5434 161.029 64.898C161.967 65.2527 162.904 65.43 163.841 65.43C165.564 65.43 166.843 64.898 167.679 63.834C168.515 62.7447 168.933 61.3387 168.933 59.616C168.933 55.664 166.628 53.688 162.017 53.688C161.992 53.688 161.954 53.6627 161.903 53.612C161.878 53.536 161.865 53.46 161.865 53.384C161.865 53.308 161.878 53.2447 161.903 53.194C161.954 53.118 161.992 53.08 162.017 53.08C164.247 53.08 165.83 52.6367 166.767 51.75C167.705 50.8634 168.173 49.6347 168.173 48.064C168.173 46.544 167.793 45.3787 167.033 44.568C166.273 43.732 165.209 43.314 163.841 43.314C162.777 43.314 161.764 43.58 160.801 44.112C159.864 44.6187 159.167 45.366 158.711 46.354C158.711 46.3794 158.686 46.392 158.635 46.392C158.559 46.392 158.471 46.3667 158.369 46.316C158.293 46.2654 158.268 46.2147 158.293 46.164C158.876 44.796 159.737 43.732 160.877 42.972C162.017 42.212 163.347 41.832 164.867 41.832C166.666 41.832 168.072 42.3387 169.085 43.352C170.099 44.34 170.605 45.5814 170.605 47.076C170.605 48.5707 170.099 49.926 169.085 51.142C168.072 52.358 166.729 53.1434 165.057 53.498L165.171 53.194C166.514 53.0927 167.667 53.308 168.629 53.84C169.617 54.372 170.352 55.132 170.833 56.12C171.34 57.0827 171.593 58.1594 171.593 59.35C171.593 60.7434 171.289 61.9847 170.681 63.074C170.073 64.138 169.225 64.974 168.135 65.582C167.046 66.1647 165.817 66.456 164.449 66.456Z" fill="white"/>
<path d="M153.153 66.418C152.647 66.418 152.241 66.266 151.937 65.962C151.633 65.658 151.481 65.2653 151.481 64.784C151.481 64.3027 151.633 63.9227 151.937 63.644C152.241 63.34 152.647 63.188 153.153 63.188C153.685 63.188 154.091 63.3273 154.369 63.606C154.648 63.8847 154.787 64.2773 154.787 64.784C154.787 65.2907 154.648 65.696 154.369 66C154.091 66.2787 153.685 66.418 153.153 66.418Z" fill="white"/>
<path d="M139.986 66.494C138.516 66.494 137.212 66.1393 136.072 65.43C134.957 64.6953 134.096 63.72 133.488 62.504C132.88 61.2627 132.576 59.92 132.576 58.476C132.576 56.8293 132.968 55.436 133.754 54.296C134.564 53.1307 135.59 52.2693 136.832 51.712C138.098 51.1293 139.378 50.838 140.67 50.838C142.164 50.838 143.469 51.2053 144.584 51.94C145.698 52.6747 146.547 53.65 147.13 54.866C147.738 56.0567 148.042 57.3233 148.042 58.666C148.042 60.2367 147.674 61.6173 146.94 62.808C146.205 63.9733 145.217 64.8853 143.976 65.544C142.76 66.1773 141.43 66.494 139.986 66.494ZM141.088 65.772C142.481 65.772 143.558 65.278 144.318 64.29C145.078 63.302 145.458 61.782 145.458 59.73C145.458 58.1593 145.192 56.7533 144.66 55.512C144.153 54.2707 143.444 53.308 142.532 52.624C141.62 51.9147 140.581 51.56 139.416 51.56C138.048 51.56 136.984 52.054 136.224 53.042C135.489 54.03 135.122 55.4487 135.122 57.298C135.122 58.8433 135.375 60.262 135.882 61.554C136.388 62.846 137.098 63.872 138.01 64.632C138.922 65.392 139.948 65.772 141.088 65.772Z" fill="white"/>
<path d="M108.158 43.124L109.032 43.2V61.858C109.032 63.1753 109.26 64.1253 109.716 64.708C110.198 65.2653 110.958 65.544 111.996 65.544C112.072 65.544 112.11 65.62 112.11 65.772C112.11 65.924 112.072 66 111.996 66C111.363 66 110.882 65.9873 110.552 65.962L108.652 65.924L106.714 65.962C106.36 65.9873 105.84 66 105.156 66C105.106 66 105.08 65.924 105.08 65.772C105.08 65.62 105.106 65.544 105.156 65.544C106.246 65.544 107.018 65.2653 107.474 64.708C107.93 64.1253 108.158 63.1753 108.158 61.858V43.124ZM127.31 66.456C127.31 66.5067 127.247 66.5447 127.12 66.57C126.994 66.5953 126.905 66.5827 126.854 66.532L109.374 45.366C108.564 44.378 107.816 43.694 107.132 43.314C106.474 42.9087 105.815 42.706 105.156 42.706C105.08 42.706 105.042 42.63 105.042 42.478C105.042 42.326 105.08 42.25 105.156 42.25L106.562 42.288C106.866 42.3133 107.284 42.326 107.816 42.326C108.374 42.326 108.83 42.3133 109.184 42.288C109.539 42.2627 109.818 42.25 110.02 42.25C110.198 42.25 110.337 42.3007 110.438 42.402C110.565 42.478 110.704 42.6553 110.856 42.934C111.16 43.39 111.477 43.8207 111.806 44.226L127.006 62.884L127.31 66.456ZM127.31 66.456L126.436 65.278V46.43C126.436 45.1127 126.208 44.1627 125.752 43.58C125.322 42.9973 124.587 42.706 123.548 42.706C123.498 42.706 123.472 42.63 123.472 42.478C123.472 42.326 123.498 42.25 123.548 42.25L125.03 42.288C125.79 42.3387 126.411 42.364 126.892 42.364C127.348 42.364 127.982 42.3387 128.792 42.288L130.35 42.25C130.426 42.25 130.464 42.326 130.464 42.478C130.464 42.63 130.426 42.706 130.35 42.706C129.286 42.706 128.514 42.9973 128.032 43.58C127.551 44.1627 127.31 45.1127 127.31 46.43V66.456Z" fill="white"/>
<path d="M163.853 85.26L163.673 85.08C165.257 82.968 165.749 81.624 165.749 79.44C165.749 77.244 165.257 75.9 163.673 73.788L163.853 73.608C165.617 75.024 166.637 77.16 166.637 79.416C166.637 81.672 165.605 83.844 163.853 85.26Z" fill="white"/>
<path d="M157.157 83.8801H159.341C159.653 83.4721 159.749 83.3401 160.085 82.9321C160.601 83.3761 160.745 83.5201 161.237 83.9881C161.261 84.0241 161.285 84.0481 161.285 84.0721C161.285 84.1201 161.213 84.1561 161.141 84.1561H153.713C153.413 84.1561 153.221 84.1681 152.849 84.2281L152.765 83.7601C153.113 83.8441 153.473 83.8801 153.845 83.8801H156.845C157.301 82.6081 157.505 81.9961 157.817 80.9281C158.225 79.4641 158.369 78.8041 158.513 77.7121C159.677 78.0001 159.917 78.0841 159.917 78.2041C159.917 78.3001 159.749 78.3841 159.413 78.4441C158.813 80.0881 158.333 81.3121 157.949 82.1401L157.157 83.8801ZM150.245 80.1481L150.077 80.0401C150.869 78.7321 151.325 77.7961 151.817 76.5121C152.249 75.4081 152.477 74.6401 152.573 73.9441C153.677 74.1721 153.977 74.2801 153.977 74.4121C153.977 74.5201 153.821 74.5921 153.425 74.6521C152.873 76.0321 152.537 76.7401 151.985 77.6881C152.093 77.7001 152.165 77.7121 152.225 77.7121C152.789 77.7841 152.921 77.8201 152.921 77.9161C152.921 77.9881 152.813 78.0601 152.549 78.1561V81.1681L152.561 84.6361C152.549 84.8041 152.477 84.8401 152.153 84.8521C152.045 84.8641 151.961 84.8761 151.913 84.8761C151.901 84.8761 151.889 84.8761 151.889 84.8761C151.781 84.8761 151.733 84.8281 151.697 84.7081C151.721 82.9441 151.721 82.9441 151.721 81.2401V78.1321C151.169 79.0081 150.869 79.4161 150.245 80.1481ZM157.205 76.9081H159.185C159.497 76.5001 159.593 76.3801 159.917 76.0081C160.385 76.4281 160.529 76.5601 160.949 77.0161C160.973 77.0521 160.997 77.0881 160.997 77.1121C160.997 77.1601 160.937 77.1841 160.853 77.1841H154.193C153.893 77.1841 153.689 77.2081 153.269 77.2681L153.161 76.8001C153.629 76.8841 153.821 76.9081 154.193 76.9081H156.317V75.4321C156.317 75.0601 156.305 74.7841 156.269 74.1841C157.421 74.3161 157.469 74.3281 157.601 74.3881C157.697 74.4241 157.745 74.4721 157.745 74.5201C157.745 74.6161 157.577 74.7001 157.205 74.8201V76.9081ZM154.193 77.8441L154.373 77.7601C154.745 78.3121 154.913 78.6361 155.297 79.5001C155.873 80.7961 156.089 81.4081 156.089 81.8281C156.089 82.3201 155.657 83.0281 155.345 83.0281C155.225 83.0281 155.165 82.9321 155.153 82.7041C155.093 81.9001 155.009 81.1801 154.865 80.3281C154.673 79.2001 154.529 78.6481 154.193 77.8441Z" fill="white"/>
<path d="M143.299 83.604V83.256C143.815 83.22 143.935 83.208 144.091 83.136C144.355 83.016 144.415 82.764 144.415 81.9V76.848C144.391 75.804 144.391 75.804 144.295 75.72C144.199 75.636 144.055 75.612 143.755 75.612H143.299V75.264C144.211 75.204 144.991 75.096 145.579 74.952C145.519 75.9 145.483 76.92 145.483 78.336V81.9C145.483 82.704 145.531 82.944 145.699 83.088C145.843 83.208 145.891 83.22 146.575 83.256V83.604H143.299Z" fill="white"/>
<path d="M130.146 77.1H130.35C130.362 77.328 130.362 77.364 130.362 77.544C130.362 78.588 130.23 79.584 130.026 80.076C129.894 80.364 129.606 80.676 129.45 80.676C129.294 80.676 129.042 80.184 129.042 79.872C129.042 79.764 129.078 79.704 129.174 79.62C129.462 79.38 129.786 78.852 129.918 78.408C130.002 78.108 130.038 77.868 130.146 77.1ZM132.486 77.1L132.666 77.052C133.374 78.204 133.854 79.2 133.854 79.488C133.854 79.812 133.458 80.304 133.206 80.304C133.158 80.304 133.11 80.268 133.074 80.22C133.05 80.16 133.05 80.16 133.026 79.836C132.978 78.948 132.774 77.892 132.486 77.1ZM135.294 75.408L135.306 79.812C135.306 82.02 135.306 82.02 135.33 83.484C135.33 83.64 135.234 83.688 134.898 83.688C134.85 83.688 134.79 83.7 134.742 83.7C134.718 83.7 134.694 83.7 134.682 83.7C134.538 83.7 134.466 83.64 134.466 83.544C134.466 83.532 134.466 83.508 134.466 83.496C134.49 82.596 134.502 80.772 134.502 75.912C134.502 75.132 134.49 74.88 134.454 74.472C135.558 74.556 135.858 74.616 135.858 74.76C135.858 74.868 135.678 74.964 135.294 75.072V75.408ZM137.706 74.088C138.738 74.184 139.074 74.256 139.074 74.388C139.074 74.484 138.942 74.568 138.558 74.712C138.558 76.044 138.606 83.04 138.618 84.384C138.606 84.564 138.462 84.612 137.982 84.612C137.79 84.612 137.742 84.576 137.73 84.444C137.742 84.12 137.742 83.76 137.754 83.376C137.766 83.004 137.766 83.004 137.766 78.6C137.766 74.604 137.766 74.604 137.706 74.088ZM129.018 84.66L128.898 84.492C129.978 83.46 130.494 82.68 130.83 81.552C131.154 80.484 131.274 78.912 131.274 75.732C131.274 74.7 131.274 74.616 131.238 74.112C132.438 74.22 132.714 74.268 132.714 74.424C132.714 74.52 132.63 74.568 132.138 74.724C132.126 75.072 132.126 75.072 132.066 78.504C132.042 79.74 131.826 80.952 131.502 81.756C131.022 82.956 130.302 83.784 129.018 84.66ZM135.702 77.124L135.87 77.052C136.722 78.228 137.13 79.008 137.13 79.476C137.13 79.848 136.818 80.28 136.542 80.28C136.434 80.28 136.386 80.208 136.362 79.944C136.326 79.488 136.242 78.924 136.134 78.42C136.014 77.82 135.93 77.568 135.702 77.124Z" fill="white"/>
<path d="M120.436 77.148L122.776 77.124C122.968 76.884 123.04 76.812 123.232 76.548C123.616 76.836 123.736 76.92 124.084 77.184C124.144 77.256 124.168 77.292 124.168 77.328C124.168 77.4 124 77.508 123.7 77.64L123.652 83.292V83.34C123.652 83.544 123.664 83.544 124.492 83.544C125.428 83.544 125.572 83.532 125.644 83.436C125.68 83.388 125.716 83.256 125.776 83.016C125.824 82.776 125.908 82.296 126.016 81.624C126.064 81.348 126.148 80.928 126.244 80.388H126.424L126.376 83.196C126.364 83.4 126.388 83.424 126.604 83.508C126.82 83.604 126.904 83.688 126.904 83.808C126.904 84.012 126.724 84.156 126.412 84.216C126.196 84.252 125.332 84.276 124.348 84.276C123.352 84.276 123.052 84.216 122.896 84.012C122.8 83.88 122.776 83.748 122.776 83.424C122.776 83.4 122.776 83.304 122.776 83.256L122.86 77.4L120.412 77.424C120.376 77.868 120.352 78.06 120.328 78.24C120.064 80.256 119.248 81.948 117.916 83.208C117.28 83.82 116.728 84.192 115.624 84.756L115.54 84.6C116.392 84.012 116.824 83.616 117.436 82.908C118.792 81.312 119.356 79.848 119.572 77.436L117.316 77.46C117.1 77.46 116.584 77.508 116.332 77.544L116.272 77.1C116.608 77.148 117.052 77.196 117.316 77.184L119.584 77.16C119.62 76.56 119.644 75.936 119.644 75.216C119.644 74.76 119.632 74.52 119.584 74.052C120.148 74.124 120.748 74.22 120.904 74.268C121.012 74.304 121.06 74.34 121.06 74.4C121.06 74.496 120.952 74.544 120.58 74.664C120.508 76.14 120.496 76.368 120.436 77.148Z" fill="white"/>
<path d="M113.159 73.608L113.339 73.788C112.775 74.544 112.463 75.012 112.139 75.612C111.539 76.716 111.263 77.952 111.263 79.44C111.263 80.928 111.551 82.152 112.139 83.256C112.463 83.856 112.775 84.324 113.339 85.08L113.159 85.26C112.511 84.744 112.103 84.3 111.671 83.64C110.819 82.38 110.375 80.928 110.375 79.452C110.375 77.196 111.395 75.048 113.159 73.608Z" fill="white"/>
<path d="M196.772 73.5876C196.504 74.7355 196.539 75.9302 196.877 77.0664C197.122 77.6638 196.597 77.2655 196.597 77.2655C193.341 73.7984 197.437 69.7222 197.624 69.6987C197.624 70.9286 197.869 72.1468 198.324 73.283C199.27 75.3914 197.939 77.7692 197.519 77.3124C196.644 76.3519 196.761 73.5876 196.761 73.5876M200.425 64.7792C200.647 65.9154 201.078 66.993 201.697 67.9652C202.934 69.7456 202.035 72.1937 201.58 71.8423C200.612 71.1161 200.308 68.5274 200.308 68.5274C200.262 69.6402 200.495 70.7412 201.008 71.7134C201.335 72.2288 200.787 71.9477 200.787 71.9477C197.181 69.3356 200.262 64.826 200.425 64.7675M204.031 66.7704C200.448 64.2872 203.366 59.801 203.529 59.7424C203.774 60.8552 204.218 61.8977 204.836 62.8465C206.085 64.5566 205.245 66.8993 204.79 66.5713C203.821 65.8802 203.482 63.4204 203.482 63.4204C203.459 64.5098 203.716 65.5757 204.229 66.5362C204.568 67.0281 204.019 66.7704 204.019 66.7704M206.727 60.1056C202.829 58.4774 204.743 53.6281 204.883 53.5227C205.326 54.53 205.957 55.432 206.727 56.205C208.244 57.5755 207.94 60.0118 207.45 59.7893C206.4 59.3325 205.56 57.0367 205.56 57.0367C205.746 58.0674 206.202 59.0396 206.878 59.8362C207.299 60.2344 206.727 60.1056 206.727 60.1056ZM208.547 54.0029C208.991 54.3778 208.407 54.284 208.407 54.284C204.428 52.8784 206.073 47.9237 206.213 47.8183C206.703 48.7905 207.38 49.669 208.197 50.3952C209.784 51.6837 209.621 54.1201 209.107 53.9326C208.034 53.5344 207.077 51.2854 207.077 51.2854C207.31 52.3045 207.824 53.2533 208.547 54.0146M210.123 48.322C210.578 48.6499 210.006 48.5914 210.006 48.5914C206.062 47.5255 207.299 42.6176 207.427 42.5005C207.975 43.4024 208.687 44.1989 209.528 44.8314C211.161 45.9559 211.161 48.3337 210.66 48.1931C209.598 47.8886 208.512 45.7802 208.512 45.7802C208.816 46.7524 209.376 47.6192 210.123 48.3103M211.056 41.2354C211.546 41.4814 210.986 41.5165 210.986 41.5165C207.007 41.1417 207.427 36.1753 207.532 36.0464C208.209 36.8312 209.026 37.4872 209.936 37.9674C211.686 38.7873 212.072 41.0832 211.558 41.0246C210.473 40.9075 209.096 39.045 209.096 39.045C209.539 39.9353 210.216 40.6849 211.056 41.2237M210.823 35.4373C211.313 35.6716 210.753 35.7185 210.753 35.7185C206.82 35.3788 207.194 30.4826 207.299 30.3538C207.975 31.1268 208.781 31.7594 209.691 32.2279C211.43 33.0244 211.827 35.2851 211.313 35.2382C210.239 35.1328 208.862 33.3055 208.862 33.3055C209.306 34.184 209.983 34.922 210.811 35.4373M211.383 29.487C210.321 29.5104 208.781 27.9057 208.781 27.9057C209.317 28.7022 210.053 29.3347 210.916 29.7447C211.418 29.9204 210.893 30.0258 210.893 30.0258C207.018 30.1664 206.832 25.3522 206.913 25.2116C207.649 25.8793 208.512 26.4064 209.458 26.7461C211.243 27.3083 211.885 29.4753 211.383 29.4753M209.574 22.8338C210.099 22.9158 209.598 23.115 209.598 23.115C205.816 23.9583 204.79 19.2496 204.848 19.0973C205.688 19.6244 206.633 19.9758 207.614 20.1398C209.469 20.374 210.473 22.377 209.983 22.4824C208.944 22.705 207.147 21.3931 207.147 21.3931C207.812 22.0842 208.652 22.5761 209.574 22.8221M207.427 16.7312C206.54 16.9186 205 15.8059 205 15.8059C205.571 16.3915 206.283 16.8132 207.077 17.024C207.52 17.0943 207.1 17.27 207.1 17.27C203.868 17.9962 202.992 13.9669 203.039 13.838C203.763 14.2948 204.568 14.5994 205.408 14.7399C206.995 14.9391 207.847 16.6609 207.439 16.7429M204.906 12.1396C205.385 12.1982 204.93 12.3973 204.93 12.3973C201.499 13.3109 200.413 9.04728 200.46 8.90672C201.254 9.35182 202.117 9.64465 203.016 9.76179C204.719 9.91406 205.7 11.7062 205.256 11.8116C204.311 12.0459 202.631 10.9214 202.631 10.9214C203.261 11.5305 204.043 11.9405 204.895 12.1396M198.371 3.55374C198.476 3.46003 202.491 3.13206 202.771 6.52891C202.771 6.52891 202.736 7.00916 202.537 6.58748C202.117 5.88468 201.51 5.29902 200.787 4.91248C200.787 4.91248 202.28 6.09552 202.374 7.02087C202.421 7.45427 200.565 7.11458 199.9 5.61528C199.526 4.8422 199.001 4.1394 198.371 3.56545M202.922 74.3138C204.089 74.6183 205.291 74.6886 206.482 74.5246C206.482 74.7238 203.121 79.4442 199.328 76.6213C199.328 76.6213 198.861 76.1528 199.48 76.3168C200.612 76.5042 201.779 76.3753 202.852 75.9419C202.852 75.9419 200.203 76.4456 199.153 75.696C198.663 75.3329 200.763 73.6578 202.922 74.3138ZM203.307 70.9989C203.307 70.9989 202.864 70.5655 203.447 70.7061C204.521 70.8584 205.618 70.7178 206.61 70.2961C206.61 70.2961 204.136 70.8935 203.144 70.2024C202.677 69.8862 204.614 68.1877 206.657 68.7734C207.754 69.0311 208.897 69.0779 210.006 68.914C210.006 69.1014 206.925 73.5993 203.307 71.0106M206.668 65.2945C206.668 65.2945 206.167 64.9432 206.762 64.99C207.824 64.9666 208.862 64.6386 209.749 64.0647C209.749 64.0647 207.52 65.0251 206.447 64.5215C205.945 64.2872 207.474 62.3545 209.551 62.5771C210.66 62.6473 211.768 62.5068 212.818 62.1437C212.842 62.3194 210.59 67.1804 206.668 65.2945ZM209.236 58.6765C209.236 58.6765 208.711 58.4071 209.282 58.372C210.298 58.1963 211.255 57.7395 212.037 57.0718C212.037 57.0718 209.971 58.3017 208.874 57.962C208.361 57.8098 209.633 55.7365 211.651 55.6662C212.725 55.5842 213.775 55.2914 214.732 54.7994C214.779 54.9634 213.239 59.965 209.236 58.6765ZM211.126 52.5505C211.126 52.5505 210.59 52.3279 211.15 52.2459C212.153 51.9882 213.064 51.4611 213.799 50.7232C213.799 50.7232 211.838 52.1171 210.718 51.8828C210.193 51.7657 211.29 49.5987 213.309 49.3645C214.371 49.1888 215.398 48.8139 216.319 48.2517C216.389 48.4157 215.246 53.511 211.138 52.5739M212.177 46.1784C212.177 46.1784 211.64 45.991 212.177 45.8856C213.134 45.5928 214.009 45.0423 214.674 44.2926C214.674 44.2926 212.818 45.7216 211.721 45.5342C211.208 45.4405 212.188 43.297 214.126 42.9807C215.152 42.7699 216.133 42.3599 216.996 41.7742C217.066 41.9265 216.156 46.9164 212.142 46.1667M212.678 39.5839C212.678 39.5839 212.13 39.455 212.655 39.291C213.565 38.9045 214.359 38.2837 214.942 37.4755C214.942 37.4755 213.285 39.0685 212.188 38.9982C211.675 38.963 212.422 36.7609 214.289 36.2573C215.269 35.941 216.179 35.4373 216.973 34.7814C217.055 34.922 216.658 39.8884 212.678 39.5721M212.713 33.4578C212.713 33.4578 212.165 33.4929 212.608 33.1884C213.367 32.5559 213.939 31.7359 214.266 30.8106C214.266 30.8106 213.134 32.8019 212.083 33.0595C211.593 33.1767 211.698 30.8809 213.32 29.8618C214.161 29.2761 214.884 28.5382 215.456 27.6949C215.573 27.8003 216.565 32.6262 212.713 33.4812M212.048 26.8398C212.048 26.8398 211.523 26.9335 211.92 26.5821C212.585 25.8793 213.052 25.0008 213.262 24.052C213.262 24.052 212.387 26.1253 211.395 26.5001C210.928 26.6758 210.765 24.4268 212.223 23.2321C212.97 22.5644 213.589 21.7562 214.044 20.8543C214.172 20.948 215.701 25.5162 212.037 26.8281M210.543 20.866C210.543 20.866 210.029 21.0534 210.379 20.6434C210.916 19.8352 211.231 18.8982 211.29 17.926C211.29 17.926 210.765 20.1281 209.843 20.6552C209.411 20.9129 208.886 18.7225 210.134 17.2934C210.765 16.5086 211.243 15.6067 211.546 14.6462C211.686 14.7165 213.927 18.9567 210.543 20.866ZM208.104 15.0093C208.104 15.0093 207.66 15.1616 207.964 14.8102C208.442 14.1308 208.734 13.3343 208.816 12.5144C208.816 12.5144 208.314 14.3768 207.509 14.8102C207.135 15.0211 206.738 13.1235 207.835 11.9405C208.396 11.2845 208.827 10.5349 209.107 9.71493C209.224 9.78521 211.045 13.4632 208.092 15.0093M205.373 9.70322C205.373 9.70322 204.941 9.9492 205.186 9.52752C205.548 8.7193 205.688 7.81738 205.595 6.93888C205.595 6.93888 205.466 9.00042 204.719 9.63294C204.369 9.92577 203.552 8.03993 204.463 6.55234C204.906 5.74412 205.198 4.85391 205.326 3.94028C205.466 3.97542 208.139 7.43084 205.373 9.70322ZM189.805 83.2979C192.734 81.8103 195.348 79.7722 197.519 77.3124C195.594 82.0563 189 85.5 189 85.5L189.805 83.2979Z" fill="white"/>
</svg>
