<svg width="22" height="6" viewBox="0 0 22 6" fill="none" xmlns="http://www.w3.org/2000/svg"><path d="M5.777 2.598L.49.028c-.32-.15-.62.29-.43.64l1.11 2.1c.081.15.081.32 0 .47L.06 5.328c-.19.35.11.8.43.64l5.287-2.57a.471.471 0 000-.8z" fill="#01A6FF" opacity=".2"/><path d="M13.777 2.6L8.49.035c-.32-.16-.62.28-.43.639l1.11 2.098c.081.15.081.32 0 .469L8.06 5.327c-.19.35.11.8.43.64L13.777 3.4a.47.47 0 000-.8z" fill="#01A6FF" opacity=".6"/><path d="M21.777 2.6L16.49.035c-.32-.16-.62.28-.43.639l1.11 2.098c.081.15.081.32 0 .469l-1.11 2.087c-.19.35.11.8.43.64L21.777 3.4a.47.47 0 000-.8z" fill="#01A6FF"/></svg>