<svg width="46" height="46" viewBox="0 0 46 46" fill="none" xmlns="http://www.w3.org/2000/svg"><rect width="46" height="46" rx="23" fill="url(#paint0_linear_2008_932)"/><path d="M40 7.5c4.284 4.284 6 9.595 6 15.654A22.846 22.846 0 0123.154 46C17.095 46 11.284 43.784 7 39.5c0 0 1.372-12.852 16.154-16.346C37.937 19.66 40 7.5 40 7.5z" fill="url(#paint1_linear_2008_932)"/><path d="M40 8.5s-2.063 11.4-16.846 14.676C8.372 26.452 7 38.5 7 38.5" stroke="url(#paint2_linear_2008_932)" stroke-linecap="round"/><path d="M37.87 20.962a1.583 1.583 0 00-.546-1.088c-.331-.232-.4-.098-.491-.565a.877.877 0 00-.463-.568c-.209-.131-.292-.1-.412-.296-.068-.112-.043-.272-.125-.386-.172-.24-.438-.233-.663-.37a2.388 2.388 0 01-.512-.559c-.254-.3-.474-.196-.769-.324-.226-.101-.28-.384-.506-.462-.351-.123-.705.227-.828-.3-.037-.159-.032-.327-.083-.48-.117-.358-.62-.487-.952-.54-.826-.129-1.434.305-2.212.316-.305.005-.605-.129-.911-.11a1.15 1.15 0 00-.883.619c-.009.017-.015.036-.023.053a.689.689 0 00-.063.11 2.473 2.473 0 00-.252 1.07 6.632 6.632 0 00.138 1.715c.025.162.082.316.174.453.094.14.257.218.426.204.143-.047.277-.111.4-.193.443-.195.314.56.397.784.169.455.872.752 1.226.321l.003-.005a.564.564 0 00.083-.081c.14-.115.3-.123.443.047.223.266.143.691.651.669.349-.017.306.195.34.444a.774.774 0 00.18.484c.189.168.492.031.666.177.14.114.026.229.077.363.043.104.355.42.455.576a.64.64 0 00-.209.286.644.644 0 00-.094.187c-.266.117-.532.24-.789.375-.157.084-.317.182-.348.341a.425.425 0 00-.046.056c-.16-.168-.358-.3-.583-.372-.517-.14-1.138.028-1.666.061a5.228 5.228 0 00-1.798.52 1.816 1.816 0 00-.897.89 2.15 2.15 0 00-.094.18v-.082c.008-.277-.078-.517-.429-.69-.472-.23-.969-.073-1.455-.062-.691 0-1.377.08-2.049.249-.3.084-.463-.258-.68-.398a2.447 2.447 0 00-.8-.265c-.54-.112-.474-.593-.749-.943a1.222 1.222 0 00-.731-.484c-.552-.134-1.16 0-1.655-.333a2.895 2.895 0 01-.308-.248 1.661 1.661 0 00-.855-.51c-.36-.064-.772.073-1.106-.1-.283-.146-.434-.45-.663-.655a.906.906 0 00-.62-.22c-.149.005-.291.05-.44.041-.477-.022-.715-.596-1.083-.83a2.087 2.087 0 00-1.306-.26c-.655.05-.814.76-1.435.925-.451.12-1.054-.061-1.42.291a.81.81 0 00-.171.266c-.166.24-.206.601-.238.861-.122.968-.314 2.409.41 3.214a.405.405 0 00.425.16.305.305 0 00.131-.115c.097-.067.149-.19.203-.302.023-.048.052-.087.077-.123.189-.14.4-.006.469.29.149.666.763 1.556 1.595 1.307a.415.415 0 00.174-.134c.114-.09.223-.272.337-.403.057-.048.114-.073.177-.064.323.055.386.81.443 1.043.08.509.403.95.869 1.189.271.112.391.047.492-.079.122-.087.191-.271.342-.439.458-.394.735.104.875.551.154.5.131 1.443.78 1.611.286.076.472-.014.612-.173.288-.232.394-.753.628-1.03a.42.42 0 01.232-.097c.531-.05.374 1.035.529 1.362.257.654.96 1.035 1.666.895.285-.067.48-.199.634-.367.311-.276.463-.682.769-1.006a.528.528 0 01.657-.098c.511.38.106 1.325.94 1.465.726.123 2.235.506 2.824-.137a.061.061 0 01.008-.014c.026-.022.054-.045.077-.07a1.2 1.2 0 00.238-.685 86.69 86.69 0 01.365-2.475c.049.486.152.965.223 1.451.066.462.072.929.352 1.332.337.486.831.492 1.371.425a9.876 9.876 0 001.704-.411c.368-.11.734-.17.98-.442a.878.878 0 00.245-.322c.17-.36.1-.786.235-1.158a1.01 1.01 0 01.154-.294c.217-.16.483.003.749.317.474.559 1.029 1.451 1.732.696.065-.059.131-.126.197-.213a5.597 5.597 0 001.203-2.643c0-.067.017-.134.043-.196.005-.01.011-.016.017-.028.171-.07.377.314.497.4.266.196.489.07.672-.123.1-.087.188-.198.266-.31.237-.339.205-.744.26-1.13.042-.322.222-.624.291-.943.023.336.034.674.023 1.01.091.053.183-.009.251-.098a.485.485 0 00.163-.224c.195-.545.272-1.155.275-1.768a9.849 9.849 0 00-.143-1.765l.014.006zm-21.96 1.463a.13.13 0 01.088.04.14.14 0 01.017.083c-.008.285-.017.57-.023.856 0 .04-.005.076-.022.109a.202.202 0 01-.078.062.63.63 0 01-.78-.227 2.116 2.116 0 01-.151-.775c.228-.238.623-.201.954-.145l-.005-.003zm-.958.137v.011s-.006.009-.011.011l.011-.022zm-4.724.537a1.207 1.207 0 01-.011-.638c-.292.084-.323.465-.38.756-.08.397-.309.752-.643.995a.122.122 0 01-.086.034c-.06-.006-.08-.076-.088-.132a13.579 13.579 0 01-.126-1.7 1.5 1.5 0 01.051-.479.99.99 0 01.632-.587c.288-.087.597-.095.891-.028a.573.573 0 00.415-.014c.111-.07.148-.21.211-.324a.735.735 0 011.097-.157c-.136-.134-.614.218-.674.33-.185.338-.028.546-.388.842-.163.134-.37.196-.506.36-.186.227-.155.571-.4.745l.005-.003zm2.166-.04c-.237.213-.763-.027-.982-.133-.02.26.191 2.861.008 2.906a.231.231 0 01-.237-.14 1.595 1.595 0 01-.077-.283c-.086-.299-.355-.509-.495-.788a2.004 2.004 0 01-.154-.753c-.029-.23-.02-.464.023-.69a.786.786 0 01.406-.543c.203-.093.477-.087.6-.269.083-.123.103-.327.251-.341.083.006.16.048.209.115.203.207.777.629.446.925l.002-.005zm-.03-1.101c-.198-.445.053-.753.514-.565.368.187.78.28 1.194.268a.345.345 0 01.249.067.36.36 0 01.065.303l-.06.64c-.22.087-.411-.042-.625-.05-.206-.006-.4.145-.552.142-.266-.005-.663-.52-.789-.805h.003zm1.38 1.519a.447.447 0 00-.33.35c-.025.164-.022.335.015.5.123.859.157 1.731.103 2.596a.518.518 0 01-.232-.333c-.297-.797-.5-1.628-.6-2.473-.034-.383 0-.828.315-1.054a1.108 1.108 0 011.017-.028c.157.056 1.026.366.634.685-.214.176-.66-.285-.92-.243h-.003zm1.94 1.029a.47.47 0 00-.203.33c-.212.943.428 1.883.391 2.845-.103.056-.211-.062-.268-.163a20.857 20.857 0 01-.56-1.093 5.553 5.553 0 01-.369-.94 1.58 1.58 0 01-.043-.73.804.804 0 01.437-.568c.169-.059.346-.084.523-.073.263 0 .689-.028.83.213-.224.162-.51.05-.744.173l.006.006zm1.014-.87a2.028 2.028 0 01-.117-1.001c.163.15.309.319.429.506.123.187.32.316.543.355.357.025.637-.324.994-.36a.935.935 0 01.826.517c.137.224.229.47.272.727-.346-.126-.446-.615-.8-.727a.77.77 0 00-.666.184c-.51.372-1.143.518-1.478-.198l-.003-.003zm2.292 1.855a.792.792 0 00-.594.324c-.08.157-.12.327-.12.5-.04.585-.06 1.167-.063 1.752-.46-.607-.463-1.424-.449-2.18a1.109 1.109 0 01.154-.657 1.09 1.09 0 01.9-.302 6.034 6.034 0 011.784.288.966.966 0 01.726.602c-.769.23-1.543-.409-2.338-.33v.003zm3.275 3.558l-.514-1.128a2.159 2.159 0 01-.238-.747 1.34 1.34 0 01.29-.864c.136-.182.568-.528.548-.1-.009.198-.417.525-.463.8-.046.413.006.833.154 1.224.092.291.194.58.312.862-.026.03-.072-.011-.089-.047zm9.053-3.058a.177.177 0 01-.037.104.132.132 0 01-.168-.003.29.29 0 01-.089-.157c-.109-.35.06-.71-.214-.979a1.07 1.07 0 00-.89-.187c-.425.059-.836.103-1.26.193-.648.14-1.16.305-1.408.758-.103.201-.16.422-.163.646.003.11-.012.218-.043.325a.275.275 0 01-.249.187.088.088 0 01-.06-.023.108.108 0 01-.02-.072 9.45 9.45 0 01.009-.806c0-.168.029-.335.083-.495.22-.556.894-.775 1.434-.895a9.458 9.458 0 011.88-.224c1.015-.016 1.304.79 1.198 1.628h-.003zm4.367-5.77a.58.58 0 01.323.173.269.269 0 01.017.336c-.103.12-.291.092-.452.092-.045 0-.088 0-.134-.003-.189-.008-.38-.03-.56-.022a.648.648 0 00-.452.271c-.11.143-.191.305-.305.442-.157.16-.323.31-.498.453a.497.497 0 01-.374.168c.043-.461.283-.884.66-1.16.486-.406 1.106-.898 1.775-.745v-.005zm-1.598-3.152a.438.438 0 01.315.156c.043.067.077.14.108.213a.95.95 0 00.518.386.82.82 0 01.297.165c.086.08.097.21.023.305a.336.336 0 01-.229.07 2.16 2.16 0 00-.377.061c-.183.045-.36.106-.56.137-.072.011-.22.048-.286.003-.157-.104.006-.084-.017-.21-.057-.319-.34-.07-.497-.282a.179.179 0 01.045-.233c.103-.086.478-.097.349-.338a2.952 2.952 0 00-1.192.087h-.003.003c-.037-.092.075-.176.169-.218.406-.224.866-.33 1.332-.308l.002.006zm-.908 1.6c-.017-.015-.037-.029-.055-.043l-.054-.044a.255.255 0 01.043.014.22.22 0 01.063.073h.003zm-.89-2.045a.934.934 0 00.312.056c.106.02.215.128.155.215l.14-.07c-.229.174-.515.26-.803.244a.165.165 0 01-.103-.031.164.164 0 01-.049-.09l-.06-.173a.475.475 0 01-.037-.227.174.174 0 01.152-.154c.131-.005.185.163.297.23h-.003zm-1.84-.96c.046-.036.112 0 .15.045.036.045.068.1.125.112a.193.193 0 00.123-.03c.288-.135.606-.202.923-.197.048 0 .108.012.128.056a.087.087 0 01-.048.104.311.311 0 01-.123.025 1.74 1.74 0 00-.863.319c-.149.103-.154.182-.311.062a.554.554 0 01-.132-.4.116.116 0 01.029-.096zm-1.634.725a.697.697 0 00-.214.31 3.055 3.055 0 00-.123 1.116c0 .118.054.38-.009.487-.094.157-.177.115-.217.011a2.97 2.97 0 01.037-.596l-.006-1.295a.382.382 0 01.032-.187c.103-.185.503-.011.571-.26.058-.213-.185-.23-.328-.224-.066 0-.392-.025-.277-.16.108-.128.648-.044.8-.016.151.028.226.126.346.215.148.107.383.107.514.238.3.3-.134.302-.375.26a.936.936 0 00-.757.1h.006zm2.115.976a.405.405 0 00-.163-.059c-.149-.01-.263.14-.283.283-.003.145.011.29.04.433a1.66 1.66 0 01-.28.949c-.16.27-.266.587-.406.872a.149.149 0 01-.046.065h-.005a.105.105 0 01-.138-.056.296.296 0 01-.014-.165c.029-.347.023-.993-.146-1.293.178-.09.515-.162.515-.402 0-.241-.3-.398-.326-.638-.046-.43.523-.33.754-.467.126-.073.183-.177.315-.23a2.69 2.69 0 01.446-.047.82.82 0 00.334.548c.097.07.211.117.306.19a.368.368 0 01.168.297l-.037.014c-.374.126-.72-.129-1.037-.294h.003zm.454 2.867c-.023.081-.071.185-.16.17-.034-.47-.143-1.65.372-1.93.16-.094.334-.167.514-.212.429-.09.666.078.96.322-.083-.014-.034.09-.137.126-.243.084-.572-.123-.803-.017-.483.224-.623 1.102-.746 1.541zm.949 1.03c-.166.327-.317.19-.315-.104 0-.199.009-.397.012-.593.02-.795.168-1.667 1.154-1.718.072-.002.038-.106-.008-.178.12.064.226.148.32.243.106.145.051.294.283.366a.96.96 0 00.503-.025c.177-.064.366-.092.554-.087.28.05.28.227.014.26-.194.026-.314.213-.394.387-.128.282-.331.61-.706.464-.251-.095-.443-.462-.757-.283-.463.263-.452.85-.663 1.267h.003zm2.883 4.027a9.014 9.014 0 01-.251 1.167c-.04.131-.103.425-.237.503-.303.176-.189-.35-.149-.503a6.7 6.7 0 00.18-1.351c.014-.286.329-1.388.02-1.544a.434.434 0 00-.197-.037c-.798 0-1.372.677-2.135.797-.209.034-.331.006-.371-.056-.046-.072.025-.195.214-.324.257-.157.537-.277.829-.358.577-.185 2.037-1.08 2.209.017a5.334 5.334 0 01-.115 1.69h.003zm1.438-1.247c-.023.047-.072.1-.12.078-.023-.537.182-1.622-.423-1.919-.283-.137-.855-.011-1.155.053-.391.087-.76.246-1.086.476-.148.103-.388.201-.263-.037.1-.187.489-.358.663-.48a2.35 2.35 0 01.418-.227c.44-.188 1.366-.5 1.806-.174.551.412.423 1.715.157 2.23h.003zm.563-2.686a4.156 4.156 0 00-.063-.461.293.293 0 00-.094-.151.144.144 0 00-.172-.006c-.046.037-.083.115-.134.087a.083.083 0 01-.035-.067.532.532 0 01.178-.375c.054-.059.114-.115.163-.165a.297.297 0 01.102-.073.226.226 0 01.243.093.6.6 0 01.086.26 7 7 0 01.077 1.197c-.188.045-.317-.174-.349-.336l-.002-.003z" fill="#fff"/><defs><linearGradient id="paint0_linear_2008_932" x1="0" y1="23" x2="46" y2="23" gradientUnits="userSpaceOnUse"><stop stop-color="#C36800"/><stop offset="1" stop-color="#D88C32"/></linearGradient><linearGradient id="paint1_linear_2008_932" x1="47" y1="27" x2="7" y2="27" gradientUnits="userSpaceOnUse"><stop stop-color="#C36800"/><stop offset="1" stop-color="#D88C32"/></linearGradient><linearGradient id="paint2_linear_2008_932" x1="40" y1="8.5" x2="9.034" y2="40.029" gradientUnits="userSpaceOnUse"><stop stop-color="#C36800"/><stop offset=".495" stop-color="#FFF78C"/><stop offset="1" stop-color="#C36800"/></linearGradient></defs></svg>