<svg version="1.1" id="_x32_" xmlns="http://www.w3.org/2000/svg" x="0" y="0" viewBox="0 0 512 512" style="width:256px;height:256px" xml:space="preserve" opacity="1"><style>.st0{fill:#4b4b4b}</style><path class="st0" d="M332.998 291.918c52.2-71.895 45.941-173.338-18.834-238.123-71.736-71.728-188.468-71.728-260.195 0-71.746 71.745-71.746 188.458 0 260.204 64.775 64.775 166.218 71.034 238.104 18.844l14.222 14.203 40.916-40.916-14.213-14.212zm-54.51-13.585c-52.144 52.134-136.699 52.144-188.852 0-52.152-52.153-52.152-136.717 0-188.861 52.154-52.144 136.708-52.144 188.852 0 52.152 52.144 52.152 136.708 0 188.861z" fill="#4b4b4b"/><path class="st0" d="M109.303 119.216c-27.078 34.788-29.324 82.646-6.756 119.614 2.142 3.489 6.709 4.603 10.208 2.46 3.49-2.142 4.594-6.709 2.462-10.198v.008c-19.387-31.7-17.45-72.962 5.782-102.771 2.526-3.228 1.946-7.898-1.292-10.405-3.227-2.525-7.896-1.945-10.404 1.292zm392.196 319.375L363.341 315.178l-47.98 47.98 123.403 138.168c12.548 16.234 35.144 13.848 55.447-6.456 20.294-20.294 23.532-43.732 7.288-56.279z" fill="#4b4b4b"/></svg>