<svg width="40" height="40" viewBox="0 0 40 40" fill="none" xmlns="http://www.w3.org/2000/svg"><rect width="40" height="40" rx="20" fill="#C36800"/><path d="M31 20.26c-2.065-.822-4.786.225-6.934.755m-8.132 0c-2.148-.529-4.868-1.577-6.934-.755m5.63-4.988l10.69-.084a.594.594 0 00.562-.413l.507-1.585a5.477 5.477 0 00-.044-3.527c-.34-.943-.929-1.782-1.917-2.23-2.59-1.18-3.536.426-4.476.426s-1.889-1.605-4.477-.427c-.941.428-1.52 1.21-1.867 2.1a5.47 5.47 0 00-.085 3.673l.537 1.655c.08.247.311.414.57.412zm3.63-8.082c2.197.938 2.86 1.875 2.86 1.875" stroke="#fff" stroke-linecap="round" stroke-linejoin="round"/><path d="M18.14 20.362h-1.92a.288.288 0 00-.287.289v.364c.011.291.148.564.374.748l.23.188a1.007 1.007 0 01.341.533l.359 1.661.395 1.83.395 1.831.396 1.831.395 1.83.156.72c.114.476.537.813 1.025.813.489 0 .912-.337 1.026-.813l.156-.72.395-1.83.396-1.83.395-1.831.395-1.83.358-1.662a1.007 1.007 0 01.341-.533l.23-.188c.227-.184.363-.457.375-.748v-.364a.288.288 0 00-.288-.289H21.86M22.2 20l-.367-2.714c-.04-.303-.42-.536-.873-.536h-1.92c-.453 0-.83.232-.873.536L17.8 20h4.4zm-4.157 9.636h4.01m-4.439-1.831h4.868m-5.297-1.829h5.725m-6.153-1.831h6.582m-7.011-1.829h7.44" stroke="#fff" stroke-linecap="round" stroke-linejoin="round"/></svg>