<svg width="40" height="40" viewBox="0 0 40 40" fill="none" xmlns="http://www.w3.org/2000/svg"><rect width="40" height="40" rx="20" fill="#C36800"/><path d="M14.44 16.609l11.17-.088a.62.62 0 00.585-.43l.53-1.65a5.678 5.678 0 00-.045-3.67c-.356-.98-.972-1.854-2.003-2.321-2.705-1.226-3.695.444-4.677.444-.982 0-1.973-1.67-4.678-.444-.983.445-1.588 1.26-1.95 2.185a5.667 5.667 0 00-.088 3.82l.561 1.725c.084.257.325.43.596.428l-.001.001zM18.233 8.2c2.295.976 2.988 1.951 2.988 1.951m4.448 13.571c.145-.296.286-.592.406-.91a.566.566 0 00-.53-.765h-1.467a1.182 1.182 0 01-1.173-1.024l-.162-1.206a1.183 1.183 0 00-1.173-1.025h-3.14c-.593 0-1.092.438-1.172 1.025l-.163 1.206a1.183 1.183 0 01-1.172 1.024h-1.469a.566.566 0 00-.529.766c.12.318.261.614.407.91.347.705.72 1.405.908 2.38.285 1.47.764 4.774 1.684 5.518.92.744 1.488.294 1.488-.508s-.331-5.258 1.587-5.258c1.917 0 1.586 4.456 1.586 5.258 0 .802.568 1.253 1.488.508.92-.743 1.399-4.048 1.684-5.518.19-.974.562-1.675.908-2.38m-11.332 0c-.76-1.349-5.333 0-5.333 0" stroke="#fff" stroke-linecap="round" stroke-linejoin="round"/><path d="M25.667 23.723v-.002c.765-1.346 5.333.002 5.333.002" stroke="#fff" stroke-linecap="round" stroke-linejoin="round"/></svg>