<svg width="40" height="40" viewBox="0 0 40 40" fill="none" xmlns="http://www.w3.org/2000/svg"><rect width="40" height="40" rx="20" fill="#C36800"/><path d="M23.446 14.685c2.487 1.165 4.191 3.55 4.191 6.305m-11.081-6.305c-2.487 1.165-4.192 3.55-4.192 6.305" stroke="#fff" stroke-linecap="round" stroke-linejoin="round"/><path d="M12.576 24.882c-.831 0-.756 2.315-.756 2.669 0 .354-.27.553-.71.224-.438-.328-.718-1.778-.802-2.435-.084-.656-.766-1.373-.766-2.305 0-.932.645-2.176 1.373-2.176s1.018.302 1.662.302c.643 0 .933-.302 1.662-.302.728 0 1.372 1.243 1.372 2.176s-.682 1.649-.766 2.305c-.083.657-.364 2.108-.803 2.435-.439.328-.71.13-.71-.224s.076-2.669-.755-2.669h-.001zM20 24.875c-.83 0-.755 2.314-.755 2.669 0 .354-.27.552-.71.224-.439-.328-.719-1.779-.802-2.435-.084-.656-.766-1.373-.766-2.305 0-.933.644-2.176 1.373-2.176.73 0 1.018.302 1.662.302.644 0 .934-.302 1.662-.302.728 0 1.372 1.244 1.372 2.175 0 .932-.681 1.65-.765 2.306-.084.656-.364 2.107-.803 2.435-.439.329-.71.13-.71-.224 0-.355.076-2.67-.755-2.67H20zm7.4.006c-.831 0-.756 2.315-.756 2.669 0 .354-.27.553-.71.224-.438-.328-.718-1.778-.802-2.435-.084-.656-.766-1.373-.766-2.305 0-.932.644-2.176 1.373-2.176.728 0 1.017.302 1.662.302.644 0 .933-.302 1.662-.302.728 0 1.372 1.243 1.372 2.176s-.682 1.65-.766 2.305c-.084.657-.364 2.108-.802 2.436-.44.328-.71.13-.71-.225 0-.354.076-2.669-.755-2.669H27.4zM16.556 14.685a3.016 3.016 0 01.714-2.462c.638-.745 1.624-1.223 2.731-1.223 1.922 0 3.482 1.441 3.482 3.22 0 .157-.013.313-.036.465-.167 1.065-.898 1.96-1.903 2.42a3.703 3.703 0 01-1.542.333c-1.752 0-3.201-1.196-3.445-2.754l-.001.002z" stroke="#fff" stroke-linecap="round" stroke-linejoin="round"/><path d="M18.683 14.244l.901 1.032 1.15-1.317.911-1.042M7 24.864l.741-.244a.51.51 0 01.609.227c.16.296.373.793.536 1.541.527 2.102 1.922 3.163 3.536 2.325a.368.368 0 01.337 0c1.614.838 3.008-.224 3.536-2.325.528 2.102 1.923 3.163 3.536 2.325a.368.368 0 01.338 0c1.613.838 3.009-.224 3.536-2.325.528 2.102 1.922 3.163 3.536 2.325a.368.368 0 01.337 0c1.614.838 3.008-.224 3.536-2.325.163-.75.376-1.246.536-1.54a.513.513 0 01.609-.228l.741.244" stroke="#fff" stroke-linecap="round" stroke-linejoin="round"/></svg>