<svg width="34" height="34" viewBox="0 0 34 34" fill="none" xmlns="http://www.w3.org/2000/svg"><rect width="34" height="34" rx="17" fill="#C36800"/><path d="M8.566 15.15c0 .213.024.37.07.47a.41.41 0 00.26.2c.134.04.344.06.63.06.02 0 .03.02.03.06 0 .04-.01.06-.03.06-.273 0-.486-.003-.64-.01l-.87-.01-.73.01c-.133.007-.313.01-.54.01-.02 0-.03-.02-.03-.06 0-.04.01-.06.03-.06.214 0 .367-.017.46-.05a.3.3 0 00.2-.19c.034-.1.05-.25.05-.45v-4.63c0-.2-.016-.347-.05-.44a.3.3 0 00-.2-.19c-.1-.04-.253-.06-.46-.06-.02 0-.03-.02-.03-.06 0-.04.01-.06.03-.06l.53.01c.307.013.55.02.73.02.16 0 .35-.01.57-.03a9.324 9.324 0 01.79-.03c.68 0 1.217.143 1.61.43.394.28.59.717.59 1.31 0 .413-.106.763-.32 1.05a2 2 0 01-.83.65c-.333.147-.676.22-1.03.22-.18 0-.336-.017-.47-.05-.013 0-.02-.017-.02-.05 0-.02.004-.04.01-.06.014-.02.027-.027.04-.02.1.027.214.04.34.04.307 0 .56-.143.76-.43.207-.287.31-.693.31-1.22s-.113-.933-.34-1.22c-.22-.287-.543-.43-.97-.43-.186 0-.313.043-.38.13-.066.087-.1.257-.1.51v4.57zm5.638.04c0 .207.016.357.05.45a.3.3 0 00.19.19c.1.033.256.05.47.05.02 0 .03.02.03.06 0 .04-.01.06-.03.06-.22 0-.394-.003-.52-.01l-.76-.01-.74.01c-.134.007-.314.01-.54.01-.014 0-.02-.02-.02-.06 0-.04.006-.06.02-.06.213 0 .37-.017.47-.05a.3.3 0 00.2-.19c.04-.1.06-.25.06-.45v-4.63c0-.2-.02-.347-.06-.44a.3.3 0 00-.2-.19c-.1-.04-.257-.06-.47-.06-.014 0-.02-.02-.02-.06 0-.04.006-.06.02-.06l.54.01c.306.013.553.02.74.02.206 0 .463-.007.77-.02l.51-.01c.02 0 .03.02.03.06 0 .04-.01.06-.03.06-.207 0-.36.02-.46.06a.33.33 0 00-.2.21c-.034.093-.05.24-.05.44v4.61zm5.358-5.55c.293 0 .6.027.92.08.32.047.57.11.75.19.06.02.096.047.11.08a.4.4 0 01.05.15l.12 1.39c0 .02-.017.033-.05.04-.034.007-.054-.003-.06-.03-.227-.527-.53-.933-.91-1.22a2.13 2.13 0 00-1.32-.43c-.66 0-1.17.243-1.53.73-.36.487-.54 1.14-.54 1.96 0 .613.096 1.173.29 1.68.2.507.476.91.83 1.21.36.293.766.44 1.22.44.426 0 .806-.14 1.14-.42.34-.287.643-.72.91-1.3.006-.027.026-.037.06-.03.04.007.06.02.06.04l-.15 1.36a.406.406 0 01-.05.16c-.014.02-.05.043-.11.07a5.23 5.23 0 01-1.83.33c-.814 0-1.494-.16-2.04-.48-.547-.327-.95-.737-1.21-1.23-.254-.5-.38-1.02-.38-1.56 0-.633.17-1.193.51-1.68a3.451 3.451 0 011.37-1.13 4.31 4.31 0 011.84-.4zm9.119 6.24c.02 0 .03.02.03.06 0 .04-.01.06-.03.06h-1.12c-.107 0-.197.003-.27.01a1.93 1.93 0 01-.18.01.545.545 0 01-.28-.07 1.806 1.806 0 01-.28-.28c-.107-.133-.3-.39-.58-.77a1.936 1.936 0 00-.12-.15 6.059 6.059 0 00-.14-.2l-1.31-1.76-.22.22v2.18c0 .207.017.357.05.45a.3.3 0 00.19.19c.1.033.257.05.47.05.027 0 .04.02.04.06 0 .04-.013.06-.04.06-.22 0-.393-.003-.52-.01l-.75-.01-.74.01c-.133.007-.313.01-.54.01-.013 0-.02-.02-.02-.06 0-.04.007-.06.02-.06.213 0 .37-.017.47-.05a.3.3 0 00.2-.19c.04-.1.06-.25.06-.45v-4.63c0-.2-.02-.347-.06-.44a.3.3 0 00-.2-.19c-.093-.04-.243-.06-.45-.06-.02 0-.03-.02-.03-.06 0-.04.01-.06.03-.06l.53.01c.307.013.55.02.73.02.2 0 .453-.007.76-.02l.51-.01c.02 0 .03.02.03.06 0 .04-.01.06-.03.06-.207 0-.36.02-.46.06a.365.365 0 00-.2.21c-.033.093-.05.24-.05.44v2.12l1.88-1.92c.193-.193.29-.37.29-.53a.313.313 0 00-.16-.28c-.107-.067-.257-.1-.45-.1-.02 0-.03-.02-.03-.06 0-.04.01-.06.03-.06l.47.01a18.136 18.136 0 001.67 0l.45-.01c.02 0 .03.02.03.06 0 .04-.01.06-.03.06-.307 0-.643.09-1.01.27-.367.173-.7.407-1 .7l-1.13 1.15 1.48 2c.433.62.757 1.06.97 1.32.22.253.397.413.53.48.133.06.303.09.51.09zm-10.474 10c.02 0 .03.02.03.06 0 .04-.01.06-.03.06l-.89-.01-.71.01c-.08 0-.133-.01-.16-.03-.02-.02-.03-.073-.03-.16v-.68c-.353.34-.706.59-1.06.75-.353.16-.74.24-1.16.24-.433 0-.83-.08-1.19-.24a2.065 2.065 0 01-.84-.7c-.206-.3-.31-.647-.31-1.04v-3.58c0-.2-.016-.347-.05-.44a.3.3 0 00-.2-.19c-.1-.04-.253-.06-.46-.06-.02 0-.03-.02-.03-.06 0-.04.01-.06.03-.06l.53.01c.307.013.55.02.73.02.2 0 .454-.007.76-.02l.52-.01c.014 0 .02.02.02.06 0 .04-.006.06-.02.06-.206 0-.36.02-.46.06-.1.04-.17.11-.21.21a1.41 1.41 0 00-.05.44v3.21c0 .62.147 1.097.44 1.43.3.333.7.5 1.2.5.32 0 .624-.07.91-.21.287-.14.587-.36.9-.66v-4.27c0-.2-.016-.347-.05-.44a.33.33 0 00-.2-.21c-.093-.04-.246-.06-.46-.06-.013 0-.02-.02-.02-.06 0-.04.007-.06.02-.06l.53.01c.294.013.527.02.7.02.194 0 .437-.007.73-.02l.54-.01c.02 0 .03.02.03.06 0 .04-.01.06-.03.06-.206 0-.36.02-.46.06a.331.331 0 00-.21.19 1.41 1.41 0 00-.05.44v4.63c0 .2.017.35.05.45.04.093.107.157.2.19.1.033.257.05.47.05zm2.478-.73c0 .213.024.37.07.47a.41.41 0 00.26.2c.134.04.344.06.63.06.02 0 .03.02.03.06 0 .04-.01.06-.03.06-.273 0-.486-.003-.64-.01l-.87-.01-.73.01c-.133.007-.313.01-.54.01-.02 0-.03-.02-.03-.06 0-.04.01-.06.03-.06.214 0 .367-.017.46-.05a.3.3 0 00.2-.19c.034-.1.05-.25.05-.45v-4.63c0-.2-.016-.347-.05-.44a.3.3 0 00-.2-.19c-.1-.04-.253-.06-.46-.06-.02 0-.03-.02-.03-.06 0-.04.01-.06.03-.06l.53.01c.307.013.55.02.73.02.16 0 .35-.01.57-.03a9.287 9.287 0 01.79-.03c.68 0 1.217.143 1.61.43.394.28.59.717.59 1.31 0 .413-.106.763-.32 1.05a2 2 0 01-.83.65c-.333.147-.676.22-1.03.22-.18 0-.336-.017-.47-.05-.013 0-.02-.017-.02-.05 0-.02.004-.04.01-.06.014-.02.027-.027.04-.02.1.027.214.04.34.04.307 0 .56-.143.76-.43.207-.287.31-.693.31-1.22s-.113-.933-.34-1.22c-.22-.287-.543-.43-.97-.43-.186 0-.313.043-.38.13-.066.087-.1.257-.1.51v4.57z" fill="#fff"/></svg>