<svg width="40" height="40" viewBox="0 0 40 40" fill="none" xmlns="http://www.w3.org/2000/svg"><rect width="40" height="40" rx="20" fill="#C36800"/><path d="M26.675 13.097c.604 1.15.821 2.536.866 3.744.127 3.399-1.631 4.462-2.184 7.353-.372 1.947-.996 6.32-2.197 7.305-1.201.985-1.942.388-1.942-.673s.432-6.961-2.07-6.961-2.069 5.9-2.069 6.961-.742 1.658-1.942.673c-1.201-.985-1.825-5.358-2.197-7.305a8.21 8.21 0 00-.211-.855m-.862-2.061c-.604-1.236-1.187-2.429-1.112-4.437.077-2.084.668-4.702 2.877-5.716 3.19-1.466 4.357.532 5.516.532 1.159 0 2.327-1.998 5.516-.532.211.097.406.208.589.331m-8.19-.633c2.707 1.168 3.525 2.335 3.525 2.335" stroke="#fff" stroke-linecap="round" stroke-linejoin="round"/><path d="M25.253 11.456c.445-.729.683-1.861.719-3.456.094 3.1.9 4.392 2.375 4.472-.726.049-1.281.258-1.672.625-.433.404-.665 1.002-.702 1.789-.102-1.548-.895-2.342-2.381-2.407.716-.052 1.268-.38 1.66-1.023zM10.001 25.237l-.013 1.002-.017 1.006" stroke="#fff" stroke-linecap="round" stroke-linejoin="round"/><path d="M9 26.226l.988.013.993.017m19.04-12.837l-.012 1.002-.018 1.006" stroke="#fff" stroke-linecap="round" stroke-linejoin="round"/><path d="M29.02 14.408l.988.013.992.017m-19.133 6.84c.252-.394.39-.897.417-1.507.107 1.64.953 2.475 2.522 2.546-.982.066-1.671.408-2.077 1.022-.264.398-.407.91-.434 1.535-.107-1.64-.953-2.476-2.522-2.546.996-.066 1.692-.418 2.094-1.049v0z" stroke="#fff" stroke-linecap="round" stroke-linejoin="round"/></svg>