<svg width="40" height="40" viewBox="0 0 40 40" fill="none" xmlns="http://www.w3.org/2000/svg"><rect width="40" height="40" rx="20" fill="#C36800"/><path d="M23.466 15.611c1.039 0 2.087-1.708 4.949-.455 1.98.868 2.51 3.105 2.58 4.886.112 2.904-1.465 3.815-1.96 6.286-.333 1.664-.893 5.402-1.97 6.244-1.078.841-1.742.332-1.742-.576 0-.908.387-5.95-1.857-5.95-2.244 0-1.856 5.043-1.856 5.95s-.665 1.417-1.742.576c-1.077-.842-1.637-4.58-1.97-6.244-.496-2.472-2.073-3.381-1.96-6.286.06-1.57.48-3.492 1.932-4.52.196-.14.411-.263.648-.367 2.861-1.253 3.909.455 4.948.455v.001zm-1.87-.712c2.428.998 3.162 1.996 3.162 1.996" stroke="#fff" stroke-linecap="round" stroke-linejoin="round"/><path d="M23.462 18.816c-.886 0-3.015-.974-4.393-.086-.16.103-.309.23-.444.386-1.362 1.566-.802 3.25-.02 4.733.99 1.877.637 7.511 1.874 6.413.633-.563-1.422-5.564 2.982-5.564m.001-5.882c.986 0 3.521-1.212 4.836.3 1.362 1.566.802 3.25.02 4.733-.99 1.877-.637 7.511-1.875 6.413-.632-.563 1.423-5.564-2.982-5.564" stroke="#fff" stroke-linecap="round" stroke-linejoin="round"/><path d="M20.148 24.885c-.199-2.343-.57-4.383-1.08-6.155a21.007 21.007 0 00-1.198-3.209c-1.169-2.46-2.68-4.19-4.363-5.372" stroke="#fff" stroke-linecap="round" stroke-linejoin="round"/><path d="M12.329 10.425l-3.21-2.046a.248.248 0 01-.076-.352l.624-.913a.268.268 0 01.364-.072l3.211 2.046a.784.784 0 01.236 1.109.836.836 0 01-.693.36.85.85 0 01-.454-.132h-.002z" stroke="#fff" stroke-linecap="round" stroke-linejoin="round"/></svg>