<svg width="40" height="40" viewBox="0 0 40 40" fill="none" xmlns="http://www.w3.org/2000/svg"><rect width="40" height="40" rx="20" fill="#C36800"/><path d="M20 24.253c-.024-1.225-.236-4.234-1.753-4.233-1.356 0-1.74 1.973-1.757 3.991-.004.45.304.839.726.907a6.533 6.533 0 002.303-.043.611.611 0 00.481-.608" stroke="#fff" stroke-linecap="round" stroke-linejoin="round"/><path d="M13.964 24.677c-.372-.078-.638-.427-.63-.827.061-2.936 1.223-3.473 1.577-3.473 1.457 0 1.576 3.088 1.579 4.01a.32.32 0 01-.246.317c-.836.18-1.597.114-2.28-.027h0z" stroke="#fff" stroke-linecap="round" stroke-linejoin="round"/><path d="M11.252 24.323a.812.812 0 01-.623-.826c.043-1.428.39-2.873 1.35-2.873 1.23 0 1.349 2.566 1.355 3.401a.318.318 0 01-.245.318 4.28 4.28 0 01-1.837-.02zm8.748-.07c.024-1.225.236-4.234 1.753-4.233 1.356 0 1.74 1.973 1.757 3.991.004.45-.304.839-.726.907a6.533 6.533 0 01-2.303-.043.611.611 0 01-.481-.608" stroke="#fff" stroke-linecap="round" stroke-linejoin="round"/><path d="M26.036 24.677c.372-.078.638-.427.63-.827-.061-2.936-1.223-3.473-1.577-3.473-1.457 0-1.576 3.088-1.579 4.01a.32.32 0 00.246.317c.837.18 1.597.114 2.28-.027h0z" stroke="#fff" stroke-linecap="round" stroke-linejoin="round"/><path d="M28.747 24.323a.812.812 0 00.623-.826c-.043-1.428-.39-2.873-1.35-2.873-1.23 0-1.348 2.566-1.354 3.401a.319.319 0 00.245.318 4.28 4.28 0 001.836-.02zm-18.117-.826s-3.153-6.335-2.554-7.22c.598-.884 2.395 1.643 3.712 1.138 1.317-.505 2.994-3.033 5.15-2.274 1.441.507 1.054 1.516 3.062 1.516" stroke="#fff" stroke-linecap="round" stroke-linejoin="round"/><path d="M29.37 23.497s3.153-6.334 2.554-7.218c-.598-.884-2.395 1.642-3.712 1.137-1.317-.506-2.994-3.033-5.15-2.274-1.44.507-1.054 1.516-3.061 1.516" stroke="#fff" stroke-linecap="round" stroke-linejoin="round"/></svg>