<svg width="40" height="40" viewBox="0 0 40 40" fill="none" xmlns="http://www.w3.org/2000/svg"><rect width="40" height="40" rx="20" fill="#C36800"/><path d="M12.727 12.234l-4.794.302M20 26.33c3.326 0 4.892-2.444 5.74-4.62.848-2.176 1.63-9.241 1.533-9.476C27.175 12 26.75 12 25.837 12c-.913 0-1.63.134-2.511.703-.881.57-.848 1.875-.979 2.679-.13.803-.424 1.406-.685 1.708-.26.301-.652 1.172-.685 1.54-.033.367-.032 2.678-.13 3.247-.098.57-.849.636-.849.636s-.75-.067-.848-.636c-.097-.569-.097-2.879-.13-3.247-.033-.37-.424-1.24-.685-1.54-.262-.3-.555-.904-.685-1.708-.13-.804-.098-2.11-.979-2.679-.878-.569-1.596-.703-2.509-.703-.913 0-1.337 0-1.435.234-.098.235.685 7.3 1.533 9.476.848 2.176 2.413 4.62 5.74 4.62h0z" stroke="#fff" stroke-miterlimit="10"/><path d="M26.36 12.268s-.392.535-.424 1.54c-.032 1.003-.914 7.633-2.512 9.173-1.598 1.54-2.772 1.54-3.424 1.54-.652 0-1.827 0-3.424-1.54-1.598-1.54-2.479-8.169-2.512-9.174-.032-1.004-.423-1.54-.423-1.54m13.632-.033l4.794.302" stroke="#fff" stroke-miterlimit="10"/><path d="M20 29.209s1.142 0 3.054-.674c2.11-.743 4.35-2.07 5.393-3.11 1.044-1.037 3.36-4.921 3.946-7.231.588-2.31.946-5.357.131-5.658-.816-.302-1.207 1.072-1.664 2.075-.456 1.005-2.38 6.261-2.87 7.232-.488.97-2.446 3.215-3.88 4.487-1.435 1.272-4.11 1.239-4.11 1.239s-2.674.033-4.108-1.24c-1.435-1.271-3.392-3.514-3.88-4.486-.49-.97-2.414-6.228-2.87-7.232-.459-1.004-.85-2.377-1.666-2.075-.816.301-.456 3.348.13 5.658.588 2.31 2.904 6.194 3.947 7.231 1.044 1.038 3.282 2.366 5.393 3.11 1.912.674 3.054.674 3.054.674z" stroke="#fff" stroke-miterlimit="10"/><path d="M29.322 24.326s-.842 2.305-1.56 2.506c-.718.201-1.164.013-1.705.312-.54.3-1.198.96-1.361 1.462-.163.502-2.316 1.172-2.805 1.305-.489.134-1.044.1-1.222 0-.18-.1-.571-.2-.669-.2-.098 0-.489.1-.668.2-.18.101-.734.134-1.223 0-.489-.134-2.642-.803-2.805-1.305-.162-.502-.82-1.164-1.361-1.462-.541-.298-.987-.11-1.704-.312-.718-.201-1.56-2.506-1.56-2.506" stroke="#fff" stroke-miterlimit="10"/></svg>