<svg xmlns="http://www.w3.org/2000/svg" width="20.001" height="20" viewBox="0 0 20.001 20"><defs><style>.a{fill:#fff}</style></defs><path class="a" d="M20.005 7.5V5a2 2 0 00-2-2h-1V1.5a1.5 1.5 0 00-3 0V3h-8V1.5a1.5 1.5 0 00-3 0V3h-1a2 2 0 00-2 2v13a2 2 0 002 2h16a2 2 0 002-2V8.5zm-5-6a.5.5 0 011 0v4a.5.5 0 01-1 0v-4zm-11 0a.5.5 0 011 0v4a.5.5 0 01-1 0v-4zm-2 2.5h1v1.5a1.5 1.5 0 003 0V4h8v1.5a1.5 1.5 0 003 0V4h1a1 1 0 011 1v2.5h-18V5a1 1 0 011-1zm17 14a1 1 0 01-1 1h-16a1 1 0 01-1-1V8.5h18z"/><path class="a" d="M8.721 17.036a.5.5 0 01-.413-.218l-2.28-3.344a.5.5 0 01.826-.564l1.837 2.694a21.771 21.771 0 014.439-5.059.5.5 0 11.622.783 20.892 20.892 0 00-4.594 5.452.5.5 0 01-.414.256z"/></svg>