<svg xmlns="http://www.w3.org/2000/svg" width="90" height="16" viewBox="0 0 90 16"><defs><style>.a{fill:#dbd7ce}</style></defs><path class="a" d="M0 7.55h25.909v1H0zm64.091.258H90v1H64.091z"/><path class="a" d="M28.266 16a1.56 1.56 0 01-1.149-.534 2.776 2.776 0 01-.677-1.92 4.9 4.9 0 01.351-1.669 7.931 7.931 0 011.2-2.12 17.16 17.16 0 01-.661-1.293 13.065 13.065 0 01-1.423.086.5.5 0 010-1c.373 0 .752-.022 1.13-.06a2.12 2.12 0 01.226-1.446 1.356 1.356 0 011.151-.615 1.372 1.372 0 011.4 1.035 1.387 1.387 0 01-.659 1.607 2.562 2.562 0 01-.772.274c.1.206.211.417.327.632a7.217 7.217 0 011.256-.962 11.812 11.812 0 011.55-.813q.412-.174.837-.309a8.822 8.822 0 011.26-.305.5.5 0 01.58.5v2a4.212 4.212 0 011.6-2.342 1.123 1.123 0 01.91-.029c1 .405 1.023 2.019 1.041 3.315 0 .27.006.528.02.722l.044-.074c.214-.36.41-.735.606-1.109a15.309 15.309 0 011.11-1.888 2.934 2.934 0 011.053-.949.784.784 0 01.809 0 .891.891 0 01.362.635 7.653 7.653 0 01.061 1.3 4.525 4.525 0 00.157 1.555.529.529 0 00.158.265c.013 0 .09 0 .334-.172a12.043 12.043 0 002.007-1.822l.242-.263a4.968 4.968 0 001.072-1.462.5.5 0 01.967.212c-.092 1.2.017 3.088.547 3.517a1.5 1.5 0 002.031-.315 5.437 5.437 0 001.749-3.558l.029-.812c.029-.848.061-1.656.113-2.39a8.76 8.76 0 01.128-1.32A5.817 5.817 0 0151.817.27a.5.5 0 01.922.377 13.835 13.835 0 00-.41 1.627c-.047.368-.084.768-.114 1.176-.009.289-.009.6-.008.964s0 .814-.009 1.34l-.017.671a9.223 9.223 0 00.562 4.409c.2.38.429.567.555.581.082 0 .2-.1.256-.167a16.625 16.625 0 002.229-3.343.5.5 0 01.236-.727c.342-.954.943-2.183 1.959-2.22a1.114 1.114 0 011.079.527 1.909 1.909 0 01-.165 1.829 2.413 2.413 0 01-1.809.787c.027.066.055.136.083.212.343.912.72 1.446 1.119 1.587.529.183 1.274-.256 2.14-.767a7.255 7.255 0 013.669-1.324.5.5 0 010 1 6.5 6.5 0 00-3.161 1.185c-1.036.612-2.015 1.19-2.981.849a2.971 2.971 0 01-1.588-1.845 23.448 23.448 0 01-2.052 2.9 1.26 1.26 0 01-1.125.51 1.925 1.925 0 01-1.328-1.1 5.9 5.9 0 01-.6-1.981 7.3 7.3 0 01-1.24 1.58 2.445 2.445 0 01-3.356.374 3.947 3.947 0 01-.925-2.687c-.1.111-.2.219-.3.324l-.233.252a13.02 13.02 0 01-2.172 1.969 1.4 1.4 0 01-1.22.305 1.3 1.3 0 01-.789-.876 5.336 5.336 0 01-.215-1.9c0-.31.006-.606-.019-.89a2.349 2.349 0 00-.457.494 14.284 14.284 0 00-1.034 1.765c-.2.391-.409.78-.632 1.155a1.913 1.913 0 01-.549.652.816.816 0 01-.593.154c-.18-.027-.609-.167-.728-.885a7.82 7.82 0 01-.054-1.065c-.01-.672-.031-2.246-.415-2.4a.124.124 0 00-.115.008c-.227.1-.707.582-1.371 2.592a20.758 20.758 0 00-.66 2.461.51.51 0 01-.539.4.5.5 0 01-.451-.5V7.7c-.177.044-.356.1-.535.152q-.381.122-.753.278a10.926 10.926 0 00-1.421.746 6.36 6.36 0 00-1.142.888 5.442 5.442 0 00-.131.132c.815 1.509 1.558 3.187.664 4.958a2.366 2.366 0 01-.768.888 1.491 1.491 0 01-.84.258zm.254-5.274a6.865 6.865 0 00-.793 1.5 3.9 3.9 0 00-.287 1.326 1.781 1.781 0 00.415 1.235.494.494 0 00.69.116 1.376 1.376 0 00.434-.51c.616-1.217.187-2.42-.464-3.667zm-.051-4.3h-.017a.377.377 0 00-.348.158 1.253 1.253 0 00-.071.8 1.779 1.779 0 00.626-.188.383.383 0 00.191-.463.4.4 0 00-.381-.305zm29.568-.472h-.025c-.139.006-.459.145-.878 1.124a1.763 1.763 0 00.9-.28 1.051 1.051 0 00.163-.8c-.02-.032-.094-.042-.16-.042z"/><path class="a" d="M46.423 5.477a.523.523 0 01-.077-.006.5.5 0 01-.418-.57c.091-.594.272-1.545.272-1.545l.983.187s-.178.929-.267 1.509a.5.5 0 01-.493.425z"/></svg>