<svg width="22" height="6" viewBox="0 0 22 6" fill="none" xmlns="http://www.w3.org/2000/svg">
<g opacity="0.2">
<path d="M5.77729 2.59823L0.489953 0.0282261C0.169508 -0.121774 -0.130909 0.318226 0.0593547 0.668226L1.1709 2.76823C1.25101 2.91823 1.25101 3.08823 1.1709 3.23823L0.0593547 5.32823C-0.130909 5.67823 0.169508 6.12823 0.489953 5.96823L5.77729 3.39823C5.9976 3.25823 6.0677 2.96823 5.9275 2.74823C5.88745 2.68823 5.83738 2.63823 5.77729 2.59823Z" fill="#01A6FF"/>
</g>
<g opacity="0.6">
<path d="M13.7773 2.60074L8.48995 0.0337881C8.16951 -0.126022 7.86909 0.313456 8.05935 0.673029L9.1709 2.77054C9.25101 2.92036 9.25101 3.09016 9.1709 3.23998L8.05935 5.3275C7.86909 5.67709 8.16951 6.12656 8.48995 5.96674L13.7773 3.39979C13.9976 3.25996 14.0677 2.9703 13.9275 2.75056C13.8874 2.69063 13.8374 2.64069 13.7773 2.60074Z" fill="#01A6FF"/>
</g>
<path d="M21.7773 2.60074L16.49 0.0337881C16.1695 -0.126022 15.8691 0.313456 16.0594 0.673029L17.1709 2.77054C17.251 2.92036 17.251 3.09016 17.1709 3.23998L16.0594 5.3275C15.8691 5.67709 16.1695 6.12656 16.49 5.96674L21.7773 3.39979C21.9976 3.25996 22.0677 2.9703 21.9275 2.75056C21.8874 2.69063 21.8374 2.64069 21.7773 2.60074Z" fill="#01A6FF"/>
</svg>
