<svg width="46" height="46" viewBox="0 0 46 46" fill="none" xmlns="http://www.w3.org/2000/svg">
<rect width="46" height="46" rx="23" fill="url(#paint0_linear_2008_932)"/>
<path d="M40 7.5C44.2844 11.7844 46 17.0953 46 23.1543C46 29.2134 43.593 35.0243 39.3087 39.3087C35.0243 43.5931 29.2134 46 23.1543 46C17.0953 46 11.2844 43.7844 7 39.5C7 39.5 8.37183 26.6484 23.1543 23.1543C37.9368 19.6603 40 7.5 40 7.5Z" fill="url(#paint1_linear_2008_932)"/>
<path d="M40 8.5C40 8.5 37.9368 19.9003 23.1543 23.1759C8.37183 26.4516 7 38.5 7 38.5" stroke="url(#paint2_linear_2008_932)" stroke-linecap="round"/>
<path d="M37.8701 20.9621C37.8415 20.5425 37.6443 20.1509 37.3242 19.874C36.9927 19.6418 36.9242 19.7761 36.8327 19.309C36.7698 19.0628 36.6012 18.8559 36.3698 18.7412C36.1611 18.6097 36.0783 18.6405 35.9583 18.4447C35.8897 18.3328 35.9154 18.1734 35.8325 18.0587C35.661 17.8181 35.3953 17.8265 35.1695 17.6895C34.9695 17.53 34.798 17.3426 34.658 17.1301C34.4037 16.8308 34.1836 16.9343 33.8893 16.8056C33.6635 16.7049 33.6092 16.4224 33.3835 16.3441C33.032 16.221 32.6776 16.5706 32.5547 16.0448C32.5176 15.8853 32.5233 15.7175 32.4718 15.5637C32.3547 15.2057 31.8517 15.077 31.5202 15.0238C30.6943 14.8952 30.0856 15.3287 29.3084 15.3399C29.0026 15.3455 28.7025 15.2112 28.3967 15.2308C28.0167 15.2784 27.6852 15.5105 27.5137 15.849C27.5051 15.8658 27.4994 15.8853 27.4908 15.9021C27.468 15.9357 27.4451 15.9721 27.428 16.0112C27.2651 16.3441 27.1794 16.7105 27.1765 17.0825C27.1479 17.6587 27.1936 18.2349 27.3137 18.7971C27.3394 18.9594 27.3965 19.1132 27.488 19.2502C27.5823 19.3901 27.7452 19.4684 27.9138 19.4544C28.0567 19.4069 28.191 19.3426 28.3139 19.2614C28.7568 19.0656 28.6282 19.8209 28.7111 20.0446C28.8797 20.5005 29.5827 20.797 29.937 20.3663C29.937 20.3663 29.937 20.3663 29.9399 20.3607C29.9685 20.3383 29.9971 20.3103 30.0228 20.2796C30.1628 20.1649 30.3228 20.1565 30.4657 20.3271C30.6886 20.5929 30.6086 21.018 31.1173 20.9956C31.4659 20.9789 31.4231 21.1914 31.4574 21.4404C31.4602 21.6166 31.5231 21.7872 31.6374 21.9243C31.826 22.0921 32.1289 21.955 32.3032 22.1005C32.4433 22.2152 32.329 22.3298 32.3804 22.4641C32.4233 22.5676 32.7347 22.8837 32.8348 23.0403C32.7405 23.113 32.669 23.2109 32.6262 23.3256C32.5833 23.3816 32.5547 23.4459 32.5319 23.513C32.2661 23.6305 32.0003 23.7536 31.7431 23.8878C31.5859 23.9717 31.4259 24.0696 31.3945 24.2291C31.3773 24.2459 31.363 24.2654 31.3488 24.285C31.1887 24.1172 30.9915 23.9857 30.7658 23.913C30.2485 23.7731 29.6284 23.941 29.0997 23.9745C28.4739 24.0389 27.8623 24.2151 27.3022 24.4948C26.8993 24.6766 26.5849 24.9955 26.4049 25.3843C26.3706 25.443 26.3392 25.5018 26.3106 25.5633C26.3106 25.5353 26.3106 25.5101 26.3106 25.4822C26.3192 25.2053 26.2334 24.9647 25.882 24.7913C25.4104 24.5619 24.9132 24.7186 24.4274 24.7298C23.7358 24.7298 23.05 24.8109 22.3784 24.9787C22.0783 25.0626 21.9154 24.7214 21.6983 24.5815C21.4496 24.4472 21.1782 24.3577 20.8981 24.3158C20.358 24.2039 20.4237 23.7228 20.1494 23.3732C19.9751 23.127 19.715 22.9564 19.4178 22.8893C18.8663 22.755 18.2576 22.8893 17.7632 22.5564C17.6546 22.4809 17.5517 22.397 17.4546 22.3075C17.2288 22.0557 16.9316 21.8767 16.6001 21.7984C16.24 21.7341 15.8285 21.8711 15.4942 21.6977C15.2112 21.5523 15.0598 21.2474 14.8312 21.0432C14.6626 20.8949 14.4397 20.8166 14.211 20.8222C14.0624 20.8278 13.9196 20.8726 13.771 20.8642C13.2937 20.8418 13.0565 20.2684 12.6879 20.0334C12.2935 19.8069 11.8334 19.7146 11.3819 19.7733C10.7275 19.8237 10.5675 20.5341 9.94734 20.6991C9.49582 20.8194 8.89284 20.6376 8.52706 20.99C8.45275 21.0628 8.39846 21.1551 8.35559 21.2558C8.18984 21.4963 8.14984 21.8571 8.1184 22.1173C7.99552 23.0851 7.80405 24.5256 8.52706 25.3311C8.62136 25.4654 8.78996 25.5297 8.95285 25.4906C9.01001 25.4682 9.05002 25.4234 9.08431 25.3759C9.18147 25.3088 9.23291 25.1857 9.28721 25.0738C9.31007 25.0262 9.33865 24.9871 9.36437 24.9507C9.55297 24.8109 9.76445 24.9451 9.83303 25.2416C9.98163 25.9073 10.596 26.7968 11.4276 26.5479C11.4876 26.5311 11.5448 26.4779 11.602 26.4136C11.7163 26.3241 11.8249 26.1423 11.9392 26.0108C11.9963 25.9633 12.0535 25.9381 12.1163 25.9465C12.4393 26.0024 12.5021 26.7576 12.5593 26.9898C12.6393 27.4989 12.9622 27.9408 13.428 28.1786C13.6995 28.2905 13.8195 28.2261 13.9196 28.1003C14.0424 28.0135 14.111 27.8289 14.2625 27.6611C14.7197 27.2667 14.9969 27.7646 15.1369 28.2121C15.2913 28.7128 15.2684 29.6554 15.9171 29.8233C16.2029 29.8988 16.3886 29.8093 16.5287 29.6498C16.8173 29.4177 16.923 28.8974 17.1574 28.6205C17.2231 28.5674 17.2974 28.531 17.3888 28.5226C17.9204 28.4723 17.7632 29.5575 17.9175 29.8848C18.1747 30.5393 18.8777 30.9197 19.5835 30.7799C19.8693 30.7127 20.0636 30.5813 20.218 30.4134C20.5295 30.1365 20.6809 29.731 20.9867 29.4065C20.9953 29.3981 21.001 29.3925 21.0095 29.3841C21.1782 29.2191 21.4411 29.1883 21.644 29.3086C22.1555 29.689 21.7497 30.6344 22.5841 30.7743C23.31 30.8973 24.8189 31.2805 25.4076 30.6372C25.4104 30.6316 25.4133 30.626 25.4161 30.6232C25.4419 30.6009 25.4704 30.5785 25.4933 30.5533C25.6419 30.3519 25.7248 30.1142 25.7305 29.868C25.8362 29.0513 25.9677 28.2009 26.0963 27.3926C26.1449 27.8793 26.2477 28.3576 26.3192 28.8443C26.3849 29.3058 26.3906 29.7729 26.6707 30.1757C27.0079 30.6624 27.5023 30.668 28.0424 30.6009C28.6225 30.5141 29.1912 30.3771 29.7456 30.1897C30.1142 30.0806 30.48 30.0191 30.7258 29.7477C30.8229 29.6666 30.9087 29.5659 30.9715 29.4261C31.1401 29.0652 31.0716 28.6401 31.2059 28.2681C31.2516 28.1422 31.303 28.0443 31.3602 27.9744C31.5774 27.8149 31.8431 27.9772 32.1089 28.2905C32.5833 28.8499 33.1377 29.7421 33.8407 28.9869C33.9064 28.9282 33.9721 28.8611 34.0379 28.7744C34.6666 28.0107 35.0809 27.0989 35.241 26.1311C35.241 26.064 35.2581 25.9968 35.2838 25.9353C35.2895 25.9241 35.2953 25.9185 35.301 25.9073C35.4724 25.8374 35.6782 26.2206 35.7982 26.3073C36.064 26.5031 36.2869 26.3772 36.4698 26.1842C36.5698 26.0975 36.6584 25.9857 36.7355 25.8738C36.9727 25.5353 36.9413 25.1297 36.9956 24.7437C37.0385 24.4221 37.2185 24.12 37.2871 23.8011C37.3099 24.1368 37.3214 24.4752 37.3099 24.8109C37.4014 24.864 37.4928 24.8025 37.5614 24.713C37.6329 24.6654 37.6929 24.5731 37.7243 24.4892C37.9186 23.9438 37.9958 23.334 37.9987 22.7214C38.0101 22.1201 37.9472 21.5103 37.8558 20.9565L37.8701 20.9621ZM15.9085 22.4249C15.9428 22.4249 15.9743 22.4417 15.9971 22.4641C16.0114 22.4893 16.0171 22.5201 16.0143 22.548C16.0057 22.8333 15.9971 23.1186 15.9914 23.4039C15.9914 23.4431 15.9857 23.4795 15.9685 23.513C15.9485 23.541 15.92 23.5606 15.8914 23.5746C15.6085 23.6976 15.277 23.6025 15.1112 23.348C15.0141 23.1018 14.9598 22.8389 14.9598 22.5732C15.1884 22.3354 15.5828 22.3718 15.9142 22.4277L15.9085 22.4249ZM14.9512 22.562V22.5732C14.9512 22.5732 14.9455 22.5816 14.9398 22.5844L14.9512 22.562ZM10.2274 23.099C10.1674 22.8921 10.1617 22.6711 10.216 22.4613C9.92448 22.5452 9.89304 22.9256 9.83589 23.2165C9.75587 23.6137 9.52725 23.9689 9.1929 24.2123C9.17004 24.2347 9.13861 24.2459 9.10717 24.2459C9.04716 24.2403 9.02715 24.1703 9.01858 24.1144C8.94142 23.5494 8.89856 22.9816 8.89284 22.4138C8.88427 22.2515 8.90142 22.0921 8.94428 21.9355C9.05287 21.6557 9.28435 21.4376 9.57584 21.3481C9.86447 21.2614 10.1731 21.253 10.4674 21.3201C10.6018 21.3676 10.7504 21.3621 10.8818 21.3061C10.9933 21.2362 11.0304 21.0963 11.0933 20.9816C11.1161 20.9481 11.139 20.9145 11.1676 20.8865C11.4334 20.5929 11.8906 20.5649 12.1906 20.825C12.0535 20.6908 11.5762 21.0432 11.5162 21.1551C11.3305 21.4935 11.4876 21.7005 11.1276 21.997C10.9647 22.1313 10.7589 22.1928 10.6218 22.3578C10.436 22.5844 10.4674 22.9284 10.2217 23.1018L10.2274 23.099ZM12.3935 23.0599C12.1564 23.2725 11.6305 23.0319 11.4105 22.9256C11.3905 23.1858 11.602 25.7871 11.4191 25.8318C11.3162 25.843 11.2219 25.7843 11.1819 25.692C11.1476 25.5997 11.1219 25.5073 11.1047 25.4094C11.019 25.1102 10.7504 24.9004 10.6103 24.6207C10.5103 24.3829 10.4589 24.1256 10.456 23.8682C10.4274 23.6389 10.436 23.4039 10.4789 23.1774C10.5246 22.9452 10.6732 22.7466 10.8847 22.6347C11.0876 22.5424 11.3619 22.548 11.4848 22.3662C11.5677 22.2431 11.5877 22.039 11.7363 22.025C11.8191 22.0306 11.8963 22.0725 11.9449 22.1396C12.1478 22.3466 12.7222 22.769 12.3907 23.0655L12.3935 23.0599ZM12.3621 21.9578C12.1649 21.5131 12.4164 21.2054 12.8765 21.3928C13.2451 21.5802 13.6567 21.6725 14.071 21.6613C14.1596 21.6502 14.2482 21.6753 14.3196 21.7285C14.3854 21.8152 14.4111 21.9271 14.3854 22.0306L14.3254 22.6711C14.1053 22.7578 13.9138 22.6291 13.6995 22.6207C13.4938 22.6152 13.2994 22.7662 13.148 22.7634C12.8822 22.7578 12.485 22.2431 12.3592 21.9578H12.3621ZM13.7424 23.4767C13.5738 23.5214 13.4452 23.6557 13.4137 23.8263C13.388 23.9913 13.3909 24.1619 13.428 24.327C13.5509 25.1857 13.5852 26.0584 13.5309 26.9227C13.4109 26.8472 13.328 26.7269 13.2994 26.5898C13.0022 25.7927 12.7993 24.9619 12.6993 24.1172C12.665 23.734 12.6993 23.2893 13.0137 23.0627C13.328 22.8893 13.7081 22.8781 14.031 23.0347C14.1882 23.0907 15.0569 23.4011 14.6654 23.72C14.4511 23.8962 14.0053 23.4347 13.7452 23.4767H13.7424ZM15.6828 24.506C15.5713 24.5815 15.497 24.7018 15.4799 24.836C15.2684 25.7787 15.9085 26.7185 15.8714 27.6807C15.7685 27.7366 15.6599 27.6192 15.6028 27.5185C15.4056 27.1604 15.2198 26.7968 15.0426 26.4248C14.8912 26.1227 14.7683 25.8094 14.674 25.485C14.6026 25.2472 14.5883 24.9983 14.6311 24.7549C14.6797 24.5088 14.8397 24.299 15.0684 24.1871C15.237 24.1284 15.4141 24.1032 15.5913 24.1144C15.8542 24.1144 16.28 24.0864 16.4201 24.327C16.1972 24.4892 15.9114 24.3773 15.6771 24.5004L15.6828 24.506ZM16.6973 23.6361C16.5744 23.3172 16.5344 22.9732 16.5801 22.6347C16.743 22.7858 16.8887 22.9536 17.0087 23.141C17.1316 23.3284 17.3288 23.4571 17.5517 23.4962C17.9089 23.5214 18.189 23.1718 18.5462 23.1354C18.8977 23.141 19.2178 23.3396 19.3721 23.6529C19.5092 23.8766 19.6007 24.1228 19.6436 24.3801C19.2978 24.2542 19.1978 23.7648 18.8434 23.6529C18.6034 23.6053 18.3576 23.6753 18.1776 23.8375C17.6689 24.2095 17.0345 24.3549 16.7001 23.6389L16.6973 23.6361ZM18.9891 25.4906C18.752 25.5045 18.5319 25.6248 18.3947 25.815C18.3147 25.9717 18.2747 26.1423 18.2747 26.3157C18.2347 26.9003 18.2147 27.4821 18.2118 28.0667C17.7518 27.4597 17.7489 26.643 17.7632 25.8878C17.746 25.6584 17.7975 25.429 17.9175 25.2304C18.1518 24.9983 18.4862 24.8864 18.8177 24.9283C19.4235 24.9339 20.0236 25.0318 20.6009 25.2164C20.9352 25.2808 21.2096 25.5073 21.3268 25.8178C20.558 26.0472 19.7836 25.4094 18.9891 25.4878V25.4906ZM22.2641 29.0485C22.0926 28.6737 21.9212 28.2961 21.7497 27.9212C21.624 27.6891 21.5468 27.4345 21.5125 27.1744C21.5039 26.8639 21.6068 26.5563 21.8011 26.3101C21.9383 26.1283 22.3698 25.7815 22.3498 26.2094C22.3412 26.408 21.9326 26.7353 21.8869 27.0094C21.8411 27.4234 21.8926 27.8429 22.0412 28.2345C22.1326 28.5254 22.2355 28.8135 22.3527 29.096C22.327 29.1268 22.2812 29.0848 22.2641 29.0485ZM31.3173 25.9912C31.3173 26.0276 31.303 26.064 31.2802 26.0947C31.2316 26.1339 31.1601 26.1339 31.1116 26.0919C31.0658 26.05 31.0344 25.994 31.023 25.9353C30.9144 25.5857 31.083 25.2248 30.8087 24.9563C30.5572 24.7661 30.2314 24.6962 29.9199 24.7689C29.4941 24.8277 29.0826 24.8724 28.6596 24.9619C28.0109 25.1018 27.4994 25.2668 27.2508 25.7199C27.1479 25.9213 27.0908 26.1423 27.0879 26.3661C27.0908 26.4751 27.0765 26.5842 27.045 26.6905C27.0107 26.7968 26.9107 26.8723 26.7964 26.8779C26.7736 26.8779 26.7507 26.8695 26.7364 26.8555C26.7221 26.836 26.7135 26.808 26.7164 26.7828C26.7078 26.5143 26.7107 26.2458 26.725 25.9773C26.725 25.8094 26.7536 25.6416 26.8079 25.4822C27.0279 24.9256 27.7023 24.7074 28.2424 24.5871C28.8597 24.45 29.4912 24.3745 30.1228 24.3633C31.1373 24.3466 31.4259 25.1521 31.3202 25.9912H31.3173ZM35.6839 20.2208C35.8068 20.2432 35.9211 20.302 36.0068 20.3943C36.0897 20.4894 36.0983 20.6264 36.024 20.7299C35.9211 20.8502 35.7325 20.8222 35.5725 20.8222C35.5267 20.8222 35.4839 20.8222 35.4381 20.8194C35.2495 20.811 35.0581 20.7887 34.878 20.797C34.6951 20.8194 34.5294 20.9201 34.4265 21.0684C34.3151 21.211 34.235 21.3732 34.1207 21.5103C33.9636 21.6697 33.7978 21.8208 33.6235 21.9634C33.5292 22.0697 33.3949 22.1313 33.2491 22.1313C33.292 21.6697 33.5321 21.2474 33.9093 20.9705C34.3951 20.5649 35.0152 20.0726 35.6839 20.2264V20.2208ZM34.0864 17.0685C34.2093 17.0741 34.3236 17.1328 34.4008 17.2252C34.4437 17.2923 34.478 17.365 34.5094 17.4377C34.6294 17.6223 34.8123 17.7566 35.0266 17.8237C35.1352 17.8573 35.2381 17.9132 35.3238 17.9888C35.4096 18.0699 35.421 18.1985 35.3467 18.2936C35.281 18.344 35.201 18.3692 35.1181 18.3636C34.9923 18.372 34.8637 18.3943 34.7409 18.4251C34.558 18.4699 34.3808 18.5314 34.1808 18.5622C34.1093 18.5734 33.9607 18.6097 33.895 18.565C33.7378 18.4615 33.9007 18.481 33.8778 18.3552C33.8207 18.0363 33.5378 18.2853 33.3806 18.0727C33.3349 17.9944 33.3549 17.8965 33.4263 17.8405C33.5292 17.7538 33.9036 17.7426 33.775 17.5021C33.3749 17.4489 32.9691 17.4797 32.5833 17.5888H32.5804C32.5804 17.5888 32.5804 17.5888 32.5833 17.5888C32.5461 17.4965 32.6576 17.4126 32.7519 17.3706C33.1577 17.1468 33.6178 17.0405 34.0836 17.0629L34.0864 17.0685ZM33.1777 18.6685C33.1605 18.6545 33.1405 18.6405 33.1234 18.6265L33.0691 18.5817C33.0834 18.5845 33.0977 18.5901 33.112 18.5957C33.1377 18.6153 33.1605 18.6405 33.1748 18.6685H33.1777ZM32.2889 16.6238C32.389 16.6601 32.4947 16.6797 32.6004 16.6797C32.7062 16.6993 32.8148 16.8084 32.7548 16.8951L32.8948 16.8252C32.6662 16.9986 32.3804 17.0853 32.0918 17.0685C32.0546 17.0685 32.0175 17.0601 31.9889 17.0377C31.9632 17.0126 31.946 16.9818 31.9403 16.9482C31.9203 16.8895 31.9003 16.8308 31.8803 16.7748C31.8489 16.7021 31.8374 16.6266 31.8431 16.5483C31.8517 16.4699 31.9117 16.4056 31.9946 16.3944C32.1261 16.3888 32.1804 16.5566 32.2918 16.6238H32.2889ZM30.4486 15.6644C30.4943 15.628 30.56 15.6644 30.5972 15.7091C30.6343 15.7539 30.6658 15.8098 30.7229 15.821C30.7658 15.8238 30.8087 15.8154 30.8458 15.7902C31.1344 15.656 31.4516 15.5889 31.7688 15.5944C31.8174 15.5944 31.8774 15.6056 31.8974 15.6504C31.9089 15.6923 31.8889 15.7371 31.8489 15.7539C31.8089 15.7707 31.7688 15.7791 31.726 15.7791C31.4145 15.807 31.1144 15.9161 30.8629 16.0979C30.7143 16.2014 30.7086 16.2797 30.5515 16.1595C30.4572 16.0476 30.4086 15.9049 30.42 15.7595C30.4143 15.7259 30.4257 15.6895 30.4486 15.6644ZM28.814 16.3888C28.7139 16.4699 28.6425 16.579 28.5996 16.6993C28.491 17.0601 28.4482 17.4405 28.4768 17.8153C28.4768 17.9328 28.5311 18.1957 28.4682 18.302C28.3739 18.4587 28.291 18.4167 28.251 18.3132C28.2424 18.1146 28.2567 17.9132 28.2881 17.7174L28.2824 16.4224C28.2767 16.3581 28.2881 16.2937 28.3139 16.235C28.4167 16.0504 28.8168 16.2238 28.8854 15.9749C28.9426 15.7623 28.6997 15.7455 28.5568 15.7511C28.491 15.7511 28.1653 15.7259 28.2796 15.5917C28.3882 15.463 28.9283 15.5469 29.0797 15.5749C29.2312 15.6028 29.3055 15.7007 29.4255 15.7902C29.5741 15.8965 29.8085 15.8965 29.9399 16.028C30.24 16.3273 29.8056 16.3301 29.5655 16.2881C29.3112 16.2126 29.034 16.249 28.8083 16.3888H28.814ZM30.9287 17.365C30.8801 17.3342 30.8258 17.3147 30.7658 17.3063C30.6172 17.2951 30.5029 17.4461 30.4829 17.5888C30.48 17.7342 30.4943 17.8797 30.5229 18.0223C30.5286 18.358 30.4314 18.688 30.2428 18.9705C30.0828 19.2419 29.9771 19.5579 29.837 19.8432C29.8285 19.8684 29.8113 19.8908 29.7913 19.9076C29.7913 19.9076 29.7884 19.9076 29.7856 19.9076C29.7313 19.9299 29.6713 19.9048 29.6484 19.8516C29.6284 19.7985 29.6227 19.7425 29.6341 19.6866C29.6627 19.3398 29.657 18.6936 29.4884 18.3943C29.6656 18.3048 30.0028 18.2321 30.0028 17.9916C30.0028 17.751 29.7027 17.5944 29.677 17.3538C29.6313 16.9231 30.2 17.0238 30.4314 16.8867C30.5572 16.814 30.6143 16.7105 30.7458 16.6573C30.8944 16.6294 31.043 16.6126 31.1916 16.6098C31.223 16.828 31.343 17.0266 31.5259 17.158C31.6231 17.2279 31.7374 17.2755 31.8317 17.3482C31.9346 17.4154 31.9975 17.5272 32.0003 17.6447L31.9632 17.6587C31.5888 17.7846 31.243 17.53 30.9258 17.365H30.9287ZM31.3831 20.232C31.3602 20.3131 31.3116 20.4166 31.223 20.4027C31.1887 19.9327 31.0801 18.7524 31.5945 18.4727C31.7546 18.3776 31.9289 18.3048 32.1089 18.2601C32.5376 18.1706 32.7748 18.3384 33.0691 18.5817C32.9862 18.5678 33.0348 18.6713 32.9319 18.7076C32.689 18.7915 32.3604 18.5845 32.1289 18.6908C31.646 18.9146 31.5059 19.7929 31.3831 20.232ZM32.3318 21.2614C32.1661 21.5886 32.0146 21.4516 32.0175 21.1579C32.0175 20.9593 32.026 20.7607 32.0289 20.5649C32.0489 19.7705 32.1975 18.8978 33.1834 18.8475C33.2549 18.8447 33.2206 18.7412 33.1748 18.6685C33.2949 18.7328 33.4006 18.8167 33.4949 18.9118C33.6006 19.0572 33.5463 19.2055 33.7778 19.2782C33.9436 19.3146 34.1179 19.3062 34.2808 19.253C34.458 19.1887 34.6466 19.1607 34.8352 19.1663C35.1152 19.2167 35.1152 19.3929 34.8495 19.4265C34.6551 19.4516 34.5351 19.639 34.4551 19.8125C34.3265 20.095 34.1236 20.4222 33.7492 20.2768C33.4978 20.1817 33.3063 19.8153 32.9919 19.9943C32.529 20.2572 32.5404 20.8446 32.329 21.2614H32.3318ZM35.2152 25.2892C35.1581 25.6836 35.0724 26.0724 34.9638 26.4556C34.9238 26.587 34.8609 26.8807 34.7266 26.959C34.4237 27.1353 34.538 26.6094 34.578 26.4556C34.6837 26.0108 34.7437 25.5605 34.758 25.1046C34.7723 24.8193 35.0866 23.7172 34.778 23.5606C34.7151 23.5326 34.6494 23.5214 34.5808 23.5242C33.7835 23.5242 33.2091 24.2011 32.4461 24.3214C32.2375 24.3549 32.1146 24.327 32.0746 24.2654C32.0289 24.1927 32.1003 24.0696 32.2889 23.941C32.5461 23.7843 32.8262 23.6641 33.1177 23.5829C33.6949 23.3983 35.1552 22.5033 35.3267 23.5997C35.3781 24.1647 35.341 24.7353 35.2124 25.2892H35.2152ZM36.6527 24.0417C36.6298 24.0892 36.5812 24.1424 36.5327 24.12C36.5098 23.5829 36.7155 22.4977 36.1097 22.2012C35.8268 22.0641 35.2553 22.19 34.9552 22.2543C34.5637 22.341 34.195 22.5005 33.8693 22.7298C33.7207 22.8333 33.4806 22.9312 33.6064 22.6935C33.7064 22.5061 34.095 22.3354 34.2693 22.2124C34.4008 22.1229 34.5408 22.0473 34.6866 21.9858C35.1267 21.7984 36.0526 21.4851 36.4926 21.8124C37.0442 22.2236 36.9156 23.527 36.6498 24.0417H36.6527ZM37.2156 21.3565C37.2042 21.2026 37.1814 21.046 37.1528 20.8949C37.1385 20.8362 37.1042 20.7831 37.0585 20.7439C37.0099 20.7047 36.9384 20.7019 36.887 20.7383C36.8413 20.7747 36.8041 20.853 36.7527 20.825C36.7298 20.8082 36.7184 20.7831 36.7184 20.7579C36.7241 20.6152 36.787 20.481 36.8956 20.3831C36.9499 20.3243 37.0099 20.2684 37.0585 20.218C37.087 20.1873 37.1213 20.1621 37.1613 20.1453C37.2557 20.1229 37.3528 20.1593 37.4043 20.2376C37.4528 20.3159 37.4814 20.4054 37.49 20.4978C37.55 20.8949 37.5757 21.2949 37.5671 21.6949C37.3785 21.7397 37.2499 21.5215 37.2185 21.3593L37.2156 21.3565Z" fill="white"/>
<defs>
<linearGradient id="paint0_linear_2008_932" x1="0" y1="23" x2="46" y2="23" gradientUnits="userSpaceOnUse">
<stop stop-color="#C36800"/>
<stop offset="1" stop-color="#D88C32"/>
</linearGradient>
<linearGradient id="paint1_linear_2008_932" x1="47" y1="27" x2="7" y2="27" gradientUnits="userSpaceOnUse">
<stop stop-color="#C36800"/>
<stop offset="1" stop-color="#D88C32"/>
</linearGradient>
<linearGradient id="paint2_linear_2008_932" x1="40" y1="8.5" x2="9.03404" y2="40.029" gradientUnits="userSpaceOnUse">
<stop stop-color="#C36800"/>
<stop offset="0.495" stop-color="#FFF78C"/>
<stop offset="1" stop-color="#C36800"/>
</linearGradient>
</defs>
</svg>
