<svg xmlns="http://www.w3.org/2000/svg" xmlns:xlink="http://www.w3.org/1999/xlink" width="40" height="40" viewBox="0 0 40 40"><defs><style>.a{fill:#ca6716;}.b{fill:url(#a);}</style><linearGradient id="a" x1="0.5" x2="0.5" y2="1" gradientUnits="objectBoundingBox"><stop offset="0" stop-color="#f9b700"/><stop offset="1" stop-color="#ca6717"/><stop offset="1" stop-color="#b86821"/></linearGradient></defs><g transform="translate(-500.001 248)"><path class="a" d="M40,10.348V36.331a.336.336,0,0,1-.341.335H33.673a.336.336,0,0,1-.341-.335V20a.6.6,0,0,1,.165-.553,9.34,9.34,0,0,0,1.9-2.093c.153-.223.047-.294-.159-.106A16.02,16.02,0,0,1,33.621,18.5c-.288.194-.288-.171-.288-.171V10.348a.341.341,0,0,1,.341-.341H39.66a.341.341,0,0,1,.341.341m-8.339,9.143V.335A.335.335,0,0,0,31.327,0H25.335A.335.335,0,0,0,25,.335V21.873a.244.244,0,0,0,.323.247,31.357,31.357,0,0,0,6.145-2.246.462.462,0,0,0,.194-.382M25,23.989v5.674a.331.331,0,0,0,.335.335h5.992a.331.331,0,0,0,.335-.335V21.22s0-.37-.282-.194c-1.847,1.152-3.811,2.4-6.092,2.64a.326.326,0,0,0-.288.323m-1.67-1.876V13.67a.331.331,0,0,0-.335-.335H17a.335.335,0,0,0-.335.335v8.443a.345.345,0,0,0,.323.347,37.8,37.8,0,0,0,6.051-.006.338.338,0,0,0,.294-.341m-6.669,2.252V36.331a.335.335,0,0,0,.335.335h6a.331.331,0,0,0,.335-.335V24.219s0-.282-.329-.223A21.49,21.49,0,0,1,17.014,24c-.453-.047-.353.365-.353.365M4.635,17.128a20.179,20.179,0,0,0,1.752,1.388c.271.2.271-.182.271-.182V7.009a.34.34,0,0,0-.335-.341H.336A.333.333,0,0,0,0,7.009V29.663A.328.328,0,0,0,.336,30H6.323a.335.335,0,0,0,.335-.335V19.915a.788.788,0,0,0-.229-.529,12.373,12.373,0,0,1-1.882-2.117c-.129-.194-.082-.288.088-.141" transform="translate(500 -248)"/><path class="b" d="M1.417,21.144V39.671A.333.333,0,0,0,1.746,40h6.01a.329.329,0,0,0,.329-.329V24.131a.436.436,0,0,0-.365-.482,24.046,24.046,0,0,1-6.034-2.634.248.248,0,0,0-.135-.047c-.135,0-.135.176-.135.176M1.746,0a.333.333,0,0,0-.329.329V19.468s0,.318.218.412A37.538,37.538,0,0,0,7.68,22.1c.323.082.406-.3.406-.3V.329A.329.329,0,0,0,7.756,0Z" transform="translate(506.911 -248)"/></g></svg>