<svg width="12" height="16" viewBox="0 0 12 16" fill="none" xmlns="http://www.w3.org/2000/svg">
<path d="M6 4.93426C6 4.53491 6.44507 4.29672 6.77735 4.51823L11.376 7.58398C11.6728 7.78189 11.6728 8.21811 11.376 8.41603L6.77735 11.4818C6.44507 11.7033 6 11.4651 6 11.0657V4.93426Z" fill="#C36800"/>
<path d="M0 0.934258C0 0.534911 0.445073 0.296715 0.77735 0.518233L5.37596 3.58398C5.67283 3.78189 5.67283 4.21811 5.37596 4.41603L0.77735 7.48177C0.445072 7.70329 0 7.46509 0 7.06574V0.934258Z" fill="#C36800"/>
<path d="M0 8.93426C0 8.53491 0.445073 8.29672 0.77735 8.51823L5.37596 11.584C5.67283 11.7819 5.67283 12.2181 5.37596 12.416L0.77735 15.4818C0.445072 15.7033 0 15.4651 0 15.0657V8.93426Z" fill="#C36800"/>
</svg>
