<svg width="80" height="80" viewBox="0 0 80 80" fill="none" xmlns="http://www.w3.org/2000/svg">
<path d="M60.6844 -0.00146484V11.0351V16.55V19.3108H79.9967V16.55V11.0351V-0.00146484H60.6844ZM77.2359 5.51349V11.0351V16.55H63.4452V11.0351V2.75932H77.2359V5.51349ZM13.7907 13.7959H5.51496V11.0351V5.51349H13.7907V11.0351V13.7959ZM33.103 5.51349H38.618V2.75932H41.3787V-0.00146484H55.1694V2.75932H52.4153V5.51349H55.1694V8.27428H52.4087V5.52011H49.6545V2.75932H44.1329V5.51349H44.1395V8.27428H49.6479V11.0351H44.1329V8.27428H33.103V5.51349ZM24.8272 11.0351H22.0665V8.27428H24.8272V5.52011H22.0665V-0.00146484H24.8272V5.51349H27.5814V-0.00146484H35.8572V2.75932H33.0964V5.52011H30.3422V8.27428H27.5814V11.0351H27.588V13.7959H24.8272V11.0351ZM74.4817 13.7959H66.206V11.0351V5.51349H74.4817V11.0351V13.7959ZM19.3123 16.55V11.0351V2.75932V-0.00146484H0V11.0351V16.55V19.3108H19.3123V16.55ZM16.5515 5.51349V11.0351V16.55H2.76079V11.0351V2.75932H16.5515V5.51349ZM2.76079 24.8258H0V22.065H2.76079V24.8258ZM16.5515 24.8258V27.5866H13.7907V22.065H22.0665V16.55H24.8272V22.0716H22.0665V24.8258H16.5515ZM71.7209 24.8258H68.9602V22.065H71.7209V24.8258ZM74.4817 22.065H79.9967V27.5866H77.2359V24.8258H74.4817V22.065ZM24.8272 27.5866V30.3474H27.5814V38.6231H30.3422V41.3773H33.103V38.6231H38.618V35.8623H35.8638V33.1015H44.1329V35.8623H46.8937V38.6231H49.6545V44.1381H52.4153V41.3773H55.1694V30.3407H52.4087V27.5866H57.9302V24.8258H52.4087V22.0716H57.9236V19.3108H57.9302V16.55V13.7892H55.1694V11.0351H52.4087V13.7892H46.8937V16.55H44.1329V19.3108H46.8937V16.55H49.6545V19.3108H52.4087V22.065H49.6545V19.3108H46.8937V22.065H44.1329V24.8258H41.3787V27.5866H38.618V30.3407H35.8638V24.8258H41.3721V19.3108H41.3787V16.55V13.7892H38.618V16.55V19.3108H35.8638V16.55V13.7959H38.618V11.0351H35.8572V13.7892H33.103V11.0351H30.3422V13.7959H33.103V16.55V19.3108H35.8572V24.8258H33.103V38.6165H30.3422V30.3407H27.588V27.5866H30.3422V24.8258H33.0964V19.3108H30.3422V16.55H27.5814V24.8258H22.0665V27.5866H24.8272ZM52.4153 16.55H55.1694V19.3108H52.4153V16.55ZM44.1329 27.5866H46.8937V24.8258H49.6545V27.5866H46.8937V30.3474H49.6545V33.1015H52.4087V35.8623H49.6479V33.1015H44.1395V30.3407H44.1329V27.5866ZM71.7209 27.5866H77.2359V30.3474H71.7209V27.5866ZM2.76079 33.1015H5.51496V35.8623H0V27.5866H2.76079V33.1015ZM11.0299 30.3474V33.1015H5.51496V22.065H11.0299V30.3474ZM57.9302 30.3407H60.691V33.1015H57.9302V30.3407ZM68.9602 30.3474V33.1015H63.4452V27.5866H60.6844V22.065H63.4452V24.8258H68.9602V30.3474ZM77.2359 30.3407H79.9967V33.1015H77.2359V30.3407ZM74.4751 35.8623H79.9967V41.3773H77.2425V44.1381H74.4817V41.3773H71.7209V35.8623H68.9602V33.1015H74.4751V35.8623ZM66.1994 35.8623V38.6165H68.9602V44.1381H63.4452V38.6231H60.691V41.3773H57.9302V38.6165H60.6844V35.8623H66.1994ZM41.3787 38.6165V41.3773H38.618V38.6165H41.3787ZM2.76079 41.3773H13.7907V44.1381H16.5515V41.3773H22.0665V38.6231H24.8206V35.8623H22.0665V33.1015H24.8206V30.3407H22.0665V27.5866H16.5515V30.3407H13.7907V33.1015H11.0299V35.8623H8.27575V38.6165H2.75417V41.3773H0V44.1381H2.76079V41.3773ZM16.5515 30.3474H19.3057V33.1015H16.5515V30.3474ZM13.7907 35.8623H19.3057V38.6165H13.7907V35.8623ZM27.5814 44.1381H22.0665V41.3773H27.5814V44.1381ZM33.103 44.1381V41.3773H38.618V44.1381H33.103ZM41.3787 44.1381V41.3773H44.1395V44.1381H41.3787ZM16.5515 46.8989V49.653H19.3057V52.4138H13.7907V46.8989H11.0299V44.1381H19.3057V46.8989H16.5515ZM2.76079 52.4138H0V49.653H2.75417V44.1381H8.26913V46.8989H5.51496V49.653H2.76079V52.4138ZM24.8272 52.4138V49.653H22.0665V44.1381H24.8272V46.8922H27.5814V49.653H27.588V52.4138H24.8272ZM33.103 52.4138V49.653H35.8572V46.8989H33.103V49.653H30.3422V44.1381H35.8572V46.8922H38.618V49.653H35.8638V52.4138H33.103ZM5.51496 52.4138V49.653H11.0299V52.4138H8.27575V55.1746H5.51496V57.9288H2.75417V55.168H5.51496V52.4138ZM19.3123 60.6896H0V80.0018H19.3123V77.2411V63.4437V60.6896ZM16.5515 66.2045V77.2411H2.76079V63.4504H16.5515V66.2045ZM27.5814 63.4504V60.6896H30.3422V57.9288H27.5814V55.168H13.7907V57.9288H22.0665V66.2045H24.8272V63.4504H27.5814ZM24.8272 57.9288H27.5814V60.6896H24.8272V57.9288ZM44.1329 60.6896H46.8937V63.4437H49.6479V66.2045H44.1329V60.6896ZM63.4452 63.4504H60.6844V60.6896H63.4452V63.4504ZM77.2425 63.4504V60.6896H79.9967V57.9288H74.4751V55.1746H74.4817V49.653H77.2359V46.8989H77.2425V44.1381H74.4817V46.8922H71.7209V44.1381H66.206V46.8922H63.4452V49.653H57.9302V46.8989H60.6844V44.1381H52.4087V46.8989H55.1694V52.4138H49.6545V46.8922H46.8937V52.4138H41.3787V57.9288H38.618V55.168H35.8572V60.6896H30.3422V66.2045H33.103V71.7261H38.618V74.4803H33.103V77.2411H35.8572V80.0018H49.6479V77.2411H46.8937V71.7261H49.6479V68.9653H44.1329V71.7195H41.3787V68.9653H44.1329V66.2045H38.618V68.9653H35.8638V66.2045H35.8572V63.4504H38.618V60.6896H44.1329V57.9288H44.1395V55.1746H52.4087V57.9288H46.8937V60.6896H49.6545V63.4504H55.1694V68.9653H52.4087V71.7261H60.6844V68.9653H66.206V71.7195H63.4452V74.4803H60.6844V77.2411H66.1994V74.4803H66.206V71.7261H71.7209V68.9653H68.9602V66.2045H71.7209V60.6896H74.4817V66.2045H71.7209V68.9653H74.4817V71.7195H71.7209V74.4803H74.4817V71.7261H77.2359V74.4803H74.4817V80.0018H77.2425V74.4803H79.9967V71.7195H77.2425V68.9653H79.9967V66.2045H77.2425V63.4504ZM41.3787 74.4803H44.1329V77.2411H41.3787V74.4803ZM66.206 60.6896V66.2045H57.9302V57.9288H66.206V60.6896ZM71.7209 52.4138V55.168H60.691V52.4138H66.206V46.8989H68.9602V49.653H71.7209V52.4138ZM13.7907 74.4803H5.51496V66.2045H13.7907V74.4803ZM30.3422 77.2411H33.103V80.0018H22.0665V77.2411H24.8272V74.4803H27.5814V71.7261H24.8272V74.4803H22.0665V68.9653H24.8272V66.2045H27.588V68.9653H30.3422V71.7195H33.0964V74.4803H30.3422V77.2411ZM55.1694 74.4803H57.9302V77.2411H57.9236V80.0018H52.4087V77.2411H55.1694V74.4803ZM68.9602 74.4803H71.7209V80.0018H68.9602V74.4803Z" fill="#403B35"/>
</svg>
